<svg class="railroad" viewBox="0 0 1024 66" xmlns="http://www.w3.org/2000/svg" xmlns:xlink="http://www.w3.org/1999/xlink">
<style type="text/css">

    svg.railroad {
        background-color: hsl(30, 20%, 95%);
        background-size: 15px 15px;
        background-image: linear-gradient(to right, rgba(30, 30, 30, .05) 1px, transparent 1px),
                          linear-gradient(to bottom, rgba(30, 30, 30, .05) 1px, transparent 1px);
    }

    svg.railroad path {
        stroke-width: 3px;
        stroke: black;
        fill: transparent;
    }

    svg.railroad .debug {
        stroke-width: 1px;
        stroke: red;
    }

    svg.railroad text {
        font: 14px monospace;
        text-anchor: middle;
    }

    svg.railroad .nonterminal text {
        font-weight: bold;
    }

    svg.railroad text.comment {
        font: italic 12px monospace;
    }

    svg.railroad rect {
        stroke-width: 3px;
        stroke: black;
        fill:hsl(-290, 70%, 90%);
    }

    svg.railroad g.labeledbox > rect {
        stroke-width: 1px;
        stroke: grey;
        stroke-dasharray: 5px;
        fill:rgba(90, 90, 150, .1);
    }</style>
<g class="sequence">
<g class="nonterminal">
<rect height="22" width="212" x="10" y="10"/>
<text x="116" y="26">
identification_division</text>
</g>
<g class="choice">
<path d=" M 232 21 h 24 m 188 0 h 24"/>
<g class="nonterminal">
<rect height="22" width="188" x="256" y="10"/>
<text x="350" y="26">
environment_division</text>
</g>
<path d=" M 232 21 a 12 12 0 0 1 12 12 v 9 m 212 0 v -9 a 12 12 0 0 1 12 -12"/>
<path d=" M 244 42 v 0 a 12 12 0 0 0 12 12 m 0 0 h 188 m -91 0 l -5 -5 m 0 10 l 5 -5 m 91 0 a 12 12 0 0 0 12 -12 v 0"/>
<g/>
</g>
<g class="choice">
<path d=" M 478 21 h 24 m 124 0 h 24"/>
<g class="nonterminal">
<rect height="22" width="124" x="502" y="10"/>
<text x="564" y="26">
data_division</text>
</g>
<path d=" M 478 21 a 12 12 0 0 1 12 12 v 9 m 148 0 v -9 a 12 12 0 0 1 12 -12"/>
<path d=" M 490 42 v 0 a 12 12 0 0 0 12 12 m 0 0 h 124 m -59 0 l -5 -5 m 0 10 l 5 -5 m 59 0 a 12 12 0 0 0 12 -12 v 0"/>
<g/>
</g>
<g class="choice">
<path d=" M 660 21 h 24 m 164 0 h 24"/>
<g class="nonterminal">
<rect height="22" width="164" x="684" y="10"/>
<text x="766" y="26">
procedure_division</text>
</g>
<path d=" M 660 21 a 12 12 0 0 1 12 12 v 9 m 188 0 v -9 a 12 12 0 0 1 12 -12"/>
<path d=" M 672 42 v 0 a 12 12 0 0 0 12 12 m 0 0 h 164 m -79 0 l -5 -5 m 0 10 l 5 -5 m 79 0 a 12 12 0 0 0 12 -12 v 0"/>
<g/>
</g>
<g class="repeat">
<path d=" M 882 21 h 12 m 0 0 h 120 m -57 0 l -5 -5 m 0 10 l 5 -5 m 57 0 m -12 0 a 12 12 0 0 1 12 12 v 0 a 12 12 0 0 1 -12 12 m -108 0 h 0 a 12 12 0 0 1 -12 -12 v 0 a 12 12 0 0 1 12 -12"/>
<g class="nonterminal">
<rect height="22" width="108" x="894" y="34"/>
<text x="948" y="50">
end_program</text>
</g>
<g/>
</g>
<path d=" M 222 21 h 10"/>
<path d=" M 468 21 h 10"/>
<path d=" M 650 21 h 10"/>
<path d=" M 872 21 h 10"/>
</g>
</svg>
