<svg class="railroad" viewBox="0 0 468 64" xmlns="http://www.w3.org/2000/svg" xmlns:xlink="http://www.w3.org/1999/xlink">
<style type="text/css">

    svg.railroad {
        background-color: hsl(30, 20%, 95%);
        background-size: 15px 15px;
        background-image: linear-gradient(to right, rgba(30, 30, 30, .05) 1px, transparent 1px),
                          linear-gradient(to bottom, rgba(30, 30, 30, .05) 1px, transparent 1px);
    }

    svg.railroad path {
        stroke-width: 3px;
        stroke: black;
        fill: transparent;
    }

    svg.railroad .debug {
        stroke-width: 1px;
        stroke: red;
    }

    svg.railroad text {
        font: 14px monospace;
        text-anchor: middle;
    }

    svg.railroad .nonterminal text {
        font-weight: bold;
    }

    svg.railroad text.comment {
        font: italic 12px monospace;
    }

    svg.railroad rect {
        stroke-width: 3px;
        stroke: black;
        fill:hsl(-290, 70%, 90%);
    }

    svg.railroad g.labeledbox > rect {
        stroke-width: 1px;
        stroke: grey;
        stroke-dasharray: 5px;
        fill:rgba(90, 90, 150, .1);
    }</style>
<g class="sequence">
<g class="nonterminal">
<rect height="22" width="148" x="10" y="10"/>
<text x="84" y="26">
_OBJECT_COMPUTER</text>
</g>
<g class="terminal">
<rect height="22" rx="10" ry="10" width="28" x="168" y="10"/>
<text x="182" y="26">
.</text>
</g>
<g class="choice">
<path d=" M 206 21 h 24 m 204 0 h 24"/>
<g class="nonterminal">
<rect height="22" width="204" x="230" y="10"/>
<text x="332" y="26">
_object_computer_entry</text>
</g>
<path d=" M 206 21 a 12 12 0 0 1 12 12 v 9 m 228 0 v -9 a 12 12 0 0 1 12 -12"/>
<path d=" M 218 42 v 0 a 12 12 0 0 0 12 12 m 0 0 h 204 m -99 0 l -5 -5 m 0 10 l 5 -5 m 99 0 a 12 12 0 0 0 12 -12 v 0"/>
<g/>
</g>
<path d=" M 158 21 h 10"/>
<path d=" M 196 21 h 10"/>
</g>
</svg>
