<svg class="railroad" viewBox="0 0 324 172" xmlns="http://www.w3.org/2000/svg" xmlns:xlink="http://www.w3.org/1999/xlink">
<style type="text/css">

    svg.railroad {
        background-color: hsl(30, 20%, 95%);
        background-size: 15px 15px;
        background-image: linear-gradient(to right, rgba(30, 30, 30, .05) 1px, transparent 1px),
                          linear-gradient(to bottom, rgba(30, 30, 30, .05) 1px, transparent 1px);
    }

    svg.railroad path {
        stroke-width: 3px;
        stroke: black;
        fill: transparent;
    }

    svg.railroad .debug {
        stroke-width: 1px;
        stroke: red;
    }

    svg.railroad text {
        font: 14px monospace;
        text-anchor: middle;
    }

    svg.railroad .nonterminal text {
        font-weight: bold;
    }

    svg.railroad text.comment {
        font: italic 12px monospace;
    }

    svg.railroad rect {
        stroke-width: 3px;
        stroke: black;
        fill:hsl(-290, 70%, 90%);
    }

    svg.railroad g.labeledbox > rect {
        stroke-width: 1px;
        stroke: grey;
        stroke-dasharray: 5px;
        fill:rgba(90, 90, 150, .1);
    }</style>
<g class="choice">
<path d=" M 10 21 h 24 m 90 0 h 190 m -92 0 l -5 -5 m 0 10 l 5 -5 m 92 0"/>
<g class="sequence">
<g class="nonterminal">
<rect height="22" width="52" x="34" y="10"/>
<text x="60" y="26">
WORD</text>
</g>
<g class="terminal">
<rect height="22" rx="10" ry="10" width="28" x="96" y="10"/>
<text x="110" y="26">
.</text>
</g>
<path d=" M 86 21 h 10"/>
</g>
<path d=" M 10 21 a 12 12 0 0 1 12 12 v 9 m 280 0 v -9 a 12 12 0 0 1 12 -12"/>
<path d=" M 22 42 v 65 m 0 -29 l -5 -5 m 10 0 l -5 5 m 0 29 m 280 0 v -65 m 0 35 l -5 5 m 10 0 l -5 -5 m 0 -35"/>
<path d=" M 22 42 v 0 a 12 12 0 0 0 12 12 m 256 0 h 0 a 12 12 0 0 0 12 -12 v 0"/>
<g class="sequence">
<g class="nonterminal">
<rect height="22" width="52" x="34" y="43"/>
<text x="60" y="59">
WORD</text>
</g>
<g class="repeat">
<path d=" M 96 54 h 12 m 132 0 h 12 m -12 0 a 12 12 0 0 1 12 12 v 8 a 12 12 0 0 1 -12 12 m -132 0 h 0 a 12 12 0 0 1 -12 -12 v -8 a 12 12 0 0 1 12 -12"/>
<g class="nonterminal">
<rect height="22" width="132" x="108" y="75"/>
<text x="174" y="91">
_object_clause</text>
</g>
<g class="nonterminal">
<rect height="22" width="132" x="108" y="43"/>
<text x="174" y="59">
_object_clause</text>
</g>
</g>
<g class="terminal">
<rect height="22" rx="10" ry="10" width="28" x="262" y="43"/>
<text x="276" y="59">
.</text>
</g>
<path d=" M 86 54 h 10"/>
<path d=" M 252 54 h 10"/>
</g>
<path d=" M 22 107 v 0 a 12 12 0 0 0 12 12 m 194 0 h 62 m -28 0 l -5 -5 m 0 10 l 5 -5 m 28 0 a 12 12 0 0 0 12 -12 v 0"/>
<g class="sequence">
<g class="repeat">
<path d=" M 34 119 h 12 m 132 0 h 12 m -12 0 a 12 12 0 0 1 12 12 v 8 a 12 12 0 0 1 -12 12 m -132 0 h 0 a 12 12 0 0 1 -12 -12 v -8 a 12 12 0 0 1 12 -12"/>
<g class="nonterminal">
<rect height="22" width="132" x="46" y="140"/>
<text x="112" y="156">
_object_clause</text>
</g>
<g class="nonterminal">
<rect height="22" width="132" x="46" y="108"/>
<text x="112" y="124">
_object_clause</text>
</g>
</g>
<g class="terminal">
<rect height="22" rx="10" ry="10" width="28" x="200" y="108"/>
<text x="214" y="124">
.</text>
</g>
<path d=" M 190 119 h 10"/>
</g>
</g>
</svg>
