<svg class="railroad" viewBox="0 0 340 108" xmlns="http://www.w3.org/2000/svg" xmlns:xlink="http://www.w3.org/1999/xlink">
<style type="text/css">

    svg.railroad {
        background-color: hsl(30, 20%, 95%);
        background-size: 15px 15px;
        background-image: linear-gradient(to right, rgba(30, 30, 30, .05) 1px, transparent 1px),
                          linear-gradient(to bottom, rgba(30, 30, 30, .05) 1px, transparent 1px);
    }

    svg.railroad path {
        stroke-width: 3px;
        stroke: black;
        fill: transparent;
    }

    svg.railroad .debug {
        stroke-width: 1px;
        stroke: red;
    }

    svg.railroad text {
        font: 14px monospace;
        text-anchor: middle;
    }

    svg.railroad .nonterminal text {
        font-weight: bold;
    }

    svg.railroad text.comment {
        font: italic 12px monospace;
    }

    svg.railroad rect {
        stroke-width: 3px;
        stroke: black;
        fill:hsl(-290, 70%, 90%);
    }

    svg.railroad g.labeledbox > rect {
        stroke-width: 1px;
        stroke: grey;
        stroke-dasharray: 5px;
        fill:rgba(90, 90, 150, .1);
    }</style>
<g class="choice">
<path d=" M 10 21 h 24 m 90 0 h 206 m -100 0 l -5 -5 m 0 10 l 5 -5 m 100 0"/>
<g class="sequence">
<g class="nonterminal">
<rect height="22" width="52" x="34" y="10"/>
<text x="60" y="26">
WORD</text>
</g>
<g class="terminal">
<rect height="22" rx="10" ry="10" width="28" x="96" y="10"/>
<text x="110" y="26">
.</text>
</g>
<path d=" M 86 21 h 10"/>
</g>
<path d=" M 10 21 a 12 12 0 0 1 12 12 v 9 m 296 0 v -9 a 12 12 0 0 1 12 -12"/>
<path d=" M 22 42 v 33 m 296 0 v -33"/>
<path d=" M 22 42 v 0 a 12 12 0 0 0 12 12 m 272 0 h 0 a 12 12 0 0 0 12 -12 v 0"/>
<g class="sequence">
<g class="nonterminal">
<rect height="22" width="52" x="34" y="43"/>
<text x="60" y="59">
WORD</text>
</g>
<g class="nonterminal">
<rect height="22" width="172" x="96" y="43"/>
<text x="182" y="59">
with_debugging_mode</text>
</g>
<g class="terminal">
<rect height="22" rx="10" ry="10" width="28" x="278" y="43"/>
<text x="292" y="59">
.</text>
</g>
<path d=" M 86 54 h 10"/>
<path d=" M 268 54 h 10"/>
</g>
<path d=" M 22 75 v 0 a 12 12 0 0 0 12 12 m 210 0 h 62 m -28 0 l -5 -5 m 0 10 l 5 -5 m 28 0 a 12 12 0 0 0 12 -12 v 0"/>
<g class="sequence">
<g class="nonterminal">
<rect height="22" width="172" x="34" y="76"/>
<text x="120" y="92">
with_debugging_mode</text>
</g>
<g class="terminal">
<rect height="22" rx="10" ry="10" width="28" x="216" y="76"/>
<text x="230" y="92">
.</text>
</g>
<path d=" M 206 87 h 10"/>
</g>
</g>
</svg>
