<svg class="railroad" viewBox="0 0 426 88" xmlns="http://www.w3.org/2000/svg" xmlns:xlink="http://www.w3.org/1999/xlink">
<style type="text/css">

    svg.railroad {
        background-color: hsl(30, 20%, 95%);
        background-size: 15px 15px;
        background-image: linear-gradient(to right, rgba(30, 30, 30, .05) 1px, transparent 1px),
                          linear-gradient(to bottom, rgba(30, 30, 30, .05) 1px, transparent 1px);
    }

    svg.railroad path {
        stroke-width: 3px;
        stroke: black;
        fill: transparent;
    }

    svg.railroad .debug {
        stroke-width: 1px;
        stroke: red;
    }

    svg.railroad text {
        font: 14px monospace;
        text-anchor: middle;
    }

    svg.railroad .nonterminal text {
        font-weight: bold;
    }

    svg.railroad text.comment {
        font: italic 12px monospace;
    }

    svg.railroad rect {
        stroke-width: 3px;
        stroke: black;
        fill:hsl(-290, 70%, 90%);
    }

    svg.railroad g.labeledbox > rect {
        stroke-width: 1px;
        stroke: grey;
        stroke-dasharray: 5px;
        fill:rgba(90, 90, 150, .1);
    }</style>
<g class="sequence">
<g class="nonterminal">
<rect height="22" width="132" x="10" y="10"/>
<text x="76" y="26">
_SPECIAL_NAMES</text>
</g>
<g class="terminal">
<rect height="22" rx="10" ry="10" width="28" x="152" y="10"/>
<text x="166" y="26">
.</text>
</g>
<g class="repeat">
<path d=" M 190 21 h 12 m 0 0 h 214 m -104 0 l -5 -5 m 0 10 l 5 -5 m 104 0 m -12 0 a 12 12 0 0 1 12 12 v 0 a 12 12 0 0 1 -12 12 m -202 0 h 0 a 12 12 0 0 1 -12 -12 v 0 a 12 12 0 0 1 12 -12"/>
<g class="sequence">
<g class="nonterminal">
<rect height="22" width="116" x="202" y="34"/>
<text x="260" y="50">
special_name</text>
</g>
<g class="choice">
<path d=" M 328 45 h 24 m 28 0 h 24"/>
<g class="terminal">
<rect height="22" rx="10" ry="10" width="28" x="352" y="34"/>
<text x="366" y="50">
.</text>
</g>
<path d=" M 328 45 a 12 12 0 0 1 12 12 v 9 m 52 0 v -9 a 12 12 0 0 1 12 -12"/>
<path d=" M 340 66 v 0 a 12 12 0 0 0 12 12 m 0 0 h 28 a 12 12 0 0 0 12 -12 v 0"/>
<g/>
</g>
<path d=" M 318 45 h 10"/>
</g>
<g/>
</g>
<path d=" M 142 21 h 10"/>
<path d=" M 180 21 h 10"/>
</g>
</svg>
