<svg class="railroad" viewBox="0 0 428 99" xmlns="http://www.w3.org/2000/svg" xmlns:xlink="http://www.w3.org/1999/xlink">
<style type="text/css">

    svg.railroad {
        background-color: hsl(30, 20%, 95%);
        background-size: 15px 15px;
        background-image: linear-gradient(to right, rgba(30, 30, 30, .05) 1px, transparent 1px),
                          linear-gradient(to bottom, rgba(30, 30, 30, .05) 1px, transparent 1px);
    }

    svg.railroad path {
        stroke-width: 3px;
        stroke: black;
        fill: transparent;
    }

    svg.railroad .debug {
        stroke-width: 1px;
        stroke: red;
    }

    svg.railroad text {
        font: 14px monospace;
        text-anchor: middle;
    }

    svg.railroad .nonterminal text {
        font-weight: bold;
    }

    svg.railroad text.comment {
        font: italic 12px monospace;
    }

    svg.railroad rect {
        stroke-width: 3px;
        stroke: black;
        fill:hsl(-290, 70%, 90%);
    }

    svg.railroad g.labeledbox > rect {
        stroke-width: 1px;
        stroke: grey;
        stroke-dasharray: 5px;
        fill:rgba(90, 90, 150, .1);
    }</style>
<g class="choice">
<path d=" M 10 21 h 24 m 360 0 h 24"/>
<g class="sequence">
<g class="nonterminal">
<rect height="22" width="132" x="34" y="10"/>
<text x="100" y="26">
_alphabet_lits</text>
</g>
<g class="repeat">
<path d=" M 176 21 h 12 m 0 0 h 206 m -100 0 l -5 -5 m 0 10 l 5 -5 m 100 0 m -12 0 a 12 12 0 0 1 12 12 v 0 a 12 12 0 0 1 -12 12 m -194 0 h 0 a 12 12 0 0 1 -12 -12 v 0 a 12 12 0 0 1 12 -12"/>
<g class="sequence">
<g class="nonterminal">
<rect height="22" width="52" x="188" y="34"/>
<text x="214" y="50">
ALSO</text>
</g>
<g class="nonterminal">
<rect height="22" width="132" x="250" y="34"/>
<text x="316" y="50">
_alphabet_lits</text>
</g>
<path d=" M 240 45 h 10"/>
</g>
<g/>
</g>
<path d=" M 166 21 h 10"/>
</g>
<path d=" M 10 21 a 12 12 0 0 1 12 12 v 33 m 384 0 v -33 a 12 12 0 0 1 12 -12"/>
<path d=" M 22 66 v 0 a 12 12 0 0 0 12 12 m 336 0 h 24 a 12 12 0 0 0 12 -12 v 0"/>
<g class="sequence">
<g class="nonterminal">
<rect height="22" width="132" x="34" y="67"/>
<text x="100" y="83">
_alphabet_lits</text>
</g>
<g class="nonterminal">
<rect height="22" width="52" x="176" y="67"/>
<text x="202" y="83">
THRU</text>
</g>
<g class="nonterminal">
<rect height="22" width="132" x="238" y="67"/>
<text x="304" y="83">
_alphabet_lits</text>
</g>
<path d=" M 166 78 h 10"/>
<path d=" M 228 78 h 10"/>
</g>
</g>
</svg>
