<svg class="railroad" viewBox="0 0 632 97" xmlns="http://www.w3.org/2000/svg" xmlns:xlink="http://www.w3.org/1999/xlink">
<style type="text/css">

    svg.railroad {
        background-color: hsl(30, 20%, 95%);
        background-size: 15px 15px;
        background-image: linear-gradient(to right, rgba(30, 30, 30, .05) 1px, transparent 1px),
                          linear-gradient(to bottom, rgba(30, 30, 30, .05) 1px, transparent 1px);
    }

    svg.railroad path {
        stroke-width: 3px;
        stroke: black;
        fill: transparent;
    }

    svg.railroad .debug {
        stroke-width: 1px;
        stroke: red;
    }

    svg.railroad text {
        font: 14px monospace;
        text-anchor: middle;
    }

    svg.railroad .nonterminal text {
        font-weight: bold;
    }

    svg.railroad text.comment {
        font: italic 12px monospace;
    }

    svg.railroad rect {
        stroke-width: 3px;
        stroke: black;
        fill:hsl(-290, 70%, 90%);
    }

    svg.railroad g.labeledbox > rect {
        stroke-width: 1px;
        stroke: grey;
        stroke-dasharray: 5px;
        fill:rgba(90, 90, 150, .1);
    }</style>
<g class="sequence">
<g class="nonterminal">
<rect height="22" width="92" x="10" y="10"/>
<text x="56" y="26">
_SYMBOLIC</text>
</g>
<g class="choice">
<path d=" M 112 21 h 24 m 108 0 h 24"/>
<g class="nonterminal">
<rect height="22" width="108" x="136" y="10"/>
<text x="190" y="26">
_CHARACTERS</text>
</g>
<path d=" M 112 21 a 12 12 0 0 1 12 12 v 9 m 132 0 v -9 a 12 12 0 0 1 12 -12"/>
<path d=" M 124 42 v 0 a 12 12 0 0 0 12 12 m 0 0 h 108 m -51 0 l -5 -5 m 0 10 l 5 -5 m 51 0 a 12 12 0 0 0 12 -12 v 0"/>
<g/>
</g>
<g class="repeat">
<path d=" M 278 21 h 12 m 52 0 h 12 m -12 0 a 12 12 0 0 1 12 12 v 8 a 12 12 0 0 1 -12 12 m -52 0 h 0 a 12 12 0 0 1 -12 -12 v -8 a 12 12 0 0 1 12 -12"/>
<g class="nonterminal">
<rect height="22" width="52" x="290" y="42"/>
<text x="316" y="58">
WORD</text>
</g>
<g class="nonterminal">
<rect height="22" width="52" x="290" y="10"/>
<text x="316" y="26">
WORD</text>
</g>
</g>
<g class="choice">
<path d=" M 364 21 h 24 m 100 0 h 24"/>
<g class="choice">
<path d=" M 388 21 h 24 m 44 0 h 32"/>
<g class="nonterminal">
<rect height="22" width="44" x="412" y="10"/>
<text x="434" y="26">
_IS</text>
</g>
<path d=" M 388 21 a 12 12 0 0 1 12 12 v 9 m 76 0 v -9 a 12 12 0 0 1 12 -12"/>
<path d=" M 400 42 v 0 a 12 12 0 0 0 12 12 m 52 0 h 0 a 12 12 0 0 0 12 -12 v 0"/>
<g class="nonterminal">
<rect height="22" width="52" x="412" y="43"/>
<text x="438" y="59">
_ARE</text>
</g>
</g>
<path d=" M 364 21 a 12 12 0 0 1 12 12 v 42 m 124 0 v -42 a 12 12 0 0 1 12 -12"/>
<path d=" M 376 75 v 0 a 12 12 0 0 0 12 12 m 0 0 h 100 m -47 0 l -5 -5 m 0 10 l 5 -5 m 47 0 a 12 12 0 0 0 12 -12 v 0"/>
<g/>
</g>
<g class="repeat">
<path d=" M 522 21 h 12 m 76 0 h 12 m -12 0 a 12 12 0 0 1 12 12 v 8 a 12 12 0 0 1 -12 12 m -76 0 h 0 a 12 12 0 0 1 -12 -12 v -8 a 12 12 0 0 1 12 -12"/>
<g class="nonterminal">
<rect height="22" width="76" x="534" y="42"/>
<text x="572" y="58">
integer</text>
</g>
<g class="nonterminal">
<rect height="22" width="76" x="534" y="10"/>
<text x="572" y="26">
integer</text>
</g>
</g>
<path d=" M 102 21 h 10"/>
<path d=" M 268 21 h 10"/>
<path d=" M 354 21 h 10"/>
<path d=" M 512 21 h 10"/>
</g>
</svg>
