<svg class="railroad" viewBox="0 0 570 406" xmlns="http://www.w3.org/2000/svg" xmlns:xlink="http://www.w3.org/1999/xlink">
<style type="text/css">

    svg.railroad {
        background-color: hsl(30, 20%, 95%);
        background-size: 15px 15px;
        background-image: linear-gradient(to right, rgba(30, 30, 30, .05) 1px, transparent 1px),
                          linear-gradient(to bottom, rgba(30, 30, 30, .05) 1px, transparent 1px);
    }

    svg.railroad path {
        stroke-width: 3px;
        stroke: black;
        fill: transparent;
    }

    svg.railroad .debug {
        stroke-width: 1px;
        stroke: red;
    }

    svg.railroad text {
        font: 14px monospace;
        text-anchor: middle;
    }

    svg.railroad .nonterminal text {
        font-weight: bold;
    }

    svg.railroad text.comment {
        font: italic 12px monospace;
    }

    svg.railroad rect {
        stroke-width: 3px;
        stroke: black;
        fill:hsl(-290, 70%, 90%);
    }

    svg.railroad g.labeledbox > rect {
        stroke-width: 1px;
        stroke: grey;
        stroke-dasharray: 5px;
        fill:rgba(90, 90, 150, .1);
    }</style>
<g class="choice">
<path d=" M 10 21 h 24 m 216 0 h 310 m -152 0 l -5 -5 m 0 10 l 5 -5 m 152 0"/>
<g class="sequence">
<g class="nonterminal">
<rect height="22" width="52" x="34" y="10"/>
<text x="60" y="26">
WORD</text>
</g>
<g class="choice">
<path d=" M 96 21 h 24 m 44 0 h 24"/>
<g class="nonterminal">
<rect height="22" width="44" x="120" y="10"/>
<text x="142" y="26">
_IS</text>
</g>
<path d=" M 96 21 a 12 12 0 0 1 12 12 v 9 m 68 0 v -9 a 12 12 0 0 1 12 -12"/>
<path d=" M 108 42 v 0 a 12 12 0 0 0 12 12 m 0 0 h 44 a 12 12 0 0 0 12 -12 v 0"/>
<g/>
</g>
<g class="nonterminal">
<rect height="22" width="52" x="198" y="10"/>
<text x="224" y="26">
_CRT</text>
</g>
<path d=" M 86 21 h 10"/>
<path d=" M 188 21 h 10"/>
</g>
<path d=" M 10 21 a 12 12 0 0 1 12 12 v 31 m 526 0 v -31 a 12 12 0 0 1 12 -12"/>
<path d=" M 22 64 v 57 m 0 -25 l -5 -5 m 10 0 l -5 5 m 0 25 m 526 0 v -57 m 0 31 l -5 5 m 10 0 l -5 -5 m 0 -31"/>
<path d=" M 22 121 v 65 m 0 -29 l -5 -5 m 10 0 l -5 5 m 0 29 m 526 0 v -65 m 0 35 l -5 5 m 10 0 l -5 -5 m 0 -35"/>
<path d=" M 22 186 v 55 m 0 -24 l -5 -5 m 10 0 l -5 5 m 0 24 m 526 0 v -55 m 0 30 l -5 5 m 10 0 l -5 -5 m 0 -30"/>
<path d=" M 22 241 v 55 m 0 -24 l -5 -5 m 10 0 l -5 5 m 0 24 m 526 0 v -55 m 0 30 l -5 5 m 10 0 l -5 -5 m 0 -30"/>
<path d=" M 22 296 v 55 m 0 -24 l -5 -5 m 10 0 l -5 5 m 0 24 m 526 0 v -55 m 0 30 l -5 5 m 10 0 l -5 -5 m 0 -30"/>
<path d=" M 22 64 v 0 a 12 12 0 0 0 12 12 m 502 0 h 0 a 12 12 0 0 0 12 -12 v 0"/>
<g class="sequence">
<g class="nonterminal">
<rect height="22" width="52" x="34" y="65"/>
<text x="60" y="81">
WORD</text>
</g>
<g class="choice">
<path d=" M 96 76 h 24 m 44 0 h 24"/>
<g class="nonterminal">
<rect height="22" width="44" x="120" y="65"/>
<text x="142" y="81">
_IS</text>
</g>
<path d=" M 96 76 a 12 12 0 0 1 12 12 v 9 m 68 0 v -9 a 12 12 0 0 1 12 -12"/>
<path d=" M 108 97 v 0 a 12 12 0 0 0 12 12 m 0 0 h 44 a 12 12 0 0 0 12 -12 v 0"/>
<g/>
</g>
<g class="nonterminal">
<rect height="22" width="52" x="198" y="65"/>
<text x="224" y="81">
WORD</text>
</g>
<g class="repeat">
<path d=" M 260 76 h 12 m 0 0 h 264 m -129 0 l -5 -5 m 0 10 l 5 -5 m 129 0 m -12 0 a 12 12 0 0 1 12 12 v 0 a 12 12 0 0 1 -12 12 m -252 0 h 0 a 12 12 0 0 1 -12 -12 v 0 a 12 12 0 0 1 12 -12"/>
<g class="nonterminal">
<rect height="22" width="252" x="272" y="89"/>
<text x="398" y="105">
special_name_mnemonic_on_off</text>
</g>
<g/>
</g>
<path d=" M 86 76 h 10"/>
<path d=" M 188 76 h 10"/>
<path d=" M 250 76 h 10"/>
</g>
<path d=" M 22 121 v 0 a 12 12 0 0 0 12 12 m 440 0 h 62 m -28 0 l -5 -5 m 0 10 l 5 -5 m 28 0 a 12 12 0 0 0 12 -12 v 0"/>
<g class="sequence">
<g class="nonterminal">
<rect height="22" width="52" x="34" y="122"/>
<text x="60" y="138">
WORD</text>
</g>
<g class="choice">
<path d=" M 96 133 h 24 m 44 0 h 24"/>
<g class="nonterminal">
<rect height="22" width="44" x="120" y="122"/>
<text x="142" y="138">
_IS</text>
</g>
<path d=" M 96 133 a 12 12 0 0 1 12 12 v 9 m 68 0 v -9 a 12 12 0 0 1 12 -12"/>
<path d=" M 108 154 v 0 a 12 12 0 0 0 12 12 m 0 0 h 44 a 12 12 0 0 0 12 -12 v 0"/>
<g/>
</g>
<g class="repeat">
<path d=" M 198 133 h 12 m 252 0 h 12 m -12 0 a 12 12 0 0 1 12 12 v 8 a 12 12 0 0 1 -12 12 m -252 0 h 0 a 12 12 0 0 1 -12 -12 v -8 a 12 12 0 0 1 12 -12"/>
<g class="nonterminal">
<rect height="22" width="252" x="210" y="154"/>
<text x="336" y="170">
special_name_mnemonic_on_off</text>
</g>
<g class="nonterminal">
<rect height="22" width="252" x="210" y="122"/>
<text x="336" y="138">
special_name_mnemonic_on_off</text>
</g>
</g>
<path d=" M 86 133 h 10"/>
<path d=" M 188 133 h 10"/>
</g>
<path d=" M 22 186 v 0 a 12 12 0 0 0 12 12 m 312 0 h 190 m -92 0 l -5 -5 m 0 10 l 5 -5 m 92 0 a 12 12 0 0 0 12 -12 v 0"/>
<g class="sequence">
<g class="nonterminal">
<rect height="22" width="148" x="34" y="187"/>
<text x="108" y="203">
_ARGUMENT_NUMBER</text>
</g>
<g class="choice">
<path d=" M 192 198 h 24 m 44 0 h 24"/>
<g class="nonterminal">
<rect height="22" width="44" x="216" y="187"/>
<text x="238" y="203">
_IS</text>
</g>
<path d=" M 192 198 a 12 12 0 0 1 12 12 v 9 m 68 0 v -9 a 12 12 0 0 1 12 -12"/>
<path d=" M 204 219 v 0 a 12 12 0 0 0 12 12 m 0 0 h 44 a 12 12 0 0 0 12 -12 v 0"/>
<g/>
</g>
<g class="nonterminal">
<rect height="22" width="52" x="294" y="187"/>
<text x="320" y="203">
WORD</text>
</g>
<path d=" M 182 198 h 10"/>
<path d=" M 284 198 h 10"/>
</g>
<path d=" M 22 241 v 0 a 12 12 0 0 0 12 12 m 304 0 h 198 m -96 0 l -5 -5 m 0 10 l 5 -5 m 96 0 a 12 12 0 0 0 12 -12 v 0"/>
<g class="sequence">
<g class="nonterminal">
<rect height="22" width="140" x="34" y="242"/>
<text x="104" y="258">
_ARGUMENT_VALUE</text>
</g>
<g class="choice">
<path d=" M 184 253 h 24 m 44 0 h 24"/>
<g class="nonterminal">
<rect height="22" width="44" x="208" y="242"/>
<text x="230" y="258">
_IS</text>
</g>
<path d=" M 184 253 a 12 12 0 0 1 12 12 v 9 m 68 0 v -9 a 12 12 0 0 1 12 -12"/>
<path d=" M 196 274 v 0 a 12 12 0 0 0 12 12 m 0 0 h 44 a 12 12 0 0 0 12 -12 v 0"/>
<g/>
</g>
<g class="nonterminal">
<rect height="22" width="52" x="286" y="242"/>
<text x="312" y="258">
WORD</text>
</g>
<path d=" M 174 253 h 10"/>
<path d=" M 276 253 h 10"/>
</g>
<path d=" M 22 296 v 0 a 12 12 0 0 0 12 12 m 320 0 h 182 m -88 0 l -5 -5 m 0 10 l 5 -5 m 88 0 a 12 12 0 0 0 12 -12 v 0"/>
<g class="sequence">
<g class="nonterminal">
<rect height="22" width="156" x="34" y="297"/>
<text x="112" y="313">
_ENVIRONMENT_NAME</text>
</g>
<g class="choice">
<path d=" M 200 308 h 24 m 44 0 h 24"/>
<g class="nonterminal">
<rect height="22" width="44" x="224" y="297"/>
<text x="246" y="313">
_IS</text>
</g>
<path d=" M 200 308 a 12 12 0 0 1 12 12 v 9 m 68 0 v -9 a 12 12 0 0 1 12 -12"/>
<path d=" M 212 329 v 0 a 12 12 0 0 0 12 12 m 0 0 h 44 a 12 12 0 0 0 12 -12 v 0"/>
<g/>
</g>
<g class="nonterminal">
<rect height="22" width="52" x="302" y="297"/>
<text x="328" y="313">
WORD</text>
</g>
<path d=" M 190 308 h 10"/>
<path d=" M 292 308 h 10"/>
</g>
<path d=" M 22 351 v 0 a 12 12 0 0 0 12 12 m 328 0 h 174 m -84 0 l -5 -5 m 0 10 l 5 -5 m 84 0 a 12 12 0 0 0 12 -12 v 0"/>
<g class="sequence">
<g class="nonterminal">
<rect height="22" width="164" x="34" y="352"/>
<text x="116" y="368">
_ENVIRONMENT_VALUE</text>
</g>
<g class="choice">
<path d=" M 208 363 h 24 m 44 0 h 24"/>
<g class="nonterminal">
<rect height="22" width="44" x="232" y="352"/>
<text x="254" y="368">
_IS</text>
</g>
<path d=" M 208 363 a 12 12 0 0 1 12 12 v 9 m 68 0 v -9 a 12 12 0 0 1 12 -12"/>
<path d=" M 220 384 v 0 a 12 12 0 0 0 12 12 m 0 0 h 44 a 12 12 0 0 0 12 -12 v 0"/>
<g/>
</g>
<g class="nonterminal">
<rect height="22" width="52" x="310" y="352"/>
<text x="336" y="368">
WORD</text>
</g>
<path d=" M 198 363 h 10"/>
<path d=" M 300 363 h 10"/>
</g>
</g>
</svg>
