<svg class="railroad" viewBox="0 0 380 107" xmlns="http://www.w3.org/2000/svg" xmlns:xlink="http://www.w3.org/1999/xlink">
<style type="text/css">

    svg.railroad {
        background-color: hsl(30, 20%, 95%);
        background-size: 15px 15px;
        background-image: linear-gradient(to right, rgba(30, 30, 30, .05) 1px, transparent 1px),
                          linear-gradient(to bottom, rgba(30, 30, 30, .05) 1px, transparent 1px);
    }

    svg.railroad path {
        stroke-width: 3px;
        stroke: black;
        fill: transparent;
    }

    svg.railroad .debug {
        stroke-width: 1px;
        stroke: red;
    }

    svg.railroad text {
        font: 14px monospace;
        text-anchor: middle;
    }

    svg.railroad .nonterminal text {
        font-weight: bold;
    }

    svg.railroad text.comment {
        font: italic 12px monospace;
    }

    svg.railroad rect {
        stroke-width: 3px;
        stroke: black;
        fill:hsl(-290, 70%, 90%);
    }

    svg.railroad g.labeledbox > rect {
        stroke-width: 1px;
        stroke: grey;
        stroke-dasharray: 5px;
        fill:rgba(90, 90, 150, .1);
    }</style>
<g class="sequence">
<g class="nonterminal">
<rect height="22" width="92" x="10" y="10"/>
<text x="56" y="26">
_FUNCTION</text>
</g>
<g class="choice">
<path d=" M 112 21 h 24 m 100 0 h 24"/>
<g class="repeat">
<path d=" M 136 21 h 12 m 76 0 h 12 m -12 0 a 12 12 0 0 1 12 12 v 8 a 12 12 0 0 1 -12 12 m -76 0 h 0 a 12 12 0 0 1 -12 -12 v -8 a 12 12 0 0 1 12 -12"/>
<g class="nonterminal">
<rect height="22" width="76" x="148" y="42"/>
<text x="186" y="58">
LITERAL</text>
</g>
<g class="nonterminal">
<rect height="22" width="76" x="148" y="10"/>
<text x="186" y="26">
LITERAL</text>
</g>
</g>
<path d=" M 112 21 a 12 12 0 0 1 12 12 v 41 m 124 0 v -41 a 12 12 0 0 1 12 -12"/>
<path d=" M 124 74 v 0 a 12 12 0 0 0 12 12 m 44 0 h 56 m -25 0 l -5 -5 m 0 10 l 5 -5 m 25 0 a 12 12 0 0 0 12 -12 v 0"/>
<g class="nonterminal">
<rect height="22" width="44" x="136" y="75"/>
<text x="158" y="91">
ALL</text>
</g>
</g>
<g class="nonterminal">
<rect height="22" width="100" x="270" y="10"/>
<text x="320" y="26">
_INTRINSIC</text>
</g>
<path d=" M 102 21 h 10"/>
<path d=" M 260 21 h 10"/>
</g>
</svg>
