<svg class="railroad" viewBox="0 0 856 130" xmlns="http://www.w3.org/2000/svg" xmlns:xlink="http://www.w3.org/1999/xlink">
<style type="text/css">

    svg.railroad {
        background-color: hsl(30, 20%, 95%);
        background-size: 15px 15px;
        background-image: linear-gradient(to right, rgba(30, 30, 30, .05) 1px, transparent 1px),
                          linear-gradient(to bottom, rgba(30, 30, 30, .05) 1px, transparent 1px);
    }

    svg.railroad path {
        stroke-width: 3px;
        stroke: black;
        fill: transparent;
    }

    svg.railroad .debug {
        stroke-width: 1px;
        stroke: red;
    }

    svg.railroad text {
        font: 14px monospace;
        text-anchor: middle;
    }

    svg.railroad .nonterminal text {
        font-weight: bold;
    }

    svg.railroad text.comment {
        font: italic 12px monospace;
    }

    svg.railroad rect {
        stroke-width: 3px;
        stroke: black;
        fill:hsl(-290, 70%, 90%);
    }

    svg.railroad g.labeledbox > rect {
        stroke-width: 1px;
        stroke: grey;
        stroke-dasharray: 5px;
        fill:rgba(90, 90, 150, .1);
    }</style>
<g class="choice">
<path d=" M 10 21 h 24 m 788 0 h 24"/>
<g class="sequence">
<g class="nonterminal">
<rect height="22" width="124" x="34" y="10"/>
<text x="96" y="26">
_INPUT_OUTPUT</text>
</g>
<g class="nonterminal">
<rect height="22" width="84" x="168" y="10"/>
<text x="210" y="26">
_SECTION</text>
</g>
<g class="terminal">
<rect height="22" rx="10" ry="10" width="28" x="262" y="10"/>
<text x="276" y="26">
.</text>
</g>
<g class="choice">
<path d=" M 300 21 h 24 m 212 0 h 24"/>
<g class="nonterminal">
<rect height="22" width="212" x="324" y="10"/>
<text x="430" y="26">
_file_control_paragraph</text>
</g>
<path d=" M 300 21 a 12 12 0 0 1 12 12 v 9 m 236 0 v -9 a 12 12 0 0 1 12 -12"/>
<path d=" M 312 42 v 0 a 12 12 0 0 0 12 12 m 0 0 h 212 m -103 0 l -5 -5 m 0 10 l 5 -5 m 103 0 a 12 12 0 0 0 12 -12 v 0"/>
<g/>
</g>
<g class="choice">
<path d=" M 570 21 h 24 m 204 0 h 24"/>
<g class="nonterminal">
<rect height="22" width="204" x="594" y="10"/>
<text x="696" y="26">
_i_o_control_paragraph</text>
</g>
<path d=" M 570 21 a 12 12 0 0 1 12 12 v 9 m 228 0 v -9 a 12 12 0 0 1 12 -12"/>
<path d=" M 582 42 v 0 a 12 12 0 0 0 12 12 m 0 0 h 204 m -99 0 l -5 -5 m 0 10 l 5 -5 m 99 0 a 12 12 0 0 0 12 -12 v 0"/>
<g/>
</g>
<path d=" M 158 21 h 10"/>
<path d=" M 252 21 h 10"/>
<path d=" M 290 21 h 10"/>
<path d=" M 560 21 h 10"/>
</g>
<path d=" M 10 21 a 12 12 0 0 1 12 12 v 31 m 812 0 v -31 a 12 12 0 0 1 12 -12"/>
<path d=" M 22 64 v 33 m 812 0 v -33"/>
<path d=" M 22 64 v 0 a 12 12 0 0 0 12 12 m 212 0 h 576 m -285 0 l -5 -5 m 0 10 l 5 -5 m 285 0 a 12 12 0 0 0 12 -12 v 0"/>
<g class="nonterminal">
<rect height="22" width="212" x="34" y="65"/>
<text x="140" y="81">
_file_control_paragraph</text>
</g>
<path d=" M 22 97 v 0 a 12 12 0 0 0 12 12 m 204 0 h 584 m -289 0 l -5 -5 m 0 10 l 5 -5 m 289 0 a 12 12 0 0 0 12 -12 v 0"/>
<g class="nonterminal">
<rect height="22" width="204" x="34" y="98"/>
<text x="136" y="114">
_i_o_control_paragraph</text>
</g>
</g>
</svg>
