<svg class="railroad" viewBox="0 0 552 108" xmlns="http://www.w3.org/2000/svg" xmlns:xlink="http://www.w3.org/1999/xlink">
<style type="text/css">

    svg.railroad {
        background-color: hsl(30, 20%, 95%);
        background-size: 15px 15px;
        background-image: linear-gradient(to right, rgba(30, 30, 30, .05) 1px, transparent 1px),
                          linear-gradient(to bottom, rgba(30, 30, 30, .05) 1px, transparent 1px);
    }

    svg.railroad path {
        stroke-width: 3px;
        stroke: black;
        fill: transparent;
    }

    svg.railroad .debug {
        stroke-width: 1px;
        stroke: red;
    }

    svg.railroad text {
        font: 14px monospace;
        text-anchor: middle;
    }

    svg.railroad .nonterminal text {
        font-weight: bold;
    }

    svg.railroad text.comment {
        font: italic 12px monospace;
    }

    svg.railroad rect {
        stroke-width: 3px;
        stroke: black;
        fill:hsl(-290, 70%, 90%);
    }

    svg.railroad g.labeledbox > rect {
        stroke-width: 1px;
        stroke: grey;
        stroke-dasharray: 5px;
        fill:rgba(90, 90, 150, .1);
    }</style>
<g class="sequence">
<g class="nonterminal">
<rect height="22" width="60" x="10" y="10"/>
<text x="40" y="26">
_SAME</text>
</g>
<g class="choice">
<path d=" M 80 21 h 24 m 68 0 h 56 m -25 0 l -5 -5 m 0 10 l 5 -5 m 25 0"/>
<g class="nonterminal">
<rect height="22" width="68" x="104" y="10"/>
<text x="138" y="26">
RECORD</text>
</g>
<path d=" M 80 21 a 12 12 0 0 1 12 12 v 9 m 124 0 v -9 a 12 12 0 0 1 12 -12"/>
<path d=" M 92 42 v 33 m 124 0 v -33"/>
<path d=" M 92 42 v 0 a 12 12 0 0 0 12 12 m 52 0 h 48 a 12 12 0 0 0 12 -12 v 0"/>
<g class="nonterminal">
<rect height="22" width="52" x="104" y="43"/>
<text x="130" y="59">
SORT</text>
</g>
<path d=" M 92 75 v 0 a 12 12 0 0 0 12 12 m 100 0 h 0 a 12 12 0 0 0 12 -12 v 0"/>
<g class="nonterminal">
<rect height="22" width="100" x="104" y="76"/>
<text x="154" y="92">
SORT_MERGE</text>
</g>
</g>
<g class="choice">
<path d=" M 238 21 h 24 m 60 0 h 24"/>
<g class="nonterminal">
<rect height="22" width="60" x="262" y="10"/>
<text x="292" y="26">
_AREA</text>
</g>
<path d=" M 238 21 a 12 12 0 0 1 12 12 v 9 m 84 0 v -9 a 12 12 0 0 1 12 -12"/>
<path d=" M 250 42 v 0 a 12 12 0 0 0 12 12 m 0 0 h 60 m -27 0 l -5 -5 m 0 10 l 5 -5 m 27 0 a 12 12 0 0 0 12 -12 v 0"/>
<g/>
</g>
<g class="choice">
<path d=" M 356 21 h 24 m 52 0 h 24"/>
<g class="nonterminal">
<rect height="22" width="52" x="380" y="10"/>
<text x="406" y="26">
_FOR</text>
</g>
<path d=" M 356 21 a 12 12 0 0 1 12 12 v 9 m 76 0 v -9 a 12 12 0 0 1 12 -12"/>
<path d=" M 368 42 v 0 a 12 12 0 0 0 12 12 m 0 0 h 52 m -23 0 l -5 -5 m 0 10 l 5 -5 m 23 0 a 12 12 0 0 0 12 -12 v 0"/>
<g/>
</g>
<g class="repeat">
<path d=" M 466 21 h 12 m 52 0 h 12 m -12 0 a 12 12 0 0 1 12 12 v 8 a 12 12 0 0 1 -12 12 m -52 0 h 0 a 12 12 0 0 1 -12 -12 v -8 a 12 12 0 0 1 12 -12"/>
<g class="nonterminal">
<rect height="22" width="52" x="478" y="42"/>
<text x="504" y="58">
WORD</text>
</g>
<g class="nonterminal">
<rect height="22" width="52" x="478" y="10"/>
<text x="504" y="26">
WORD</text>
</g>
</g>
<path d=" M 70 21 h 10"/>
<path d=" M 228 21 h 10"/>
<path d=" M 346 21 h 10"/>
<path d=" M 456 21 h 10"/>
</g>
</svg>
