<svg class="railroad" viewBox="0 0 504 66" xmlns="http://www.w3.org/2000/svg" xmlns:xlink="http://www.w3.org/1999/xlink">
<style type="text/css">

    svg.railroad {
        background-color: hsl(30, 20%, 95%);
        background-size: 15px 15px;
        background-image: linear-gradient(to right, rgba(30, 30, 30, .05) 1px, transparent 1px),
                          linear-gradient(to bottom, rgba(30, 30, 30, .05) 1px, transparent 1px);
    }

    svg.railroad path {
        stroke-width: 3px;
        stroke: black;
        fill: transparent;
    }

    svg.railroad .debug {
        stroke-width: 1px;
        stroke: red;
    }

    svg.railroad text {
        font: 14px monospace;
        text-anchor: middle;
    }

    svg.railroad .nonterminal text {
        font-weight: bold;
    }

    svg.railroad text.comment {
        font: italic 12px monospace;
    }

    svg.railroad rect {
        stroke-width: 3px;
        stroke: black;
        fill:hsl(-290, 70%, 90%);
    }

    svg.railroad g.labeledbox > rect {
        stroke-width: 1px;
        stroke: grey;
        stroke-dasharray: 5px;
        fill:rgba(90, 90, 150, .1);
    }</style>
<g class="sequence">
<g class="nonterminal">
<rect height="22" width="76" x="10" y="10"/>
<text x="48" y="26">
_SELECT</text>
</g>
<g class="choice">
<path d=" M 96 21 h 24 m 84 0 h 24"/>
<g class="nonterminal">
<rect height="22" width="84" x="120" y="10"/>
<text x="162" y="26">
OPTIONAL</text>
</g>
<path d=" M 96 21 a 12 12 0 0 1 12 12 v 9 m 108 0 v -9 a 12 12 0 0 1 12 -12"/>
<path d=" M 108 42 v 0 a 12 12 0 0 0 12 12 m 0 0 h 84 m -39 0 l -5 -5 m 0 10 l 5 -5 m 39 0 a 12 12 0 0 0 12 -12 v 0"/>
<g/>
</g>
<g class="nonterminal">
<rect height="22" width="52" x="238" y="10"/>
<text x="264" y="26">
WORD</text>
</g>
<g class="repeat">
<path d=" M 300 21 h 12 m 0 0 h 144 m -69 0 l -5 -5 m 0 10 l 5 -5 m 69 0 m -12 0 a 12 12 0 0 1 12 12 v 0 a 12 12 0 0 1 -12 12 m -132 0 h 0 a 12 12 0 0 1 -12 -12 v 0 a 12 12 0 0 1 12 -12"/>
<g class="nonterminal">
<rect height="22" width="132" x="312" y="34"/>
<text x="378" y="50">
_select_clause</text>
</g>
<g/>
</g>
<g class="terminal">
<rect height="22" rx="10" ry="10" width="28" x="466" y="10"/>
<text x="480" y="26">
.</text>
</g>
<path d=" M 86 21 h 10"/>
<path d=" M 228 21 h 10"/>
<path d=" M 290 21 h 10"/>
<path d=" M 456 21 h 10"/>
</g>
</svg>
