<svg class="railroad" viewBox="0 0 656 74" xmlns="http://www.w3.org/2000/svg" xmlns:xlink="http://www.w3.org/1999/xlink">
<style type="text/css">

    svg.railroad {
        background-color: hsl(30, 20%, 95%);
        background-size: 15px 15px;
        background-image: linear-gradient(to right, rgba(30, 30, 30, .05) 1px, transparent 1px),
                          linear-gradient(to bottom, rgba(30, 30, 30, .05) 1px, transparent 1px);
    }

    svg.railroad path {
        stroke-width: 3px;
        stroke: black;
        fill: transparent;
    }

    svg.railroad .debug {
        stroke-width: 1px;
        stroke: red;
    }

    svg.railroad text {
        font: 14px monospace;
        text-anchor: middle;
    }

    svg.railroad .nonterminal text {
        font-weight: bold;
    }

    svg.railroad text.comment {
        font: italic 12px monospace;
    }

    svg.railroad rect {
        stroke-width: 3px;
        stroke: black;
        fill:hsl(-290, 70%, 90%);
    }

    svg.railroad g.labeledbox > rect {
        stroke-width: 1px;
        stroke: grey;
        stroke-dasharray: 5px;
        fill:rgba(90, 90, 150, .1);
    }</style>
<g class="sequence">
<g class="nonterminal">
<rect height="22" width="92" x="10" y="10"/>
<text x="56" y="26">
_MULTIPLE</text>
</g>
<g class="choice">
<path d=" M 112 21 h 24 m 60 0 h 24"/>
<g class="nonterminal">
<rect height="22" width="60" x="136" y="10"/>
<text x="166" y="26">
_FILE</text>
</g>
<path d=" M 112 21 a 12 12 0 0 1 12 12 v 9 m 84 0 v -9 a 12 12 0 0 1 12 -12"/>
<path d=" M 124 42 v 0 a 12 12 0 0 0 12 12 m 0 0 h 60 m -27 0 l -5 -5 m 0 10 l 5 -5 m 27 0 a 12 12 0 0 0 12 -12 v 0"/>
<g/>
</g>
<g class="choice">
<path d=" M 230 21 h 24 m 60 0 h 24"/>
<g class="nonterminal">
<rect height="22" width="60" x="254" y="10"/>
<text x="284" y="26">
_TAPE</text>
</g>
<path d=" M 230 21 a 12 12 0 0 1 12 12 v 9 m 84 0 v -9 a 12 12 0 0 1 12 -12"/>
<path d=" M 242 42 v 0 a 12 12 0 0 0 12 12 m 0 0 h 60 m -27 0 l -5 -5 m 0 10 l 5 -5 m 27 0 a 12 12 0 0 0 12 -12 v 0"/>
<g/>
</g>
<g class="choice">
<path d=" M 348 21 h 24 m 92 0 h 24"/>
<g class="nonterminal">
<rect height="22" width="92" x="372" y="10"/>
<text x="418" y="26">
_CONTAINS</text>
</g>
<path d=" M 348 21 a 12 12 0 0 1 12 12 v 9 m 116 0 v -9 a 12 12 0 0 1 12 -12"/>
<path d=" M 360 42 v 0 a 12 12 0 0 0 12 12 m 0 0 h 92 m -43 0 l -5 -5 m 0 10 l 5 -5 m 43 0 a 12 12 0 0 0 12 -12 v 0"/>
<g/>
</g>
<g class="repeat">
<path d=" M 498 21 h 12 m 124 0 h 12 m -12 0 a 12 12 0 0 1 12 12 v 8 a 12 12 0 0 1 -12 12 m -124 0 h 0 a 12 12 0 0 1 -12 -12 v -8 a 12 12 0 0 1 12 -12"/>
<g class="nonterminal">
<rect height="22" width="124" x="510" y="42"/>
<text x="572" y="58">
multiple_file</text>
</g>
<g class="nonterminal">
<rect height="22" width="124" x="510" y="10"/>
<text x="572" y="26">
multiple_file</text>
</g>
</g>
<path d=" M 102 21 h 10"/>
<path d=" M 220 21 h 10"/>
<path d=" M 338 21 h 10"/>
<path d=" M 488 21 h 10"/>
</g>
</svg>
