<svg class="railroad" viewBox="0 0 342 139" xmlns="http://www.w3.org/2000/svg" xmlns:xlink="http://www.w3.org/1999/xlink">
<style type="text/css">

    svg.railroad {
        background-color: hsl(30, 20%, 95%);
        background-size: 15px 15px;
        background-image: linear-gradient(to right, rgba(30, 30, 30, .05) 1px, transparent 1px),
                          linear-gradient(to bottom, rgba(30, 30, 30, .05) 1px, transparent 1px);
    }

    svg.railroad path {
        stroke-width: 3px;
        stroke: black;
        fill: transparent;
    }

    svg.railroad .debug {
        stroke-width: 1px;
        stroke: red;
    }

    svg.railroad text {
        font: 14px monospace;
        text-anchor: middle;
    }

    svg.railroad .nonterminal text {
        font-weight: bold;
    }

    svg.railroad text.comment {
        font: italic 12px monospace;
    }

    svg.railroad rect {
        stroke-width: 3px;
        stroke: black;
        fill:hsl(-290, 70%, 90%);
    }

    svg.railroad g.labeledbox > rect {
        stroke-width: 1px;
        stroke: grey;
        stroke-dasharray: 5px;
        fill:rgba(90, 90, 150, .1);
    }</style>
<g class="choice">
<path d=" M 10 21 h 24 m 274 0 h 24"/>
<g class="sequence">
<g class="repeat">
<path d=" M 34 21 h 12 m 164 0 h 12 m -12 0 a 12 12 0 0 1 12 12 v 8 a 12 12 0 0 1 -12 12 m -164 0 h 0 a 12 12 0 0 1 -12 -12 v -8 a 12 12 0 0 1 12 -12"/>
<g class="nonterminal">
<rect height="22" width="164" x="46" y="42"/>
<text x="128" y="58">
i_o_control_clause</text>
</g>
<g class="nonterminal">
<rect height="22" width="164" x="46" y="10"/>
<text x="128" y="26">
i_o_control_clause</text>
</g>
</g>
<g class="choice">
<path d=" M 232 21 h 24 m 28 0 h 24"/>
<g class="terminal">
<rect height="22" rx="10" ry="10" width="28" x="256" y="10"/>
<text x="270" y="26">
.</text>
</g>
<path d=" M 232 21 a 12 12 0 0 1 12 12 v 9 m 52 0 v -9 a 12 12 0 0 1 12 -12"/>
<path d=" M 244 42 v 0 a 12 12 0 0 0 12 12 m 0 0 h 28 a 12 12 0 0 0 12 -12 v 0"/>
<g/>
</g>
<path d=" M 222 21 h 10"/>
</g>
<path d=" M 10 21 a 12 12 0 0 1 12 12 v 41 m 298 0 v -41 a 12 12 0 0 1 12 -12"/>
<path d=" M 22 74 v 0 a 12 12 0 0 0 12 12 m 226 0 h 48 a 12 12 0 0 0 12 -12 v 0"/>
<g class="sequence">
<g class="repeat">
<path d=" M 34 86 h 12 m 116 0 h 12 m -12 0 a 12 12 0 0 1 12 12 v 8 a 12 12 0 0 1 -12 12 m -116 0 h 0 a 12 12 0 0 1 -12 -12 v -8 a 12 12 0 0 1 12 -12"/>
<g class="nonterminal">
<rect height="22" width="116" x="46" y="107"/>
<text x="104" y="123">
apply_clause</text>
</g>
<g class="nonterminal">
<rect height="22" width="116" x="46" y="75"/>
<text x="104" y="91">
apply_clause</text>
</g>
</g>
<g class="choice">
<path d=" M 184 86 h 24 m 28 0 h 24"/>
<g class="terminal">
<rect height="22" rx="10" ry="10" width="28" x="208" y="75"/>
<text x="222" y="91">
.</text>
</g>
<path d=" M 184 86 a 12 12 0 0 1 12 12 v 9 m 52 0 v -9 a 12 12 0 0 1 12 -12"/>
<path d=" M 196 107 v 0 a 12 12 0 0 0 12 12 m 0 0 h 28 a 12 12 0 0 0 12 -12 v 0"/>
<g/>
</g>
<path d=" M 174 86 h 10"/>
</g>
</g>
</svg>
