<svg class="railroad" viewBox="0 0 474 108" xmlns="http://www.w3.org/2000/svg" xmlns:xlink="http://www.w3.org/1999/xlink">
<style type="text/css">

    svg.railroad {
        background-color: hsl(30, 20%, 95%);
        background-size: 15px 15px;
        background-image: linear-gradient(to right, rgba(30, 30, 30, .05) 1px, transparent 1px),
                          linear-gradient(to bottom, rgba(30, 30, 30, .05) 1px, transparent 1px);
    }

    svg.railroad path {
        stroke-width: 3px;
        stroke: black;
        fill: transparent;
    }

    svg.railroad .debug {
        stroke-width: 1px;
        stroke: red;
    }

    svg.railroad text {
        font: 14px monospace;
        text-anchor: middle;
    }

    svg.railroad .nonterminal text {
        font-weight: bold;
    }

    svg.railroad text.comment {
        font: italic 12px monospace;
    }

    svg.railroad rect {
        stroke-width: 3px;
        stroke: black;
        fill:hsl(-290, 70%, 90%);
    }

    svg.railroad g.labeledbox > rect {
        stroke-width: 1px;
        stroke: grey;
        stroke-dasharray: 5px;
        fill:rgba(90, 90, 150, .1);
    }</style>
<g class="sequence">
<g class="nonterminal">
<rect height="22" width="76" x="10" y="10"/>
<text x="48" y="26">
_ACCESS</text>
</g>
<g class="choice">
<path d=" M 96 21 h 24 m 60 0 h 24"/>
<g class="nonterminal">
<rect height="22" width="60" x="120" y="10"/>
<text x="150" y="26">
_MODE</text>
</g>
<path d=" M 96 21 a 12 12 0 0 1 12 12 v 9 m 84 0 v -9 a 12 12 0 0 1 12 -12"/>
<path d=" M 108 42 v 0 a 12 12 0 0 0 12 12 m 0 0 h 60 m -27 0 l -5 -5 m 0 10 l 5 -5 m 27 0 a 12 12 0 0 0 12 -12 v 0"/>
<g/>
</g>
<g class="choice">
<path d=" M 214 21 h 24 m 44 0 h 24"/>
<g class="nonterminal">
<rect height="22" width="44" x="238" y="10"/>
<text x="260" y="26">
_IS</text>
</g>
<path d=" M 214 21 a 12 12 0 0 1 12 12 v 9 m 68 0 v -9 a 12 12 0 0 1 12 -12"/>
<path d=" M 226 42 v 0 a 12 12 0 0 0 12 12 m 0 0 h 44 a 12 12 0 0 0 12 -12 v 0"/>
<g/>
</g>
<g class="choice">
<path d=" M 316 21 h 24 m 100 0 h 24"/>
<g class="nonterminal">
<rect height="22" width="100" x="340" y="10"/>
<text x="390" y="26">
SEQUENTIAL</text>
</g>
<path d=" M 316 21 a 12 12 0 0 1 12 12 v 9 m 124 0 v -9 a 12 12 0 0 1 12 -12"/>
<path d=" M 328 42 v 33 m 124 0 v -33"/>
<path d=" M 328 42 v 0 a 12 12 0 0 0 12 12 m 76 0 h 24 a 12 12 0 0 0 12 -12 v 0"/>
<g class="nonterminal">
<rect height="22" width="76" x="340" y="43"/>
<text x="378" y="59">
DYNAMIC</text>
</g>
<path d=" M 328 75 v 0 a 12 12 0 0 0 12 12 m 68 0 h 32 a 12 12 0 0 0 12 -12 v 0"/>
<g class="nonterminal">
<rect height="22" width="68" x="340" y="76"/>
<text x="374" y="92">
RANDOM</text>
</g>
</g>
<path d=" M 86 21 h 10"/>
<path d=" M 204 21 h 10"/>
<path d=" M 306 21 h 10"/>
</g>
</svg>
