<svg class="railroad" viewBox="0 0 366 140" xmlns="http://www.w3.org/2000/svg" xmlns:xlink="http://www.w3.org/1999/xlink">
<style type="text/css">

    svg.railroad {
        background-color: hsl(30, 20%, 95%);
        background-size: 15px 15px;
        background-image: linear-gradient(to right, rgba(30, 30, 30, .05) 1px, transparent 1px),
                          linear-gradient(to bottom, rgba(30, 30, 30, .05) 1px, transparent 1px);
    }

    svg.railroad path {
        stroke-width: 3px;
        stroke: black;
        fill: transparent;
    }

    svg.railroad .debug {
        stroke-width: 1px;
        stroke: red;
    }

    svg.railroad text {
        font: 14px monospace;
        text-anchor: middle;
    }

    svg.railroad .nonterminal text {
        font-weight: bold;
    }

    svg.railroad text.comment {
        font: italic 12px monospace;
    }

    svg.railroad rect {
        stroke-width: 3px;
        stroke: black;
        fill:hsl(-290, 70%, 90%);
    }

    svg.railroad g.labeledbox > rect {
        stroke-width: 1px;
        stroke: grey;
        stroke-dasharray: 5px;
        fill:rgba(90, 90, 150, .1);
    }</style>
<g class="choice">
<path d=" M 10 21 h 24 m 84 0 h 238 m -116 0 l -5 -5 m 0 10 l 5 -5 m 116 0"/>
<g class="nonterminal">
<rect height="22" width="84" x="34" y="10"/>
<text x="76" y="26">
_LITERAL</text>
</g>
<path d=" M 10 21 a 12 12 0 0 1 12 12 v 9 m 322 0 v -9 a 12 12 0 0 1 12 -12"/>
<path d=" M 22 42 v 33 m 322 0 v -33"/>
<path d=" M 22 42 v 0 a 12 12 0 0 0 12 12 m 76 0 h 222 m -108 0 l -5 -5 m 0 10 l 5 -5 m 108 0 a 12 12 0 0 0 12 -12 v 0"/>
<g class="nonterminal">
<rect height="22" width="76" x="34" y="43"/>
<text x="72" y="59">
DISPLAY</text>
</g>
<path d=" M 22 75 v 0 a 12 12 0 0 0 12 12 m 298 0 h 0 a 12 12 0 0 0 12 -12 v 0"/>
<g class="sequence">
<g class="choice">
<path d=" M 34 87 h 24 m 84 0 h 24"/>
<g class="nonterminal">
<rect height="22" width="84" x="58" y="76"/>
<text x="100" y="92">
_LITERAL</text>
</g>
<path d=" M 34 87 a 12 12 0 0 1 12 12 v 9 m 108 0 v -9 a 12 12 0 0 1 12 -12"/>
<path d=" M 46 108 v 0 a 12 12 0 0 0 12 12 m 0 0 h 84 m -39 0 l -5 -5 m 0 10 l 5 -5 m 39 0 a 12 12 0 0 0 12 -12 v 0"/>
<g/>
</g>
<g class="repeat">
<path d=" M 176 87 h 12 m 132 0 h 12 m -12 0 a 12 12 0 0 1 12 12 v 8 a 12 12 0 0 1 -12 12 m -132 0 h 0 a 12 12 0 0 1 -12 -12 v -8 a 12 12 0 0 1 12 -12"/>
<g class="nonterminal">
<rect height="22" width="132" x="188" y="108"/>
<text x="254" y="124">
qualified_word</text>
</g>
<g class="nonterminal">
<rect height="22" width="132" x="188" y="76"/>
<text x="254" y="92">
qualified_word</text>
</g>
</g>
<path d=" M 166 87 h 10"/>
</g>
</g>
</svg>
