<svg class="railroad" viewBox="0 0 772 334" xmlns="http://www.w3.org/2000/svg" xmlns:xlink="http://www.w3.org/1999/xlink">
<style type="text/css">

    svg.railroad {
        background-color: hsl(30, 20%, 95%);
        background-size: 15px 15px;
        background-image: linear-gradient(to right, rgba(30, 30, 30, .05) 1px, transparent 1px),
                          linear-gradient(to bottom, rgba(30, 30, 30, .05) 1px, transparent 1px);
    }

    svg.railroad path {
        stroke-width: 3px;
        stroke: black;
        fill: transparent;
    }

    svg.railroad .debug {
        stroke-width: 1px;
        stroke: red;
    }

    svg.railroad text {
        font: 14px monospace;
        text-anchor: middle;
    }

    svg.railroad .nonterminal text {
        font-weight: bold;
    }

    svg.railroad text.comment {
        font: italic 12px monospace;
    }

    svg.railroad rect {
        stroke-width: 3px;
        stroke: black;
        fill:hsl(-290, 70%, 90%);
    }

    svg.railroad g.labeledbox > rect {
        stroke-width: 1px;
        stroke: grey;
        stroke-dasharray: 5px;
        fill:rgba(90, 90, 150, .1);
    }</style>
<g class="sequence">
<g class="nonterminal">
<rect height="22" width="68" x="10" y="10"/>
<text x="44" y="26">
_APPLY</text>
</g>
<g class="choice">
<path d=" M 88 21 h 24 m 440 0 h 210 m -102 0 l -5 -5 m 0 10 l 5 -5 m 102 0"/>
<g class="sequence">
<g class="nonterminal">
<rect height="22" width="172" x="112" y="10"/>
<text x="198" y="26">
_COMMITMENT_CONTROL</text>
</g>
<g class="choice">
<path d=" M 294 21 h 24 m 44 0 h 24"/>
<g class="nonterminal">
<rect height="22" width="44" x="318" y="10"/>
<text x="340" y="26">
_ON</text>
</g>
<path d=" M 294 21 a 12 12 0 0 1 12 12 v 9 m 68 0 v -9 a 12 12 0 0 1 12 -12"/>
<path d=" M 306 42 v 0 a 12 12 0 0 0 12 12 m 0 0 h 44 a 12 12 0 0 0 12 -12 v 0"/>
<g/>
</g>
<g class="repeat">
<path d=" M 396 21 h 12 m 132 0 h 12 m -12 0 a 12 12 0 0 1 12 12 v 8 a 12 12 0 0 1 -12 12 m -132 0 h 0 a 12 12 0 0 1 -12 -12 v -8 a 12 12 0 0 1 12 -12"/>
<g class="nonterminal">
<rect height="22" width="132" x="408" y="42"/>
<text x="474" y="58">
qualified_word</text>
</g>
<g class="nonterminal">
<rect height="22" width="132" x="408" y="10"/>
<text x="474" y="26">
qualified_word</text>
</g>
</g>
<path d=" M 284 21 h 10"/>
<path d=" M 386 21 h 10"/>
</g>
<path d=" M 88 21 a 12 12 0 0 1 12 12 v 41 m 650 0 v -41 a 12 12 0 0 1 12 -12"/>
<path d=" M 100 74 v 65 m 0 -29 l -5 -5 m 10 0 l -5 5 m 0 29 m 650 0 v -65 m 0 35 l -5 5 m 10 0 l -5 -5 m 0 -35"/>
<path d=" M 100 139 v 65 m 0 -29 l -5 -5 m 10 0 l -5 5 m 0 29 m 650 0 v -65 m 0 35 l -5 5 m 10 0 l -5 -5 m 0 -35"/>
<path d=" M 100 204 v 65 m 0 -29 l -5 -5 m 10 0 l -5 5 m 0 29 m 650 0 v -65 m 0 35 l -5 5 m 10 0 l -5 -5 m 0 -35"/>
<path d=" M 100 74 v 0 a 12 12 0 0 0 12 12 m 626 0 h 0 a 12 12 0 0 0 12 -12 v 0"/>
<g class="sequence">
<g class="nonterminal">
<rect height="22" width="124" x="112" y="75"/>
<text x="174" y="91">
_CYL_OVERFLOW</text>
</g>
<g class="choice">
<path d=" M 246 86 h 24 m 44 0 h 24"/>
<g class="nonterminal">
<rect height="22" width="44" x="270" y="75"/>
<text x="292" y="91">
_OF</text>
</g>
<path d=" M 246 86 a 12 12 0 0 1 12 12 v 9 m 68 0 v -9 a 12 12 0 0 1 12 -12"/>
<path d=" M 258 107 v 0 a 12 12 0 0 0 12 12 m 0 0 h 44 a 12 12 0 0 0 12 -12 v 0"/>
<g/>
</g>
<g class="nonterminal">
<rect height="22" width="84" x="348" y="75"/>
<text x="390" y="91">
_LITERAL</text>
</g>
<g class="nonterminal">
<rect height="22" width="76" x="442" y="75"/>
<text x="480" y="91">
_TRACKS</text>
</g>
<g class="nonterminal">
<rect height="22" width="44" x="528" y="75"/>
<text x="550" y="91">
_ON</text>
</g>
<g class="repeat">
<path d=" M 582 86 h 12 m 132 0 h 12 m -12 0 a 12 12 0 0 1 12 12 v 8 a 12 12 0 0 1 -12 12 m -132 0 h 0 a 12 12 0 0 1 -12 -12 v -8 a 12 12 0 0 1 12 -12"/>
<g class="nonterminal">
<rect height="22" width="132" x="594" y="107"/>
<text x="660" y="123">
qualified_word</text>
</g>
<g class="nonterminal">
<rect height="22" width="132" x="594" y="75"/>
<text x="660" y="91">
qualified_word</text>
</g>
</g>
<path d=" M 236 86 h 10"/>
<path d=" M 338 86 h 10"/>
<path d=" M 432 86 h 10"/>
<path d=" M 518 86 h 10"/>
<path d=" M 572 86 h 10"/>
</g>
<path d=" M 100 139 v 0 a 12 12 0 0 0 12 12 m 524 0 h 102 m -48 0 l -5 -5 m 0 10 l 5 -5 m 48 0 a 12 12 0 0 0 12 -12 v 0"/>
<g class="sequence">
<g class="nonterminal">
<rect height="22" width="108" x="112" y="140"/>
<text x="166" y="156">
_CORE_INDEX</text>
</g>
<g class="nonterminal">
<rect height="22" width="44" x="230" y="140"/>
<text x="252" y="156">
_TO</text>
</g>
<g class="nonterminal">
<rect height="22" width="132" x="284" y="140"/>
<text x="350" y="156">
qualified_word</text>
</g>
<g class="nonterminal">
<rect height="22" width="44" x="426" y="140"/>
<text x="448" y="156">
_ON</text>
</g>
<g class="repeat">
<path d=" M 480 151 h 12 m 132 0 h 12 m -12 0 a 12 12 0 0 1 12 12 v 8 a 12 12 0 0 1 -12 12 m -132 0 h 0 a 12 12 0 0 1 -12 -12 v -8 a 12 12 0 0 1 12 -12"/>
<g class="nonterminal">
<rect height="22" width="132" x="492" y="172"/>
<text x="558" y="188">
qualified_word</text>
</g>
<g class="nonterminal">
<rect height="22" width="132" x="492" y="140"/>
<text x="558" y="156">
qualified_word</text>
</g>
</g>
<path d=" M 220 151 h 10"/>
<path d=" M 274 151 h 10"/>
<path d=" M 416 151 h 10"/>
<path d=" M 470 151 h 10"/>
</g>
<path d=" M 100 204 v 0 a 12 12 0 0 0 12 12 m 548 0 h 78 m -36 0 l -5 -5 m 0 10 l 5 -5 m 36 0 a 12 12 0 0 0 12 -12 v 0"/>
<g class="sequence">
<g class="nonterminal">
<rect height="22" width="132" x="112" y="205"/>
<text x="178" y="221">
_FORMS_OVERLAY</text>
</g>
<g class="nonterminal">
<rect height="22" width="44" x="254" y="205"/>
<text x="276" y="221">
_TO</text>
</g>
<g class="nonterminal">
<rect height="22" width="132" x="308" y="205"/>
<text x="374" y="221">
qualified_word</text>
</g>
<g class="nonterminal">
<rect height="22" width="44" x="450" y="205"/>
<text x="472" y="221">
_ON</text>
</g>
<g class="repeat">
<path d=" M 504 216 h 12 m 132 0 h 12 m -12 0 a 12 12 0 0 1 12 12 v 8 a 12 12 0 0 1 -12 12 m -132 0 h 0 a 12 12 0 0 1 -12 -12 v -8 a 12 12 0 0 1 12 -12"/>
<g class="nonterminal">
<rect height="22" width="132" x="516" y="237"/>
<text x="582" y="253">
qualified_word</text>
</g>
<g class="nonterminal">
<rect height="22" width="132" x="516" y="205"/>
<text x="582" y="221">
qualified_word</text>
</g>
</g>
<path d=" M 244 216 h 10"/>
<path d=" M 298 216 h 10"/>
<path d=" M 440 216 h 10"/>
<path d=" M 494 216 h 10"/>
</g>
<path d=" M 100 269 v 0 a 12 12 0 0 0 12 12 m 344 0 h 282 m -138 0 l -5 -5 m 0 10 l 5 -5 m 138 0 a 12 12 0 0 0 12 -12 v 0"/>
<g class="sequence">
<g class="nonterminal">
<rect height="22" width="124" x="112" y="270"/>
<text x="174" y="286">
_CLOSE_NOFEED</text>
</g>
<g class="nonterminal">
<rect height="22" width="44" x="246" y="270"/>
<text x="268" y="286">
_ON</text>
</g>
<g class="repeat">
<path d=" M 300 281 h 12 m 132 0 h 12 m -12 0 a 12 12 0 0 1 12 12 v 8 a 12 12 0 0 1 -12 12 m -132 0 h 0 a 12 12 0 0 1 -12 -12 v -8 a 12 12 0 0 1 12 -12"/>
<g class="nonterminal">
<rect height="22" width="132" x="312" y="302"/>
<text x="378" y="318">
qualified_word</text>
</g>
<g class="nonterminal">
<rect height="22" width="132" x="312" y="270"/>
<text x="378" y="286">
qualified_word</text>
</g>
</g>
<path d=" M 236 281 h 10"/>
<path d=" M 290 281 h 10"/>
</g>
</g>
<path d=" M 78 21 h 10"/>
</g>
</svg>
