<svg class="railroad" viewBox="0 0 296 504" xmlns="http://www.w3.org/2000/svg" xmlns:xlink="http://www.w3.org/1999/xlink">
<style type="text/css">

    svg.railroad {
        background-color: hsl(30, 20%, 95%);
        background-size: 15px 15px;
        background-image: linear-gradient(to right, rgba(30, 30, 30, .05) 1px, transparent 1px),
                          linear-gradient(to bottom, rgba(30, 30, 30, .05) 1px, transparent 1px);
    }

    svg.railroad path {
        stroke-width: 3px;
        stroke: black;
        fill: transparent;
    }

    svg.railroad .debug {
        stroke-width: 1px;
        stroke: red;
    }

    svg.railroad text {
        font: 14px monospace;
        text-anchor: middle;
    }

    svg.railroad .nonterminal text {
        font-weight: bold;
    }

    svg.railroad text.comment {
        font: italic 12px monospace;
    }

    svg.railroad rect {
        stroke-width: 3px;
        stroke: black;
        fill:hsl(-290, 70%, 90%);
    }

    svg.railroad g.labeledbox > rect {
        stroke-width: 1px;
        stroke: grey;
        stroke-dasharray: 5px;
        fill:rgba(90, 90, 150, .1);
    }</style>
<g class="choice">
<path d=" M 10 21 h 24 m 124 0 h 128 m -61 0 l -5 -5 m 0 10 l 5 -5 m 61 0"/>
<g class="nonterminal">
<rect height="22" width="124" x="34" y="10"/>
<text x="96" y="26">
assign_clause</text>
</g>
<path d=" M 10 21 a 12 12 0 0 1 12 12 v 9 m 252 0 v -9 a 12 12 0 0 1 12 -12"/>
<path d=" M 22 42 v 33 m 252 0 v -33"/>
<path d=" M 22 75 v 33 m 252 0 v -33"/>
<path d=" M 22 108 v 33 m 252 0 v -33"/>
<path d=" M 22 141 v 33 m 252 0 v -33"/>
<path d=" M 22 174 v 33 m 252 0 v -33"/>
<path d=" M 22 207 v 33 m 252 0 v -33"/>
<path d=" M 22 240 v 33 m 252 0 v -33"/>
<path d=" M 22 273 v 33 m 252 0 v -33"/>
<path d=" M 22 306 v 33 m 252 0 v -33"/>
<path d=" M 22 339 v 33 m 252 0 v -33"/>
<path d=" M 22 372 v 33 m 252 0 v -33"/>
<path d=" M 22 405 v 33 m 252 0 v -33"/>
<path d=" M 22 438 v 33 m 252 0 v -33"/>
<path d=" M 22 42 v 0 a 12 12 0 0 0 12 12 m 164 0 h 64 m -29 0 l -5 -5 m 0 10 l 5 -5 m 29 0 a 12 12 0 0 0 12 -12 v 0"/>
<g class="nonterminal">
<rect height="22" width="164" x="34" y="43"/>
<text x="116" y="59">
access_mode_clause</text>
</g>
<path d=" M 22 75 v 0 a 12 12 0 0 0 12 12 m 204 0 h 24 a 12 12 0 0 0 12 -12 v 0"/>
<g class="nonterminal">
<rect height="22" width="204" x="34" y="76"/>
<text x="136" y="92">
alternative_record_key</text>
</g>
<path d=" M 22 108 v 0 a 12 12 0 0 0 12 12 m 228 0 h 0 a 12 12 0 0 0 12 -12 v 0"/>
<g class="nonterminal">
<rect height="22" width="228" x="34" y="109"/>
<text x="148" y="125">
collating_sequence_clause</text>
</g>
<path d=" M 22 141 v 0 a 12 12 0 0 0 12 12 m 164 0 h 64 m -29 0 l -5 -5 m 0 10 l 5 -5 m 29 0 a 12 12 0 0 0 12 -12 v 0"/>
<g class="nonterminal">
<rect height="22" width="164" x="34" y="142"/>
<text x="116" y="158">
file_status_clause</text>
</g>
<path d=" M 22 174 v 0 a 12 12 0 0 0 12 12 m 148 0 h 80 m -37 0 l -5 -5 m 0 10 l 5 -5 m 37 0 a 12 12 0 0 0 12 -12 v 0"/>
<g class="nonterminal">
<rect height="22" width="148" x="34" y="175"/>
<text x="108" y="191">
lock_mode_clause</text>
</g>
<path d=" M 22 207 v 0 a 12 12 0 0 0 12 12 m 172 0 h 56 m -25 0 l -5 -5 m 0 10 l 5 -5 m 25 0 a 12 12 0 0 0 12 -12 v 0"/>
<g class="nonterminal">
<rect height="22" width="172" x="34" y="208"/>
<text x="120" y="224">
organization_clause</text>
</g>
<path d=" M 22 240 v 0 a 12 12 0 0 0 12 12 m 220 0 h 8 a 12 12 0 0 0 12 -12 v 0"/>
<g class="nonterminal">
<rect height="22" width="220" x="34" y="241"/>
<text x="144" y="257">
padding_character_clause</text>
</g>
<path d=" M 22 273 v 0 a 12 12 0 0 0 12 12 m 212 0 h 16 a 12 12 0 0 0 12 -12 v 0"/>
<g class="nonterminal">
<rect height="22" width="212" x="34" y="274"/>
<text x="140" y="290">
record_delimiter_clause</text>
</g>
<path d=" M 22 306 v 0 a 12 12 0 0 0 12 12 m 156 0 h 72 m -33 0 l -5 -5 m 0 10 l 5 -5 m 33 0 a 12 12 0 0 0 12 -12 v 0"/>
<g class="nonterminal">
<rect height="22" width="156" x="34" y="307"/>
<text x="112" y="323">
record_key_clause</text>
</g>
<path d=" M 22 339 v 0 a 12 12 0 0 0 12 12 m 172 0 h 56 m -25 0 l -5 -5 m 0 10 l 5 -5 m 25 0 a 12 12 0 0 0 12 -12 v 0"/>
<g class="nonterminal">
<rect height="22" width="172" x="34" y="340"/>
<text x="120" y="356">
relative_key_clause</text>
</g>
<path d=" M 22 372 v 0 a 12 12 0 0 0 12 12 m 132 0 h 96 m -45 0 l -5 -5 m 0 10 l 5 -5 m 45 0 a 12 12 0 0 0 12 -12 v 0"/>
<g class="nonterminal">
<rect height="22" width="132" x="34" y="373"/>
<text x="100" y="389">
reserve_clause</text>
</g>
<path d=" M 22 405 v 0 a 12 12 0 0 0 12 12 m 132 0 h 96 m -45 0 l -5 -5 m 0 10 l 5 -5 m 45 0 a 12 12 0 0 0 12 -12 v 0"/>
<g class="nonterminal">
<rect height="22" width="132" x="34" y="406"/>
<text x="100" y="422">
sharing_clause</text>
</g>
<path d=" M 22 438 v 0 a 12 12 0 0 0 12 12 m 60 0 h 168 m -81 0 l -5 -5 m 0 10 l 5 -5 m 81 0 a 12 12 0 0 0 12 -12 v 0"/>
<g class="nonterminal">
<rect height="22" width="60" x="34" y="439"/>
<text x="64" y="455">
error</text>
</g>
<path d=" M 22 471 v 0 a 12 12 0 0 0 12 12 m 164 0 h 64 m -29 0 l -5 -5 m 0 10 l 5 -5 m 29 0 a 12 12 0 0 0 12 -12 v 0"/>
<g class="nonterminal">
<rect height="22" width="164" x="34" y="472"/>
<text x="116" y="488">
nominal_key_clause</text>
</g>
</g>
</svg>
