<svg class="railroad" viewBox="0 0 704 130" xmlns="http://www.w3.org/2000/svg" xmlns:xlink="http://www.w3.org/1999/xlink">
<style type="text/css">

    svg.railroad {
        background-color: hsl(30, 20%, 95%);
        background-size: 15px 15px;
        background-image: linear-gradient(to right, rgba(30, 30, 30, .05) 1px, transparent 1px),
                          linear-gradient(to bottom, rgba(30, 30, 30, .05) 1px, transparent 1px);
    }

    svg.railroad path {
        stroke-width: 3px;
        stroke: black;
        fill: transparent;
    }

    svg.railroad .debug {
        stroke-width: 1px;
        stroke: red;
    }

    svg.railroad text {
        font: 14px monospace;
        text-anchor: middle;
    }

    svg.railroad .nonterminal text {
        font-weight: bold;
    }

    svg.railroad text.comment {
        font: italic 12px monospace;
    }

    svg.railroad rect {
        stroke-width: 3px;
        stroke: black;
        fill:hsl(-290, 70%, 90%);
    }

    svg.railroad g.labeledbox > rect {
        stroke-width: 1px;
        stroke: grey;
        stroke-dasharray: 5px;
        fill:rgba(90, 90, 150, .1);
    }</style>
<g class="sequence">
<g class="nonterminal">
<rect height="22" width="76" x="10" y="10"/>
<text x="48" y="26">
_ASSIGN</text>
</g>
<g class="choice">
<path d=" M 96 21 h 24 m 44 0 h 24"/>
<g class="nonterminal">
<rect height="22" width="44" x="120" y="10"/>
<text x="142" y="26">
_TO</text>
</g>
<path d=" M 96 21 a 12 12 0 0 1 12 12 v 9 m 68 0 v -9 a 12 12 0 0 1 12 -12"/>
<path d=" M 108 42 v 0 a 12 12 0 0 0 12 12 m 0 0 h 44 a 12 12 0 0 0 12 -12 v 0"/>
<g/>
</g>
<g class="choice">
<path d=" M 198 21 h 24 m 108 0 h 24"/>
<g class="nonterminal">
<rect height="22" width="108" x="222" y="10"/>
<text x="276" y="26">
_ext_clause</text>
</g>
<path d=" M 198 21 a 12 12 0 0 1 12 12 v 9 m 132 0 v -9 a 12 12 0 0 1 12 -12"/>
<path d=" M 210 42 v 0 a 12 12 0 0 0 12 12 m 0 0 h 108 m -51 0 l -5 -5 m 0 10 l 5 -5 m 51 0 a 12 12 0 0 0 12 -12 v 0"/>
<g/>
</g>
<g class="choice">
<path d=" M 364 21 h 24 m 52 0 h 254 m -124 0 l -5 -5 m 0 10 l 5 -5 m 124 0"/>
<g class="nonterminal">
<rect height="22" width="52" x="388" y="10"/>
<text x="414" y="26">
DISK</text>
</g>
<path d=" M 364 21 a 12 12 0 0 1 12 12 v 9 m 306 0 v -9 a 12 12 0 0 1 12 -12"/>
<path d=" M 376 42 v 33 m 306 0 v -33"/>
<path d=" M 376 42 v 0 a 12 12 0 0 0 12 12 m 76 0 h 206 m -100 0 l -5 -5 m 0 10 l 5 -5 m 100 0 a 12 12 0 0 0 12 -12 v 0"/>
<g class="nonterminal">
<rect height="22" width="76" x="388" y="43"/>
<text x="426" y="59">
PRINTER</text>
</g>
<path d=" M 376 75 v 0 a 12 12 0 0 0 12 12 m 282 0 h 0 a 12 12 0 0 0 12 -12 v 0"/>
<g class="sequence">
<g class="choice">
<path d=" M 388 87 h 24 m 76 0 h 24"/>
<g class="nonterminal">
<rect height="22" width="76" x="412" y="76"/>
<text x="450" y="92">
_device</text>
</g>
<path d=" M 388 87 a 12 12 0 0 1 12 12 v 9 m 100 0 v -9 a 12 12 0 0 1 12 -12"/>
<path d=" M 400 108 v 0 a 12 12 0 0 0 12 12 m 0 0 h 76 m -35 0 l -5 -5 m 0 10 l 5 -5 m 35 0 a 12 12 0 0 0 12 -12 v 0"/>
<g/>
</g>
<g class="nonterminal">
<rect height="22" width="148" x="522" y="76"/>
<text x="596" y="92">
_assignment_name</text>
</g>
<path d=" M 512 87 h 10"/>
</g>
</g>
<path d=" M 86 21 h 10"/>
<path d=" M 188 21 h 10"/>
<path d=" M 354 21 h 10"/>
</g>
</svg>
