<svg class="railroad" viewBox="0 0 366 108" xmlns="http://www.w3.org/2000/svg" xmlns:xlink="http://www.w3.org/1999/xlink">
<style type="text/css">

    svg.railroad {
        background-color: hsl(30, 20%, 95%);
        background-size: 15px 15px;
        background-image: linear-gradient(to right, rgba(30, 30, 30, .05) 1px, transparent 1px),
                          linear-gradient(to bottom, rgba(30, 30, 30, .05) 1px, transparent 1px);
    }

    svg.railroad path {
        stroke-width: 3px;
        stroke: black;
        fill: transparent;
    }

    svg.railroad .debug {
        stroke-width: 1px;
        stroke: red;
    }

    svg.railroad text {
        font: 14px monospace;
        text-anchor: middle;
    }

    svg.railroad .nonterminal text {
        font-weight: bold;
    }

    svg.railroad text.comment {
        font: italic 12px monospace;
    }

    svg.railroad rect {
        stroke-width: 3px;
        stroke: black;
        fill:hsl(-290, 70%, 90%);
    }

    svg.railroad g.labeledbox > rect {
        stroke-width: 1px;
        stroke: grey;
        stroke-dasharray: 5px;
        fill:rgba(90, 90, 150, .1);
    }</style>
<g class="choice">
<path d=" M 10 21 h 24 m 298 0 h 24"/>
<g class="sequence">
<g class="choice">
<path d=" M 34 21 h 24 m 68 0 h 48"/>
<g class="nonterminal">
<rect height="22" width="68" x="58" y="10"/>
<text x="92" y="26">
MANUAL</text>
</g>
<path d=" M 34 21 a 12 12 0 0 1 12 12 v 9 m 116 0 v -9 a 12 12 0 0 1 12 -12"/>
<path d=" M 46 42 v 0 a 12 12 0 0 0 12 12 m 92 0 h 0 a 12 12 0 0 0 12 -12 v 0"/>
<g class="nonterminal">
<rect height="22" width="92" x="58" y="43"/>
<text x="104" y="59">
AUTOMATIC</text>
</g>
</g>
<g class="choice">
<path d=" M 184 21 h 24 m 100 0 h 24"/>
<g class="nonterminal">
<rect height="22" width="100" x="208" y="10"/>
<text x="258" y="26">
_lock_with</text>
</g>
<path d=" M 184 21 a 12 12 0 0 1 12 12 v 9 m 124 0 v -9 a 12 12 0 0 1 12 -12"/>
<path d=" M 196 42 v 0 a 12 12 0 0 0 12 12 m 0 0 h 100 m -47 0 l -5 -5 m 0 10 l 5 -5 m 47 0 a 12 12 0 0 0 12 -12 v 0"/>
<g/>
</g>
<path d=" M 174 21 h 10"/>
</g>
<path d=" M 10 21 a 12 12 0 0 1 12 12 v 42 m 322 0 v -42 a 12 12 0 0 1 12 -12"/>
<path d=" M 22 75 v 0 a 12 12 0 0 0 12 12 m 92 0 h 206 m -100 0 l -5 -5 m 0 10 l 5 -5 m 100 0 a 12 12 0 0 0 12 -12 v 0"/>
<g class="nonterminal">
<rect height="22" width="92" x="34" y="76"/>
<text x="80" y="92">
EXCLUSIVE</text>
</g>
</g>
</svg>
