<svg class="railroad" viewBox="0 0 664 163" xmlns="http://www.w3.org/2000/svg" xmlns:xlink="http://www.w3.org/1999/xlink">
<style type="text/css">

    svg.railroad {
        background-color: hsl(30, 20%, 95%);
        background-size: 15px 15px;
        background-image: linear-gradient(to right, rgba(30, 30, 30, .05) 1px, transparent 1px),
                          linear-gradient(to bottom, rgba(30, 30, 30, .05) 1px, transparent 1px);
    }

    svg.railroad path {
        stroke-width: 3px;
        stroke: black;
        fill: transparent;
    }

    svg.railroad .debug {
        stroke-width: 1px;
        stroke: red;
    }

    svg.railroad text {
        font: 14px monospace;
        text-anchor: middle;
    }

    svg.railroad .nonterminal text {
        font-weight: bold;
    }

    svg.railroad text.comment {
        font: italic 12px monospace;
    }

    svg.railroad rect {
        stroke-width: 3px;
        stroke: black;
        fill:hsl(-290, 70%, 90%);
    }

    svg.railroad g.labeledbox > rect {
        stroke-width: 1px;
        stroke: grey;
        stroke-dasharray: 5px;
        fill:rgba(90, 90, 150, .1);
    }</style>
<g class="sequence">
<g class="choice">
<path d=" M 10 21 h 24 m 226 0 h 24"/>
<g class="sequence">
<g class="nonterminal">
<rect height="22" width="124" x="34" y="10"/>
<text x="96" y="26">
_ORGANIZATION</text>
</g>
<g class="choice">
<path d=" M 168 21 h 24 m 44 0 h 24"/>
<g class="nonterminal">
<rect height="22" width="44" x="192" y="10"/>
<text x="214" y="26">
_IS</text>
</g>
<path d=" M 168 21 a 12 12 0 0 1 12 12 v 9 m 68 0 v -9 a 12 12 0 0 1 12 -12"/>
<path d=" M 180 42 v 0 a 12 12 0 0 0 12 12 m 0 0 h 44 a 12 12 0 0 0 12 -12 v 0"/>
<g/>
</g>
<path d=" M 158 21 h 10"/>
</g>
<path d=" M 10 21 a 12 12 0 0 1 12 12 v 31 m 250 0 v -31 a 12 12 0 0 1 12 -12"/>
<path d=" M 22 64 v 0 a 12 12 0 0 0 12 12 m 0 0 h 226 m -110 0 l -5 -5 m 0 10 l 5 -5 m 110 0 a 12 12 0 0 0 12 -12 v 0"/>
<g/>
</g>
<g class="choice">
<path d=" M 294 21 h 24 m 76 0 h 260 m -127 0 l -5 -5 m 0 10 l 5 -5 m 127 0"/>
<g class="nonterminal">
<rect height="22" width="76" x="318" y="10"/>
<text x="356" y="26">
INDEXED</text>
</g>
<path d=" M 294 21 a 12 12 0 0 1 12 12 v 9 m 336 0 v -9 a 12 12 0 0 1 12 -12"/>
<path d=" M 306 42 v 55 m 0 -24 l -5 -5 m 10 0 l -5 5 m 0 24 m 336 0 v -55 m 0 30 l -5 5 m 10 0 l -5 -5 m 0 -30"/>
<path d=" M 306 97 v 33 m 336 0 v -33"/>
<path d=" M 306 42 v 0 a 12 12 0 0 0 12 12 m 312 0 h 0 a 12 12 0 0 0 12 -12 v 0"/>
<g class="sequence">
<g class="nonterminal">
<rect height="22" width="68" x="318" y="43"/>
<text x="352" y="59">
RECORD</text>
</g>
<g class="choice">
<path d=" M 396 54 h 24 m 76 0 h 24"/>
<g class="nonterminal">
<rect height="22" width="76" x="420" y="43"/>
<text x="458" y="59">
_BINARY</text>
</g>
<path d=" M 396 54 a 12 12 0 0 1 12 12 v 9 m 100 0 v -9 a 12 12 0 0 1 12 -12"/>
<path d=" M 408 75 v 0 a 12 12 0 0 0 12 12 m 0 0 h 76 m -35 0 l -5 -5 m 0 10 l 5 -5 m 35 0 a 12 12 0 0 0 12 -12 v 0"/>
<g/>
</g>
<g class="nonterminal">
<rect height="22" width="100" x="530" y="43"/>
<text x="580" y="59">
SEQUENTIAL</text>
</g>
<path d=" M 386 54 h 10"/>
<path d=" M 520 54 h 10"/>
</g>
<path d=" M 306 97 v 0 a 12 12 0 0 0 12 12 m 100 0 h 212 m -103 0 l -5 -5 m 0 10 l 5 -5 m 103 0 a 12 12 0 0 0 12 -12 v 0"/>
<g class="nonterminal">
<rect height="22" width="100" x="318" y="98"/>
<text x="368" y="114">
SEQUENTIAL</text>
</g>
<path d=" M 306 130 v 0 a 12 12 0 0 0 12 12 m 84 0 h 228 m -111 0 l -5 -5 m 0 10 l 5 -5 m 111 0 a 12 12 0 0 0 12 -12 v 0"/>
<g class="nonterminal">
<rect height="22" width="84" x="318" y="131"/>
<text x="360" y="147">
RELATIVE</text>
</g>
</g>
<path d=" M 284 21 h 10"/>
</g>
</svg>
