<svg class="railroad" viewBox="0 0 712 64" xmlns="http://www.w3.org/2000/svg" xmlns:xlink="http://www.w3.org/1999/xlink">
<style type="text/css">

    svg.railroad {
        background-color: hsl(30, 20%, 95%);
        background-size: 15px 15px;
        background-image: linear-gradient(to right, rgba(30, 30, 30, .05) 1px, transparent 1px),
                          linear-gradient(to bottom, rgba(30, 30, 30, .05) 1px, transparent 1px);
    }

    svg.railroad path {
        stroke-width: 3px;
        stroke: black;
        fill: transparent;
    }

    svg.railroad .debug {
        stroke-width: 1px;
        stroke: red;
    }

    svg.railroad text {
        font: 14px monospace;
        text-anchor: middle;
    }

    svg.railroad .nonterminal text {
        font-weight: bold;
    }

    svg.railroad text.comment {
        font: italic 12px monospace;
    }

    svg.railroad rect {
        stroke-width: 3px;
        stroke: black;
        fill:hsl(-290, 70%, 90%);
    }

    svg.railroad g.labeledbox > rect {
        stroke-width: 1px;
        stroke: grey;
        stroke-dasharray: 5px;
        fill:rgba(90, 90, 150, .1);
    }</style>
<g class="sequence">
<g class="choice">
<path d=" M 10 21 h 24 m 124 0 h 24"/>
<g class="nonterminal">
<rect height="22" width="124" x="34" y="10"/>
<text x="96" y="26">
_file_or_sort</text>
</g>
<path d=" M 10 21 a 12 12 0 0 1 12 12 v 9 m 148 0 v -9 a 12 12 0 0 1 12 -12"/>
<path d=" M 22 42 v 0 a 12 12 0 0 0 12 12 m 0 0 h 124 m -59 0 l -5 -5 m 0 10 l 5 -5 m 59 0 a 12 12 0 0 0 12 -12 v 0"/>
<g/>
</g>
<g class="nonterminal">
<rect height="22" width="76" x="192" y="10"/>
<text x="230" y="26">
_STATUS</text>
</g>
<g class="choice">
<path d=" M 278 21 h 24 m 44 0 h 24"/>
<g class="nonterminal">
<rect height="22" width="44" x="302" y="10"/>
<text x="324" y="26">
_IS</text>
</g>
<path d=" M 278 21 a 12 12 0 0 1 12 12 v 9 m 68 0 v -9 a 12 12 0 0 1 12 -12"/>
<path d=" M 290 42 v 0 a 12 12 0 0 0 12 12 m 0 0 h 44 a 12 12 0 0 0 12 -12 v 0"/>
<g/>
</g>
<g class="nonterminal">
<rect height="22" width="132" x="380" y="10"/>
<text x="446" y="26">
qualified_word</text>
</g>
<g class="choice">
<path d=" M 522 21 h 24 m 132 0 h 24"/>
<g class="nonterminal">
<rect height="22" width="132" x="546" y="10"/>
<text x="612" y="26">
qualified_word</text>
</g>
<path d=" M 522 21 a 12 12 0 0 1 12 12 v 9 m 156 0 v -9 a 12 12 0 0 1 12 -12"/>
<path d=" M 534 42 v 0 a 12 12 0 0 0 12 12 m 0 0 h 132 m -63 0 l -5 -5 m 0 10 l 5 -5 m 63 0 a 12 12 0 0 0 12 -12 v 0"/>
<g/>
</g>
<path d=" M 182 21 h 10"/>
<path d=" M 268 21 h 10"/>
<path d=" M 370 21 h 10"/>
<path d=" M 512 21 h 10"/>
</g>
</svg>
