<svg class="railroad" viewBox="0 0 892 119" xmlns="http://www.w3.org/2000/svg" xmlns:xlink="http://www.w3.org/1999/xlink">
<style type="text/css">

    svg.railroad {
        background-color: hsl(30, 20%, 95%);
        background-size: 15px 15px;
        background-image: linear-gradient(to right, rgba(30, 30, 30, .05) 1px, transparent 1px),
                          linear-gradient(to bottom, rgba(30, 30, 30, .05) 1px, transparent 1px);
    }

    svg.railroad path {
        stroke-width: 3px;
        stroke: black;
        fill: transparent;
    }

    svg.railroad .debug {
        stroke-width: 1px;
        stroke: red;
    }

    svg.railroad text {
        font: 14px monospace;
        text-anchor: middle;
    }

    svg.railroad .nonterminal text {
        font-weight: bold;
    }

    svg.railroad text.comment {
        font: italic 12px monospace;
    }

    svg.railroad rect {
        stroke-width: 3px;
        stroke: black;
        fill:hsl(-290, 70%, 90%);
    }

    svg.railroad g.labeledbox > rect {
        stroke-width: 1px;
        stroke: grey;
        stroke-dasharray: 5px;
        fill:rgba(90, 90, 150, .1);
    }</style>
<g class="sequence">
<g class="nonterminal">
<rect height="22" width="76" x="10" y="10"/>
<text x="48" y="26">
_RECORD</text>
</g>
<g class="choice">
<path d=" M 96 21 h 24 m 52 0 h 24"/>
<g class="nonterminal">
<rect height="22" width="52" x="120" y="10"/>
<text x="146" y="26">
_KEY</text>
</g>
<path d=" M 96 21 a 12 12 0 0 1 12 12 v 9 m 76 0 v -9 a 12 12 0 0 1 12 -12"/>
<path d=" M 108 42 v 0 a 12 12 0 0 0 12 12 m 0 0 h 52 m -23 0 l -5 -5 m 0 10 l 5 -5 m 23 0 a 12 12 0 0 0 12 -12 v 0"/>
<g/>
</g>
<g class="choice">
<path d=" M 206 21 h 24 m 44 0 h 24"/>
<g class="nonterminal">
<rect height="22" width="44" x="230" y="10"/>
<text x="252" y="26">
_IS</text>
</g>
<path d=" M 206 21 a 12 12 0 0 1 12 12 v 9 m 68 0 v -9 a 12 12 0 0 1 12 -12"/>
<path d=" M 218 42 v 0 a 12 12 0 0 0 12 12 m 0 0 h 44 a 12 12 0 0 0 12 -12 v 0"/>
<g/>
</g>
<g class="nonterminal">
<rect height="22" width="132" x="308" y="10"/>
<text x="374" y="26">
qualified_word</text>
</g>
<g class="choice">
<path d=" M 450 21 h 24 m 384 0 h 24"/>
<g class="sequence">
<g class="choice">
<path d=" M 474 21 h 24 m 170 0 h 24"/>
<g class="choice">
<path d=" M 498 21 h 24 m 122 0 h 24"/>
<g class="sequence">
<g class="nonterminal">
<rect height="22" width="68" x="522" y="10"/>
<text x="556" y="26">
SOURCE</text>
</g>
<g class="nonterminal">
<rect height="22" width="44" x="600" y="10"/>
<text x="622" y="26">
_IS</text>
</g>
<path d=" M 590 21 h 10"/>
</g>
<path d=" M 498 21 a 12 12 0 0 1 12 12 v 9 m 146 0 v -9 a 12 12 0 0 1 12 -12"/>
<path d=" M 510 42 v 0 a 12 12 0 0 0 12 12 m 28 0 h 94 m -44 0 l -5 -5 m 0 10 l 5 -5 m 44 0 a 12 12 0 0 0 12 -12 v 0"/>
<g class="terminal">
<rect height="22" rx="10" ry="10" width="28" x="522" y="43"/>
<text x="536" y="59">
=</text>
</g>
</g>
<path d=" M 474 21 a 12 12 0 0 1 12 12 v 42 m 194 0 v -42 a 12 12 0 0 1 12 -12"/>
<path d=" M 486 75 v 0 a 12 12 0 0 0 12 12 m 0 0 h 170 m -82 0 l -5 -5 m 0 10 l 5 -5 m 82 0 a 12 12 0 0 0 12 -12 v 0"/>
<g/>
</g>
<g class="repeat">
<path d=" M 702 21 h 12 m 132 0 h 12 m -12 0 a 12 12 0 0 1 12 12 v 8 a 12 12 0 0 1 -12 12 m -132 0 h 0 a 12 12 0 0 1 -12 -12 v -8 a 12 12 0 0 1 12 -12"/>
<g class="nonterminal">
<rect height="22" width="132" x="714" y="42"/>
<text x="780" y="58">
qualified_word</text>
</g>
<g class="nonterminal">
<rect height="22" width="132" x="714" y="10"/>
<text x="780" y="26">
qualified_word</text>
</g>
</g>
<path d=" M 692 21 h 10"/>
</g>
<path d=" M 450 21 a 12 12 0 0 1 12 12 v 64 m 0 -29 l -5 -5 m 10 0 l -5 5 m 0 29 m 408 0 v -64 m 0 35 l -5 5 m 10 0 l -5 -5 m 0 -35 a 12 12 0 0 1 12 -12"/>
<path d=" M 462 97 v 0 a 12 12 0 0 0 12 12 m 0 0 h 384 m -189 0 l -5 -5 m 0 10 l 5 -5 m 189 0 a 12 12 0 0 0 12 -12 v 0"/>
<g/>
</g>
<path d=" M 86 21 h 10"/>
<path d=" M 196 21 h 10"/>
<path d=" M 298 21 h 10"/>
<path d=" M 440 21 h 10"/>
</g>
</svg>
