<svg class="railroad" viewBox="0 0 412 130" xmlns="http://www.w3.org/2000/svg" xmlns:xlink="http://www.w3.org/1999/xlink">
<style type="text/css">

    svg.railroad {
        background-color: hsl(30, 20%, 95%);
        background-size: 15px 15px;
        background-image: linear-gradient(to right, rgba(30, 30, 30, .05) 1px, transparent 1px),
                          linear-gradient(to bottom, rgba(30, 30, 30, .05) 1px, transparent 1px);
    }

    svg.railroad path {
        stroke-width: 3px;
        stroke: black;
        fill: transparent;
    }

    svg.railroad .debug {
        stroke-width: 1px;
        stroke: red;
    }

    svg.railroad text {
        font: 14px monospace;
        text-anchor: middle;
    }

    svg.railroad .nonterminal text {
        font-weight: bold;
    }

    svg.railroad text.comment {
        font: italic 12px monospace;
    }

    svg.railroad rect {
        stroke-width: 3px;
        stroke: black;
        fill:hsl(-290, 70%, 90%);
    }

    svg.railroad g.labeledbox > rect {
        stroke-width: 1px;
        stroke: grey;
        stroke-dasharray: 5px;
        fill:rgba(90, 90, 150, .1);
    }</style>
<g class="sequence">
<g class="nonterminal">
<rect height="22" width="84" x="10" y="10"/>
<text x="52" y="26">
_RESERVE</text>
</g>
<g class="choice">
<path d=" M 104 21 h 24 m 250 0 h 24"/>
<g class="sequence">
<g class="nonterminal">
<rect height="22" width="76" x="128" y="10"/>
<text x="166" y="26">
integer</text>
</g>
<g class="choice">
<path d=" M 214 21 h 24 m 116 0 h 24"/>
<g class="choice">
<path d=" M 238 21 h 24 m 60 0 h 32"/>
<g class="nonterminal">
<rect height="22" width="60" x="262" y="10"/>
<text x="292" y="26">
_AREA</text>
</g>
<path d=" M 238 21 a 12 12 0 0 1 12 12 v 9 m 92 0 v -9 a 12 12 0 0 1 12 -12"/>
<path d=" M 250 42 v 0 a 12 12 0 0 0 12 12 m 68 0 h 0 a 12 12 0 0 0 12 -12 v 0"/>
<g class="nonterminal">
<rect height="22" width="68" x="262" y="43"/>
<text x="296" y="59">
_AREAS</text>
</g>
</g>
<path d=" M 214 21 a 12 12 0 0 1 12 12 v 42 m 140 0 v -42 a 12 12 0 0 1 12 -12"/>
<path d=" M 226 75 v 0 a 12 12 0 0 0 12 12 m 0 0 h 116 m -55 0 l -5 -5 m 0 10 l 5 -5 m 55 0 a 12 12 0 0 0 12 -12 v 0"/>
<g/>
</g>
<path d=" M 204 21 h 10"/>
</g>
<path d=" M 104 21 a 12 12 0 0 1 12 12 v 64 m 0 -29 l -5 -5 m 10 0 l -5 5 m 0 29 m 274 0 v -64 m 0 35 l -5 5 m 10 0 l -5 -5 m 0 -35 a 12 12 0 0 1 12 -12"/>
<path d=" M 116 97 v 0 a 12 12 0 0 0 12 12 m 36 0 h 214 m -104 0 l -5 -5 m 0 10 l 5 -5 m 104 0 a 12 12 0 0 0 12 -12 v 0"/>
<g class="nonterminal">
<rect height="22" width="36" x="128" y="98"/>
<text x="146" y="114">
NO</text>
</g>
</g>
<path d=" M 94 21 h 10"/>
</g>
</svg>
