<svg class="railroad" viewBox="0 0 264 449" xmlns="http://www.w3.org/2000/svg" xmlns:xlink="http://www.w3.org/1999/xlink">
<style type="text/css">

    svg.railroad {
        background-color: hsl(30, 20%, 95%);
        background-size: 15px 15px;
        background-image: linear-gradient(to right, rgba(30, 30, 30, .05) 1px, transparent 1px),
                          linear-gradient(to bottom, rgba(30, 30, 30, .05) 1px, transparent 1px);
    }

    svg.railroad path {
        stroke-width: 3px;
        stroke: black;
        fill: transparent;
    }

    svg.railroad .debug {
        stroke-width: 1px;
        stroke: red;
    }

    svg.railroad text {
        font: 14px monospace;
        text-anchor: middle;
    }

    svg.railroad .nonterminal text {
        font-weight: bold;
    }

    svg.railroad text.comment {
        font: italic 12px monospace;
    }

    svg.railroad rect {
        stroke-width: 3px;
        stroke: black;
        fill:hsl(-290, 70%, 90%);
    }

    svg.railroad g.labeledbox > rect {
        stroke-width: 1px;
        stroke: grey;
        stroke-dasharray: 5px;
        fill:rgba(90, 90, 150, .1);
    }</style>
<g class="choice">
<path d=" M 10 21 h 24 m 186 0 h 34"/>
<g class="sequence">
<g class="choice">
<path d=" M 34 21 h 24 m 44 0 h 24"/>
<g class="nonterminal">
<rect height="22" width="44" x="58" y="10"/>
<text x="80" y="26">
_IS</text>
</g>
<path d=" M 34 21 a 12 12 0 0 1 12 12 v 9 m 68 0 v -9 a 12 12 0 0 1 12 -12"/>
<path d=" M 46 42 v 0 a 12 12 0 0 0 12 12 m 0 0 h 44 a 12 12 0 0 0 12 -12 v 0"/>
<g/>
</g>
<g class="nonterminal">
<rect height="22" width="84" x="136" y="10"/>
<text x="178" y="26">
EXTERNAL</text>
</g>
<path d=" M 126 21 h 10"/>
</g>
<path d=" M 10 21 a 12 12 0 0 1 12 12 v 31 m 220 0 v -31 a 12 12 0 0 1 12 -12"/>
<path d=" M 22 64 v 55 m 0 -24 l -5 -5 m 10 0 l -5 5 m 0 24 m 220 0 v -55 m 0 30 l -5 5 m 10 0 l -5 -5 m 0 -30"/>
<path d=" M 22 119 v 33 m 220 0 v -33"/>
<path d=" M 22 152 v 33 m 220 0 v -33"/>
<path d=" M 22 185 v 33 m 220 0 v -33"/>
<path d=" M 22 218 v 33 m 220 0 v -33"/>
<path d=" M 22 251 v 33 m 220 0 v -33"/>
<path d=" M 22 284 v 33 m 220 0 v -33"/>
<path d=" M 22 317 v 33 m 220 0 v -33"/>
<path d=" M 22 350 v 33 m 220 0 v -33"/>
<path d=" M 22 383 v 33 m 220 0 v -33"/>
<path d=" M 22 64 v 0 a 12 12 0 0 0 12 12 m 170 0 h 26 a 12 12 0 0 0 12 -12 v 0"/>
<g class="sequence">
<g class="choice">
<path d=" M 34 76 h 24 m 44 0 h 24"/>
<g class="nonterminal">
<rect height="22" width="44" x="58" y="65"/>
<text x="80" y="81">
_IS</text>
</g>
<path d=" M 34 76 a 12 12 0 0 1 12 12 v 9 m 68 0 v -9 a 12 12 0 0 1 12 -12"/>
<path d=" M 46 97 v 0 a 12 12 0 0 0 12 12 m 0 0 h 44 a 12 12 0 0 0 12 -12 v 0"/>
<g/>
</g>
<g class="nonterminal">
<rect height="22" width="68" x="136" y="65"/>
<text x="170" y="81">
GLOBAL</text>
</g>
<path d=" M 126 76 h 10"/>
</g>
<path d=" M 22 119 v 0 a 12 12 0 0 0 12 12 m 196 0 h 0 a 12 12 0 0 0 12 -12 v 0"/>
<g class="nonterminal">
<rect height="22" width="196" x="34" y="120"/>
<text x="132" y="136">
block_contains_clause</text>
</g>
<path d=" M 22 152 v 0 a 12 12 0 0 0 12 12 m 124 0 h 72 m -33 0 l -5 -5 m 0 10 l 5 -5 m 33 0 a 12 12 0 0 0 12 -12 v 0"/>
<g class="nonterminal">
<rect height="22" width="124" x="34" y="153"/>
<text x="96" y="169">
record_clause</text>
</g>
<path d=" M 22 185 v 0 a 12 12 0 0 0 12 12 m 188 0 h 8 a 12 12 0 0 0 12 -12 v 0"/>
<g class="nonterminal">
<rect height="22" width="188" x="34" y="186"/>
<text x="128" y="202">
label_records_clause</text>
</g>
<path d=" M 22 218 v 0 a 12 12 0 0 0 12 12 m 140 0 h 56 m -25 0 l -5 -5 m 0 10 l 5 -5 m 25 0 a 12 12 0 0 0 12 -12 v 0"/>
<g class="nonterminal">
<rect height="22" width="140" x="34" y="219"/>
<text x="104" y="235">
value_of_clause</text>
</g>
<path d=" M 22 251 v 0 a 12 12 0 0 0 12 12 m 172 0 h 24 a 12 12 0 0 0 12 -12 v 0"/>
<g class="nonterminal">
<rect height="22" width="172" x="34" y="252"/>
<text x="120" y="268">
data_records_clause</text>
</g>
<path d=" M 22 284 v 0 a 12 12 0 0 0 12 12 m 124 0 h 72 m -33 0 l -5 -5 m 0 10 l 5 -5 m 33 0 a 12 12 0 0 0 12 -12 v 0"/>
<g class="nonterminal">
<rect height="22" width="124" x="34" y="285"/>
<text x="96" y="301">
linage_clause</text>
</g>
<path d=" M 22 317 v 0 a 12 12 0 0 0 12 12 m 196 0 h 0 a 12 12 0 0 0 12 -12 v 0"/>
<g class="nonterminal">
<rect height="22" width="196" x="34" y="318"/>
<text x="132" y="334">
recording_mode_clause</text>
</g>
<path d=" M 22 350 v 0 a 12 12 0 0 0 12 12 m 140 0 h 56 m -25 0 l -5 -5 m 0 10 l 5 -5 m 25 0 a 12 12 0 0 0 12 -12 v 0"/>
<g class="nonterminal">
<rect height="22" width="140" x="34" y="351"/>
<text x="104" y="367">
code_set_clause</text>
</g>
<path d=" M 22 383 v 0 a 12 12 0 0 0 12 12 m 116 0 h 80 m -37 0 l -5 -5 m 0 10 l 5 -5 m 37 0 a 12 12 0 0 0 12 -12 v 0"/>
<g class="nonterminal">
<rect height="22" width="116" x="34" y="384"/>
<text x="92" y="400">
report_clase</text>
</g>
<path d=" M 22 416 v 0 a 12 12 0 0 0 12 12 m 60 0 h 136 m -65 0 l -5 -5 m 0 10 l 5 -5 m 65 0 a 12 12 0 0 0 12 -12 v 0"/>
<g class="nonterminal">
<rect height="22" width="60" x="34" y="417"/>
<text x="64" y="433">
error</text>
</g>
</g>
</svg>
