<svg class="railroad" viewBox="0 0 826 131" xmlns="http://www.w3.org/2000/svg" xmlns:xlink="http://www.w3.org/1999/xlink">
<style type="text/css">

    svg.railroad {
        background-color: hsl(30, 20%, 95%);
        background-size: 15px 15px;
        background-image: linear-gradient(to right, rgba(30, 30, 30, .05) 1px, transparent 1px),
                          linear-gradient(to bottom, rgba(30, 30, 30, .05) 1px, transparent 1px);
    }

    svg.railroad path {
        stroke-width: 3px;
        stroke: black;
        fill: transparent;
    }

    svg.railroad .debug {
        stroke-width: 1px;
        stroke: red;
    }

    svg.railroad text {
        font: 14px monospace;
        text-anchor: middle;
    }

    svg.railroad .nonterminal text {
        font-weight: bold;
    }

    svg.railroad text.comment {
        font: italic 12px monospace;
    }

    svg.railroad rect {
        stroke-width: 3px;
        stroke: black;
        fill:hsl(-290, 70%, 90%);
    }

    svg.railroad g.labeledbox > rect {
        stroke-width: 1px;
        stroke: grey;
        stroke-dasharray: 5px;
        fill:rgba(90, 90, 150, .1);
    }</style>
<g class="choice">
<path d=" M 10 21 h 24 m 374 0 h 408 m -201 0 l -5 -5 m 0 10 l 5 -5 m 201 0"/>
<g class="sequence">
<g class="nonterminal">
<rect height="22" width="60" x="34" y="10"/>
<text x="64" y="26">
_FILE</text>
</g>
<g class="nonterminal">
<rect height="22" width="84" x="104" y="10"/>
<text x="146" y="26">
_SECTION</text>
</g>
<g class="terminal">
<rect height="22" rx="10" ry="10" width="28" x="198" y="10"/>
<text x="212" y="26">
.</text>
</g>
<g class="repeat">
<path d=" M 236 21 h 12 m 0 0 h 160 m -77 0 l -5 -5 m 0 10 l 5 -5 m 77 0 m -12 0 a 12 12 0 0 1 12 12 v 0 a 12 12 0 0 1 -12 12 m -148 0 h 0 a 12 12 0 0 1 -12 -12 v 0 a 12 12 0 0 1 12 -12"/>
<g class="nonterminal">
<rect height="22" width="148" x="248" y="34"/>
<text x="322" y="50">
file_description</text>
</g>
<g/>
</g>
<path d=" M 94 21 h 10"/>
<path d=" M 188 21 h 10"/>
<path d=" M 226 21 h 10"/>
</g>
<path d=" M 10 21 a 12 12 0 0 1 12 12 v 33 m 782 0 v -33 a 12 12 0 0 1 12 -12"/>
<path d=" M 22 66 v 0 a 12 12 0 0 0 12 12 m 758 0 h 0 a 12 12 0 0 0 12 -12 v 0"/>
<g class="sequence">
<g class="nonterminal">
<rect height="22" width="92" x="34" y="67"/>
<text x="80" y="83">
file_type</text>
</g>
<g class="sequence">
<g class="nonterminal">
<rect height="22" width="204" x="136" y="67"/>
<text x="238" y="83">
file_description_entry</text>
</g>
<g class="choice">
<path d=" M 350 78 h 24 m 212 0 h 24"/>
<g class="nonterminal">
<rect height="22" width="212" x="374" y="67"/>
<text x="480" y="83">
record_description_list</text>
</g>
<path d=" M 350 78 a 12 12 0 0 1 12 12 v 9 m 236 0 v -9 a 12 12 0 0 1 12 -12"/>
<path d=" M 362 99 v 0 a 12 12 0 0 0 12 12 m 0 0 h 212 m -103 0 l -5 -5 m 0 10 l 5 -5 m 103 0 a 12 12 0 0 0 12 -12 v 0"/>
<g/>
</g>
<g class="repeat">
<path d=" M 620 78 h 12 m 148 0 h 12 m -12 0 a 12 12 0 0 1 12 12 v 8 a 12 12 0 0 1 -12 12 m -148 0 h 0 a 12 12 0 0 1 -12 -12 v -8 a 12 12 0 0 1 12 -12"/>
<g class="nonterminal">
<rect height="22" width="148" x="632" y="99"/>
<text x="706" y="115">
file_description</text>
</g>
<g class="nonterminal">
<rect height="22" width="148" x="632" y="67"/>
<text x="706" y="83">
file_description</text>
</g>
</g>
<path d=" M 340 78 h 10"/>
<path d=" M 610 78 h 10"/>
</g>
<path d=" M 126 78 h 10"/>
</g>
</g>
</svg>
