<svg class="railroad" viewBox="0 0 1496 64" xmlns="http://www.w3.org/2000/svg" xmlns:xlink="http://www.w3.org/1999/xlink">
<style type="text/css">

    svg.railroad {
        background-color: hsl(30, 20%, 95%);
        background-size: 15px 15px;
        background-image: linear-gradient(to right, rgba(30, 30, 30, .05) 1px, transparent 1px),
                          linear-gradient(to bottom, rgba(30, 30, 30, .05) 1px, transparent 1px);
    }

    svg.railroad path {
        stroke-width: 3px;
        stroke: black;
        fill: transparent;
    }

    svg.railroad .debug {
        stroke-width: 1px;
        stroke: red;
    }

    svg.railroad text {
        font: 14px monospace;
        text-anchor: middle;
    }

    svg.railroad .nonterminal text {
        font-weight: bold;
    }

    svg.railroad text.comment {
        font: italic 12px monospace;
    }

    svg.railroad rect {
        stroke-width: 3px;
        stroke: black;
        fill:hsl(-290, 70%, 90%);
    }

    svg.railroad g.labeledbox > rect {
        stroke-width: 1px;
        stroke: grey;
        stroke-dasharray: 5px;
        fill:rgba(90, 90, 150, .1);
    }</style>
<g class="sequence">
<g class="nonterminal">
<rect height="22" width="60" x="10" y="10"/>
<text x="40" y="26">
_DATA</text>
</g>
<g class="nonterminal">
<rect height="22" width="92" x="80" y="10"/>
<text x="126" y="26">
_DIVISION</text>
</g>
<g class="terminal">
<rect height="22" rx="10" ry="10" width="28" x="182" y="10"/>
<text x="196" y="26">
.</text>
</g>
<g class="choice">
<path d=" M 220 21 h 24 m 116 0 h 24"/>
<g class="nonterminal">
<rect height="22" width="116" x="244" y="10"/>
<text x="302" y="26">
file_section</text>
</g>
<path d=" M 220 21 a 12 12 0 0 1 12 12 v 9 m 140 0 v -9 a 12 12 0 0 1 12 -12"/>
<path d=" M 232 42 v 0 a 12 12 0 0 0 12 12 m 0 0 h 116 m -55 0 l -5 -5 m 0 10 l 5 -5 m 55 0 a 12 12 0 0 0 12 -12 v 0"/>
<g/>
</g>
<g class="choice">
<path d=" M 394 21 h 24 m 212 0 h 24"/>
<g class="nonterminal">
<rect height="22" width="212" x="418" y="10"/>
<text x="524" y="26">
working_storage_section</text>
</g>
<path d=" M 394 21 a 12 12 0 0 1 12 12 v 9 m 236 0 v -9 a 12 12 0 0 1 12 -12"/>
<path d=" M 406 42 v 0 a 12 12 0 0 0 12 12 m 0 0 h 212 m -103 0 l -5 -5 m 0 10 l 5 -5 m 103 0 a 12 12 0 0 0 12 -12 v 0"/>
<g/>
</g>
<g class="choice">
<path d=" M 664 21 h 24 m 196 0 h 24"/>
<g class="nonterminal">
<rect height="22" width="196" x="688" y="10"/>
<text x="786" y="26">
local_storage_section</text>
</g>
<path d=" M 664 21 a 12 12 0 0 1 12 12 v 9 m 220 0 v -9 a 12 12 0 0 1 12 -12"/>
<path d=" M 676 42 v 0 a 12 12 0 0 0 12 12 m 0 0 h 196 m -95 0 l -5 -5 m 0 10 l 5 -5 m 95 0 a 12 12 0 0 0 12 -12 v 0"/>
<g/>
</g>
<g class="choice">
<path d=" M 918 21 h 24 m 140 0 h 24"/>
<g class="nonterminal">
<rect height="22" width="140" x="942" y="10"/>
<text x="1012" y="26">
linkage_section</text>
</g>
<path d=" M 918 21 a 12 12 0 0 1 12 12 v 9 m 164 0 v -9 a 12 12 0 0 1 12 -12"/>
<path d=" M 930 42 v 0 a 12 12 0 0 0 12 12 m 0 0 h 140 m -67 0 l -5 -5 m 0 10 l 5 -5 m 67 0 a 12 12 0 0 0 12 -12 v 0"/>
<g/>
</g>
<g class="choice">
<path d=" M 1116 21 h 24 m 132 0 h 24"/>
<g class="nonterminal">
<rect height="22" width="132" x="1140" y="10"/>
<text x="1206" y="26">
report_section</text>
</g>
<path d=" M 1116 21 a 12 12 0 0 1 12 12 v 9 m 156 0 v -9 a 12 12 0 0 1 12 -12"/>
<path d=" M 1128 42 v 0 a 12 12 0 0 0 12 12 m 0 0 h 132 m -63 0 l -5 -5 m 0 10 l 5 -5 m 63 0 a 12 12 0 0 0 12 -12 v 0"/>
<g/>
</g>
<g class="choice">
<path d=" M 1306 21 h 24 m 132 0 h 24"/>
<g class="nonterminal">
<rect height="22" width="132" x="1330" y="10"/>
<text x="1396" y="26">
screen_section</text>
</g>
<path d=" M 1306 21 a 12 12 0 0 1 12 12 v 9 m 156 0 v -9 a 12 12 0 0 1 12 -12"/>
<path d=" M 1318 42 v 0 a 12 12 0 0 0 12 12 m 0 0 h 132 m -63 0 l -5 -5 m 0 10 l 5 -5 m 63 0 a 12 12 0 0 0 12 -12 v 0"/>
<g/>
</g>
<path d=" M 70 21 h 10"/>
<path d=" M 172 21 h 10"/>
<path d=" M 210 21 h 10"/>
<path d=" M 384 21 h 10"/>
<path d=" M 654 21 h 10"/>
<path d=" M 908 21 h 10"/>
<path d=" M 1106 21 h 10"/>
<path d=" M 1296 21 h 10"/>
</g>
</svg>
