<svg class="railroad" viewBox="0 0 640 75" xmlns="http://www.w3.org/2000/svg" xmlns:xlink="http://www.w3.org/1999/xlink">
<style type="text/css">

    svg.railroad {
        background-color: hsl(30, 20%, 95%);
        background-size: 15px 15px;
        background-image: linear-gradient(to right, rgba(30, 30, 30, .05) 1px, transparent 1px),
                          linear-gradient(to bottom, rgba(30, 30, 30, .05) 1px, transparent 1px);
    }

    svg.railroad path {
        stroke-width: 3px;
        stroke: black;
        fill: transparent;
    }

    svg.railroad .debug {
        stroke-width: 1px;
        stroke: red;
    }

    svg.railroad text {
        font: 14px monospace;
        text-anchor: middle;
    }

    svg.railroad .nonterminal text {
        font-weight: bold;
    }

    svg.railroad text.comment {
        font: italic 12px monospace;
    }

    svg.railroad rect {
        stroke-width: 3px;
        stroke: black;
        fill:hsl(-290, 70%, 90%);
    }

    svg.railroad g.labeledbox > rect {
        stroke-width: 1px;
        stroke: grey;
        stroke-dasharray: 5px;
        fill:rgba(90, 90, 150, .1);
    }</style>
<g class="sequence">
<g class="choice">
<path d=" M 10 21 h 24 m 60 0 h 24"/>
<g class="nonterminal">
<rect height="22" width="60" x="34" y="10"/>
<text x="64" y="26">
_WITH</text>
</g>
<path d=" M 10 21 a 12 12 0 0 1 12 12 v 9 m 84 0 v -9 a 12 12 0 0 1 12 -12"/>
<path d=" M 22 42 v 0 a 12 12 0 0 0 12 12 m 0 0 h 60 m -27 0 l -5 -5 m 0 10 l 5 -5 m 27 0 a 12 12 0 0 0 12 -12 v 0"/>
<g/>
</g>
<g class="nonterminal">
<rect height="22" width="84" x="128" y="10"/>
<text x="170" y="26">
_FOOTING</text>
</g>
<g class="choice">
<path d=" M 222 21 h 24 m 44 0 h 24"/>
<g class="nonterminal">
<rect height="22" width="44" x="246" y="10"/>
<text x="268" y="26">
_AT</text>
</g>
<path d=" M 222 21 a 12 12 0 0 1 12 12 v 9 m 68 0 v -9 a 12 12 0 0 1 12 -12"/>
<path d=" M 234 42 v 0 a 12 12 0 0 0 12 12 m 0 0 h 44 a 12 12 0 0 0 12 -12 v 0"/>
<g/>
</g>
<g class="choice">
<path d=" M 324 21 h 24 m 132 0 h 24"/>
<g class="nonterminal">
<rect height="22" width="132" x="348" y="10"/>
<text x="414" y="26">
qualified_word</text>
</g>
<path d=" M 324 21 a 12 12 0 0 1 12 12 v 9 m 156 0 v -9 a 12 12 0 0 1 12 -12"/>
<path d=" M 336 42 v 0 a 12 12 0 0 0 12 12 m 84 0 h 48 a 12 12 0 0 0 12 -12 v 0"/>
<g class="nonterminal">
<rect height="22" width="84" x="348" y="43"/>
<text x="390" y="59">
_LITERAL</text>
</g>
</g>
<g class="choice">
<path d=" M 514 21 h 24 m 68 0 h 24"/>
<g class="nonterminal">
<rect height="22" width="68" x="538" y="10"/>
<text x="572" y="26">
_LINES</text>
</g>
<path d=" M 514 21 a 12 12 0 0 1 12 12 v 9 m 92 0 v -9 a 12 12 0 0 1 12 -12"/>
<path d=" M 526 42 v 0 a 12 12 0 0 0 12 12 m 0 0 h 68 m -31 0 l -5 -5 m 0 10 l 5 -5 m 31 0 a 12 12 0 0 0 12 -12 v 0"/>
<g/>
</g>
<path d=" M 118 21 h 10"/>
<path d=" M 212 21 h 10"/>
<path d=" M 314 21 h 10"/>
<path d=" M 504 21 h 10"/>
</g>
</svg>
