<svg class="railroad" viewBox="0 0 664 75" xmlns="http://www.w3.org/2000/svg" xmlns:xlink="http://www.w3.org/1999/xlink">
<style type="text/css">

    svg.railroad {
        background-color: hsl(30, 20%, 95%);
        background-size: 15px 15px;
        background-image: linear-gradient(to right, rgba(30, 30, 30, .05) 1px, transparent 1px),
                          linear-gradient(to bottom, rgba(30, 30, 30, .05) 1px, transparent 1px);
    }

    svg.railroad path {
        stroke-width: 3px;
        stroke: black;
        fill: transparent;
    }

    svg.railroad .debug {
        stroke-width: 1px;
        stroke: red;
    }

    svg.railroad text {
        font: 14px monospace;
        text-anchor: middle;
    }

    svg.railroad .nonterminal text {
        font-weight: bold;
    }

    svg.railroad text.comment {
        font: italic 12px monospace;
    }

    svg.railroad rect {
        stroke-width: 3px;
        stroke: black;
        fill:hsl(-290, 70%, 90%);
    }

    svg.railroad g.labeledbox > rect {
        stroke-width: 1px;
        stroke: grey;
        stroke-dasharray: 5px;
        fill:rgba(90, 90, 150, .1);
    }</style>
<g class="sequence">
<g class="nonterminal">
<rect height="22" width="76" x="10" y="10"/>
<text x="48" y="26">
_LINAGE</text>
</g>
<g class="choice">
<path d=" M 96 21 h 24 m 44 0 h 24"/>
<g class="nonterminal">
<rect height="22" width="44" x="120" y="10"/>
<text x="142" y="26">
_IS</text>
</g>
<path d=" M 96 21 a 12 12 0 0 1 12 12 v 9 m 68 0 v -9 a 12 12 0 0 1 12 -12"/>
<path d=" M 108 42 v 0 a 12 12 0 0 0 12 12 m 0 0 h 44 a 12 12 0 0 0 12 -12 v 0"/>
<g/>
</g>
<g class="choice">
<path d=" M 198 21 h 24 m 132 0 h 24"/>
<g class="nonterminal">
<rect height="22" width="132" x="222" y="10"/>
<text x="288" y="26">
qualified_word</text>
</g>
<path d=" M 198 21 a 12 12 0 0 1 12 12 v 9 m 156 0 v -9 a 12 12 0 0 1 12 -12"/>
<path d=" M 210 42 v 0 a 12 12 0 0 0 12 12 m 84 0 h 48 a 12 12 0 0 0 12 -12 v 0"/>
<g class="nonterminal">
<rect height="22" width="84" x="222" y="43"/>
<text x="264" y="59">
_LITERAL</text>
</g>
</g>
<g class="choice">
<path d=" M 388 21 h 24 m 68 0 h 24"/>
<g class="nonterminal">
<rect height="22" width="68" x="412" y="10"/>
<text x="446" y="26">
_LINES</text>
</g>
<path d=" M 388 21 a 12 12 0 0 1 12 12 v 9 m 92 0 v -9 a 12 12 0 0 1 12 -12"/>
<path d=" M 400 42 v 0 a 12 12 0 0 0 12 12 m 0 0 h 68 m -31 0 l -5 -5 m 0 10 l 5 -5 m 31 0 a 12 12 0 0 0 12 -12 v 0"/>
<g/>
</g>
<g class="repeat">
<path d=" M 514 21 h 12 m 0 0 h 128 m -61 0 l -5 -5 m 0 10 l 5 -5 m 61 0 m -12 0 a 12 12 0 0 1 12 12 v 0 a 12 12 0 0 1 -12 12 m -116 0 h 0 a 12 12 0 0 1 -12 -12 v 0 a 12 12 0 0 1 12 -12"/>
<g class="nonterminal">
<rect height="22" width="116" x="526" y="34"/>
<text x="584" y="50">
linage_lines</text>
</g>
<g/>
</g>
<path d=" M 86 21 h 10"/>
<path d=" M 188 21 h 10"/>
<path d=" M 378 21 h 10"/>
<path d=" M 504 21 h 10"/>
</g>
</svg>
