<svg class="railroad" viewBox="0 0 568 75" xmlns="http://www.w3.org/2000/svg" xmlns:xlink="http://www.w3.org/1999/xlink">
<style type="text/css">

    svg.railroad {
        background-color: hsl(30, 20%, 95%);
        background-size: 15px 15px;
        background-image: linear-gradient(to right, rgba(30, 30, 30, .05) 1px, transparent 1px),
                          linear-gradient(to bottom, rgba(30, 30, 30, .05) 1px, transparent 1px);
    }

    svg.railroad path {
        stroke-width: 3px;
        stroke: black;
        fill: transparent;
    }

    svg.railroad .debug {
        stroke-width: 1px;
        stroke: red;
    }

    svg.railroad text {
        font: 14px monospace;
        text-anchor: middle;
    }

    svg.railroad .nonterminal text {
        font-weight: bold;
    }

    svg.railroad text.comment {
        font: italic 12px monospace;
    }

    svg.railroad rect {
        stroke-width: 3px;
        stroke: black;
        fill:hsl(-290, 70%, 90%);
    }

    svg.railroad g.labeledbox > rect {
        stroke-width: 1px;
        stroke: grey;
        stroke-dasharray: 5px;
        fill:rgba(90, 90, 150, .1);
    }</style>
<g class="sequence">
<g class="nonterminal">
<rect height="22" width="68" x="10" y="10"/>
<text x="44" y="26">
_VALUE</text>
</g>
<g class="nonterminal">
<rect height="22" width="44" x="88" y="10"/>
<text x="110" y="26">
_OF</text>
</g>
<g class="choice">
<path d=" M 142 21 h 24 m 52 0 h 48"/>
<g class="nonterminal">
<rect height="22" width="52" x="166" y="10"/>
<text x="192" y="26">
WORD</text>
</g>
<path d=" M 142 21 a 12 12 0 0 1 12 12 v 9 m 100 0 v -9 a 12 12 0 0 1 12 -12"/>
<path d=" M 154 42 v 0 a 12 12 0 0 0 12 12 m 76 0 h 0 a 12 12 0 0 0 12 -12 v 0"/>
<g class="nonterminal">
<rect height="22" width="76" x="166" y="43"/>
<text x="204" y="59">
FILE_ID</text>
</g>
</g>
<g class="choice">
<path d=" M 276 21 h 24 m 44 0 h 24"/>
<g class="nonterminal">
<rect height="22" width="44" x="300" y="10"/>
<text x="322" y="26">
_IS</text>
</g>
<path d=" M 276 21 a 12 12 0 0 1 12 12 v 9 m 68 0 v -9 a 12 12 0 0 1 12 -12"/>
<path d=" M 288 42 v 0 a 12 12 0 0 0 12 12 m 0 0 h 44 a 12 12 0 0 0 12 -12 v 0"/>
<g/>
</g>
<g class="choice">
<path d=" M 378 21 h 24 m 84 0 h 72 m -33 0 l -5 -5 m 0 10 l 5 -5 m 33 0"/>
<g class="nonterminal">
<rect height="22" width="84" x="402" y="10"/>
<text x="444" y="26">
_LITERAL</text>
</g>
<path d=" M 378 21 a 12 12 0 0 1 12 12 v 9 m 156 0 v -9 a 12 12 0 0 1 12 -12"/>
<path d=" M 390 42 v 0 a 12 12 0 0 0 12 12 m 132 0 h 0 a 12 12 0 0 0 12 -12 v 0"/>
<g class="nonterminal">
<rect height="22" width="132" x="402" y="43"/>
<text x="468" y="59">
qualified_word</text>
</g>
</g>
<path d=" M 78 21 h 10"/>
<path d=" M 132 21 h 10"/>
<path d=" M 266 21 h 10"/>
<path d=" M 368 21 h 10"/>
</g>
</svg>
