<svg class="railroad" viewBox="0 0 262 119" xmlns="http://www.w3.org/2000/svg" xmlns:xlink="http://www.w3.org/1999/xlink">
<style type="text/css">

    svg.railroad {
        background-color: hsl(30, 20%, 95%);
        background-size: 15px 15px;
        background-image: linear-gradient(to right, rgba(30, 30, 30, .05) 1px, transparent 1px),
                          linear-gradient(to bottom, rgba(30, 30, 30, .05) 1px, transparent 1px);
    }

    svg.railroad path {
        stroke-width: 3px;
        stroke: black;
        fill: transparent;
    }

    svg.railroad .debug {
        stroke-width: 1px;
        stroke: red;
    }

    svg.railroad text {
        font: 14px monospace;
        text-anchor: middle;
    }

    svg.railroad .nonterminal text {
        font-weight: bold;
    }

    svg.railroad text.comment {
        font: italic 12px monospace;
    }

    svg.railroad rect {
        stroke-width: 3px;
        stroke: black;
        fill:hsl(-290, 70%, 90%);
    }

    svg.railroad g.labeledbox > rect {
        stroke-width: 1px;
        stroke: grey;
        stroke-dasharray: 5px;
        fill:rgba(90, 90, 150, .1);
    }</style>
<g class="choice">
<path d=" M 10 21 h 24 m 178 0 h 40"/>
<g class="sequence">
<g class="nonterminal">
<rect height="22" width="76" x="34" y="10"/>
<text x="72" y="26">
_RECORD</text>
</g>
<g class="choice">
<path d=" M 120 21 h 24 m 44 0 h 24"/>
<g class="nonterminal">
<rect height="22" width="44" x="144" y="10"/>
<text x="166" y="26">
_IS</text>
</g>
<path d=" M 120 21 a 12 12 0 0 1 12 12 v 9 m 68 0 v -9 a 12 12 0 0 1 12 -12"/>
<path d=" M 132 42 v 0 a 12 12 0 0 0 12 12 m 0 0 h 44 a 12 12 0 0 0 12 -12 v 0"/>
<g/>
</g>
<path d=" M 110 21 h 10"/>
</g>
<path d=" M 10 21 a 12 12 0 0 1 12 12 v 31 m 218 0 v -31 a 12 12 0 0 1 12 -12"/>
<path d=" M 22 64 v 0 a 12 12 0 0 0 12 12 m 194 0 h 0 a 12 12 0 0 0 12 -12 v 0"/>
<g class="sequence">
<g class="nonterminal">
<rect height="22" width="84" x="34" y="65"/>
<text x="76" y="81">
_RECORDS</text>
</g>
<g class="choice">
<path d=" M 128 76 h 24 m 52 0 h 24"/>
<g class="nonterminal">
<rect height="22" width="52" x="152" y="65"/>
<text x="178" y="81">
_ARE</text>
</g>
<path d=" M 128 76 a 12 12 0 0 1 12 12 v 9 m 76 0 v -9 a 12 12 0 0 1 12 -12"/>
<path d=" M 140 97 v 0 a 12 12 0 0 0 12 12 m 0 0 h 52 m -23 0 l -5 -5 m 0 10 l 5 -5 m 23 0 a 12 12 0 0 0 12 -12 v 0"/>
<g/>
</g>
<path d=" M 118 76 h 10"/>
</g>
</g>
</svg>
