<svg class="railroad" viewBox="0 0 1560 141" xmlns="http://www.w3.org/2000/svg" xmlns:xlink="http://www.w3.org/1999/xlink">
<style type="text/css">

    svg.railroad {
        background-color: hsl(30, 20%, 95%);
        background-size: 15px 15px;
        background-image: linear-gradient(to right, rgba(30, 30, 30, .05) 1px, transparent 1px),
                          linear-gradient(to bottom, rgba(30, 30, 30, .05) 1px, transparent 1px);
    }

    svg.railroad path {
        stroke-width: 3px;
        stroke: black;
        fill: transparent;
    }

    svg.railroad .debug {
        stroke-width: 1px;
        stroke: red;
    }

    svg.railroad text {
        font: 14px monospace;
        text-anchor: middle;
    }

    svg.railroad .nonterminal text {
        font-weight: bold;
    }

    svg.railroad text.comment {
        font: italic 12px monospace;
    }

    svg.railroad rect {
        stroke-width: 3px;
        stroke: black;
        fill:hsl(-290, 70%, 90%);
    }

    svg.railroad g.labeledbox > rect {
        stroke-width: 1px;
        stroke: grey;
        stroke-dasharray: 5px;
        fill:rgba(90, 90, 150, .1);
    }</style>
<g class="choice">
<path d=" M 10 21 h 24 m 666 0 h 850 m -422 0 l -5 -5 m 0 10 l 5 -5 m 422 0"/>
<g class="sequence">
<g class="nonterminal">
<rect height="22" width="76" x="34" y="10"/>
<text x="72" y="26">
_RECORD</text>
</g>
<g class="choice">
<path d=" M 120 21 h 24 m 92 0 h 24"/>
<g class="nonterminal">
<rect height="22" width="92" x="144" y="10"/>
<text x="190" y="26">
_CONTAINS</text>
</g>
<path d=" M 120 21 a 12 12 0 0 1 12 12 v 9 m 116 0 v -9 a 12 12 0 0 1 12 -12"/>
<path d=" M 132 42 v 0 a 12 12 0 0 0 12 12 m 0 0 h 92 m -43 0 l -5 -5 m 0 10 l 5 -5 m 43 0 a 12 12 0 0 0 12 -12 v 0"/>
<g/>
</g>
<g class="nonterminal">
<rect height="22" width="76" x="270" y="10"/>
<text x="308" y="26">
integer</text>
</g>
<g class="choice">
<path d=" M 356 21 h 24 m 130 0 h 24"/>
<g class="sequence">
<g class="nonterminal">
<rect height="22" width="44" x="380" y="10"/>
<text x="402" y="26">
_TO</text>
</g>
<g class="nonterminal">
<rect height="22" width="76" x="434" y="10"/>
<text x="472" y="26">
integer</text>
</g>
<path d=" M 424 21 h 10"/>
</g>
<path d=" M 356 21 a 12 12 0 0 1 12 12 v 9 m 154 0 v -9 a 12 12 0 0 1 12 -12"/>
<path d=" M 368 42 v 0 a 12 12 0 0 0 12 12 m 0 0 h 130 m -62 0 l -5 -5 m 0 10 l 5 -5 m 62 0 a 12 12 0 0 0 12 -12 v 0"/>
<g/>
</g>
<g class="choice">
<path d=" M 544 21 h 24 m 108 0 h 24"/>
<g class="nonterminal">
<rect height="22" width="108" x="568" y="10"/>
<text x="622" y="26">
_CHARACTERS</text>
</g>
<path d=" M 544 21 a 12 12 0 0 1 12 12 v 9 m 132 0 v -9 a 12 12 0 0 1 12 -12"/>
<path d=" M 556 42 v 0 a 12 12 0 0 0 12 12 m 0 0 h 108 m -51 0 l -5 -5 m 0 10 l 5 -5 m 51 0 a 12 12 0 0 0 12 -12 v 0"/>
<g/>
</g>
<path d=" M 110 21 h 10"/>
<path d=" M 260 21 h 10"/>
<path d=" M 346 21 h 10"/>
<path d=" M 534 21 h 10"/>
</g>
<path d=" M 10 21 a 12 12 0 0 1 12 12 v 31 m 1516 0 v -31 a 12 12 0 0 1 12 -12"/>
<path d=" M 22 64 v 0 a 12 12 0 0 0 12 12 m 1492 0 h 0 a 12 12 0 0 0 12 -12 v 0"/>
<g class="sequence">
<g class="nonterminal">
<rect height="22" width="76" x="34" y="65"/>
<text x="72" y="81">
_RECORD</text>
</g>
<g class="choice">
<path d=" M 120 76 h 24 m 44 0 h 24"/>
<g class="nonterminal">
<rect height="22" width="44" x="144" y="65"/>
<text x="166" y="81">
_IS</text>
</g>
<path d=" M 120 76 a 12 12 0 0 1 12 12 v 9 m 68 0 v -9 a 12 12 0 0 1 12 -12"/>
<path d=" M 132 97 v 0 a 12 12 0 0 0 12 12 m 0 0 h 44 a 12 12 0 0 0 12 -12 v 0"/>
<g/>
</g>
<g class="nonterminal">
<rect height="22" width="76" x="222" y="65"/>
<text x="260" y="81">
VARYING</text>
</g>
<g class="choice">
<path d=" M 308 76 h 24 m 44 0 h 24"/>
<g class="nonterminal">
<rect height="22" width="44" x="332" y="65"/>
<text x="354" y="81">
_IN</text>
</g>
<path d=" M 308 76 a 12 12 0 0 1 12 12 v 9 m 68 0 v -9 a 12 12 0 0 1 12 -12"/>
<path d=" M 320 97 v 0 a 12 12 0 0 0 12 12 m 0 0 h 44 a 12 12 0 0 0 12 -12 v 0"/>
<g/>
</g>
<g class="choice">
<path d=" M 410 76 h 24 m 60 0 h 24"/>
<g class="nonterminal">
<rect height="22" width="60" x="434" y="65"/>
<text x="464" y="81">
_SIZE</text>
</g>
<path d=" M 410 76 a 12 12 0 0 1 12 12 v 9 m 84 0 v -9 a 12 12 0 0 1 12 -12"/>
<path d=" M 422 97 v 0 a 12 12 0 0 0 12 12 m 0 0 h 60 m -27 0 l -5 -5 m 0 10 l 5 -5 m 27 0 a 12 12 0 0 0 12 -12 v 0"/>
<g/>
</g>
<g class="choice">
<path d=" M 528 76 h 24 m 194 0 h 24"/>
<g class="sequence">
<g class="choice">
<path d=" M 552 76 h 24 m 60 0 h 24"/>
<g class="nonterminal">
<rect height="22" width="60" x="576" y="65"/>
<text x="606" y="81">
_FROM</text>
</g>
<path d=" M 552 76 a 12 12 0 0 1 12 12 v 9 m 84 0 v -9 a 12 12 0 0 1 12 -12"/>
<path d=" M 564 97 v 0 a 12 12 0 0 0 12 12 m 0 0 h 60 m -27 0 l -5 -5 m 0 10 l 5 -5 m 27 0 a 12 12 0 0 0 12 -12 v 0"/>
<g/>
</g>
<g class="nonterminal">
<rect height="22" width="76" x="670" y="65"/>
<text x="708" y="81">
integer</text>
</g>
<path d=" M 660 76 h 10"/>
</g>
<path d=" M 528 76 a 12 12 0 0 1 12 12 v 31 m 218 0 v -31 a 12 12 0 0 1 12 -12"/>
<path d=" M 540 119 v 0 a 12 12 0 0 0 12 12 m 0 0 h 194 m -94 0 l -5 -5 m 0 10 l 5 -5 m 94 0 a 12 12 0 0 0 12 -12 v 0"/>
<g/>
</g>
<g class="choice">
<path d=" M 780 76 h 24 m 130 0 h 24"/>
<g class="sequence">
<g class="nonterminal">
<rect height="22" width="44" x="804" y="65"/>
<text x="826" y="81">
_TO</text>
</g>
<g class="nonterminal">
<rect height="22" width="76" x="858" y="65"/>
<text x="896" y="81">
integer</text>
</g>
<path d=" M 848 76 h 10"/>
</g>
<path d=" M 780 76 a 12 12 0 0 1 12 12 v 9 m 154 0 v -9 a 12 12 0 0 1 12 -12"/>
<path d=" M 792 97 v 0 a 12 12 0 0 0 12 12 m 0 0 h 130 m -62 0 l -5 -5 m 0 10 l 5 -5 m 62 0 a 12 12 0 0 0 12 -12 v 0"/>
<g/>
</g>
<g class="choice">
<path d=" M 968 76 h 24 m 108 0 h 24"/>
<g class="nonterminal">
<rect height="22" width="108" x="992" y="65"/>
<text x="1046" y="81">
_CHARACTERS</text>
</g>
<path d=" M 968 76 a 12 12 0 0 1 12 12 v 9 m 132 0 v -9 a 12 12 0 0 1 12 -12"/>
<path d=" M 980 97 v 0 a 12 12 0 0 0 12 12 m 0 0 h 108 m -51 0 l -5 -5 m 0 10 l 5 -5 m 51 0 a 12 12 0 0 0 12 -12 v 0"/>
<g/>
</g>
<g class="choice">
<path d=" M 1134 76 h 24 m 344 0 h 24"/>
<g class="sequence">
<g class="nonterminal">
<rect height="22" width="100" x="1158" y="65"/>
<text x="1208" y="81">
_DEPENDING</text>
</g>
<g class="choice">
<path d=" M 1268 76 h 24 m 44 0 h 24"/>
<g class="nonterminal">
<rect height="22" width="44" x="1292" y="65"/>
<text x="1314" y="81">
_ON</text>
</g>
<path d=" M 1268 76 a 12 12 0 0 1 12 12 v 9 m 68 0 v -9 a 12 12 0 0 1 12 -12"/>
<path d=" M 1280 97 v 0 a 12 12 0 0 0 12 12 m 0 0 h 44 a 12 12 0 0 0 12 -12 v 0"/>
<g/>
</g>
<g class="nonterminal">
<rect height="22" width="132" x="1370" y="65"/>
<text x="1436" y="81">
qualified_word</text>
</g>
<path d=" M 1258 76 h 10"/>
<path d=" M 1360 76 h 10"/>
</g>
<path d=" M 1134 76 a 12 12 0 0 1 12 12 v 31 m 368 0 v -31 a 12 12 0 0 1 12 -12"/>
<path d=" M 1146 119 v 0 a 12 12 0 0 0 12 12 m 0 0 h 344 m -169 0 l -5 -5 m 0 10 l 5 -5 m 169 0 a 12 12 0 0 0 12 -12 v 0"/>
<g/>
</g>
<path d=" M 110 76 h 10"/>
<path d=" M 212 76 h 10"/>
<path d=" M 298 76 h 10"/>
<path d=" M 400 76 h 10"/>
<path d=" M 518 76 h 10"/>
<path d=" M 770 76 h 10"/>
<path d=" M 958 76 h 10"/>
<path d=" M 1124 76 h 10"/>
</g>
</g>
</svg>
