<svg class="railroad" viewBox="0 0 726 97" xmlns="http://www.w3.org/2000/svg" xmlns:xlink="http://www.w3.org/1999/xlink">
<style type="text/css">

    svg.railroad {
        background-color: hsl(30, 20%, 95%);
        background-size: 15px 15px;
        background-image: linear-gradient(to right, rgba(30, 30, 30, .05) 1px, transparent 1px),
                          linear-gradient(to bottom, rgba(30, 30, 30, .05) 1px, transparent 1px);
    }

    svg.railroad path {
        stroke-width: 3px;
        stroke: black;
        fill: transparent;
    }

    svg.railroad .debug {
        stroke-width: 1px;
        stroke: red;
    }

    svg.railroad text {
        font: 14px monospace;
        text-anchor: middle;
    }

    svg.railroad .nonterminal text {
        font-weight: bold;
    }

    svg.railroad text.comment {
        font: italic 12px monospace;
    }

    svg.railroad rect {
        stroke-width: 3px;
        stroke: black;
        fill:hsl(-290, 70%, 90%);
    }

    svg.railroad g.labeledbox > rect {
        stroke-width: 1px;
        stroke: grey;
        stroke-dasharray: 5px;
        fill:rgba(90, 90, 150, .1);
    }</style>
<g class="sequence">
<g class="nonterminal">
<rect height="22" width="68" x="10" y="10"/>
<text x="44" y="26">
_BLOCK</text>
</g>
<g class="choice">
<path d=" M 88 21 h 24 m 92 0 h 24"/>
<g class="nonterminal">
<rect height="22" width="92" x="112" y="10"/>
<text x="158" y="26">
_CONTAINS</text>
</g>
<path d=" M 88 21 a 12 12 0 0 1 12 12 v 9 m 116 0 v -9 a 12 12 0 0 1 12 -12"/>
<path d=" M 100 42 v 0 a 12 12 0 0 0 12 12 m 0 0 h 92 m -43 0 l -5 -5 m 0 10 l 5 -5 m 43 0 a 12 12 0 0 0 12 -12 v 0"/>
<g/>
</g>
<g class="nonterminal">
<rect height="22" width="76" x="238" y="10"/>
<text x="276" y="26">
integer</text>
</g>
<g class="choice">
<path d=" M 324 21 h 24 m 130 0 h 24"/>
<g class="sequence">
<g class="nonterminal">
<rect height="22" width="44" x="348" y="10"/>
<text x="370" y="26">
_TO</text>
</g>
<g class="nonterminal">
<rect height="22" width="76" x="402" y="10"/>
<text x="440" y="26">
integer</text>
</g>
<path d=" M 392 21 h 10"/>
</g>
<path d=" M 324 21 a 12 12 0 0 1 12 12 v 9 m 154 0 v -9 a 12 12 0 0 1 12 -12"/>
<path d=" M 336 42 v 0 a 12 12 0 0 0 12 12 m 0 0 h 130 m -62 0 l -5 -5 m 0 10 l 5 -5 m 62 0 a 12 12 0 0 0 12 -12 v 0"/>
<g/>
</g>
<g class="choice">
<path d=" M 512 21 h 24 m 156 0 h 24"/>
<g class="choice">
<path d=" M 536 21 h 24 m 108 0 h 24"/>
<g class="nonterminal">
<rect height="22" width="108" x="560" y="10"/>
<text x="614" y="26">
_CHARACTERS</text>
</g>
<path d=" M 536 21 a 12 12 0 0 1 12 12 v 9 m 132 0 v -9 a 12 12 0 0 1 12 -12"/>
<path d=" M 548 42 v 0 a 12 12 0 0 0 12 12 m 84 0 h 24 a 12 12 0 0 0 12 -12 v 0"/>
<g class="nonterminal">
<rect height="22" width="84" x="560" y="43"/>
<text x="602" y="59">
_RECORDS</text>
</g>
</g>
<path d=" M 512 21 a 12 12 0 0 1 12 12 v 42 m 180 0 v -42 a 12 12 0 0 1 12 -12"/>
<path d=" M 524 75 v 0 a 12 12 0 0 0 12 12 m 0 0 h 156 m -75 0 l -5 -5 m 0 10 l 5 -5 m 75 0 a 12 12 0 0 0 12 -12 v 0"/>
<g/>
</g>
<path d=" M 78 21 h 10"/>
<path d=" M 228 21 h 10"/>
<path d=" M 314 21 h 10"/>
<path d=" M 502 21 h 10"/>
</g>
</svg>
