<svg class="railroad" viewBox="0 0 240 504" xmlns="http://www.w3.org/2000/svg" xmlns:xlink="http://www.w3.org/1999/xlink">
<style type="text/css">

    svg.railroad {
        background-color: hsl(30, 20%, 95%);
        background-size: 15px 15px;
        background-image: linear-gradient(to right, rgba(30, 30, 30, .05) 1px, transparent 1px),
                          linear-gradient(to bottom, rgba(30, 30, 30, .05) 1px, transparent 1px);
    }

    svg.railroad path {
        stroke-width: 3px;
        stroke: black;
        fill: transparent;
    }

    svg.railroad .debug {
        stroke-width: 1px;
        stroke: red;
    }

    svg.railroad text {
        font: 14px monospace;
        text-anchor: middle;
    }

    svg.railroad .nonterminal text {
        font-weight: bold;
    }

    svg.railroad text.comment {
        font: italic 12px monospace;
    }

    svg.railroad rect {
        stroke-width: 3px;
        stroke: black;
        fill:hsl(-290, 70%, 90%);
    }

    svg.railroad g.labeledbox > rect {
        stroke-width: 1px;
        stroke: grey;
        stroke-dasharray: 5px;
        fill:rgba(90, 90, 150, .1);
    }</style>
<g class="choice">
<path d=" M 10 21 h 24 m 148 0 h 48"/>
<g class="nonterminal">
<rect height="22" width="148" x="34" y="10"/>
<text x="108" y="26">
redefines_clause</text>
</g>
<path d=" M 10 21 a 12 12 0 0 1 12 12 v 9 m 196 0 v -9 a 12 12 0 0 1 12 -12"/>
<path d=" M 22 42 v 33 m 196 0 v -33"/>
<path d=" M 22 75 v 33 m 196 0 v -33"/>
<path d=" M 22 108 v 33 m 196 0 v -33"/>
<path d=" M 22 141 v 33 m 196 0 v -33"/>
<path d=" M 22 174 v 33 m 196 0 v -33"/>
<path d=" M 22 207 v 33 m 196 0 v -33"/>
<path d=" M 22 240 v 33 m 196 0 v -33"/>
<path d=" M 22 273 v 33 m 196 0 v -33"/>
<path d=" M 22 306 v 33 m 196 0 v -33"/>
<path d=" M 22 339 v 33 m 196 0 v -33"/>
<path d=" M 22 372 v 33 m 196 0 v -33"/>
<path d=" M 22 405 v 33 m 196 0 v -33"/>
<path d=" M 22 438 v 33 m 196 0 v -33"/>
<path d=" M 22 42 v 0 a 12 12 0 0 0 12 12 m 140 0 h 32 a 12 12 0 0 0 12 -12 v 0"/>
<g class="nonterminal">
<rect height="22" width="140" x="34" y="43"/>
<text x="104" y="59">
external_clause</text>
</g>
<path d=" M 22 75 v 0 a 12 12 0 0 0 12 12 m 124 0 h 48 a 12 12 0 0 0 12 -12 v 0"/>
<g class="nonterminal">
<rect height="22" width="124" x="34" y="76"/>
<text x="96" y="92">
global_clause</text>
</g>
<path d=" M 22 108 v 0 a 12 12 0 0 0 12 12 m 132 0 h 40 a 12 12 0 0 0 12 -12 v 0"/>
<g class="nonterminal">
<rect height="22" width="132" x="34" y="109"/>
<text x="100" y="125">
picture_clause</text>
</g>
<path d=" M 22 141 v 0 a 12 12 0 0 0 12 12 m 116 0 h 56 m -25 0 l -5 -5 m 0 10 l 5 -5 m 25 0 a 12 12 0 0 0 12 -12 v 0"/>
<g class="nonterminal">
<rect height="22" width="116" x="34" y="142"/>
<text x="92" y="158">
usage_clause</text>
</g>
<path d=" M 22 174 v 0 a 12 12 0 0 0 12 12 m 108 0 h 64 m -29 0 l -5 -5 m 0 10 l 5 -5 m 29 0 a 12 12 0 0 0 12 -12 v 0"/>
<g class="nonterminal">
<rect height="22" width="108" x="34" y="175"/>
<text x="88" y="191">
sign_clause</text>
</g>
<path d=" M 22 207 v 0 a 12 12 0 0 0 12 12 m 124 0 h 48 a 12 12 0 0 0 12 -12 v 0"/>
<g class="nonterminal">
<rect height="22" width="124" x="34" y="208"/>
<text x="96" y="224">
occurs_clause</text>
</g>
<path d=" M 22 240 v 0 a 12 12 0 0 0 12 12 m 148 0 h 24 a 12 12 0 0 0 12 -12 v 0"/>
<g class="nonterminal">
<rect height="22" width="148" x="34" y="241"/>
<text x="108" y="257">
justified_clause</text>
</g>
<path d=" M 22 273 v 0 a 12 12 0 0 0 12 12 m 172 0 h 0 a 12 12 0 0 0 12 -12 v 0"/>
<g class="nonterminal">
<rect height="22" width="172" x="34" y="274"/>
<text x="120" y="290">
synchronized_clause</text>
</g>
<path d=" M 22 306 v 0 a 12 12 0 0 0 12 12 m 116 0 h 56 m -25 0 l -5 -5 m 0 10 l 5 -5 m 25 0 a 12 12 0 0 0 12 -12 v 0"/>
<g class="nonterminal">
<rect height="22" width="116" x="34" y="307"/>
<text x="92" y="323">
blank_clause</text>
</g>
<path d=" M 22 339 v 0 a 12 12 0 0 0 12 12 m 116 0 h 56 m -25 0 l -5 -5 m 0 10 l 5 -5 m 25 0 a 12 12 0 0 0 12 -12 v 0"/>
<g class="nonterminal">
<rect height="22" width="116" x="34" y="340"/>
<text x="92" y="356">
based_clause</text>
</g>
<path d=" M 22 372 v 0 a 12 12 0 0 0 12 12 m 116 0 h 56 m -25 0 l -5 -5 m 0 10 l 5 -5 m 25 0 a 12 12 0 0 0 12 -12 v 0"/>
<g class="nonterminal">
<rect height="22" width="116" x="34" y="373"/>
<text x="92" y="389">
value_clause</text>
</g>
<path d=" M 22 405 v 0 a 12 12 0 0 0 12 12 m 132 0 h 40 a 12 12 0 0 0 12 -12 v 0"/>
<g class="nonterminal">
<rect height="22" width="132" x="34" y="406"/>
<text x="100" y="422">
renames_clause</text>
</g>
<path d=" M 22 438 v 0 a 12 12 0 0 0 12 12 m 156 0 h 16 a 12 12 0 0 0 12 -12 v 0"/>
<g class="nonterminal">
<rect height="22" width="156" x="34" y="439"/>
<text x="112" y="455">
any_length_clause</text>
</g>
<path d=" M 22 471 v 0 a 12 12 0 0 0 12 12 m 60 0 h 112 m -53 0 l -5 -5 m 0 10 l 5 -5 m 53 0 a 12 12 0 0 0 12 -12 v 0"/>
<g class="nonterminal">
<rect height="22" width="60" x="34" y="472"/>
<text x="64" y="488">
error</text>
</g>
</g>
</svg>
