<svg class="railroad" viewBox="0 0 286 1197" xmlns="http://www.w3.org/2000/svg" xmlns:xlink="http://www.w3.org/1999/xlink">
<style type="text/css">

    svg.railroad {
        background-color: hsl(30, 20%, 95%);
        background-size: 15px 15px;
        background-image: linear-gradient(to right, rgba(30, 30, 30, .05) 1px, transparent 1px),
                          linear-gradient(to bottom, rgba(30, 30, 30, .05) 1px, transparent 1px);
    }

    svg.railroad path {
        stroke-width: 3px;
        stroke: black;
        fill: transparent;
    }

    svg.railroad .debug {
        stroke-width: 1px;
        stroke: red;
    }

    svg.railroad text {
        font: 14px monospace;
        text-anchor: middle;
    }

    svg.railroad .nonterminal text {
        font-weight: bold;
    }

    svg.railroad text.comment {
        font: italic 12px monospace;
    }

    svg.railroad rect {
        stroke-width: 3px;
        stroke: black;
        fill:hsl(-290, 70%, 90%);
    }

    svg.railroad g.labeledbox > rect {
        stroke-width: 1px;
        stroke: grey;
        stroke-dasharray: 5px;
        fill:rgba(90, 90, 150, .1);
    }</style>
<g class="choice">
<path d=" M 10 21 h 24 m 68 0 h 174 m -84 0 l -5 -5 m 0 10 l 5 -5 m 84 0"/>
<g class="nonterminal">
<rect height="22" width="68" x="34" y="10"/>
<text x="68" y="26">
BINARY</text>
</g>
<path d=" M 10 21 a 12 12 0 0 1 12 12 v 9 m 242 0 v -9 a 12 12 0 0 1 12 -12"/>
<path d=" M 22 42 v 33 m 242 0 v -33"/>
<path d=" M 22 75 v 33 m 242 0 v -33"/>
<path d=" M 22 108 v 33 m 242 0 v -33"/>
<path d=" M 22 141 v 33 m 242 0 v -33"/>
<path d=" M 22 174 v 33 m 242 0 v -33"/>
<path d=" M 22 207 v 33 m 242 0 v -33"/>
<path d=" M 22 240 v 33 m 242 0 v -33"/>
<path d=" M 22 273 v 33 m 242 0 v -33"/>
<path d=" M 22 306 v 33 m 242 0 v -33"/>
<path d=" M 22 339 v 33 m 242 0 v -33"/>
<path d=" M 22 372 v 33 m 242 0 v -33"/>
<path d=" M 22 405 v 33 m 242 0 v -33"/>
<path d=" M 22 438 v 33 m 242 0 v -33"/>
<path d=" M 22 471 v 33 m 242 0 v -33"/>
<path d=" M 22 504 v 33 m 242 0 v -33"/>
<path d=" M 22 537 v 33 m 242 0 v -33"/>
<path d=" M 22 570 v 33 m 242 0 v -33"/>
<path d=" M 22 603 v 33 m 242 0 v -33"/>
<path d=" M 22 636 v 33 m 242 0 v -33"/>
<path d=" M 22 669 v 33 m 242 0 v -33"/>
<path d=" M 22 702 v 33 m 242 0 v -33"/>
<path d=" M 22 735 v 33 m 242 0 v -33"/>
<path d=" M 22 768 v 33 m 242 0 v -33"/>
<path d=" M 22 801 v 33 m 242 0 v -33"/>
<path d=" M 22 834 v 33 m 242 0 v -33"/>
<path d=" M 22 867 v 33 m 242 0 v -33"/>
<path d=" M 22 900 v 33 m 242 0 v -33"/>
<path d=" M 22 933 v 33 m 242 0 v -33"/>
<path d=" M 22 966 v 33 m 242 0 v -33"/>
<path d=" M 22 999 v 33 m 242 0 v -33"/>
<path d=" M 22 1032 v 33 m 242 0 v -33"/>
<path d=" M 22 1065 v 33 m 242 0 v -33"/>
<path d=" M 22 1098 v 33 m 242 0 v -33"/>
<path d=" M 22 1131 v 33 m 242 0 v -33"/>
<path d=" M 22 42 v 0 a 12 12 0 0 0 12 12 m 124 0 h 94 m -44 0 l -5 -5 m 0 10 l 5 -5 m 44 0 a 12 12 0 0 0 12 -12 v 0"/>
<g class="nonterminal">
<rect height="22" width="124" x="34" y="43"/>
<text x="96" y="59">
COMPUTATIONAL</text>
</g>
<path d=" M 22 75 v 0 a 12 12 0 0 0 12 12 m 52 0 h 166 m -80 0 l -5 -5 m 0 10 l 5 -5 m 80 0 a 12 12 0 0 0 12 -12 v 0"/>
<g class="nonterminal">
<rect height="22" width="52" x="34" y="76"/>
<text x="60" y="92">
COMP</text>
</g>
<path d=" M 22 108 v 0 a 12 12 0 0 0 12 12 m 68 0 h 150 m -72 0 l -5 -5 m 0 10 l 5 -5 m 72 0 a 12 12 0 0 0 12 -12 v 0"/>
<g class="nonterminal">
<rect height="22" width="68" x="34" y="109"/>
<text x="68" y="125">
COMP_1</text>
</g>
<path d=" M 22 141 v 0 a 12 12 0 0 0 12 12 m 68 0 h 150 m -72 0 l -5 -5 m 0 10 l 5 -5 m 72 0 a 12 12 0 0 0 12 -12 v 0"/>
<g class="nonterminal">
<rect height="22" width="68" x="34" y="142"/>
<text x="68" y="158">
COMP_2</text>
</g>
<path d=" M 22 174 v 0 a 12 12 0 0 0 12 12 m 68 0 h 150 m -72 0 l -5 -5 m 0 10 l 5 -5 m 72 0 a 12 12 0 0 0 12 -12 v 0"/>
<g class="nonterminal">
<rect height="22" width="68" x="34" y="175"/>
<text x="68" y="191">
COMP_3</text>
</g>
<path d=" M 22 207 v 0 a 12 12 0 0 0 12 12 m 68 0 h 150 m -72 0 l -5 -5 m 0 10 l 5 -5 m 72 0 a 12 12 0 0 0 12 -12 v 0"/>
<g class="nonterminal">
<rect height="22" width="68" x="34" y="208"/>
<text x="68" y="224">
COMP_4</text>
</g>
<path d=" M 22 240 v 0 a 12 12 0 0 0 12 12 m 68 0 h 150 m -72 0 l -5 -5 m 0 10 l 5 -5 m 72 0 a 12 12 0 0 0 12 -12 v 0"/>
<g class="nonterminal">
<rect height="22" width="68" x="34" y="241"/>
<text x="68" y="257">
COMP_5</text>
</g>
<path d=" M 22 273 v 0 a 12 12 0 0 0 12 12 m 68 0 h 150 m -72 0 l -5 -5 m 0 10 l 5 -5 m 72 0 a 12 12 0 0 0 12 -12 v 0"/>
<g class="nonterminal">
<rect height="22" width="68" x="34" y="274"/>
<text x="68" y="290">
COMP_X</text>
</g>
<path d=" M 22 306 v 0 a 12 12 0 0 0 12 12 m 76 0 h 142 m -68 0 l -5 -5 m 0 10 l 5 -5 m 68 0 a 12 12 0 0 0 12 -12 v 0"/>
<g class="nonterminal">
<rect height="22" width="76" x="34" y="307"/>
<text x="72" y="323">
DISPLAY</text>
</g>
<path d=" M 22 339 v 0 a 12 12 0 0 0 12 12 m 60 0 h 158 m -76 0 l -5 -5 m 0 10 l 5 -5 m 76 0 a 12 12 0 0 0 12 -12 v 0"/>
<g class="nonterminal">
<rect height="22" width="60" x="34" y="340"/>
<text x="64" y="356">
INDEX</text>
</g>
<path d=" M 22 372 v 0 a 12 12 0 0 0 12 12 m 132 0 h 86 m -40 0 l -5 -5 m 0 10 l 5 -5 m 40 0 a 12 12 0 0 0 12 -12 v 0"/>
<g class="nonterminal">
<rect height="22" width="132" x="34" y="373"/>
<text x="100" y="389">
PACKED_DECIMAL</text>
</g>
<path d=" M 22 405 v 0 a 12 12 0 0 0 12 12 m 76 0 h 142 m -68 0 l -5 -5 m 0 10 l 5 -5 m 68 0 a 12 12 0 0 0 12 -12 v 0"/>
<g class="nonterminal">
<rect height="22" width="76" x="34" y="406"/>
<text x="72" y="422">
POINTER</text>
</g>
<path d=" M 22 438 v 0 a 12 12 0 0 0 12 12 m 140 0 h 78 m -36 0 l -5 -5 m 0 10 l 5 -5 m 36 0 a 12 12 0 0 0 12 -12 v 0"/>
<g class="nonterminal">
<rect height="22" width="140" x="34" y="439"/>
<text x="104" y="455">
PROGRAM_POINTER</text>
</g>
<path d=" M 22 471 v 0 a 12 12 0 0 0 12 12 m 116 0 h 102 m -48 0 l -5 -5 m 0 10 l 5 -5 m 48 0 a 12 12 0 0 0 12 -12 v 0"/>
<g class="nonterminal">
<rect height="22" width="116" x="34" y="472"/>
<text x="92" y="488">
SIGNED_SHORT</text>
</g>
<path d=" M 22 504 v 0 a 12 12 0 0 0 12 12 m 100 0 h 118 m -56 0 l -5 -5 m 0 10 l 5 -5 m 56 0 a 12 12 0 0 0 12 -12 v 0"/>
<g class="nonterminal">
<rect height="22" width="100" x="34" y="505"/>
<text x="84" y="521">
SIGNED_INT</text>
</g>
<path d=" M 22 537 v 0 a 12 12 0 0 0 12 12 m 108 0 h 110 m -52 0 l -5 -5 m 0 10 l 5 -5 m 52 0 a 12 12 0 0 0 12 -12 v 0"/>
<g class="nonterminal">
<rect height="22" width="108" x="34" y="538"/>
<text x="88" y="554">
SIGNED_LONG</text>
</g>
<path d=" M 22 570 v 0 a 12 12 0 0 0 12 12 m 132 0 h 86 m -40 0 l -5 -5 m 0 10 l 5 -5 m 40 0 a 12 12 0 0 0 12 -12 v 0"/>
<g class="nonterminal">
<rect height="22" width="132" x="34" y="571"/>
<text x="100" y="587">
UNSIGNED_SHORT</text>
</g>
<path d=" M 22 603 v 0 a 12 12 0 0 0 12 12 m 116 0 h 102 m -48 0 l -5 -5 m 0 10 l 5 -5 m 48 0 a 12 12 0 0 0 12 -12 v 0"/>
<g class="nonterminal">
<rect height="22" width="116" x="34" y="604"/>
<text x="92" y="620">
UNSIGNED_INT</text>
</g>
<path d=" M 22 636 v 0 a 12 12 0 0 0 12 12 m 124 0 h 94 m -44 0 l -5 -5 m 0 10 l 5 -5 m 44 0 a 12 12 0 0 0 12 -12 v 0"/>
<g class="nonterminal">
<rect height="22" width="124" x="34" y="637"/>
<text x="96" y="653">
UNSIGNED_LONG</text>
</g>
<path d=" M 22 669 v 0 a 12 12 0 0 0 12 12 m 186 0 h 32 a 12 12 0 0 0 12 -12 v 0"/>
<g class="sequence">
<g class="nonterminal">
<rect height="22" width="108" x="34" y="670"/>
<text x="88" y="686">
BINARY_CHAR</text>
</g>
<g class="nonterminal">
<rect height="22" width="68" x="152" y="670"/>
<text x="186" y="686">
SIGNED</text>
</g>
<path d=" M 142 681 h 10"/>
</g>
<path d=" M 22 702 v 0 a 12 12 0 0 0 12 12 m 202 0 h 16 a 12 12 0 0 0 12 -12 v 0"/>
<g class="sequence">
<g class="nonterminal">
<rect height="22" width="108" x="34" y="703"/>
<text x="88" y="719">
BINARY_CHAR</text>
</g>
<g class="nonterminal">
<rect height="22" width="84" x="152" y="703"/>
<text x="194" y="719">
UNSIGNED</text>
</g>
<path d=" M 142 714 h 10"/>
</g>
<path d=" M 22 735 v 0 a 12 12 0 0 0 12 12 m 108 0 h 110 m -52 0 l -5 -5 m 0 10 l 5 -5 m 52 0 a 12 12 0 0 0 12 -12 v 0"/>
<g class="nonterminal">
<rect height="22" width="108" x="34" y="736"/>
<text x="88" y="752">
BINARY_CHAR</text>
</g>
<path d=" M 22 768 v 0 a 12 12 0 0 0 12 12 m 194 0 h 24 a 12 12 0 0 0 12 -12 v 0"/>
<g class="sequence">
<g class="nonterminal">
<rect height="22" width="116" x="34" y="769"/>
<text x="92" y="785">
BINARY_SHORT</text>
</g>
<g class="nonterminal">
<rect height="22" width="68" x="160" y="769"/>
<text x="194" y="785">
SIGNED</text>
</g>
<path d=" M 150 780 h 10"/>
</g>
<path d=" M 22 801 v 0 a 12 12 0 0 0 12 12 m 210 0 h 8 a 12 12 0 0 0 12 -12 v 0"/>
<g class="sequence">
<g class="nonterminal">
<rect height="22" width="116" x="34" y="802"/>
<text x="92" y="818">
BINARY_SHORT</text>
</g>
<g class="nonterminal">
<rect height="22" width="84" x="160" y="802"/>
<text x="202" y="818">
UNSIGNED</text>
</g>
<path d=" M 150 813 h 10"/>
</g>
<path d=" M 22 834 v 0 a 12 12 0 0 0 12 12 m 116 0 h 102 m -48 0 l -5 -5 m 0 10 l 5 -5 m 48 0 a 12 12 0 0 0 12 -12 v 0"/>
<g class="nonterminal">
<rect height="22" width="116" x="34" y="835"/>
<text x="92" y="851">
BINARY_SHORT</text>
</g>
<path d=" M 22 867 v 0 a 12 12 0 0 0 12 12 m 186 0 h 32 a 12 12 0 0 0 12 -12 v 0"/>
<g class="sequence">
<g class="nonterminal">
<rect height="22" width="108" x="34" y="868"/>
<text x="88" y="884">
BINARY_LONG</text>
</g>
<g class="nonterminal">
<rect height="22" width="68" x="152" y="868"/>
<text x="186" y="884">
SIGNED</text>
</g>
<path d=" M 142 879 h 10"/>
</g>
<path d=" M 22 900 v 0 a 12 12 0 0 0 12 12 m 202 0 h 16 a 12 12 0 0 0 12 -12 v 0"/>
<g class="sequence">
<g class="nonterminal">
<rect height="22" width="108" x="34" y="901"/>
<text x="88" y="917">
BINARY_LONG</text>
</g>
<g class="nonterminal">
<rect height="22" width="84" x="152" y="901"/>
<text x="194" y="917">
UNSIGNED</text>
</g>
<path d=" M 142 912 h 10"/>
</g>
<path d=" M 22 933 v 0 a 12 12 0 0 0 12 12 m 108 0 h 110 m -52 0 l -5 -5 m 0 10 l 5 -5 m 52 0 a 12 12 0 0 0 12 -12 v 0"/>
<g class="nonterminal">
<rect height="22" width="108" x="34" y="934"/>
<text x="88" y="950">
BINARY_LONG</text>
</g>
<path d=" M 22 966 v 0 a 12 12 0 0 0 12 12 m 202 0 h 16 a 12 12 0 0 0 12 -12 v 0"/>
<g class="sequence">
<g class="nonterminal">
<rect height="22" width="124" x="34" y="967"/>
<text x="96" y="983">
BINARY_DOUBLE</text>
</g>
<g class="nonterminal">
<rect height="22" width="68" x="168" y="967"/>
<text x="202" y="983">
SIGNED</text>
</g>
<path d=" M 158 978 h 10"/>
</g>
<path d=" M 22 999 v 0 a 12 12 0 0 0 12 12 m 218 0 h 0 a 12 12 0 0 0 12 -12 v 0"/>
<g class="sequence">
<g class="nonterminal">
<rect height="22" width="124" x="34" y="1000"/>
<text x="96" y="1016">
BINARY_DOUBLE</text>
</g>
<g class="nonterminal">
<rect height="22" width="84" x="168" y="1000"/>
<text x="210" y="1016">
UNSIGNED</text>
</g>
<path d=" M 158 1011 h 10"/>
</g>
<path d=" M 22 1032 v 0 a 12 12 0 0 0 12 12 m 124 0 h 94 m -44 0 l -5 -5 m 0 10 l 5 -5 m 44 0 a 12 12 0 0 0 12 -12 v 0"/>
<g class="nonterminal">
<rect height="22" width="124" x="34" y="1033"/>
<text x="96" y="1049">
BINARY_DOUBLE</text>
</g>
<path d=" M 22 1065 v 0 a 12 12 0 0 0 12 12 m 202 0 h 16 a 12 12 0 0 0 12 -12 v 0"/>
<g class="sequence">
<g class="nonterminal">
<rect height="22" width="124" x="34" y="1066"/>
<text x="96" y="1082">
BINARY_C_LONG</text>
</g>
<g class="nonterminal">
<rect height="22" width="68" x="168" y="1066"/>
<text x="202" y="1082">
SIGNED</text>
</g>
<path d=" M 158 1077 h 10"/>
</g>
<path d=" M 22 1098 v 0 a 12 12 0 0 0 12 12 m 218 0 h 0 a 12 12 0 0 0 12 -12 v 0"/>
<g class="sequence">
<g class="nonterminal">
<rect height="22" width="124" x="34" y="1099"/>
<text x="96" y="1115">
BINARY_C_LONG</text>
</g>
<g class="nonterminal">
<rect height="22" width="84" x="168" y="1099"/>
<text x="210" y="1115">
UNSIGNED</text>
</g>
<path d=" M 158 1110 h 10"/>
</g>
<path d=" M 22 1131 v 0 a 12 12 0 0 0 12 12 m 124 0 h 94 m -44 0 l -5 -5 m 0 10 l 5 -5 m 44 0 a 12 12 0 0 0 12 -12 v 0"/>
<g class="nonterminal">
<rect height="22" width="124" x="34" y="1132"/>
<text x="96" y="1148">
BINARY_C_LONG</text>
</g>
<path d=" M 22 1164 v 0 a 12 12 0 0 0 12 12 m 84 0 h 134 m -64 0 l -5 -5 m 0 10 l 5 -5 m 64 0 a 12 12 0 0 0 12 -12 v 0"/>
<g class="nonterminal">
<rect height="22" width="84" x="34" y="1165"/>
<text x="76" y="1181">
NATIONAL</text>
</g>
</g>
</svg>
