<svg class="railroad" viewBox="0 0 1096 86" xmlns="http://www.w3.org/2000/svg" xmlns:xlink="http://www.w3.org/1999/xlink">
<style type="text/css">

    svg.railroad {
        background-color: hsl(30, 20%, 95%);
        background-size: 15px 15px;
        background-image: linear-gradient(to right, rgba(30, 30, 30, .05) 1px, transparent 1px),
                          linear-gradient(to bottom, rgba(30, 30, 30, .05) 1px, transparent 1px);
    }

    svg.railroad path {
        stroke-width: 3px;
        stroke: black;
        fill: transparent;
    }

    svg.railroad .debug {
        stroke-width: 1px;
        stroke: red;
    }

    svg.railroad text {
        font: 14px monospace;
        text-anchor: middle;
    }

    svg.railroad .nonterminal text {
        font-weight: bold;
    }

    svg.railroad text.comment {
        font: italic 12px monospace;
    }

    svg.railroad rect {
        stroke-width: 3px;
        stroke: black;
        fill:hsl(-290, 70%, 90%);
    }

    svg.railroad g.labeledbox > rect {
        stroke-width: 1px;
        stroke: grey;
        stroke-dasharray: 5px;
        fill:rgba(90, 90, 150, .1);
    }</style>
<g class="sequence">
<g class="nonterminal">
<rect height="22" width="76" x="10" y="10"/>
<text x="48" y="26">
_OCCURS</text>
</g>
<g class="nonterminal">
<rect height="22" width="76" x="96" y="10"/>
<text x="134" y="26">
integer</text>
</g>
<g class="choice">
<path d=" M 182 21 h 24 m 130 0 h 24"/>
<g class="sequence">
<g class="nonterminal">
<rect height="22" width="44" x="206" y="10"/>
<text x="228" y="26">
_TO</text>
</g>
<g class="nonterminal">
<rect height="22" width="76" x="260" y="10"/>
<text x="298" y="26">
integer</text>
</g>
<path d=" M 250 21 h 10"/>
</g>
<path d=" M 182 21 a 12 12 0 0 1 12 12 v 9 m 154 0 v -9 a 12 12 0 0 1 12 -12"/>
<path d=" M 194 42 v 0 a 12 12 0 0 0 12 12 m 0 0 h 130 m -62 0 l -5 -5 m 0 10 l 5 -5 m 62 0 a 12 12 0 0 0 12 -12 v 0"/>
<g/>
</g>
<g class="choice">
<path d=" M 370 21 h 24 m 68 0 h 24"/>
<g class="nonterminal">
<rect height="22" width="68" x="394" y="10"/>
<text x="428" y="26">
_TIMES</text>
</g>
<path d=" M 370 21 a 12 12 0 0 1 12 12 v 9 m 92 0 v -9 a 12 12 0 0 1 12 -12"/>
<path d=" M 382 42 v 0 a 12 12 0 0 0 12 12 m 0 0 h 68 m -31 0 l -5 -5 m 0 10 l 5 -5 m 31 0 a 12 12 0 0 0 12 -12 v 0"/>
<g/>
</g>
<g class="choice">
<path d=" M 496 21 h 24 m 344 0 h 24"/>
<g class="sequence">
<g class="nonterminal">
<rect height="22" width="100" x="520" y="10"/>
<text x="570" y="26">
_DEPENDING</text>
</g>
<g class="choice">
<path d=" M 630 21 h 24 m 44 0 h 24"/>
<g class="nonterminal">
<rect height="22" width="44" x="654" y="10"/>
<text x="676" y="26">
_ON</text>
</g>
<path d=" M 630 21 a 12 12 0 0 1 12 12 v 9 m 68 0 v -9 a 12 12 0 0 1 12 -12"/>
<path d=" M 642 42 v 0 a 12 12 0 0 0 12 12 m 0 0 h 44 a 12 12 0 0 0 12 -12 v 0"/>
<g/>
</g>
<g class="nonterminal">
<rect height="22" width="132" x="732" y="10"/>
<text x="798" y="26">
qualified_word</text>
</g>
<path d=" M 620 21 h 10"/>
<path d=" M 722 21 h 10"/>
</g>
<path d=" M 496 21 a 12 12 0 0 1 12 12 v 31 m 368 0 v -31 a 12 12 0 0 1 12 -12"/>
<path d=" M 508 64 v 0 a 12 12 0 0 0 12 12 m 0 0 h 344 m -169 0 l -5 -5 m 0 10 l 5 -5 m 169 0 a 12 12 0 0 0 12 -12 v 0"/>
<g/>
</g>
<g class="choice">
<path d=" M 898 21 h 24 m 140 0 h 24"/>
<g class="nonterminal">
<rect height="22" width="140" x="922" y="10"/>
<text x="992" y="26">
occurs_key_spec</text>
</g>
<path d=" M 898 21 a 12 12 0 0 1 12 12 v 9 m 164 0 v -9 a 12 12 0 0 1 12 -12"/>
<path d=" M 910 42 v 0 a 12 12 0 0 0 12 12 m 0 0 h 140 m -67 0 l -5 -5 m 0 10 l 5 -5 m 67 0 a 12 12 0 0 0 12 -12 v 0"/>
<g/>
</g>
<path d=" M 86 21 h 10"/>
<path d=" M 172 21 h 10"/>
<path d=" M 360 21 h 10"/>
<path d=" M 486 21 h 10"/>
<path d=" M 888 21 h 10"/>
</g>
</svg>
