<svg class="railroad" viewBox="0 0 672 86" xmlns="http://www.w3.org/2000/svg" xmlns:xlink="http://www.w3.org/1999/xlink">
<style type="text/css">

    svg.railroad {
        background-color: hsl(30, 20%, 95%);
        background-size: 15px 15px;
        background-image: linear-gradient(to right, rgba(30, 30, 30, .05) 1px, transparent 1px),
                          linear-gradient(to bottom, rgba(30, 30, 30, .05) 1px, transparent 1px);
    }

    svg.railroad path {
        stroke-width: 3px;
        stroke: black;
        fill: transparent;
    }

    svg.railroad .debug {
        stroke-width: 1px;
        stroke: red;
    }

    svg.railroad text {
        font: 14px monospace;
        text-anchor: middle;
    }

    svg.railroad .nonterminal text {
        font-weight: bold;
    }

    svg.railroad text.comment {
        font: italic 12px monospace;
    }

    svg.railroad rect {
        stroke-width: 3px;
        stroke: black;
        fill:hsl(-290, 70%, 90%);
    }

    svg.railroad g.labeledbox > rect {
        stroke-width: 1px;
        stroke: grey;
        stroke-dasharray: 5px;
        fill:rgba(90, 90, 150, .1);
    }</style>
<g class="sequence">
<g class="choice">
<path d=" M 10 21 h 24 m 60 0 h 24"/>
<g class="nonterminal">
<rect height="22" width="60" x="34" y="10"/>
<text x="64" y="26">
_SIGN</text>
</g>
<path d=" M 10 21 a 12 12 0 0 1 12 12 v 9 m 84 0 v -9 a 12 12 0 0 1 12 -12"/>
<path d=" M 22 42 v 0 a 12 12 0 0 0 12 12 m 0 0 h 60 m -27 0 l -5 -5 m 0 10 l 5 -5 m 27 0 a 12 12 0 0 0 12 -12 v 0"/>
<g/>
</g>
<g class="choice">
<path d=" M 128 21 h 24 m 44 0 h 24"/>
<g class="nonterminal">
<rect height="22" width="44" x="152" y="10"/>
<text x="174" y="26">
_IS</text>
</g>
<path d=" M 128 21 a 12 12 0 0 1 12 12 v 9 m 68 0 v -9 a 12 12 0 0 1 12 -12"/>
<path d=" M 140 42 v 0 a 12 12 0 0 0 12 12 m 0 0 h 44 a 12 12 0 0 0 12 -12 v 0"/>
<g/>
</g>
<g class="choice">
<path d=" M 230 21 h 24 m 76 0 h 32"/>
<g class="nonterminal">
<rect height="22" width="76" x="254" y="10"/>
<text x="292" y="26">
LEADING</text>
</g>
<path d=" M 230 21 a 12 12 0 0 1 12 12 v 9 m 108 0 v -9 a 12 12 0 0 1 12 -12"/>
<path d=" M 242 42 v 0 a 12 12 0 0 0 12 12 m 84 0 h 0 a 12 12 0 0 0 12 -12 v 0"/>
<g class="nonterminal">
<rect height="22" width="84" x="254" y="43"/>
<text x="296" y="59">
TRAILING</text>
</g>
</g>
<g class="choice">
<path d=" M 372 21 h 24 m 242 0 h 24"/>
<g class="sequence">
<g class="nonterminal">
<rect height="22" width="84" x="396" y="10"/>
<text x="438" y="26">
SEPARATE</text>
</g>
<g class="choice">
<path d=" M 490 21 h 24 m 100 0 h 24"/>
<g class="nonterminal">
<rect height="22" width="100" x="514" y="10"/>
<text x="564" y="26">
_CHARACTER</text>
</g>
<path d=" M 490 21 a 12 12 0 0 1 12 12 v 9 m 124 0 v -9 a 12 12 0 0 1 12 -12"/>
<path d=" M 502 42 v 0 a 12 12 0 0 0 12 12 m 0 0 h 100 m -47 0 l -5 -5 m 0 10 l 5 -5 m 47 0 a 12 12 0 0 0 12 -12 v 0"/>
<g/>
</g>
<path d=" M 480 21 h 10"/>
</g>
<path d=" M 372 21 a 12 12 0 0 1 12 12 v 31 m 266 0 v -31 a 12 12 0 0 1 12 -12"/>
<path d=" M 384 64 v 0 a 12 12 0 0 0 12 12 m 0 0 h 242 m -118 0 l -5 -5 m 0 10 l 5 -5 m 118 0 a 12 12 0 0 0 12 -12 v 0"/>
<g/>
</g>
<path d=" M 118 21 h 10"/>
<path d=" M 220 21 h 10"/>
<path d=" M 362 21 h 10"/>
</g>
</svg>
