<svg class="railroad" viewBox="0 0 382 131" xmlns="http://www.w3.org/2000/svg" xmlns:xlink="http://www.w3.org/1999/xlink">
<style type="text/css">

    svg.railroad {
        background-color: hsl(30, 20%, 95%);
        background-size: 15px 15px;
        background-image: linear-gradient(to right, rgba(30, 30, 30, .05) 1px, transparent 1px),
                          linear-gradient(to bottom, rgba(30, 30, 30, .05) 1px, transparent 1px);
    }

    svg.railroad path {
        stroke-width: 3px;
        stroke: black;
        fill: transparent;
    }

    svg.railroad .debug {
        stroke-width: 1px;
        stroke: red;
    }

    svg.railroad text {
        font: 14px monospace;
        text-anchor: middle;
    }

    svg.railroad .nonterminal text {
        font-weight: bold;
    }

    svg.railroad text.comment {
        font: italic 12px monospace;
    }

    svg.railroad rect {
        stroke-width: 3px;
        stroke: black;
        fill:hsl(-290, 70%, 90%);
    }

    svg.railroad g.labeledbox > rect {
        stroke-width: 1px;
        stroke: grey;
        stroke-dasharray: 5px;
        fill:rgba(90, 90, 150, .1);
    }</style>
<g class="choice">
<path d=" M 10 21 h 24 m 314 0 h 24"/>
<g class="sequence">
<g class="repeat">
<path d=" M 34 21 h 12 m 100 0 h 12 m -12 0 a 12 12 0 0 1 12 12 v 8 a 12 12 0 0 1 -12 12 m -100 0 h 0 a 12 12 0 0 1 -12 -12 v -8 a 12 12 0 0 1 12 -12"/>
<g class="nonterminal">
<rect height="22" width="100" x="46" y="42"/>
<text x="96" y="58">
occurs_key</text>
</g>
<g class="nonterminal">
<rect height="22" width="100" x="46" y="10"/>
<text x="96" y="26">
occurs_key</text>
</g>
</g>
<g class="choice">
<path d=" M 168 21 h 24 m 132 0 h 24"/>
<g class="nonterminal">
<rect height="22" width="132" x="192" y="10"/>
<text x="258" y="26">
occurs_indexed</text>
</g>
<path d=" M 168 21 a 12 12 0 0 1 12 12 v 9 m 156 0 v -9 a 12 12 0 0 1 12 -12"/>
<path d=" M 180 42 v 0 a 12 12 0 0 0 12 12 m 0 0 h 132 m -63 0 l -5 -5 m 0 10 l 5 -5 m 63 0 a 12 12 0 0 0 12 -12 v 0"/>
<g/>
</g>
<path d=" M 158 21 h 10"/>
</g>
<path d=" M 10 21 a 12 12 0 0 1 12 12 v 41 m 338 0 v -41 a 12 12 0 0 1 12 -12"/>
<path d=" M 22 74 v 0 a 12 12 0 0 0 12 12 m 266 0 h 48 a 12 12 0 0 0 12 -12 v 0"/>
<g class="sequence">
<g class="nonterminal">
<rect height="22" width="132" x="34" y="75"/>
<text x="100" y="91">
occurs_indexed</text>
</g>
<g class="repeat">
<path d=" M 176 86 h 12 m 0 0 h 112 m -53 0 l -5 -5 m 0 10 l 5 -5 m 53 0 m -12 0 a 12 12 0 0 1 12 12 v 0 a 12 12 0 0 1 -12 12 m -100 0 h 0 a 12 12 0 0 1 -12 -12 v 0 a 12 12 0 0 1 12 -12"/>
<g class="nonterminal">
<rect height="22" width="100" x="188" y="99"/>
<text x="238" y="115">
occurs_key</text>
</g>
<g/>
</g>
<path d=" M 166 86 h 10"/>
</g>
</g>
</svg>
