<svg class="railroad" viewBox="0 0 358 97" xmlns="http://www.w3.org/2000/svg" xmlns:xlink="http://www.w3.org/1999/xlink">
<style type="text/css">

    svg.railroad {
        background-color: hsl(30, 20%, 95%);
        background-size: 15px 15px;
        background-image: linear-gradient(to right, rgba(30, 30, 30, .05) 1px, transparent 1px),
                          linear-gradient(to bottom, rgba(30, 30, 30, .05) 1px, transparent 1px);
    }

    svg.railroad path {
        stroke-width: 3px;
        stroke: black;
        fill: transparent;
    }

    svg.railroad .debug {
        stroke-width: 1px;
        stroke: red;
    }

    svg.railroad text {
        font: 14px monospace;
        text-anchor: middle;
    }

    svg.railroad .nonterminal text {
        font-weight: bold;
    }

    svg.railroad text.comment {
        font: italic 12px monospace;
    }

    svg.railroad rect {
        stroke-width: 3px;
        stroke: black;
        fill:hsl(-290, 70%, 90%);
    }

    svg.railroad g.labeledbox > rect {
        stroke-width: 1px;
        stroke: grey;
        stroke-dasharray: 5px;
        fill:rgba(90, 90, 150, .1);
    }</style>
<g class="sequence">
<g class="choice">
<path d=" M 10 21 h 24 m 124 0 h 24"/>
<g class="nonterminal">
<rect height="22" width="124" x="34" y="10"/>
<text x="96" y="26">
_SYNCHRONIZED</text>
</g>
<path d=" M 10 21 a 12 12 0 0 1 12 12 v 9 m 148 0 v -9 a 12 12 0 0 1 12 -12"/>
<path d=" M 22 42 v 0 a 12 12 0 0 0 12 12 m 60 0 h 64 m -29 0 l -5 -5 m 0 10 l 5 -5 m 29 0 a 12 12 0 0 0 12 -12 v 0"/>
<g class="nonterminal">
<rect height="22" width="60" x="34" y="43"/>
<text x="64" y="59">
_SYNC</text>
</g>
</g>
<g class="choice">
<path d=" M 192 21 h 24 m 108 0 h 24"/>
<g class="choice">
<path d=" M 216 21 h 24 m 52 0 h 32"/>
<g class="nonterminal">
<rect height="22" width="52" x="240" y="10"/>
<text x="266" y="26">
LEFT</text>
</g>
<path d=" M 216 21 a 12 12 0 0 1 12 12 v 9 m 84 0 v -9 a 12 12 0 0 1 12 -12"/>
<path d=" M 228 42 v 0 a 12 12 0 0 0 12 12 m 60 0 h 0 a 12 12 0 0 0 12 -12 v 0"/>
<g class="nonterminal">
<rect height="22" width="60" x="240" y="43"/>
<text x="270" y="59">
RIGHT</text>
</g>
</g>
<path d=" M 192 21 a 12 12 0 0 1 12 12 v 42 m 132 0 v -42 a 12 12 0 0 1 12 -12"/>
<path d=" M 204 75 v 0 a 12 12 0 0 0 12 12 m 0 0 h 108 m -51 0 l -5 -5 m 0 10 l 5 -5 m 51 0 a 12 12 0 0 0 12 -12 v 0"/>
<g/>
</g>
<path d=" M 182 21 h 10"/>
</g>
</svg>
