<svg class="railroad" viewBox="0 0 402 229" xmlns="http://www.w3.org/2000/svg" xmlns:xlink="http://www.w3.org/1999/xlink">
<style type="text/css">

    svg.railroad {
        background-color: hsl(30, 20%, 95%);
        background-size: 15px 15px;
        background-image: linear-gradient(to right, rgba(30, 30, 30, .05) 1px, transparent 1px),
                          linear-gradient(to bottom, rgba(30, 30, 30, .05) 1px, transparent 1px);
    }

    svg.railroad path {
        stroke-width: 3px;
        stroke: black;
        fill: transparent;
    }

    svg.railroad .debug {
        stroke-width: 1px;
        stroke: red;
    }

    svg.railroad text {
        font: 14px monospace;
        text-anchor: middle;
    }

    svg.railroad .nonterminal text {
        font-weight: bold;
    }

    svg.railroad text.comment {
        font: italic 12px monospace;
    }

    svg.railroad rect {
        stroke-width: 3px;
        stroke: black;
        fill:hsl(-290, 70%, 90%);
    }

    svg.railroad g.labeledbox > rect {
        stroke-width: 1px;
        stroke: grey;
        stroke-dasharray: 5px;
        fill:rgba(90, 90, 150, .1);
    }</style>
<g class="choice">
<path d=" M 10 21 h 24 m 216 0 h 142 m -68 0 l -5 -5 m 0 10 l 5 -5 m 68 0"/>
<g class="sequence">
<g class="nonterminal">
<rect height="22" width="52" x="34" y="10"/>
<text x="60" y="26">
SIZE</text>
</g>
<g class="choice">
<path d=" M 96 21 h 24 m 44 0 h 24"/>
<g class="nonterminal">
<rect height="22" width="44" x="120" y="10"/>
<text x="142" y="26">
_IS</text>
</g>
<path d=" M 96 21 a 12 12 0 0 1 12 12 v 9 m 68 0 v -9 a 12 12 0 0 1 12 -12"/>
<path d=" M 108 42 v 0 a 12 12 0 0 0 12 12 m 0 0 h 44 a 12 12 0 0 0 12 -12 v 0"/>
<g/>
</g>
<g class="nonterminal">
<rect height="22" width="52" x="198" y="10"/>
<text x="224" y="26">
AUTO</text>
</g>
<path d=" M 86 21 h 10"/>
<path d=" M 188 21 h 10"/>
</g>
<path d=" M 10 21 a 12 12 0 0 1 12 12 v 31 m 358 0 v -31 a 12 12 0 0 1 12 -12"/>
<path d=" M 22 64 v 55 m 0 -24 l -5 -5 m 10 0 l -5 5 m 0 24 m 358 0 v -55 m 0 30 l -5 5 m 10 0 l -5 -5 m 0 -30"/>
<path d=" M 22 119 v 55 m 0 -24 l -5 -5 m 10 0 l -5 5 m 0 24 m 358 0 v -55 m 0 30 l -5 5 m 10 0 l -5 -5 m 0 -30"/>
<path d=" M 22 64 v 0 a 12 12 0 0 0 12 12 m 240 0 h 94 m -44 0 l -5 -5 m 0 10 l 5 -5 m 44 0 a 12 12 0 0 0 12 -12 v 0"/>
<g class="sequence">
<g class="nonterminal">
<rect height="22" width="52" x="34" y="65"/>
<text x="60" y="81">
SIZE</text>
</g>
<g class="choice">
<path d=" M 96 76 h 24 m 44 0 h 24"/>
<g class="nonterminal">
<rect height="22" width="44" x="120" y="65"/>
<text x="142" y="81">
_IS</text>
</g>
<path d=" M 96 76 a 12 12 0 0 1 12 12 v 9 m 68 0 v -9 a 12 12 0 0 1 12 -12"/>
<path d=" M 108 97 v 0 a 12 12 0 0 0 12 12 m 0 0 h 44 a 12 12 0 0 0 12 -12 v 0"/>
<g/>
</g>
<g class="nonterminal">
<rect height="22" width="76" x="198" y="65"/>
<text x="236" y="81">
DEFAULT</text>
</g>
<path d=" M 86 76 h 10"/>
<path d=" M 188 76 h 10"/>
</g>
<path d=" M 22 119 v 0 a 12 12 0 0 0 12 12 m 334 0 h 0 a 12 12 0 0 0 12 -12 v 0"/>
<g class="sequence">
<g class="nonterminal">
<rect height="22" width="84" x="34" y="120"/>
<text x="76" y="136">
UNSIGNED</text>
</g>
<g class="nonterminal">
<rect height="22" width="52" x="128" y="120"/>
<text x="154" y="136">
SIZE</text>
</g>
<g class="choice">
<path d=" M 190 131 h 24 m 44 0 h 24"/>
<g class="nonterminal">
<rect height="22" width="44" x="214" y="120"/>
<text x="236" y="136">
_IS</text>
</g>
<path d=" M 190 131 a 12 12 0 0 1 12 12 v 9 m 68 0 v -9 a 12 12 0 0 1 12 -12"/>
<path d=" M 202 152 v 0 a 12 12 0 0 0 12 12 m 0 0 h 44 a 12 12 0 0 0 12 -12 v 0"/>
<g/>
</g>
<g class="nonterminal">
<rect height="22" width="76" x="292" y="120"/>
<text x="330" y="136">
integer</text>
</g>
<path d=" M 118 131 h 10"/>
<path d=" M 180 131 h 10"/>
<path d=" M 282 131 h 10"/>
</g>
<path d=" M 22 174 v 0 a 12 12 0 0 0 12 12 m 240 0 h 94 m -44 0 l -5 -5 m 0 10 l 5 -5 m 44 0 a 12 12 0 0 0 12 -12 v 0"/>
<g class="sequence">
<g class="nonterminal">
<rect height="22" width="52" x="34" y="175"/>
<text x="60" y="191">
SIZE</text>
</g>
<g class="choice">
<path d=" M 96 186 h 24 m 44 0 h 24"/>
<g class="nonterminal">
<rect height="22" width="44" x="120" y="175"/>
<text x="142" y="191">
_IS</text>
</g>
<path d=" M 96 186 a 12 12 0 0 1 12 12 v 9 m 68 0 v -9 a 12 12 0 0 1 12 -12"/>
<path d=" M 108 207 v 0 a 12 12 0 0 0 12 12 m 0 0 h 44 a 12 12 0 0 0 12 -12 v 0"/>
<g/>
</g>
<g class="nonterminal">
<rect height="22" width="76" x="198" y="175"/>
<text x="236" y="191">
integer</text>
</g>
<path d=" M 86 186 h 10"/>
<path d=" M 188 186 h 10"/>
</g>
</g>
</svg>
