<svg class="railroad" viewBox="0 0 1340 64" xmlns="http://www.w3.org/2000/svg" xmlns:xlink="http://www.w3.org/1999/xlink">
<style type="text/css">

    svg.railroad {
        background-color: hsl(30, 20%, 95%);
        background-size: 15px 15px;
        background-image: linear-gradient(to right, rgba(30, 30, 30, .05) 1px, transparent 1px),
                          linear-gradient(to bottom, rgba(30, 30, 30, .05) 1px, transparent 1px);
    }

    svg.railroad path {
        stroke-width: 3px;
        stroke: black;
        fill: transparent;
    }

    svg.railroad .debug {
        stroke-width: 1px;
        stroke: red;
    }

    svg.railroad text {
        font: 14px monospace;
        text-anchor: middle;
    }

    svg.railroad .nonterminal text {
        font-weight: bold;
    }

    svg.railroad text.comment {
        font: italic 12px monospace;
    }

    svg.railroad rect {
        stroke-width: 3px;
        stroke: black;
        fill:hsl(-290, 70%, 90%);
    }

    svg.railroad g.labeledbox > rect {
        stroke-width: 1px;
        stroke: grey;
        stroke-dasharray: 5px;
        fill:rgba(90, 90, 150, .1);
    }</style>
<g class="sequence">
<g class="nonterminal">
<rect height="22" width="100" x="10" y="10"/>
<text x="60" y="26">
_PROCEDURE</text>
</g>
<g class="nonterminal">
<rect height="22" width="92" x="120" y="10"/>
<text x="166" y="26">
_DIVISION</text>
</g>
<g class="choice">
<path d=" M 222 21 h 24 m 220 0 h 24"/>
<g class="nonterminal">
<rect height="22" width="220" x="246" y="10"/>
<text x="356" y="26">
procedure_using_chaining</text>
</g>
<path d=" M 222 21 a 12 12 0 0 1 12 12 v 9 m 244 0 v -9 a 12 12 0 0 1 12 -12"/>
<path d=" M 234 42 v 0 a 12 12 0 0 0 12 12 m 0 0 h 220 m -107 0 l -5 -5 m 0 10 l 5 -5 m 107 0 a 12 12 0 0 0 12 -12 v 0"/>
<g/>
</g>
<g class="choice">
<path d=" M 500 21 h 24 m 172 0 h 24"/>
<g class="nonterminal">
<rect height="22" width="172" x="524" y="10"/>
<text x="610" y="26">
procedure_returning</text>
</g>
<path d=" M 500 21 a 12 12 0 0 1 12 12 v 9 m 196 0 v -9 a 12 12 0 0 1 12 -12"/>
<path d=" M 512 42 v 0 a 12 12 0 0 0 12 12 m 0 0 h 172 m -83 0 l -5 -5 m 0 10 l 5 -5 m 83 0 a 12 12 0 0 0 12 -12 v 0"/>
<g/>
</g>
<g class="terminal">
<rect height="22" rx="10" ry="10" width="28" x="730" y="10"/>
<text x="744" y="26">
.</text>
</g>
<g class="choice">
<path d=" M 768 21 h 24 m 204 0 h 24"/>
<g class="nonterminal">
<rect height="22" width="204" x="792" y="10"/>
<text x="894" y="26">
procedure_declaratives</text>
</g>
<path d=" M 768 21 a 12 12 0 0 1 12 12 v 9 m 228 0 v -9 a 12 12 0 0 1 12 -12"/>
<path d=" M 780 42 v 0 a 12 12 0 0 0 12 12 m 0 0 h 204 m -99 0 l -5 -5 m 0 10 l 5 -5 m 99 0 a 12 12 0 0 0 12 -12 v 0"/>
<g/>
</g>
<g class="choice">
<path d=" M 1030 21 h 24 m 252 0 h 24"/>
<g class="nonterminal">
<rect height="22" width="252" x="1054" y="10"/>
<text x="1180" y="26">
_procedure_division_contenet</text>
</g>
<path d=" M 1030 21 a 12 12 0 0 1 12 12 v 9 m 276 0 v -9 a 12 12 0 0 1 12 -12"/>
<path d=" M 1042 42 v 0 a 12 12 0 0 0 12 12 m 0 0 h 252 m -123 0 l -5 -5 m 0 10 l 5 -5 m 123 0 a 12 12 0 0 0 12 -12 v 0"/>
<g/>
</g>
<path d=" M 110 21 h 10"/>
<path d=" M 212 21 h 10"/>
<path d=" M 490 21 h 10"/>
<path d=" M 720 21 h 10"/>
<path d=" M 758 21 h 10"/>
<path d=" M 1020 21 h 10"/>
</g>
</svg>
