<svg class="railroad" viewBox="0 0 830 64" xmlns="http://www.w3.org/2000/svg" xmlns:xlink="http://www.w3.org/1999/xlink">
<style type="text/css">

    svg.railroad {
        background-color: hsl(30, 20%, 95%);
        background-size: 15px 15px;
        background-image: linear-gradient(to right, rgba(30, 30, 30, .05) 1px, transparent 1px),
                          linear-gradient(to bottom, rgba(30, 30, 30, .05) 1px, transparent 1px);
    }

    svg.railroad path {
        stroke-width: 3px;
        stroke: black;
        fill: transparent;
    }

    svg.railroad .debug {
        stroke-width: 1px;
        stroke: red;
    }

    svg.railroad text {
        font: 14px monospace;
        text-anchor: middle;
    }

    svg.railroad .nonterminal text {
        font-weight: bold;
    }

    svg.railroad text.comment {
        font: italic 12px monospace;
    }

    svg.railroad rect {
        stroke-width: 3px;
        stroke: black;
        fill:hsl(-290, 70%, 90%);
    }

    svg.railroad g.labeledbox > rect {
        stroke-width: 1px;
        stroke: grey;
        stroke-dasharray: 5px;
        fill:rgba(90, 90, 150, .1);
    }</style>
<g class="sequence">
<g class="nonterminal">
<rect height="22" width="124" x="10" y="10"/>
<text x="72" y="26">
_DECLARATIVES</text>
</g>
<g class="terminal">
<rect height="22" rx="10" ry="10" width="28" x="144" y="10"/>
<text x="158" y="26">
.</text>
</g>
<g class="choice">
<path d=" M 182 21 h 24 m 356 0 h 24"/>
<g class="nonterminal">
<rect height="22" width="356" x="206" y="10"/>
<text x="384" y="26">
_procedure_division_declaratives_content</text>
</g>
<path d=" M 182 21 a 12 12 0 0 1 12 12 v 9 m 380 0 v -9 a 12 12 0 0 1 12 -12"/>
<path d=" M 194 42 v 0 a 12 12 0 0 0 12 12 m 0 0 h 356 m -175 0 l -5 -5 m 0 10 l 5 -5 m 175 0 a 12 12 0 0 0 12 -12 v 0"/>
<g/>
</g>
<g class="nonterminal">
<rect height="22" width="52" x="596" y="10"/>
<text x="622" y="26">
_END</text>
</g>
<g class="nonterminal">
<rect height="22" width="124" x="658" y="10"/>
<text x="720" y="26">
_DECLARATIVES</text>
</g>
<g class="terminal">
<rect height="22" rx="10" ry="10" width="28" x="792" y="10"/>
<text x="806" y="26">
.</text>
</g>
<path d=" M 134 21 h 10"/>
<path d=" M 172 21 h 10"/>
<path d=" M 586 21 h 10"/>
<path d=" M 648 21 h 10"/>
<path d=" M 782 21 h 10"/>
</g>
</svg>
