<svg class="railroad" viewBox="0 0 240 140" xmlns="http://www.w3.org/2000/svg" xmlns:xlink="http://www.w3.org/1999/xlink">
<style type="text/css">

    svg.railroad {
        background-color: hsl(30, 20%, 95%);
        background-size: 15px 15px;
        background-image: linear-gradient(to right, rgba(30, 30, 30, .05) 1px, transparent 1px),
                          linear-gradient(to bottom, rgba(30, 30, 30, .05) 1px, transparent 1px);
    }

    svg.railroad path {
        stroke-width: 3px;
        stroke: black;
        fill: transparent;
    }

    svg.railroad .debug {
        stroke-width: 1px;
        stroke: red;
    }

    svg.railroad text {
        font: 14px monospace;
        text-anchor: middle;
    }

    svg.railroad .nonterminal text {
        font-weight: bold;
    }

    svg.railroad text.comment {
        font: italic 12px monospace;
    }

    svg.railroad rect {
        stroke-width: 3px;
        stroke: black;
        fill:hsl(-290, 70%, 90%);
    }

    svg.railroad g.labeledbox > rect {
        stroke-width: 1px;
        stroke: grey;
        stroke-dasharray: 5px;
        fill:rgba(90, 90, 150, .1);
    }</style>
<g class="repeat">
<path d=" M 10 21 h 12 m 196 0 h 12 m -12 0 a 12 12 0 0 1 12 12 v 41 a 12 12 0 0 1 -12 12 m -196 0 h 0 a 12 12 0 0 1 -12 -12 v -41 a 12 12 0 0 1 12 -12"/>
<g class="choice">
<path d=" M 22 86 h 24 m 132 0 h 40"/>
<g class="nonterminal">
<rect height="22" width="132" x="46" y="75"/>
<text x="112" y="91">
section_header</text>
</g>
<path d=" M 22 86 a 12 12 0 0 1 12 12 v 9 m 172 0 v -9 a 12 12 0 0 1 12 -12"/>
<path d=" M 34 107 v 0 a 12 12 0 0 0 12 12 m 148 0 h 0 a 12 12 0 0 0 12 -12 v 0"/>
<g class="nonterminal">
<rect height="22" width="148" x="46" y="108"/>
<text x="120" y="124">
paragraph_header</text>
</g>
</g>
<g class="choice">
<path d=" M 22 21 h 24 m 132 0 h 40"/>
<g class="nonterminal">
<rect height="22" width="132" x="46" y="10"/>
<text x="112" y="26">
section_header</text>
</g>
<path d=" M 22 21 a 12 12 0 0 1 12 12 v 9 m 172 0 v -9 a 12 12 0 0 1 12 -12"/>
<path d=" M 34 42 v 0 a 12 12 0 0 0 12 12 m 148 0 h 0 a 12 12 0 0 0 12 -12 v 0"/>
<g class="nonterminal">
<rect height="22" width="148" x="46" y="43"/>
<text x="120" y="59">
paragraph_header</text>
</g>
</g>
</g>
</svg>
