<svg class="railroad" viewBox="0 0 554 97" xmlns="http://www.w3.org/2000/svg" xmlns:xlink="http://www.w3.org/1999/xlink">
<style type="text/css">

    svg.railroad {
        background-color: hsl(30, 20%, 95%);
        background-size: 15px 15px;
        background-image: linear-gradient(to right, rgba(30, 30, 30, .05) 1px, transparent 1px),
                          linear-gradient(to bottom, rgba(30, 30, 30, .05) 1px, transparent 1px);
    }

    svg.railroad path {
        stroke-width: 3px;
        stroke: black;
        fill: transparent;
    }

    svg.railroad .debug {
        stroke-width: 1px;
        stroke: red;
    }

    svg.railroad text {
        font: 14px monospace;
        text-anchor: middle;
    }

    svg.railroad .nonterminal text {
        font-weight: bold;
    }

    svg.railroad text.comment {
        font: italic 12px monospace;
    }

    svg.railroad rect {
        stroke-width: 3px;
        stroke: black;
        fill:hsl(-290, 70%, 90%);
    }

    svg.railroad g.labeledbox > rect {
        stroke-width: 1px;
        stroke: grey;
        stroke-dasharray: 5px;
        fill:rgba(90, 90, 150, .1);
    }</style>
<g class="sequence">
<g class="choice">
<path d=" M 10 21 h 24 m 132 0 h 24"/>
<g class="choice">
<path d=" M 34 21 h 24 m 76 0 h 32"/>
<g class="nonterminal">
<rect height="22" width="76" x="58" y="10"/>
<text x="96" y="26">
LEADING</text>
</g>
<path d=" M 34 21 a 12 12 0 0 1 12 12 v 9 m 108 0 v -9 a 12 12 0 0 1 12 -12"/>
<path d=" M 46 42 v 0 a 12 12 0 0 0 12 12 m 84 0 h 0 a 12 12 0 0 0 12 -12 v 0"/>
<g class="nonterminal">
<rect height="22" width="84" x="58" y="43"/>
<text x="100" y="59">
TRAILING</text>
</g>
</g>
<path d=" M 10 21 a 12 12 0 0 1 12 12 v 42 m 156 0 v -42 a 12 12 0 0 1 12 -12"/>
<path d=" M 22 75 v 0 a 12 12 0 0 0 12 12 m 0 0 h 132 m -63 0 l -5 -5 m 0 10 l 5 -5 m 63 0 a 12 12 0 0 0 12 -12 v 0"/>
<g/>
</g>
<g class="choice">
<path d=" M 200 21 h 24 m 52 0 h 40"/>
<g class="nonterminal">
<rect height="22" width="52" x="224" y="10"/>
<text x="250" y="26">
WORD</text>
</g>
<path d=" M 200 21 a 12 12 0 0 1 12 12 v 9 m 92 0 v -9 a 12 12 0 0 1 12 -12"/>
<path d=" M 212 42 v 0 a 12 12 0 0 0 12 12 m 68 0 h 0 a 12 12 0 0 0 12 -12 v 0"/>
<g class="nonterminal">
<rect height="22" width="68" x="224" y="43"/>
<text x="258" y="59">
string</text>
</g>
</g>
<g class="choice">
<path d=" M 326 21 h 24 m 44 0 h 24"/>
<g class="nonterminal">
<rect height="22" width="44" x="350" y="10"/>
<text x="372" y="26">
_BY</text>
</g>
<path d=" M 326 21 a 12 12 0 0 1 12 12 v 9 m 68 0 v -9 a 12 12 0 0 1 12 -12"/>
<path d=" M 338 42 v 0 a 12 12 0 0 0 12 12 m 0 0 h 44 a 12 12 0 0 0 12 -12 v 0"/>
<g/>
</g>
<g class="choice">
<path d=" M 428 21 h 24 m 52 0 h 40"/>
<g class="nonterminal">
<rect height="22" width="52" x="452" y="10"/>
<text x="478" y="26">
WORD</text>
</g>
<path d=" M 428 21 a 12 12 0 0 1 12 12 v 9 m 92 0 v -9 a 12 12 0 0 1 12 -12"/>
<path d=" M 440 42 v 0 a 12 12 0 0 0 12 12 m 68 0 h 0 a 12 12 0 0 0 12 -12 v 0"/>
<g class="nonterminal">
<rect height="22" width="68" x="452" y="43"/>
<text x="486" y="59">
string</text>
</g>
</g>
<path d=" M 190 21 h 10"/>
<path d=" M 316 21 h 10"/>
<path d=" M 418 21 h 10"/>
</g>
</svg>
