<svg class="railroad" viewBox="0 0 272 636" xmlns="http://www.w3.org/2000/svg" xmlns:xlink="http://www.w3.org/1999/xlink">
<style type="text/css">

    svg.railroad {
        background-color: hsl(30, 20%, 95%);
        background-size: 15px 15px;
        background-image: linear-gradient(to right, rgba(30, 30, 30, .05) 1px, transparent 1px),
                          linear-gradient(to bottom, rgba(30, 30, 30, .05) 1px, transparent 1px);
    }

    svg.railroad path {
        stroke-width: 3px;
        stroke: black;
        fill: transparent;
    }

    svg.railroad .debug {
        stroke-width: 1px;
        stroke: red;
    }

    svg.railroad text {
        font: 14px monospace;
        text-anchor: middle;
    }

    svg.railroad .nonterminal text {
        font-weight: bold;
    }

    svg.railroad text.comment {
        font: italic 12px monospace;
    }

    svg.railroad rect {
        stroke-width: 3px;
        stroke: black;
        fill:hsl(-290, 70%, 90%);
    }

    svg.railroad g.labeledbox > rect {
        stroke-width: 1px;
        stroke: grey;
        stroke-dasharray: 5px;
        fill:rgba(90, 90, 150, .1);
    }</style>
<g class="choice">
<path d=" M 10 21 h 24 m 116 0 h 112 m -53 0 l -5 -5 m 0 10 l 5 -5 m 53 0"/>
<g class="nonterminal">
<rect height="22" width="116" x="34" y="10"/>
<text x="92" y="26">
on_exception</text>
</g>
<path d=" M 10 21 a 12 12 0 0 1 12 12 v 9 m 228 0 v -9 a 12 12 0 0 1 12 -12"/>
<path d=" M 22 42 v 33 m 228 0 v -33"/>
<path d=" M 22 75 v 33 m 228 0 v -33"/>
<path d=" M 22 108 v 33 m 228 0 v -33"/>
<path d=" M 22 141 v 33 m 228 0 v -33"/>
<path d=" M 22 174 v 33 m 228 0 v -33"/>
<path d=" M 22 207 v 33 m 228 0 v -33"/>
<path d=" M 22 240 v 33 m 228 0 v -33"/>
<path d=" M 22 273 v 33 m 228 0 v -33"/>
<path d=" M 22 306 v 33 m 228 0 v -33"/>
<path d=" M 22 339 v 33 m 228 0 v -33"/>
<path d=" M 22 372 v 33 m 228 0 v -33"/>
<path d=" M 22 405 v 33 m 228 0 v -33"/>
<path d=" M 22 438 v 33 m 228 0 v -33"/>
<path d=" M 22 471 v 33 m 228 0 v -33"/>
<path d=" M 22 504 v 33 m 228 0 v -33"/>
<path d=" M 22 537 v 33 m 228 0 v -33"/>
<path d=" M 22 570 v 33 m 228 0 v -33"/>
<path d=" M 22 42 v 0 a 12 12 0 0 0 12 12 m 148 0 h 56 m -25 0 l -5 -5 m 0 10 l 5 -5 m 25 0 a 12 12 0 0 0 12 -12 v 0"/>
<g class="nonterminal">
<rect height="22" width="148" x="34" y="43"/>
<text x="108" y="59">
not_on_exception</text>
</g>
<path d=" M 22 75 v 0 a 12 12 0 0 0 12 12 m 124 0 h 80 m -37 0 l -5 -5 m 0 10 l 5 -5 m 37 0 a 12 12 0 0 0 12 -12 v 0"/>
<g class="nonterminal">
<rect height="22" width="124" x="34" y="76"/>
<text x="96" y="92">
on_size_error</text>
</g>
<path d=" M 22 108 v 0 a 12 12 0 0 0 12 12 m 156 0 h 48 a 12 12 0 0 0 12 -12 v 0"/>
<g class="nonterminal">
<rect height="22" width="156" x="34" y="109"/>
<text x="112" y="125">
not_on_size_error</text>
</g>
<path d=" M 22 141 v 0 a 12 12 0 0 0 12 12 m 108 0 h 96 m -45 0 l -5 -5 m 0 10 l 5 -5 m 45 0 a 12 12 0 0 0 12 -12 v 0"/>
<g class="nonterminal">
<rect height="22" width="108" x="34" y="142"/>
<text x="88" y="158">
on_overflow</text>
</g>
<path d=" M 22 174 v 0 a 12 12 0 0 0 12 12 m 140 0 h 64 m -29 0 l -5 -5 m 0 10 l 5 -5 m 29 0 a 12 12 0 0 0 12 -12 v 0"/>
<g class="nonterminal">
<rect height="22" width="140" x="34" y="175"/>
<text x="104" y="191">
not_on_overflow</text>
</g>
<path d=" M 22 207 v 0 a 12 12 0 0 0 12 12 m 68 0 h 136 m -65 0 l -5 -5 m 0 10 l 5 -5 m 65 0 a 12 12 0 0 0 12 -12 v 0"/>
<g class="nonterminal">
<rect height="22" width="68" x="34" y="208"/>
<text x="68" y="224">
at_end</text>
</g>
<path d=" M 22 240 v 0 a 12 12 0 0 0 12 12 m 100 0 h 104 m -49 0 l -5 -5 m 0 10 l 5 -5 m 49 0 a 12 12 0 0 0 12 -12 v 0"/>
<g class="nonterminal">
<rect height="22" width="100" x="34" y="241"/>
<text x="84" y="257">
not_at_end</text>
</g>
<path d=" M 22 273 v 0 a 12 12 0 0 0 12 12 m 44 0 h 160 m -77 0 l -5 -5 m 0 10 l 5 -5 m 77 0 a 12 12 0 0 0 12 -12 v 0"/>
<g class="nonterminal">
<rect height="22" width="44" x="34" y="274"/>
<text x="56" y="290">
eop</text>
</g>
<path d=" M 22 306 v 0 a 12 12 0 0 0 12 12 m 76 0 h 128 m -61 0 l -5 -5 m 0 10 l 5 -5 m 61 0 a 12 12 0 0 0 12 -12 v 0"/>
<g class="nonterminal">
<rect height="22" width="76" x="34" y="307"/>
<text x="72" y="323">
not_eop</text>
</g>
<path d=" M 22 339 v 0 a 12 12 0 0 0 12 12 m 108 0 h 96 m -45 0 l -5 -5 m 0 10 l 5 -5 m 45 0 a 12 12 0 0 0 12 -12 v 0"/>
<g class="nonterminal">
<rect height="22" width="108" x="34" y="340"/>
<text x="88" y="356">
invalid_key</text>
</g>
<path d=" M 22 372 v 0 a 12 12 0 0 0 12 12 m 140 0 h 64 m -29 0 l -5 -5 m 0 10 l 5 -5 m 29 0 a 12 12 0 0 0 12 -12 v 0"/>
<g class="nonterminal">
<rect height="22" width="140" x="34" y="373"/>
<text x="104" y="389">
not_invalid_key</text>
</g>
<path d=" M 22 405 v 0 a 12 12 0 0 0 12 12 m 140 0 h 64 m -29 0 l -5 -5 m 0 10 l 5 -5 m 29 0 a 12 12 0 0 0 12 -12 v 0"/>
<g class="nonterminal">
<rect height="22" width="140" x="34" y="406"/>
<text x="104" y="422">
evaluate_header</text>
</g>
<path d=" M 22 438 v 0 a 12 12 0 0 0 12 12 m 52 0 h 152 m -73 0 l -5 -5 m 0 10 l 5 -5 m 73 0 a 12 12 0 0 0 12 -12 v 0"/>
<g class="nonterminal">
<rect height="22" width="52" x="34" y="439"/>
<text x="60" y="455">
when</text>
</g>
<path d=" M 22 471 v 0 a 12 12 0 0 0 12 12 m 100 0 h 104 m -49 0 l -5 -5 m 0 10 l 5 -5 m 49 0 a 12 12 0 0 0 12 -12 v 0"/>
<g class="nonterminal">
<rect height="22" width="100" x="34" y="472"/>
<text x="84" y="488">
when_other</text>
</g>
<path d=" M 22 504 v 0 a 12 12 0 0 0 12 12 m 204 0 h 0 a 12 12 0 0 0 12 -12 v 0"/>
<g class="nonterminal">
<rect height="22" width="204" x="34" y="505"/>
<text x="136" y="521">
perform_statement_loop</text>
</g>
<path d=" M 22 537 v 0 a 12 12 0 0 0 12 12 m 92 0 h 112 m -53 0 l -5 -5 m 0 10 l 5 -5 m 53 0 a 12 12 0 0 0 12 -12 v 0"/>
<g class="nonterminal">
<rect height="22" width="92" x="34" y="538"/>
<text x="80" y="554">
if_header</text>
</g>
<path d=" M 22 570 v 0 a 12 12 0 0 0 12 12 m 132 0 h 72 m -33 0 l -5 -5 m 0 10 l 5 -5 m 33 0 a 12 12 0 0 0 12 -12 v 0"/>
<g class="nonterminal">
<rect height="22" width="132" x="34" y="571"/>
<text x="100" y="587">
else_if_header</text>
</g>
<path d=" M 22 603 v 0 a 12 12 0 0 0 12 12 m 108 0 h 96 m -45 0 l -5 -5 m 0 10 l 5 -5 m 45 0 a 12 12 0 0 0 12 -12 v 0"/>
<g class="nonterminal">
<rect height="22" width="108" x="34" y="604"/>
<text x="88" y="620">
else_header</text>
</g>
</g>
</svg>
