<svg class="railroad" viewBox="0 0 442 130" xmlns="http://www.w3.org/2000/svg" xmlns:xlink="http://www.w3.org/1999/xlink">
<style type="text/css">

    svg.railroad {
        background-color: hsl(30, 20%, 95%);
        background-size: 15px 15px;
        background-image: linear-gradient(to right, rgba(30, 30, 30, .05) 1px, transparent 1px),
                          linear-gradient(to bottom, rgba(30, 30, 30, .05) 1px, transparent 1px);
    }

    svg.railroad path {
        stroke-width: 3px;
        stroke: black;
        fill: transparent;
    }

    svg.railroad .debug {
        stroke-width: 1px;
        stroke: red;
    }

    svg.railroad text {
        font: 14px monospace;
        text-anchor: middle;
    }

    svg.railroad .nonterminal text {
        font-weight: bold;
    }

    svg.railroad text.comment {
        font: italic 12px monospace;
    }

    svg.railroad rect {
        stroke-width: 3px;
        stroke: black;
        fill:hsl(-290, 70%, 90%);
    }

    svg.railroad g.labeledbox > rect {
        stroke-width: 1px;
        stroke: grey;
        stroke-dasharray: 5px;
        fill:rgba(90, 90, 150, .1);
    }</style>
<g class="choice">
<path d=" M 10 21 h 24 m 374 0 h 24"/>
<g class="sequence">
<g class="nonterminal">
<rect height="22" width="60" x="34" y="10"/>
<text x="64" y="26">
_STOP</text>
</g>
<g class="nonterminal">
<rect height="22" width="52" x="104" y="10"/>
<text x="130" y="26">
_RUN</text>
</g>
<g class="choice">
<path d=" M 166 21 h 24 m 194 0 h 24"/>
<g class="choice">
<path d=" M 190 21 h 24 m 146 0 h 24"/>
<g class="sequence">
<g class="nonterminal">
<rect height="22" width="100" x="214" y="10"/>
<text x="264" y="26">
_RETURNING</text>
</g>
<g class="nonterminal">
<rect height="22" width="36" x="324" y="10"/>
<text x="342" y="26">
_x</text>
</g>
<path d=" M 314 21 h 10"/>
</g>
<path d=" M 190 21 a 12 12 0 0 1 12 12 v 9 m 170 0 v -9 a 12 12 0 0 1 12 -12"/>
<path d=" M 202 42 v 0 a 12 12 0 0 0 12 12 m 122 0 h 24 a 12 12 0 0 0 12 -12 v 0"/>
<g class="sequence">
<g class="nonterminal">
<rect height="22" width="76" x="214" y="43"/>
<text x="252" y="59">
_GIVING</text>
</g>
<g class="nonterminal">
<rect height="22" width="36" x="300" y="43"/>
<text x="318" y="59">
_x</text>
</g>
<path d=" M 290 54 h 10"/>
</g>
</g>
<path d=" M 166 21 a 12 12 0 0 1 12 12 v 42 m 218 0 v -42 a 12 12 0 0 1 12 -12"/>
<path d=" M 178 75 v 0 a 12 12 0 0 0 12 12 m 0 0 h 194 m -94 0 l -5 -5 m 0 10 l 5 -5 m 94 0 a 12 12 0 0 0 12 -12 v 0"/>
<g/>
</g>
<path d=" M 94 21 h 10"/>
<path d=" M 156 21 h 10"/>
</g>
<path d=" M 10 21 a 12 12 0 0 1 12 12 v 64 m 0 -29 l -5 -5 m 10 0 l -5 5 m 0 29 m 398 0 v -64 m 0 35 l -5 5 m 10 0 l -5 -5 m 0 -35 a 12 12 0 0 1 12 -12"/>
<path d=" M 22 97 v 0 a 12 12 0 0 0 12 12 m 194 0 h 180 m -87 0 l -5 -5 m 0 10 l 5 -5 m 87 0 a 12 12 0 0 0 12 -12 v 0"/>
<g class="sequence">
<g class="nonterminal">
<rect height="22" width="60" x="34" y="98"/>
<text x="64" y="114">
_STOP</text>
</g>
<g class="nonterminal">
<rect height="22" width="124" x="104" y="98"/>
<text x="166" y="114">
_simple_value</text>
</g>
<path d=" M 94 109 h 10"/>
</g>
</g>
</svg>
