<svg class="railroad" viewBox="0 0 892 97" xmlns="http://www.w3.org/2000/svg" xmlns:xlink="http://www.w3.org/1999/xlink">
<style type="text/css">

    svg.railroad {
        background-color: hsl(30, 20%, 95%);
        background-size: 15px 15px;
        background-image: linear-gradient(to right, rgba(30, 30, 30, .05) 1px, transparent 1px),
                          linear-gradient(to bottom, rgba(30, 30, 30, .05) 1px, transparent 1px);
    }

    svg.railroad path {
        stroke-width: 3px;
        stroke: black;
        fill: transparent;
    }

    svg.railroad .debug {
        stroke-width: 1px;
        stroke: red;
    }

    svg.railroad text {
        font: 14px monospace;
        text-anchor: middle;
    }

    svg.railroad .nonterminal text {
        font-weight: bold;
    }

    svg.railroad text.comment {
        font: italic 12px monospace;
    }

    svg.railroad rect {
        stroke-width: 3px;
        stroke: black;
        fill:hsl(-290, 70%, 90%);
    }

    svg.railroad g.labeledbox > rect {
        stroke-width: 1px;
        stroke: grey;
        stroke-dasharray: 5px;
        fill:rgba(90, 90, 150, .1);
    }</style>
<g class="sequence">
<g class="nonterminal">
<rect height="22" width="60" x="10" y="10"/>
<text x="40" y="26">
_COPY</text>
</g>
<g class="choice">
<path d=" M 80 21 h 24 m 116 0 h 24"/>
<g class="choice">
<path d=" M 104 21 h 24 m 52 0 h 40"/>
<g class="nonterminal">
<rect height="22" width="52" x="128" y="10"/>
<text x="154" y="26">
WORD</text>
</g>
<path d=" M 104 21 a 12 12 0 0 1 12 12 v 9 m 92 0 v -9 a 12 12 0 0 1 12 -12"/>
<path d=" M 116 42 v 0 a 12 12 0 0 0 12 12 m 68 0 h 0 a 12 12 0 0 0 12 -12 v 0"/>
<g class="nonterminal">
<rect height="22" width="68" x="128" y="43"/>
<text x="162" y="59">
string</text>
</g>
</g>
<path d=" M 80 21 a 12 12 0 0 1 12 12 v 42 m 140 0 v -42 a 12 12 0 0 1 12 -12"/>
<path d=" M 92 75 v 0 a 12 12 0 0 0 12 12 m 0 0 h 116 m -55 0 l -5 -5 m 0 10 l 5 -5 m 55 0 a 12 12 0 0 0 12 -12 v 0"/>
<g/>
</g>
<g class="choice">
<path d=" M 254 21 h 24 m 194 0 h 24"/>
<g class="sequence">
<g class="nonterminal">
<rect height="22" width="68" x="278" y="10"/>
<text x="312" y="26">
_in_of</text>
</g>
<g class="choice">
<path d=" M 356 21 h 24 m 52 0 h 40"/>
<g class="nonterminal">
<rect height="22" width="52" x="380" y="10"/>
<text x="406" y="26">
WORD</text>
</g>
<path d=" M 356 21 a 12 12 0 0 1 12 12 v 9 m 92 0 v -9 a 12 12 0 0 1 12 -12"/>
<path d=" M 368 42 v 0 a 12 12 0 0 0 12 12 m 68 0 h 0 a 12 12 0 0 0 12 -12 v 0"/>
<g class="nonterminal">
<rect height="22" width="68" x="380" y="43"/>
<text x="414" y="59">
string</text>
</g>
</g>
<path d=" M 346 21 h 10"/>
</g>
<path d=" M 254 21 a 12 12 0 0 1 12 12 v 42 m 218 0 v -42 a 12 12 0 0 1 12 -12"/>
<path d=" M 266 75 v 0 a 12 12 0 0 0 12 12 m 0 0 h 194 m -94 0 l -5 -5 m 0 10 l 5 -5 m 94 0 a 12 12 0 0 0 12 -12 v 0"/>
<g/>
</g>
<g class="choice">
<path d=" M 506 21 h 24 m 84 0 h 24"/>
<g class="nonterminal">
<rect height="22" width="84" x="530" y="10"/>
<text x="572" y="26">
SUPPRESS</text>
</g>
<path d=" M 506 21 a 12 12 0 0 1 12 12 v 9 m 108 0 v -9 a 12 12 0 0 1 12 -12"/>
<path d=" M 518 42 v 0 a 12 12 0 0 0 12 12 m 0 0 h 84 m -39 0 l -5 -5 m 0 10 l 5 -5 m 39 0 a 12 12 0 0 0 12 -12 v 0"/>
<g/>
</g>
<g class="choice">
<path d=" M 648 21 h 24 m 148 0 h 24"/>
<g class="nonterminal">
<rect height="22" width="148" x="672" y="10"/>
<text x="746" y="26">
replacing_clause</text>
</g>
<path d=" M 648 21 a 12 12 0 0 1 12 12 v 9 m 172 0 v -9 a 12 12 0 0 1 12 -12"/>
<path d=" M 660 42 v 0 a 12 12 0 0 0 12 12 m 0 0 h 148 m -71 0 l -5 -5 m 0 10 l 5 -5 m 71 0 a 12 12 0 0 0 12 -12 v 0"/>
<g/>
</g>
<g class="terminal">
<rect height="22" rx="10" ry="10" width="28" x="854" y="10"/>
<text x="868" y="26">
.</text>
</g>
<path d=" M 70 21 h 10"/>
<path d=" M 244 21 h 10"/>
<path d=" M 496 21 h 10"/>
<path d=" M 638 21 h 10"/>
<path d=" M 844 21 h 10"/>
</g>
</svg>
