<svg class="railroad" viewBox="0 0 758 119" xmlns="http://www.w3.org/2000/svg" xmlns:xlink="http://www.w3.org/1999/xlink">
<style type="text/css">

    svg.railroad {
        background-color: hsl(30, 20%, 95%);
        background-size: 15px 15px;
        background-image: linear-gradient(to right, rgba(30, 30, 30, .05) 1px, transparent 1px),
                          linear-gradient(to bottom, rgba(30, 30, 30, .05) 1px, transparent 1px);
    }

    svg.railroad path {
        stroke-width: 3px;
        stroke: black;
        fill: transparent;
    }

    svg.railroad .debug {
        stroke-width: 1px;
        stroke: red;
    }

    svg.railroad text {
        font: 14px monospace;
        text-anchor: middle;
    }

    svg.railroad .nonterminal text {
        font-weight: bold;
    }

    svg.railroad text.comment {
        font: italic 12px monospace;
    }

    svg.railroad rect {
        stroke-width: 3px;
        stroke: black;
        fill:hsl(-290, 70%, 90%);
    }

    svg.railroad g.labeledbox > rect {
        stroke-width: 1px;
        stroke: grey;
        stroke-dasharray: 5px;
        fill:rgba(90, 90, 150, .1);
    }</style>
<g class="sequence">
<g class="nonterminal">
<rect height="22" width="92" x="10" y="10"/>
<text x="56" y="26">
_ALLOCATE</text>
</g>
<g class="choice">
<path d=" M 112 21 h 24 m 478 0 h 134 m -64 0 l -5 -5 m 0 10 l 5 -5 m 64 0"/>
<g class="sequence">
<g class="nonterminal">
<rect height="22" width="52" x="136" y="10"/>
<text x="162" y="26">
WORD</text>
</g>
<g class="choice">
<path d=" M 198 21 h 24 m 108 0 h 24"/>
<g class="nonterminal">
<rect height="22" width="108" x="222" y="10"/>
<text x="276" y="26">
INITIALIZED</text>
</g>
<path d=" M 198 21 a 12 12 0 0 1 12 12 v 9 m 132 0 v -9 a 12 12 0 0 1 12 -12"/>
<path d=" M 210 42 v 0 a 12 12 0 0 0 12 12 m 0 0 h 108 m -51 0 l -5 -5 m 0 10 l 5 -5 m 51 0 a 12 12 0 0 0 12 -12 v 0"/>
<g/>
</g>
<g class="choice">
<path d=" M 364 21 h 24 m 202 0 h 24"/>
<g class="sequence">
<g class="nonterminal">
<rect height="22" width="100" x="388" y="10"/>
<text x="438" y="26">
_RETURNING</text>
</g>
<g class="nonterminal">
<rect height="22" width="92" x="498" y="10"/>
<text x="544" y="26">
_target_x</text>
</g>
<path d=" M 488 21 h 10"/>
</g>
<path d=" M 364 21 a 12 12 0 0 1 12 12 v 9 m 226 0 v -9 a 12 12 0 0 1 12 -12"/>
<path d=" M 376 42 v 0 a 12 12 0 0 0 12 12 m 0 0 h 202 m -98 0 l -5 -5 m 0 10 l 5 -5 m 98 0 a 12 12 0 0 0 12 -12 v 0"/>
<g/>
</g>
<path d=" M 188 21 h 10"/>
<path d=" M 354 21 h 10"/>
</g>
<path d=" M 112 21 a 12 12 0 0 1 12 12 v 31 m 612 0 v -31 a 12 12 0 0 1 12 -12"/>
<path d=" M 124 64 v 0 a 12 12 0 0 0 12 12 m 588 0 h 0 a 12 12 0 0 0 12 -12 v 0"/>
<g class="sequence">
<g class="nonterminal">
<rect height="22" width="52" x="136" y="65"/>
<text x="162" y="81">
expr</text>
</g>
<g class="nonterminal">
<rect height="22" width="100" x="198" y="65"/>
<text x="248" y="81">
CHARACTERS</text>
</g>
<g class="choice">
<path d=" M 308 76 h 24 m 108 0 h 24"/>
<g class="nonterminal">
<rect height="22" width="108" x="332" y="65"/>
<text x="386" y="81">
INITIALIZED</text>
</g>
<path d=" M 308 76 a 12 12 0 0 1 12 12 v 9 m 132 0 v -9 a 12 12 0 0 1 12 -12"/>
<path d=" M 320 97 v 0 a 12 12 0 0 0 12 12 m 0 0 h 108 m -51 0 l -5 -5 m 0 10 l 5 -5 m 51 0 a 12 12 0 0 0 12 -12 v 0"/>
<g/>
</g>
<g class="choice">
<path d=" M 474 76 h 24 m 202 0 h 24"/>
<g class="sequence">
<g class="nonterminal">
<rect height="22" width="100" x="498" y="65"/>
<text x="548" y="81">
_RETURNING</text>
</g>
<g class="nonterminal">
<rect height="22" width="92" x="608" y="65"/>
<text x="654" y="81">
_target_x</text>
</g>
<path d=" M 598 76 h 10"/>
</g>
<path d=" M 474 76 a 12 12 0 0 1 12 12 v 9 m 226 0 v -9 a 12 12 0 0 1 12 -12"/>
<path d=" M 486 97 v 0 a 12 12 0 0 0 12 12 m 0 0 h 202 m -98 0 l -5 -5 m 0 10 l 5 -5 m 98 0 a 12 12 0 0 0 12 -12 v 0"/>
<g/>
</g>
<path d=" M 188 76 h 10"/>
<path d=" M 298 76 h 10"/>
<path d=" M 464 76 h 10"/>
</g>
</g>
<path d=" M 102 21 h 10"/>
</g>
</svg>
