<svg class="railroad" viewBox="0 0 412 262" xmlns="http://www.w3.org/2000/svg" xmlns:xlink="http://www.w3.org/1999/xlink">
<style type="text/css">

    svg.railroad {
        background-color: hsl(30, 20%, 95%);
        background-size: 15px 15px;
        background-image: linear-gradient(to right, rgba(30, 30, 30, .05) 1px, transparent 1px),
                          linear-gradient(to bottom, rgba(30, 30, 30, .05) 1px, transparent 1px);
    }

    svg.railroad path {
        stroke-width: 3px;
        stroke: black;
        fill: transparent;
    }

    svg.railroad .debug {
        stroke-width: 1px;
        stroke: red;
    }

    svg.railroad text {
        font: 14px monospace;
        text-anchor: middle;
    }

    svg.railroad .nonterminal text {
        font-weight: bold;
    }

    svg.railroad text.comment {
        font: italic 12px monospace;
    }

    svg.railroad rect {
        stroke-width: 3px;
        stroke: black;
        fill:hsl(-290, 70%, 90%);
    }

    svg.railroad g.labeledbox > rect {
        stroke-width: 1px;
        stroke: grey;
        stroke-dasharray: 5px;
        fill:rgba(90, 90, 150, .1);
    }</style>
<g class="choice">
<path d=" M 10 21 h 24 m 344 0 h 24"/>
<g class="sequence">
<g class="choice">
<path d=" M 34 21 h 24 m 44 0 h 24"/>
<g class="nonterminal">
<rect height="22" width="44" x="58" y="10"/>
<text x="80" y="26">
_AT</text>
</g>
<path d=" M 34 21 a 12 12 0 0 1 12 12 v 9 m 68 0 v -9 a 12 12 0 0 1 12 -12"/>
<path d=" M 46 42 v 0 a 12 12 0 0 0 12 12 m 0 0 h 44 a 12 12 0 0 0 12 -12 v 0"/>
<g/>
</g>
<g class="nonterminal">
<rect height="22" width="108" x="136" y="10"/>
<text x="190" y="26">
line_number</text>
</g>
<g class="nonterminal">
<rect height="22" width="124" x="254" y="10"/>
<text x="316" y="26">
column_number</text>
</g>
<path d=" M 126 21 h 10"/>
<path d=" M 244 21 h 10"/>
</g>
<path d=" M 10 21 a 12 12 0 0 1 12 12 v 31 m 368 0 v -31 a 12 12 0 0 1 12 -12"/>
<path d=" M 22 64 v 55 m 0 -24 l -5 -5 m 10 0 l -5 5 m 0 24 m 368 0 v -55 m 0 30 l -5 5 m 10 0 l -5 -5 m 0 -30"/>
<path d=" M 22 119 v 55 m 0 -24 l -5 -5 m 10 0 l -5 5 m 0 24 m 368 0 v -55 m 0 30 l -5 5 m 10 0 l -5 -5 m 0 -30"/>
<path d=" M 22 174 v 55 m 0 -24 l -5 -5 m 10 0 l -5 5 m 0 24 m 368 0 v -55 m 0 30 l -5 5 m 10 0 l -5 -5 m 0 -30"/>
<path d=" M 22 64 v 0 a 12 12 0 0 0 12 12 m 344 0 h 0 a 12 12 0 0 0 12 -12 v 0"/>
<g class="sequence">
<g class="choice">
<path d=" M 34 76 h 24 m 44 0 h 24"/>
<g class="nonterminal">
<rect height="22" width="44" x="58" y="65"/>
<text x="80" y="81">
_AT</text>
</g>
<path d=" M 34 76 a 12 12 0 0 1 12 12 v 9 m 68 0 v -9 a 12 12 0 0 1 12 -12"/>
<path d=" M 46 97 v 0 a 12 12 0 0 0 12 12 m 0 0 h 44 a 12 12 0 0 0 12 -12 v 0"/>
<g/>
</g>
<g class="nonterminal">
<rect height="22" width="124" x="136" y="65"/>
<text x="198" y="81">
column_number</text>
</g>
<g class="nonterminal">
<rect height="22" width="108" x="270" y="65"/>
<text x="324" y="81">
line_number</text>
</g>
<path d=" M 126 76 h 10"/>
<path d=" M 260 76 h 10"/>
</g>
<path d=" M 22 119 v 0 a 12 12 0 0 0 12 12 m 210 0 h 134 m -64 0 l -5 -5 m 0 10 l 5 -5 m 64 0 a 12 12 0 0 0 12 -12 v 0"/>
<g class="sequence">
<g class="choice">
<path d=" M 34 131 h 24 m 44 0 h 24"/>
<g class="nonterminal">
<rect height="22" width="44" x="58" y="120"/>
<text x="80" y="136">
_AT</text>
</g>
<path d=" M 34 131 a 12 12 0 0 1 12 12 v 9 m 68 0 v -9 a 12 12 0 0 1 12 -12"/>
<path d=" M 46 152 v 0 a 12 12 0 0 0 12 12 m 0 0 h 44 a 12 12 0 0 0 12 -12 v 0"/>
<g/>
</g>
<g class="nonterminal">
<rect height="22" width="108" x="136" y="120"/>
<text x="190" y="136">
line_number</text>
</g>
<path d=" M 126 131 h 10"/>
</g>
<path d=" M 22 174 v 0 a 12 12 0 0 0 12 12 m 226 0 h 118 m -56 0 l -5 -5 m 0 10 l 5 -5 m 56 0 a 12 12 0 0 0 12 -12 v 0"/>
<g class="sequence">
<g class="choice">
<path d=" M 34 186 h 24 m 44 0 h 24"/>
<g class="nonterminal">
<rect height="22" width="44" x="58" y="175"/>
<text x="80" y="191">
_AT</text>
</g>
<path d=" M 34 186 a 12 12 0 0 1 12 12 v 9 m 68 0 v -9 a 12 12 0 0 1 12 -12"/>
<path d=" M 46 207 v 0 a 12 12 0 0 0 12 12 m 0 0 h 44 a 12 12 0 0 0 12 -12 v 0"/>
<g/>
</g>
<g class="nonterminal">
<rect height="22" width="124" x="136" y="175"/>
<text x="198" y="191">
column_number</text>
</g>
<path d=" M 126 186 h 10"/>
</g>
<path d=" M 22 229 v 0 a 12 12 0 0 0 12 12 m 178 0 h 166 m -80 0 l -5 -5 m 0 10 l 5 -5 m 80 0 a 12 12 0 0 0 12 -12 v 0"/>
<g class="sequence">
<g class="nonterminal">
<rect height="22" width="44" x="34" y="230"/>
<text x="56" y="246">
_AT</text>
</g>
<g class="nonterminal">
<rect height="22" width="124" x="88" y="230"/>
<text x="150" y="246">
_simple_value</text>
</g>
<path d=" M 78 241 h 10"/>
</g>
</g>
</svg>
