<svg class="railroad" viewBox="0 0 406 97" xmlns="http://www.w3.org/2000/svg" xmlns:xlink="http://www.w3.org/1999/xlink">
<style type="text/css">

    svg.railroad {
        background-color: hsl(30, 20%, 95%);
        background-size: 15px 15px;
        background-image: linear-gradient(to right, rgba(30, 30, 30, .05) 1px, transparent 1px),
                          linear-gradient(to bottom, rgba(30, 30, 30, .05) 1px, transparent 1px);
    }

    svg.railroad path {
        stroke-width: 3px;
        stroke: black;
        fill: transparent;
    }

    svg.railroad .debug {
        stroke-width: 1px;
        stroke: red;
    }

    svg.railroad text {
        font: 14px monospace;
        text-anchor: middle;
    }

    svg.railroad .nonterminal text {
        font-weight: bold;
    }

    svg.railroad text.comment {
        font: italic 12px monospace;
    }

    svg.railroad rect {
        stroke-width: 3px;
        stroke: black;
        fill:hsl(-290, 70%, 90%);
    }

    svg.railroad g.labeledbox > rect {
        stroke-width: 1px;
        stroke: grey;
        stroke-dasharray: 5px;
        fill:rgba(90, 90, 150, .1);
    }</style>
<g class="choice">
<path d=" M 10 21 h 24 m 338 0 h 24"/>
<g class="sequence">
<g class="nonterminal">
<rect height="22" width="124" x="34" y="10"/>
<text x="96" y="26">
on_size_error</text>
</g>
<g class="choice">
<path d=" M 168 21 h 24 m 156 0 h 24"/>
<g class="nonterminal">
<rect height="22" width="156" x="192" y="10"/>
<text x="270" y="26">
not_on_size_error</text>
</g>
<path d=" M 168 21 a 12 12 0 0 1 12 12 v 9 m 180 0 v -9 a 12 12 0 0 1 12 -12"/>
<path d=" M 180 42 v 0 a 12 12 0 0 0 12 12 m 0 0 h 156 m -75 0 l -5 -5 m 0 10 l 5 -5 m 75 0 a 12 12 0 0 0 12 -12 v 0"/>
<g/>
</g>
<path d=" M 158 21 h 10"/>
</g>
<path d=" M 10 21 a 12 12 0 0 1 12 12 v 31 m 362 0 v -31 a 12 12 0 0 1 12 -12"/>
<path d=" M 22 64 v 0 a 12 12 0 0 0 12 12 m 156 0 h 182 m -88 0 l -5 -5 m 0 10 l 5 -5 m 88 0 a 12 12 0 0 0 12 -12 v 0"/>
<g class="nonterminal">
<rect height="22" width="156" x="34" y="65"/>
<text x="112" y="81">
not_on_size_error</text>
</g>
</g>
</svg>
