<svg class="railroad" viewBox="0 0 616 194" xmlns="http://www.w3.org/2000/svg" xmlns:xlink="http://www.w3.org/1999/xlink">
<style type="text/css">

    svg.railroad {
        background-color: hsl(30, 20%, 95%);
        background-size: 15px 15px;
        background-image: linear-gradient(to right, rgba(30, 30, 30, .05) 1px, transparent 1px),
                          linear-gradient(to bottom, rgba(30, 30, 30, .05) 1px, transparent 1px);
    }

    svg.railroad path {
        stroke-width: 3px;
        stroke: black;
        fill: transparent;
    }

    svg.railroad .debug {
        stroke-width: 1px;
        stroke: red;
    }

    svg.railroad text {
        font: 14px monospace;
        text-anchor: middle;
    }

    svg.railroad .nonterminal text {
        font-weight: bold;
    }

    svg.railroad text.comment {
        font: italic 12px monospace;
    }

    svg.railroad rect {
        stroke-width: 3px;
        stroke: black;
        fill:hsl(-290, 70%, 90%);
    }

    svg.railroad g.labeledbox > rect {
        stroke-width: 1px;
        stroke: grey;
        stroke-dasharray: 5px;
        fill:rgba(90, 90, 150, .1);
    }</style>
<g class="sequence">
<g class="choice">
<path d=" M 10 21 h 24 m 264 0 h 308 m -151 0 l -5 -5 m 0 10 l 5 -5 m 151 0"/>
<g class="sequence">
<g class="repeat">
<path d=" M 34 21 h 12 m 36 0 h 12 m -12 0 a 12 12 0 0 1 12 12 v 8 a 12 12 0 0 1 -12 12 m -36 0 h 0 a 12 12 0 0 1 -12 -12 v -8 a 12 12 0 0 1 12 -12"/>
<g class="nonterminal">
<rect height="22" width="36" x="46" y="42"/>
<text x="64" y="58">
_x</text>
</g>
<g class="nonterminal">
<rect height="22" width="36" x="46" y="10"/>
<text x="64" y="26">
_x</text>
</g>
</g>
<g class="nonterminal">
<rect height="22" width="44" x="104" y="10"/>
<text x="126" y="26">
_TO</text>
</g>
<g class="repeat">
<path d=" M 158 21 h 12 m 116 0 h 12 m -12 0 a 12 12 0 0 1 12 12 v 8 a 12 12 0 0 1 -12 12 m -116 0 h 0 a 12 12 0 0 1 -12 -12 v -8 a 12 12 0 0 1 12 -12"/>
<g class="nonterminal">
<rect height="22" width="116" x="170" y="42"/>
<text x="228" y="58">
arithmetic_x</text>
</g>
<g class="nonterminal">
<rect height="22" width="116" x="170" y="10"/>
<text x="228" y="26">
arithmetic_x</text>
</g>
</g>
<path d=" M 94 21 h 10"/>
<path d=" M 148 21 h 10"/>
</g>
<path d=" M 10 21 a 12 12 0 0 1 12 12 v 41 m 572 0 v -41 a 12 12 0 0 1 12 -12"/>
<path d=" M 22 74 v 65 m 0 -29 l -5 -5 m 10 0 l -5 5 m 0 29 m 572 0 v -65 m 0 35 l -5 5 m 10 0 l -5 -5 m 0 -35"/>
<path d=" M 22 74 v 0 a 12 12 0 0 0 12 12 m 444 0 h 104 m -49 0 l -5 -5 m 0 10 l 5 -5 m 49 0 a 12 12 0 0 0 12 -12 v 0"/>
<g class="sequence">
<g class="repeat">
<path d=" M 34 86 h 12 m 36 0 h 12 m -12 0 a 12 12 0 0 1 12 12 v 8 a 12 12 0 0 1 -12 12 m -36 0 h 0 a 12 12 0 0 1 -12 -12 v -8 a 12 12 0 0 1 12 -12"/>
<g class="nonterminal">
<rect height="22" width="36" x="46" y="107"/>
<text x="64" y="123">
_x</text>
</g>
<g class="nonterminal">
<rect height="22" width="36" x="46" y="75"/>
<text x="64" y="91">
_x</text>
</g>
</g>
<g class="choice">
<path d=" M 104 86 h 24 m 90 0 h 24"/>
<g class="sequence">
<g class="nonterminal">
<rect height="22" width="44" x="128" y="75"/>
<text x="150" y="91">
_TO</text>
</g>
<g class="nonterminal">
<rect height="22" width="36" x="182" y="75"/>
<text x="200" y="91">
_x</text>
</g>
<path d=" M 172 86 h 10"/>
</g>
<path d=" M 104 86 a 12 12 0 0 1 12 12 v 9 m 114 0 v -9 a 12 12 0 0 1 12 -12"/>
<path d=" M 116 107 v 0 a 12 12 0 0 0 12 12 m 0 0 h 90 m -42 0 l -5 -5 m 0 10 l 5 -5 m 42 0 a 12 12 0 0 0 12 -12 v 0"/>
<g/>
</g>
<g class="nonterminal">
<rect height="22" width="76" x="252" y="75"/>
<text x="290" y="91">
_GIVING</text>
</g>
<g class="repeat">
<path d=" M 338 86 h 12 m 116 0 h 12 m -12 0 a 12 12 0 0 1 12 12 v 8 a 12 12 0 0 1 -12 12 m -116 0 h 0 a 12 12 0 0 1 -12 -12 v -8 a 12 12 0 0 1 12 -12"/>
<g class="nonterminal">
<rect height="22" width="116" x="350" y="107"/>
<text x="408" y="123">
arithmetic_x</text>
</g>
<g class="nonterminal">
<rect height="22" width="116" x="350" y="75"/>
<text x="408" y="91">
arithmetic_x</text>
</g>
</g>
<path d=" M 94 86 h 10"/>
<path d=" M 242 86 h 10"/>
<path d=" M 328 86 h 10"/>
</g>
<path d=" M 22 139 v 0 a 12 12 0 0 0 12 12 m 548 0 h 0 a 12 12 0 0 0 12 -12 v 0"/>
<g class="sequence">
<g class="nonterminal">
<rect height="22" width="124" x="34" y="140"/>
<text x="96" y="156">
CORRESPONDING</text>
</g>
<g class="nonterminal">
<rect height="22" width="108" x="168" y="140"/>
<text x="222" y="156">
_identifier</text>
</g>
<g class="nonterminal">
<rect height="22" width="44" x="286" y="140"/>
<text x="308" y="156">
_TO</text>
</g>
<g class="sequence">
<g class="nonterminal">
<rect height="22" width="108" x="340" y="140"/>
<text x="394" y="156">
_identifier</text>
</g>
<g class="choice">
<path d=" M 458 151 h 24 m 76 0 h 24"/>
<g class="nonterminal">
<rect height="22" width="76" x="482" y="140"/>
<text x="520" y="156">
ROUNDED</text>
</g>
<path d=" M 458 151 a 12 12 0 0 1 12 12 v 9 m 100 0 v -9 a 12 12 0 0 1 12 -12"/>
<path d=" M 470 172 v 0 a 12 12 0 0 0 12 12 m 0 0 h 76 m -35 0 l -5 -5 m 0 10 l 5 -5 m 35 0 a 12 12 0 0 0 12 -12 v 0"/>
<g/>
</g>
<path d=" M 448 151 h 10"/>
</g>
<path d=" M 158 151 h 10"/>
<path d=" M 276 151 h 10"/>
<path d=" M 330 151 h 10"/>
</g>
</g>
</g>
</svg>
