<svg class="railroad" viewBox="0 0 798 96" xmlns="http://www.w3.org/2000/svg" xmlns:xlink="http://www.w3.org/1999/xlink">
<style type="text/css">

    svg.railroad {
        background-color: hsl(30, 20%, 95%);
        background-size: 15px 15px;
        background-image: linear-gradient(to right, rgba(30, 30, 30, .05) 1px, transparent 1px),
                          linear-gradient(to bottom, rgba(30, 30, 30, .05) 1px, transparent 1px);
    }

    svg.railroad path {
        stroke-width: 3px;
        stroke: black;
        fill: transparent;
    }

    svg.railroad .debug {
        stroke-width: 1px;
        stroke: red;
    }

    svg.railroad text {
        font: 14px monospace;
        text-anchor: middle;
    }

    svg.railroad .nonterminal text {
        font-weight: bold;
    }

    svg.railroad text.comment {
        font: italic 12px monospace;
    }

    svg.railroad rect {
        stroke-width: 3px;
        stroke: black;
        fill:hsl(-290, 70%, 90%);
    }

    svg.railroad g.labeledbox > rect {
        stroke-width: 1px;
        stroke: grey;
        stroke-dasharray: 5px;
        fill:rgba(90, 90, 150, .1);
    }</style>
<g class="sequence">
<g class="nonterminal">
<rect height="22" width="60" x="10" y="10"/>
<text x="40" y="26">
_CALL</text>
</g>
<g class="nonterminal">
<rect height="22" width="164" x="80" y="10"/>
<text x="162" y="26">
_id_or_lit_or_func</text>
</g>
<g class="choice">
<path d=" M 254 21 h 24 m 210 0 h 24"/>
<g class="sequence">
<g class="nonterminal">
<rect height="22" width="68" x="278" y="10"/>
<text x="312" y="26">
_USING</text>
</g>
<g class="repeat">
<path d=" M 356 21 h 12 m 108 0 h 12 m -12 0 a 12 12 0 0 1 12 12 v 8 a 12 12 0 0 1 -12 12 m -108 0 h 0 a 12 12 0 0 1 -12 -12 v -8 a 12 12 0 0 1 12 -12"/>
<g class="nonterminal">
<rect height="22" width="108" x="368" y="42"/>
<text x="422" y="58">
_call_param</text>
</g>
<g class="nonterminal">
<rect height="22" width="108" x="368" y="10"/>
<text x="422" y="26">
_call_param</text>
</g>
</g>
<path d=" M 346 21 h 10"/>
</g>
<path d=" M 254 21 a 12 12 0 0 1 12 12 v 41 m 234 0 v -41 a 12 12 0 0 1 12 -12"/>
<path d=" M 266 74 v 0 a 12 12 0 0 0 12 12 m 0 0 h 210 m -102 0 l -5 -5 m 0 10 l 5 -5 m 102 0 a 12 12 0 0 0 12 -12 v 0"/>
<g/>
</g>
<g class="choice">
<path d=" M 522 21 h 24 m 218 0 h 24"/>
<g class="choice">
<path d=" M 546 21 h 0 m 218 0 h 0"/>
<g class="sequence">
<g class="nonterminal">
<rect height="22" width="100" x="546" y="10"/>
<text x="596" y="26">
_RETURNING</text>
</g>
<g class="nonterminal">
<rect height="22" width="108" x="656" y="10"/>
<text x="710" y="26">
_identifier</text>
</g>
<path d=" M 646 21 h 10"/>
</g>
</g>
<path d=" M 522 21 a 12 12 0 0 1 12 12 v 9 m 242 0 v -9 a 12 12 0 0 1 12 -12"/>
<path d=" M 534 42 v 0 a 12 12 0 0 0 12 12 m 0 0 h 218 m -106 0 l -5 -5 m 0 10 l 5 -5 m 106 0 a 12 12 0 0 0 12 -12 v 0"/>
<g/>
</g>
<path d=" M 70 21 h 10"/>
<path d=" M 244 21 h 10"/>
<path d=" M 512 21 h 10"/>
</g>
</svg>
