<svg class="railroad" viewBox="0 0 358 185" xmlns="http://www.w3.org/2000/svg" xmlns:xlink="http://www.w3.org/1999/xlink">
<style type="text/css">

    svg.railroad {
        background-color: hsl(30, 20%, 95%);
        background-size: 15px 15px;
        background-image: linear-gradient(to right, rgba(30, 30, 30, .05) 1px, transparent 1px),
                          linear-gradient(to bottom, rgba(30, 30, 30, .05) 1px, transparent 1px);
    }

    svg.railroad path {
        stroke-width: 3px;
        stroke: black;
        fill: transparent;
    }

    svg.railroad .debug {
        stroke-width: 1px;
        stroke: red;
    }

    svg.railroad text {
        font: 14px monospace;
        text-anchor: middle;
    }

    svg.railroad .nonterminal text {
        font-weight: bold;
    }

    svg.railroad text.comment {
        font: italic 12px monospace;
    }

    svg.railroad rect {
        stroke-width: 3px;
        stroke: black;
        fill:hsl(-290, 70%, 90%);
    }

    svg.railroad g.labeledbox > rect {
        stroke-width: 1px;
        stroke: grey;
        stroke-dasharray: 5px;
        fill:rgba(90, 90, 150, .1);
    }</style>
<g class="choice">
<path d=" M 10 21 h 24 m 290 0 h 24"/>
<g class="sequence">
<g class="choice">
<path d=" M 34 21 h 24 m 52 0 h 24"/>
<g class="nonterminal">
<rect height="22" width="52" x="58" y="10"/>
<text x="84" y="26">
REEL</text>
</g>
<path d=" M 34 21 a 12 12 0 0 1 12 12 v 9 m 76 0 v -9 a 12 12 0 0 1 12 -12"/>
<path d=" M 46 42 v 0 a 12 12 0 0 0 12 12 m 52 0 h 0 a 12 12 0 0 0 12 -12 v 0"/>
<g class="nonterminal">
<rect height="22" width="52" x="58" y="43"/>
<text x="84" y="59">
UNIT</text>
</g>
</g>
<g class="choice">
<path d=" M 144 21 h 24 m 132 0 h 24"/>
<g class="nonterminal">
<rect height="22" width="132" x="168" y="10"/>
<text x="234" y="26">
_close_removal</text>
</g>
<path d=" M 144 21 a 12 12 0 0 1 12 12 v 9 m 156 0 v -9 a 12 12 0 0 1 12 -12"/>
<path d=" M 156 42 v 0 a 12 12 0 0 0 12 12 m 0 0 h 132 m -63 0 l -5 -5 m 0 10 l 5 -5 m 63 0 a 12 12 0 0 0 12 -12 v 0"/>
<g/>
</g>
<path d=" M 134 21 h 10"/>
</g>
<path d=" M 10 21 a 12 12 0 0 1 12 12 v 42 m 314 0 v -42 a 12 12 0 0 1 12 -12"/>
<path d=" M 22 75 v 55 m 0 -24 l -5 -5 m 10 0 l -5 5 m 0 24 m 314 0 v -55 m 0 30 l -5 5 m 10 0 l -5 -5 m 0 -30"/>
<path d=" M 22 75 v 0 a 12 12 0 0 0 12 12 m 232 0 h 58 m -26 0 l -5 -5 m 0 10 l 5 -5 m 26 0 a 12 12 0 0 0 12 -12 v 0"/>
<g class="sequence">
<g class="choice">
<path d=" M 34 87 h 24 m 60 0 h 24"/>
<g class="nonterminal">
<rect height="22" width="60" x="58" y="76"/>
<text x="88" y="92">
_WITH</text>
</g>
<path d=" M 34 87 a 12 12 0 0 1 12 12 v 9 m 84 0 v -9 a 12 12 0 0 1 12 -12"/>
<path d=" M 46 108 v 0 a 12 12 0 0 0 12 12 m 0 0 h 60 m -27 0 l -5 -5 m 0 10 l 5 -5 m 27 0 a 12 12 0 0 0 12 -12 v 0"/>
<g/>
</g>
<g class="nonterminal">
<rect height="22" width="36" x="152" y="76"/>
<text x="170" y="92">
NO</text>
</g>
<g class="nonterminal">
<rect height="22" width="68" x="198" y="76"/>
<text x="232" y="92">
REWIND</text>
</g>
<path d=" M 142 87 h 10"/>
<path d=" M 188 87 h 10"/>
</g>
<path d=" M 22 130 v 0 a 12 12 0 0 0 12 12 m 170 0 h 120 m -57 0 l -5 -5 m 0 10 l 5 -5 m 57 0 a 12 12 0 0 0 12 -12 v 0"/>
<g class="sequence">
<g class="choice">
<path d=" M 34 142 h 24 m 60 0 h 24"/>
<g class="nonterminal">
<rect height="22" width="60" x="58" y="131"/>
<text x="88" y="147">
_WITH</text>
</g>
<path d=" M 34 142 a 12 12 0 0 1 12 12 v 9 m 84 0 v -9 a 12 12 0 0 1 12 -12"/>
<path d=" M 46 163 v 0 a 12 12 0 0 0 12 12 m 0 0 h 60 m -27 0 l -5 -5 m 0 10 l 5 -5 m 27 0 a 12 12 0 0 0 12 -12 v 0"/>
<g/>
</g>
<g class="nonterminal">
<rect height="22" width="52" x="152" y="131"/>
<text x="178" y="147">
LOCK</text>
</g>
<path d=" M 142 142 h 10"/>
</g>
</g>
</svg>
