<svg class="railroad" viewBox="0 0 442 75" xmlns="http://www.w3.org/2000/svg" xmlns:xlink="http://www.w3.org/1999/xlink">
<style type="text/css">

    svg.railroad {
        background-color: hsl(30, 20%, 95%);
        background-size: 15px 15px;
        background-image: linear-gradient(to right, rgba(30, 30, 30, .05) 1px, transparent 1px),
                          linear-gradient(to bottom, rgba(30, 30, 30, .05) 1px, transparent 1px);
    }

    svg.railroad path {
        stroke-width: 3px;
        stroke: black;
        fill: transparent;
    }

    svg.railroad .debug {
        stroke-width: 1px;
        stroke: red;
    }

    svg.railroad text {
        font: 14px monospace;
        text-anchor: middle;
    }

    svg.railroad .nonterminal text {
        font-weight: bold;
    }

    svg.railroad text.comment {
        font: italic 12px monospace;
    }

    svg.railroad rect {
        stroke-width: 3px;
        stroke: black;
        fill:hsl(-290, 70%, 90%);
    }

    svg.railroad g.labeledbox > rect {
        stroke-width: 1px;
        stroke: grey;
        stroke-dasharray: 5px;
        fill:rgba(90, 90, 150, .1);
    }</style>
<g class="sequence">
<g class="nonterminal">
<rect height="22" width="84" x="10" y="10"/>
<text x="52" y="26">
_COMPUTE</text>
</g>
<g class="repeat">
<path d=" M 104 21 h 12 m 116 0 h 12 m -12 0 a 12 12 0 0 1 12 12 v 8 a 12 12 0 0 1 -12 12 m -116 0 h 0 a 12 12 0 0 1 -12 -12 v -8 a 12 12 0 0 1 12 -12"/>
<g class="nonterminal">
<rect height="22" width="116" x="116" y="42"/>
<text x="174" y="58">
arithmetic_x</text>
</g>
<g class="nonterminal">
<rect height="22" width="116" x="116" y="10"/>
<text x="174" y="26">
arithmetic_x</text>
</g>
</g>
<g class="choice">
<path d=" M 254 21 h 24 m 28 0 h 64 m -29 0 l -5 -5 m 0 10 l 5 -5 m 29 0"/>
<g class="terminal">
<rect height="22" rx="10" ry="10" width="28" x="278" y="10"/>
<text x="292" y="26">
=</text>
</g>
<path d=" M 254 21 a 12 12 0 0 1 12 12 v 9 m 92 0 v -9 a 12 12 0 0 1 12 -12"/>
<path d=" M 266 42 v 0 a 12 12 0 0 0 12 12 m 68 0 h 0 a 12 12 0 0 0 12 -12 v 0"/>
<g class="nonterminal">
<rect height="22" width="68" x="278" y="43"/>
<text x="312" y="59">
_EQUAL</text>
</g>
</g>
<g class="nonterminal">
<rect height="22" width="52" x="380" y="10"/>
<text x="406" y="26">
expr</text>
</g>
<path d=" M 94 21 h 10"/>
<path d=" M 244 21 h 10"/>
<path d=" M 370 21 h 10"/>
</g>
</svg>
