<svg class="railroad" viewBox="0 0 468 88" xmlns="http://www.w3.org/2000/svg" xmlns:xlink="http://www.w3.org/1999/xlink">
<style type="text/css">

    svg.railroad {
        background-color: hsl(30, 20%, 95%);
        background-size: 15px 15px;
        background-image: linear-gradient(to right, rgba(30, 30, 30, .05) 1px, transparent 1px),
                          linear-gradient(to bottom, rgba(30, 30, 30, .05) 1px, transparent 1px);
    }

    svg.railroad path {
        stroke-width: 3px;
        stroke: black;
        fill: transparent;
    }

    svg.railroad .debug {
        stroke-width: 1px;
        stroke: red;
    }

    svg.railroad text {
        font: 14px monospace;
        text-anchor: middle;
    }

    svg.railroad .nonterminal text {
        font-weight: bold;
    }

    svg.railroad text.comment {
        font: italic 12px monospace;
    }

    svg.railroad rect {
        stroke-width: 3px;
        stroke: black;
        fill:hsl(-290, 70%, 90%);
    }

    svg.railroad g.labeledbox > rect {
        stroke-width: 1px;
        stroke: grey;
        stroke-dasharray: 5px;
        fill:rgba(90, 90, 150, .1);
    }</style>
<g class="sequence">
<g class="nonterminal">
<rect height="22" width="148" x="10" y="10"/>
<text x="84" y="26">
_evaluate_object</text>
</g>
<g class="repeat">
<path d=" M 168 21 h 12 m 0 0 h 278 m -136 0 l -5 -5 m 0 10 l 5 -5 m 136 0 m -12 0 a 12 12 0 0 1 12 12 v 0 a 12 12 0 0 1 -12 12 m -266 0 h 0 a 12 12 0 0 1 -12 -12 v 0 a 12 12 0 0 1 12 -12"/>
<g class="sequence">
<g class="choice">
<path d=" M 180 45 h 24 m 60 0 h 24"/>
<g class="nonterminal">
<rect height="22" width="60" x="204" y="34"/>
<text x="234" y="50">
_ALSO</text>
</g>
<path d=" M 180 45 a 12 12 0 0 1 12 12 v 9 m 84 0 v -9 a 12 12 0 0 1 12 -12"/>
<path d=" M 192 66 v 0 a 12 12 0 0 0 12 12 m 0 0 h 60 m -33 0 l 5 -5 m 0 10 l -5 -5 m 33 0 a 12 12 0 0 0 12 -12 v 0"/>
<g/>
</g>
<g class="nonterminal">
<rect height="22" width="148" x="298" y="34"/>
<text x="372" y="50">
_evaluate_object</text>
</g>
<path d=" M 288 45 h 10"/>
</g>
<g/>
</g>
<path d=" M 158 21 h 10"/>
</g>
</svg>
