<svg class="railroad" viewBox="0 0 310 74" xmlns="http://www.w3.org/2000/svg" xmlns:xlink="http://www.w3.org/1999/xlink">
<style type="text/css">

    svg.railroad {
        background-color: hsl(30, 20%, 95%);
        background-size: 15px 15px;
        background-image: linear-gradient(to right, rgba(30, 30, 30, .05) 1px, transparent 1px),
                          linear-gradient(to bottom, rgba(30, 30, 30, .05) 1px, transparent 1px);
    }

    svg.railroad path {
        stroke-width: 3px;
        stroke: black;
        fill: transparent;
    }

    svg.railroad .debug {
        stroke-width: 1px;
        stroke: red;
    }

    svg.railroad text {
        font: 14px monospace;
        text-anchor: middle;
    }

    svg.railroad .nonterminal text {
        font-weight: bold;
    }

    svg.railroad text.comment {
        font: italic 12px monospace;
    }

    svg.railroad rect {
        stroke-width: 3px;
        stroke: black;
        fill:hsl(-290, 70%, 90%);
    }

    svg.railroad g.labeledbox > rect {
        stroke-width: 1px;
        stroke: grey;
        stroke-dasharray: 5px;
        fill:rgba(90, 90, 150, .1);
    }</style>
<g class="repeat">
<path d=" M 10 21 h 12 m 266 0 h 12 m -12 0 a 12 12 0 0 1 12 12 v 8 a 12 12 0 0 1 -12 12 m -266 0 h 0 a 12 12 0 0 1 -12 -12 v -8 a 12 12 0 0 1 12 -12"/>
<g class="sequence">
<g class="nonterminal">
<rect height="22" width="60" x="22" y="42"/>
<text x="52" y="58">
_WHEN</text>
</g>
<g class="nonterminal">
<rect height="22" width="196" x="92" y="42"/>
<text x="190" y="58">
_evaluate_object_list</text>
</g>
<path d=" M 82 53 h 10"/>
</g>
<g class="sequence">
<g class="nonterminal">
<rect height="22" width="60" x="22" y="10"/>
<text x="52" y="26">
_WHEN</text>
</g>
<g class="nonterminal">
<rect height="22" width="196" x="92" y="10"/>
<text x="190" y="26">
_evaluate_object_list</text>
</g>
<path d=" M 82 21 h 10"/>
</g>
</g>
</svg>
