<svg class="railroad" viewBox="0 0 638 86" xmlns="http://www.w3.org/2000/svg" xmlns:xlink="http://www.w3.org/1999/xlink">
<style type="text/css">

    svg.railroad {
        background-color: hsl(30, 20%, 95%);
        background-size: 15px 15px;
        background-image: linear-gradient(to right, rgba(30, 30, 30, .05) 1px, transparent 1px),
                          linear-gradient(to bottom, rgba(30, 30, 30, .05) 1px, transparent 1px);
    }

    svg.railroad path {
        stroke-width: 3px;
        stroke: black;
        fill: transparent;
    }

    svg.railroad .debug {
        stroke-width: 1px;
        stroke: red;
    }

    svg.railroad text {
        font: 14px monospace;
        text-anchor: middle;
    }

    svg.railroad .nonterminal text {
        font-weight: bold;
    }

    svg.railroad text.comment {
        font: italic 12px monospace;
    }

    svg.railroad rect {
        stroke-width: 3px;
        stroke: black;
        fill:hsl(-290, 70%, 90%);
    }

    svg.railroad g.labeledbox > rect {
        stroke-width: 1px;
        stroke: grey;
        stroke-dasharray: 5px;
        fill:rgba(90, 90, 150, .1);
    }</style>
<g class="sequence">
<g class="nonterminal">
<rect height="22" width="44" x="10" y="10"/>
<text x="32" y="26">
_GO</text>
</g>
<g class="choice">
<path d=" M 64 21 h 24 m 44 0 h 24"/>
<g class="nonterminal">
<rect height="22" width="44" x="88" y="10"/>
<text x="110" y="26">
_TO</text>
</g>
<path d=" M 64 21 a 12 12 0 0 1 12 12 v 9 m 68 0 v -9 a 12 12 0 0 1 12 -12"/>
<path d=" M 76 42 v 0 a 12 12 0 0 0 12 12 m 0 0 h 44 a 12 12 0 0 0 12 -12 v 0"/>
<g/>
</g>
<g class="repeat">
<path d=" M 166 21 h 12 m 0 0 h 72 m -33 0 l -5 -5 m 0 10 l 5 -5 m 33 0 m -12 0 a 12 12 0 0 1 12 12 v 0 a 12 12 0 0 1 -12 12 m -60 0 h 0 a 12 12 0 0 1 -12 -12 v 0 a 12 12 0 0 1 12 -12"/>
<g class="nonterminal">
<rect height="22" width="60" x="178" y="34"/>
<text x="208" y="50">
label</text>
</g>
<g/>
</g>
<g class="choice">
<path d=" M 260 21 h 24 m 320 0 h 24"/>
<g class="sequence">
<g class="nonterminal">
<rect height="22" width="100" x="284" y="10"/>
<text x="334" y="26">
_DEPENDING</text>
</g>
<g class="choice">
<path d=" M 394 21 h 24 m 44 0 h 24"/>
<g class="nonterminal">
<rect height="22" width="44" x="418" y="10"/>
<text x="440" y="26">
_ON</text>
</g>
<path d=" M 394 21 a 12 12 0 0 1 12 12 v 9 m 68 0 v -9 a 12 12 0 0 1 12 -12"/>
<path d=" M 406 42 v 0 a 12 12 0 0 0 12 12 m 0 0 h 44 a 12 12 0 0 0 12 -12 v 0"/>
<g/>
</g>
<g class="nonterminal">
<rect height="22" width="108" x="496" y="10"/>
<text x="550" y="26">
_identifier</text>
</g>
<path d=" M 384 21 h 10"/>
<path d=" M 486 21 h 10"/>
</g>
<path d=" M 260 21 a 12 12 0 0 1 12 12 v 31 m 344 0 v -31 a 12 12 0 0 1 12 -12"/>
<path d=" M 272 64 v 0 a 12 12 0 0 0 12 12 m 0 0 h 320 m -157 0 l -5 -5 m 0 10 l 5 -5 m 157 0 a 12 12 0 0 0 12 -12 v 0"/>
<g/>
</g>
<path d=" M 54 21 h 10"/>
<path d=" M 156 21 h 10"/>
<path d=" M 250 21 h 10"/>
</g>
</svg>
