<svg class="railroad" viewBox="0 0 332 196" xmlns="http://www.w3.org/2000/svg" xmlns:xlink="http://www.w3.org/1999/xlink">
<style type="text/css">

    svg.railroad {
        background-color: hsl(30, 20%, 95%);
        background-size: 15px 15px;
        background-image: linear-gradient(to right, rgba(30, 30, 30, .05) 1px, transparent 1px),
                          linear-gradient(to bottom, rgba(30, 30, 30, .05) 1px, transparent 1px);
    }

    svg.railroad path {
        stroke-width: 3px;
        stroke: black;
        fill: transparent;
    }

    svg.railroad .debug {
        stroke-width: 1px;
        stroke: red;
    }

    svg.railroad text {
        font: 14px monospace;
        text-anchor: middle;
    }

    svg.railroad .nonterminal text {
        font-weight: bold;
    }

    svg.railroad text.comment {
        font: italic 12px monospace;
    }

    svg.railroad rect {
        stroke-width: 3px;
        stroke: black;
        fill:hsl(-290, 70%, 90%);
    }

    svg.railroad g.labeledbox > rect {
        stroke-width: 1px;
        stroke: grey;
        stroke-dasharray: 5px;
        fill:rgba(90, 90, 150, .1);
    }</style>
<g class="sequence">
<g class="nonterminal">
<rect height="22" width="60" x="10" y="10"/>
<text x="40" y="26">
_EXIT</text>
</g>
<g class="choice">
<path d=" M 80 21 h 24 m 194 0 h 24"/>
<g class="choice">
<path d=" M 104 21 h 24 m 76 0 h 94 m -44 0 l -5 -5 m 0 10 l 5 -5 m 44 0"/>
<g class="nonterminal">
<rect height="22" width="76" x="128" y="10"/>
<text x="166" y="26">
PROGRAM</text>
</g>
<path d=" M 104 21 a 12 12 0 0 1 12 12 v 9 m 170 0 v -9 a 12 12 0 0 1 12 -12"/>
<path d=" M 116 42 v 33 m 170 0 v -33"/>
<path d=" M 116 75 v 33 m 170 0 v -33"/>
<path d=" M 116 108 v 33 m 170 0 v -33"/>
<path d=" M 116 42 v 0 a 12 12 0 0 0 12 12 m 76 0 h 70 m -32 0 l -5 -5 m 0 10 l 5 -5 m 32 0 a 12 12 0 0 0 12 -12 v 0"/>
<g class="nonterminal">
<rect height="22" width="76" x="128" y="43"/>
<text x="166" y="59">
PERFORM</text>
</g>
<path d=" M 116 75 v 0 a 12 12 0 0 0 12 12 m 146 0 h 0 a 12 12 0 0 0 12 -12 v 0"/>
<g class="sequence">
<g class="nonterminal">
<rect height="22" width="76" x="128" y="76"/>
<text x="166" y="92">
PERFORM</text>
</g>
<g class="nonterminal">
<rect height="22" width="60" x="214" y="76"/>
<text x="244" y="92">
CYCLE</text>
</g>
<path d=" M 204 87 h 10"/>
</g>
<path d=" M 116 108 v 0 a 12 12 0 0 0 12 12 m 76 0 h 70 m -32 0 l -5 -5 m 0 10 l 5 -5 m 32 0 a 12 12 0 0 0 12 -12 v 0"/>
<g class="nonterminal">
<rect height="22" width="76" x="128" y="109"/>
<text x="166" y="125">
SECTION</text>
</g>
<path d=" M 116 141 v 0 a 12 12 0 0 0 12 12 m 92 0 h 54 m -24 0 l -5 -5 m 0 10 l 5 -5 m 24 0 a 12 12 0 0 0 12 -12 v 0"/>
<g class="nonterminal">
<rect height="22" width="92" x="128" y="142"/>
<text x="174" y="158">
PARAGRAPH</text>
</g>
</g>
<path d=" M 80 21 a 12 12 0 0 1 12 12 v 141 m 0 -67 l -5 -5 m 10 0 l -5 5 m 0 67 m 218 0 v -141 m 0 73 l -5 5 m 10 0 l -5 -5 m 0 -73 a 12 12 0 0 1 12 -12"/>
<path d=" M 92 174 v 0 a 12 12 0 0 0 12 12 m 0 0 h 194 m -94 0 l -5 -5 m 0 10 l 5 -5 m 94 0 a 12 12 0 0 0 12 -12 v 0"/>
<g/>
</g>
<path d=" M 70 21 h 10"/>
</g>
</svg>
