<svg class="railroad" viewBox="0 0 608 429" xmlns="http://www.w3.org/2000/svg" xmlns:xlink="http://www.w3.org/1999/xlink">
<style type="text/css">

    svg.railroad {
        background-color: hsl(30, 20%, 95%);
        background-size: 15px 15px;
        background-image: linear-gradient(to right, rgba(30, 30, 30, .05) 1px, transparent 1px),
                          linear-gradient(to bottom, rgba(30, 30, 30, .05) 1px, transparent 1px);
    }

    svg.railroad path {
        stroke-width: 3px;
        stroke: black;
        fill: transparent;
    }

    svg.railroad .debug {
        stroke-width: 1px;
        stroke: red;
    }

    svg.railroad text {
        font: 14px monospace;
        text-anchor: middle;
    }

    svg.railroad .nonterminal text {
        font-weight: bold;
    }

    svg.railroad text.comment {
        font: italic 12px monospace;
    }

    svg.railroad rect {
        stroke-width: 3px;
        stroke: black;
        fill:hsl(-290, 70%, 90%);
    }

    svg.railroad g.labeledbox > rect {
        stroke-width: 1px;
        stroke: grey;
        stroke-dasharray: 5px;
        fill:rgba(90, 90, 150, .1);
    }</style>
<g class="sequence">
<g class="nonterminal">
<rect height="22" width="100" x="10" y="10"/>
<text x="60" y="26">
_expr_calc</text>
</g>
<g class="nonterminal">
<rect height="22" width="108" x="120" y="10"/>
<text x="174" y="26">
_comparator</text>
</g>
<g class="nonterminal">
<rect height="22" width="100" x="238" y="10"/>
<text x="288" y="26">
_expr_calc</text>
</g>
<g class="repeat">
<path d=" M 348 21 h 12 m 0 0 h 238 m -116 0 l -5 -5 m 0 10 l 5 -5 m 116 0 m -12 0 a 12 12 0 0 1 12 12 v 0 a 12 12 0 0 1 -12 12 m -226 0 h 0 a 12 12 0 0 1 -12 -12 v 0 a 12 12 0 0 1 12 -12"/>
<g class="sequence">
<g class="choice">
<path d=" M 360 45 h 24 m 68 0 h 24"/>
<g class="nonterminal">
<rect height="22" width="68" x="384" y="34"/>
<text x="418" y="50">
AND_LT</text>
</g>
<path d=" M 360 45 a 12 12 0 0 1 12 12 v 9 m 92 0 v -9 a 12 12 0 0 1 12 -12"/>
<path d=" M 372 66 v 33 m 92 0 v -33"/>
<path d=" M 372 99 v 33 m 92 0 v -33"/>
<path d=" M 372 132 v 33 m 92 0 v -33"/>
<path d=" M 372 165 v 33 m 92 0 v -33"/>
<path d=" M 372 198 v 33 m 92 0 v -33"/>
<path d=" M 372 231 v 33 m 92 0 v -33"/>
<path d=" M 372 264 v 33 m 92 0 v -33"/>
<path d=" M 372 297 v 33 m 92 0 v -33"/>
<path d=" M 372 330 v 33 m 92 0 v -33"/>
<path d=" M 372 363 v 33 m 92 0 v -33"/>
<path d=" M 372 66 v 0 a 12 12 0 0 0 12 12 m 68 0 h 0 a 12 12 0 0 0 12 -12 v 0"/>
<g class="nonterminal">
<rect height="22" width="68" x="384" y="67"/>
<text x="418" y="83">
AND_LE</text>
</g>
<path d=" M 372 99 v 0 a 12 12 0 0 0 12 12 m 68 0 h 0 a 12 12 0 0 0 12 -12 v 0"/>
<g class="nonterminal">
<rect height="22" width="68" x="384" y="100"/>
<text x="418" y="116">
AND_GT</text>
</g>
<path d=" M 372 132 v 0 a 12 12 0 0 0 12 12 m 68 0 h 0 a 12 12 0 0 0 12 -12 v 0"/>
<g class="nonterminal">
<rect height="22" width="68" x="384" y="133"/>
<text x="418" y="149">
AND_GE</text>
</g>
<path d=" M 372 165 v 0 a 12 12 0 0 0 12 12 m 68 0 h 0 a 12 12 0 0 0 12 -12 v 0"/>
<g class="nonterminal">
<rect height="22" width="68" x="384" y="166"/>
<text x="418" y="182">
AND_EQ</text>
</g>
<path d=" M 372 198 v 0 a 12 12 0 0 0 12 12 m 68 0 h 0 a 12 12 0 0 0 12 -12 v 0"/>
<g class="nonterminal">
<rect height="22" width="68" x="384" y="199"/>
<text x="418" y="215">
AND_NE</text>
</g>
<path d=" M 372 231 v 0 a 12 12 0 0 0 12 12 m 60 0 h 8 a 12 12 0 0 0 12 -12 v 0"/>
<g class="nonterminal">
<rect height="22" width="60" x="384" y="232"/>
<text x="414" y="248">
OR_LT</text>
</g>
<path d=" M 372 264 v 0 a 12 12 0 0 0 12 12 m 60 0 h 8 a 12 12 0 0 0 12 -12 v 0"/>
<g class="nonterminal">
<rect height="22" width="60" x="384" y="265"/>
<text x="414" y="281">
OR_LE</text>
</g>
<path d=" M 372 297 v 0 a 12 12 0 0 0 12 12 m 60 0 h 8 a 12 12 0 0 0 12 -12 v 0"/>
<g class="nonterminal">
<rect height="22" width="60" x="384" y="298"/>
<text x="414" y="314">
OR_GT</text>
</g>
<path d=" M 372 330 v 0 a 12 12 0 0 0 12 12 m 60 0 h 8 a 12 12 0 0 0 12 -12 v 0"/>
<g class="nonterminal">
<rect height="22" width="60" x="384" y="331"/>
<text x="414" y="347">
OR_GE</text>
</g>
<path d=" M 372 363 v 0 a 12 12 0 0 0 12 12 m 60 0 h 8 a 12 12 0 0 0 12 -12 v 0"/>
<g class="nonterminal">
<rect height="22" width="60" x="384" y="364"/>
<text x="414" y="380">
OR_EQ</text>
</g>
<path d=" M 372 396 v 0 a 12 12 0 0 0 12 12 m 60 0 h 8 a 12 12 0 0 0 12 -12 v 0"/>
<g class="nonterminal">
<rect height="22" width="60" x="384" y="397"/>
<text x="414" y="413">
OR_NE</text>
</g>
</g>
<g class="nonterminal">
<rect height="22" width="100" x="486" y="34"/>
<text x="536" y="50">
_expr_calc</text>
</g>
<path d=" M 476 45 h 10"/>
</g>
<g/>
</g>
<path d=" M 110 21 h 10"/>
<path d=" M 228 21 h 10"/>
<path d=" M 338 21 h 10"/>
</g>
</svg>
