<svg class="railroad" viewBox="0 0 284 174" xmlns="http://www.w3.org/2000/svg" xmlns:xlink="http://www.w3.org/1999/xlink">
<style type="text/css">

    svg.railroad {
        background-color: hsl(30, 20%, 95%);
        background-size: 15px 15px;
        background-image: linear-gradient(to right, rgba(30, 30, 30, .05) 1px, transparent 1px),
                          linear-gradient(to bottom, rgba(30, 30, 30, .05) 1px, transparent 1px);
    }

    svg.railroad path {
        stroke-width: 3px;
        stroke: black;
        fill: transparent;
    }

    svg.railroad .debug {
        stroke-width: 1px;
        stroke: red;
    }

    svg.railroad text {
        font: 14px monospace;
        text-anchor: middle;
    }

    svg.railroad .nonterminal text {
        font-weight: bold;
    }

    svg.railroad text.comment {
        font: italic 12px monospace;
    }

    svg.railroad rect {
        stroke-width: 3px;
        stroke: black;
        fill:hsl(-290, 70%, 90%);
    }

    svg.railroad g.labeledbox > rect {
        stroke-width: 1px;
        stroke: grey;
        stroke-dasharray: 5px;
        fill:rgba(90, 90, 150, .1);
    }</style>
<g class="choice">
<path d=" M 10 21 h 24 m 106 0 h 134 m -64 0 l -5 -5 m 0 10 l 5 -5 m 64 0"/>
<g class="sequence">
<g class="nonterminal">
<rect height="22" width="44" x="34" y="10"/>
<text x="56" y="26">
NOT</text>
</g>
<g class="nonterminal">
<rect height="22" width="52" x="88" y="10"/>
<text x="114" y="26">
expr</text>
</g>
<path d=" M 78 21 h 10"/>
</g>
<path d=" M 10 21 a 12 12 0 0 1 12 12 v 9 m 240 0 v -9 a 12 12 0 0 1 12 -12"/>
<path d=" M 22 42 v 66 m 0 -30 l -5 -5 m 10 0 l -5 5 m 0 30 m 240 0 v -66 m 0 36 l -5 5 m 10 0 l -5 -5 m 0 -36"/>
<path d=" M 22 108 v 33 m 240 0 v -33"/>
<path d=" M 22 42 v 0 a 12 12 0 0 0 12 12 m 216 0 h 0 a 12 12 0 0 0 12 -12 v 0"/>
<g class="sequence">
<g class="nonterminal">
<rect height="22" width="52" x="34" y="43"/>
<text x="60" y="59">
expr</text>
</g>
<g class="choice">
<path d=" M 96 54 h 24 m 44 0 h 24"/>
<g class="nonterminal">
<rect height="22" width="44" x="120" y="43"/>
<text x="142" y="59">
AND</text>
</g>
<path d=" M 96 54 a 12 12 0 0 1 12 12 v 9 m 68 0 v -9 a 12 12 0 0 1 12 -12"/>
<path d=" M 108 75 v 0 a 12 12 0 0 0 12 12 m 36 0 h 8 a 12 12 0 0 0 12 -12 v 0"/>
<g class="nonterminal">
<rect height="22" width="36" x="120" y="76"/>
<text x="138" y="92">
OR</text>
</g>
</g>
<g class="nonterminal">
<rect height="22" width="52" x="198" y="43"/>
<text x="224" y="59">
expr</text>
</g>
<path d=" M 86 54 h 10"/>
<path d=" M 188 54 h 10"/>
</g>
<path d=" M 22 108 v 0 a 12 12 0 0 0 12 12 m 100 0 h 116 m -55 0 l -5 -5 m 0 10 l 5 -5 m 55 0 a 12 12 0 0 0 12 -12 v 0"/>
<g class="nonterminal">
<rect height="22" width="100" x="34" y="109"/>
<text x="84" y="125">
_expr_bool</text>
</g>
<path d=" M 22 141 v 0 a 12 12 0 0 0 12 12 m 128 0 h 88 m -41 0 l -5 -5 m 0 10 l 5 -5 m 41 0 a 12 12 0 0 0 12 -12 v 0"/>
<g class="sequence">
<g class="terminal">
<rect height="22" rx="10" ry="10" width="28" x="34" y="142"/>
<text x="48" y="158">
(</text>
</g>
<g class="nonterminal">
<rect height="22" width="52" x="72" y="142"/>
<text x="98" y="158">
expr</text>
</g>
<g class="terminal">
<rect height="22" rx="10" ry="10" width="28" x="134" y="142"/>
<text x="148" y="158">
)</text>
</g>
<path d=" M 62 153 h 10"/>
<path d=" M 124 153 h 10"/>
</g>
</g>
</svg>
