<svg class="railroad" viewBox="0 0 324 207" xmlns="http://www.w3.org/2000/svg" xmlns:xlink="http://www.w3.org/1999/xlink">
<style type="text/css">

    svg.railroad {
        background-color: hsl(30, 20%, 95%);
        background-size: 15px 15px;
        background-image: linear-gradient(to right, rgba(30, 30, 30, .05) 1px, transparent 1px),
                          linear-gradient(to bottom, rgba(30, 30, 30, .05) 1px, transparent 1px);
    }

    svg.railroad path {
        stroke-width: 3px;
        stroke: black;
        fill: transparent;
    }

    svg.railroad .debug {
        stroke-width: 1px;
        stroke: red;
    }

    svg.railroad text {
        font: 14px monospace;
        text-anchor: middle;
    }

    svg.railroad .nonterminal text {
        font-weight: bold;
    }

    svg.railroad text.comment {
        font: italic 12px monospace;
    }

    svg.railroad rect {
        stroke-width: 3px;
        stroke: black;
        fill:hsl(-290, 70%, 90%);
    }

    svg.railroad g.labeledbox > rect {
        stroke-width: 1px;
        stroke: grey;
        stroke-dasharray: 5px;
        fill:rgba(90, 90, 150, .1);
    }</style>
<g class="choice">
<path d=" M 10 21 h 24 m 248 0 h 32"/>
<g class="sequence">
<g class="nonterminal">
<rect height="22" width="100" x="34" y="10"/>
<text x="84" y="26">
_expr_calc</text>
</g>
<g class="terminal">
<rect height="22" rx="10" ry="10" width="28" x="144" y="10"/>
<text x="158" y="26">
+</text>
</g>
<g class="nonterminal">
<rect height="22" width="100" x="182" y="10"/>
<text x="232" y="26">
_expr_calc</text>
</g>
<path d=" M 134 21 h 10"/>
<path d=" M 172 21 h 10"/>
</g>
<path d=" M 10 21 a 12 12 0 0 1 12 12 v 9 m 280 0 v -9 a 12 12 0 0 1 12 -12"/>
<path d=" M 22 42 v 33 m 280 0 v -33"/>
<path d=" M 22 75 v 33 m 280 0 v -33"/>
<path d=" M 22 108 v 33 m 280 0 v -33"/>
<path d=" M 22 141 v 33 m 280 0 v -33"/>
<path d=" M 22 42 v 0 a 12 12 0 0 0 12 12 m 248 0 h 8 a 12 12 0 0 0 12 -12 v 0"/>
<g class="sequence">
<g class="nonterminal">
<rect height="22" width="100" x="34" y="43"/>
<text x="84" y="59">
_expr_calc</text>
</g>
<g class="terminal">
<rect height="22" rx="10" ry="10" width="28" x="144" y="43"/>
<text x="158" y="59">
-</text>
</g>
<g class="nonterminal">
<rect height="22" width="100" x="182" y="43"/>
<text x="232" y="59">
_expr_calc</text>
</g>
<path d=" M 134 54 h 10"/>
<path d=" M 172 54 h 10"/>
</g>
<path d=" M 22 75 v 0 a 12 12 0 0 0 12 12 m 256 0 h 0 a 12 12 0 0 0 12 -12 v 0"/>
<g class="sequence">
<g class="nonterminal">
<rect height="22" width="100" x="34" y="76"/>
<text x="84" y="92">
_expr_calc</text>
</g>
<g class="terminal">
<rect height="22" rx="10" ry="10" width="36" x="144" y="76"/>
<text x="162" y="92">
**</text>
</g>
<g class="nonterminal">
<rect height="22" width="100" x="190" y="76"/>
<text x="240" y="92">
_expr_calc</text>
</g>
<path d=" M 134 87 h 10"/>
<path d=" M 180 87 h 10"/>
</g>
<path d=" M 22 108 v 0 a 12 12 0 0 0 12 12 m 248 0 h 8 a 12 12 0 0 0 12 -12 v 0"/>
<g class="sequence">
<g class="nonterminal">
<rect height="22" width="100" x="34" y="109"/>
<text x="84" y="125">
_expr_calc</text>
</g>
<g class="terminal">
<rect height="22" rx="10" ry="10" width="28" x="144" y="109"/>
<text x="158" y="125">
*</text>
</g>
<g class="nonterminal">
<rect height="22" width="100" x="182" y="109"/>
<text x="232" y="125">
_expr_calc</text>
</g>
<path d=" M 134 120 h 10"/>
<path d=" M 172 120 h 10"/>
</g>
<path d=" M 22 141 v 0 a 12 12 0 0 0 12 12 m 248 0 h 8 a 12 12 0 0 0 12 -12 v 0"/>
<g class="sequence">
<g class="nonterminal">
<rect height="22" width="100" x="34" y="142"/>
<text x="84" y="158">
_expr_calc</text>
</g>
<g class="terminal">
<rect height="22" rx="10" ry="10" width="28" x="144" y="142"/>
<text x="158" y="158">
/</text>
</g>
<g class="nonterminal">
<rect height="22" width="100" x="182" y="142"/>
<text x="232" y="158">
_expr_calc</text>
</g>
<path d=" M 134 153 h 10"/>
<path d=" M 172 153 h 10"/>
</g>
<path d=" M 22 174 v 0 a 12 12 0 0 0 12 12 m 248 0 h 8 a 12 12 0 0 0 12 -12 v 0"/>
<g class="sequence">
<g class="nonterminal">
<rect height="22" width="100" x="34" y="175"/>
<text x="84" y="191">
_expr_calc</text>
</g>
<g class="terminal">
<rect height="22" rx="10" ry="10" width="28" x="144" y="175"/>
<text x="158" y="191">
^</text>
</g>
<g class="nonterminal">
<rect height="22" width="100" x="182" y="175"/>
<text x="232" y="191">
_expr_calc</text>
</g>
<path d=" M 134 186 h 10"/>
<path d=" M 172 186 h 10"/>
</g>
</g>
</svg>
