<svg class="railroad" viewBox="0 0 1410 97" xmlns="http://www.w3.org/2000/svg" xmlns:xlink="http://www.w3.org/1999/xlink">
<style type="text/css">

    svg.railroad {
        background-color: hsl(30, 20%, 95%);
        background-size: 15px 15px;
        background-image: linear-gradient(to right, rgba(30, 30, 30, .05) 1px, transparent 1px),
                          linear-gradient(to bottom, rgba(30, 30, 30, .05) 1px, transparent 1px);
    }

    svg.railroad path {
        stroke-width: 3px;
        stroke: black;
        fill: transparent;
    }

    svg.railroad .debug {
        stroke-width: 1px;
        stroke: red;
    }

    svg.railroad text {
        font: 14px monospace;
        text-anchor: middle;
    }

    svg.railroad .nonterminal text {
        font-weight: bold;
    }

    svg.railroad text.comment {
        font: italic 12px monospace;
    }

    svg.railroad rect {
        stroke-width: 3px;
        stroke: black;
        fill:hsl(-290, 70%, 90%);
    }

    svg.railroad g.labeledbox > rect {
        stroke-width: 1px;
        stroke: grey;
        stroke-dasharray: 5px;
        fill:rgba(90, 90, 150, .1);
    }</style>
<g class="sequence">
<g class="nonterminal">
<rect height="22" width="108" x="10" y="10"/>
<text x="64" y="26">
_INITIALIZE</text>
</g>
<g class="repeat">
<path d=" M 128 21 h 12 m 92 0 h 12 m -12 0 a 12 12 0 0 1 12 12 v 8 a 12 12 0 0 1 -12 12 m -92 0 h 0 a 12 12 0 0 1 -12 -12 v -8 a 12 12 0 0 1 12 -12"/>
<g class="nonterminal">
<rect height="22" width="92" x="140" y="42"/>
<text x="186" y="58">
_target_x</text>
</g>
<g class="nonterminal">
<rect height="22" width="92" x="140" y="10"/>
<text x="186" y="26">
_target_x</text>
</g>
</g>
<g class="choice">
<path d=" M 254 21 h 24 m 186 0 h 24"/>
<g class="sequence">
<g class="choice">
<path d=" M 278 21 h 24 m 60 0 h 24"/>
<g class="nonterminal">
<rect height="22" width="60" x="302" y="10"/>
<text x="332" y="26">
_WITH</text>
</g>
<path d=" M 278 21 a 12 12 0 0 1 12 12 v 9 m 84 0 v -9 a 12 12 0 0 1 12 -12"/>
<path d=" M 290 42 v 0 a 12 12 0 0 0 12 12 m 0 0 h 60 m -27 0 l -5 -5 m 0 10 l 5 -5 m 27 0 a 12 12 0 0 0 12 -12 v 0"/>
<g/>
</g>
<g class="nonterminal">
<rect height="22" width="68" x="396" y="10"/>
<text x="430" y="26">
FILLER</text>
</g>
<path d=" M 386 21 h 10"/>
</g>
<path d=" M 254 21 a 12 12 0 0 1 12 12 v 31 m 210 0 v -31 a 12 12 0 0 1 12 -12"/>
<path d=" M 266 64 v 0 a 12 12 0 0 0 12 12 m 0 0 h 186 m -90 0 l -5 -5 m 0 10 l 5 -5 m 90 0 a 12 12 0 0 0 12 -12 v 0"/>
<g/>
</g>
<g class="choice">
<path d=" M 498 21 h 24 m 300 0 h 24"/>
<g class="choice">
<path d=" M 522 21 h 24 m 116 0 h 160 m -77 0 l -5 -5 m 0 10 l 5 -5 m 77 0"/>
<g class="nonterminal">
<rect height="22" width="116" x="546" y="10"/>
<text x="604" y="26">
all_to_value</text>
</g>
<path d=" M 522 21 a 12 12 0 0 1 12 12 v 9 m 276 0 v -9 a 12 12 0 0 1 12 -12"/>
<path d=" M 534 42 v 0 a 12 12 0 0 0 12 12 m 252 0 h 0 a 12 12 0 0 0 12 -12 v 0"/>
<g class="nonterminal">
<rect height="22" width="252" x="546" y="43"/>
<text x="672" y="59">
initialize_category_to_value</text>
</g>
</g>
<path d=" M 498 21 a 12 12 0 0 1 12 12 v 42 m 324 0 v -42 a 12 12 0 0 1 12 -12"/>
<path d=" M 510 75 v 0 a 12 12 0 0 0 12 12 m 0 0 h 300 m -147 0 l -5 -5 m 0 10 l 5 -5 m 147 0 a 12 12 0 0 0 12 -12 v 0"/>
<g/>
</g>
<g class="choice">
<path d=" M 856 21 h 24 m 362 0 h 24"/>
<g class="sequence">
<g class="nonterminal">
<rect height="22" width="100" x="880" y="10"/>
<text x="930" y="26">
_REPLACING</text>
</g>
<g class="repeat">
<path d=" M 990 21 h 12 m 228 0 h 12 m -12 0 a 12 12 0 0 1 12 12 v 8 a 12 12 0 0 1 -12 12 m -228 0 h 0 a 12 12 0 0 1 -12 -12 v -8 a 12 12 0 0 1 12 -12"/>
<g class="nonterminal">
<rect height="22" width="228" x="1002" y="42"/>
<text x="1116" y="58">
initialize_replacing_item</text>
</g>
<g class="nonterminal">
<rect height="22" width="228" x="1002" y="10"/>
<text x="1116" y="26">
initialize_replacing_item</text>
</g>
</g>
<path d=" M 980 21 h 10"/>
</g>
<path d=" M 856 21 a 12 12 0 0 1 12 12 v 41 m 386 0 v -41 a 12 12 0 0 1 12 -12"/>
<path d=" M 868 74 v 0 a 12 12 0 0 0 12 12 m 0 0 h 362 m -178 0 l -5 -5 m 0 10 l 5 -5 m 178 0 a 12 12 0 0 0 12 -12 v 0"/>
<g/>
</g>
<g class="choice">
<path d=" M 1276 21 h 24 m 76 0 h 24"/>
<g class="nonterminal">
<rect height="22" width="76" x="1300" y="10"/>
<text x="1338" y="26">
DEFAULT</text>
</g>
<path d=" M 1276 21 a 12 12 0 0 1 12 12 v 9 m 100 0 v -9 a 12 12 0 0 1 12 -12"/>
<path d=" M 1288 42 v 0 a 12 12 0 0 0 12 12 m 0 0 h 76 m -35 0 l -5 -5 m 0 10 l 5 -5 m 35 0 a 12 12 0 0 0 12 -12 v 0"/>
<g/>
</g>
<path d=" M 118 21 h 10"/>
<path d=" M 244 21 h 10"/>
<path d=" M 488 21 h 10"/>
<path d=" M 846 21 h 10"/>
<path d=" M 1266 21 h 10"/>
</g>
</svg>
