<svg class="railroad" viewBox="0 0 630 229" xmlns="http://www.w3.org/2000/svg" xmlns:xlink="http://www.w3.org/1999/xlink">
<style type="text/css">

    svg.railroad {
        background-color: hsl(30, 20%, 95%);
        background-size: 15px 15px;
        background-image: linear-gradient(to right, rgba(30, 30, 30, .05) 1px, transparent 1px),
                          linear-gradient(to bottom, rgba(30, 30, 30, .05) 1px, transparent 1px);
    }

    svg.railroad path {
        stroke-width: 3px;
        stroke: black;
        fill: transparent;
    }

    svg.railroad .debug {
        stroke-width: 1px;
        stroke: red;
    }

    svg.railroad text {
        font: 14px monospace;
        text-anchor: middle;
    }

    svg.railroad .nonterminal text {
        font-weight: bold;
    }

    svg.railroad text.comment {
        font: italic 12px monospace;
    }

    svg.railroad rect {
        stroke-width: 3px;
        stroke: black;
        fill:hsl(-290, 70%, 90%);
    }

    svg.railroad g.labeledbox > rect {
        stroke-width: 1px;
        stroke: grey;
        stroke-dasharray: 5px;
        fill:rgba(90, 90, 150, .1);
    }</style>
<g class="choice">
<path d=" M 10 21 h 24 m 138 0 h 448 m -221 0 l -5 -5 m 0 10 l 5 -5 m 221 0"/>
<g class="sequence">
<g class="choice">
<path d=" M 34 21 h 24 m 44 0 h 24"/>
<g class="nonterminal">
<rect height="22" width="44" x="58" y="10"/>
<text x="80" y="26">
_IS</text>
</g>
<path d=" M 34 21 a 12 12 0 0 1 12 12 v 9 m 68 0 v -9 a 12 12 0 0 1 12 -12"/>
<path d=" M 46 42 v 0 a 12 12 0 0 0 12 12 m 0 0 h 44 a 12 12 0 0 0 12 -12 v 0"/>
<g/>
</g>
<g class="terminal">
<rect height="22" rx="10" ry="10" width="36" x="136" y="10"/>
<text x="154" y="26">
&lt;=</text>
</g>
<path d=" M 126 21 h 10"/>
</g>
<path d=" M 10 21 a 12 12 0 0 1 12 12 v 31 m 586 0 v -31 a 12 12 0 0 1 12 -12"/>
<path d=" M 22 64 v 55 m 0 -24 l -5 -5 m 10 0 l -5 5 m 0 24 m 586 0 v -55 m 0 30 l -5 5 m 10 0 l -5 -5 m 0 -30"/>
<path d=" M 22 119 v 55 m 0 -24 l -5 -5 m 10 0 l -5 5 m 0 24 m 586 0 v -55 m 0 30 l -5 5 m 10 0 l -5 -5 m 0 -30"/>
<path d=" M 22 64 v 0 a 12 12 0 0 0 12 12 m 192 0 h 370 m -182 0 l -5 -5 m 0 10 l 5 -5 m 182 0 a 12 12 0 0 0 12 -12 v 0"/>
<g class="sequence">
<g class="choice">
<path d=" M 34 76 h 24 m 44 0 h 24"/>
<g class="nonterminal">
<rect height="22" width="44" x="58" y="65"/>
<text x="80" y="81">
_IS</text>
</g>
<path d=" M 34 76 a 12 12 0 0 1 12 12 v 9 m 68 0 v -9 a 12 12 0 0 1 12 -12"/>
<path d=" M 46 97 v 0 a 12 12 0 0 0 12 12 m 0 0 h 44 a 12 12 0 0 0 12 -12 v 0"/>
<g/>
</g>
<g class="nonterminal">
<rect height="22" width="52" x="136" y="65"/>
<text x="162" y="81">
_NOT</text>
</g>
<g class="terminal">
<rect height="22" rx="10" ry="10" width="28" x="198" y="65"/>
<text x="212" y="81">
&gt;</text>
</g>
<path d=" M 126 76 h 10"/>
<path d=" M 188 76 h 10"/>
</g>
<path d=" M 22 119 v 0 a 12 12 0 0 0 12 12 m 562 0 h 0 a 12 12 0 0 0 12 -12 v 0"/>
<g class="sequence">
<g class="choice">
<path d=" M 34 131 h 24 m 44 0 h 24"/>
<g class="nonterminal">
<rect height="22" width="44" x="58" y="120"/>
<text x="80" y="136">
_IS</text>
</g>
<path d=" M 34 131 a 12 12 0 0 1 12 12 v 9 m 68 0 v -9 a 12 12 0 0 1 12 -12"/>
<path d=" M 46 152 v 0 a 12 12 0 0 0 12 12 m 0 0 h 44 a 12 12 0 0 0 12 -12 v 0"/>
<g/>
</g>
<g class="nonterminal">
<rect height="22" width="60" x="136" y="120"/>
<text x="166" y="136">
_LESS</text>
</g>
<g class="choice">
<path d=" M 206 131 h 24 m 60 0 h 24"/>
<g class="nonterminal">
<rect height="22" width="60" x="230" y="120"/>
<text x="260" y="136">
_THAN</text>
</g>
<path d=" M 206 131 a 12 12 0 0 1 12 12 v 9 m 84 0 v -9 a 12 12 0 0 1 12 -12"/>
<path d=" M 218 152 v 0 a 12 12 0 0 0 12 12 m 0 0 h 60 m -27 0 l -5 -5 m 0 10 l 5 -5 m 27 0 a 12 12 0 0 0 12 -12 v 0"/>
<g/>
</g>
<g class="choice">
<path d=" M 324 131 h 24 m 44 0 h 24"/>
<g class="nonterminal">
<rect height="22" width="44" x="348" y="120"/>
<text x="370" y="136">
_OR</text>
</g>
<path d=" M 324 131 a 12 12 0 0 1 12 12 v 9 m 68 0 v -9 a 12 12 0 0 1 12 -12"/>
<path d=" M 336 152 v 0 a 12 12 0 0 0 12 12 m 0 0 h 44 a 12 12 0 0 0 12 -12 v 0"/>
<g/>
</g>
<g class="nonterminal">
<rect height="22" width="68" x="426" y="120"/>
<text x="460" y="136">
_EQUAL</text>
</g>
<g class="choice">
<path d=" M 504 131 h 24 m 44 0 h 24"/>
<g class="nonterminal">
<rect height="22" width="44" x="528" y="120"/>
<text x="550" y="136">
_TO</text>
</g>
<path d=" M 504 131 a 12 12 0 0 1 12 12 v 9 m 68 0 v -9 a 12 12 0 0 1 12 -12"/>
<path d=" M 516 152 v 0 a 12 12 0 0 0 12 12 m 0 0 h 44 a 12 12 0 0 0 12 -12 v 0"/>
<g/>
</g>
<path d=" M 126 131 h 10"/>
<path d=" M 196 131 h 10"/>
<path d=" M 314 131 h 10"/>
<path d=" M 416 131 h 10"/>
<path d=" M 494 131 h 10"/>
</g>
<path d=" M 22 174 v 0 a 12 12 0 0 0 12 12 m 336 0 h 226 m -110 0 l -5 -5 m 0 10 l 5 -5 m 110 0 a 12 12 0 0 0 12 -12 v 0"/>
<g class="sequence">
<g class="choice">
<path d=" M 34 186 h 24 m 44 0 h 24"/>
<g class="nonterminal">
<rect height="22" width="44" x="58" y="175"/>
<text x="80" y="191">
_IS</text>
</g>
<path d=" M 34 186 a 12 12 0 0 1 12 12 v 9 m 68 0 v -9 a 12 12 0 0 1 12 -12"/>
<path d=" M 46 207 v 0 a 12 12 0 0 0 12 12 m 0 0 h 44 a 12 12 0 0 0 12 -12 v 0"/>
<g/>
</g>
<g class="nonterminal">
<rect height="22" width="116" x="136" y="175"/>
<text x="194" y="191">
_NOT_GREATER</text>
</g>
<g class="choice">
<path d=" M 262 186 h 24 m 60 0 h 24"/>
<g class="nonterminal">
<rect height="22" width="60" x="286" y="175"/>
<text x="316" y="191">
_THAN</text>
</g>
<path d=" M 262 186 a 12 12 0 0 1 12 12 v 9 m 84 0 v -9 a 12 12 0 0 1 12 -12"/>
<path d=" M 274 207 v 0 a 12 12 0 0 0 12 12 m 0 0 h 60 m -27 0 l -5 -5 m 0 10 l 5 -5 m 27 0 a 12 12 0 0 0 12 -12 v 0"/>
<g/>
</g>
<path d=" M 126 186 h 10"/>
<path d=" M 252 186 h 10"/>
</g>
</g>
</svg>
