<svg class="railroad" viewBox="0 0 554 218" xmlns="http://www.w3.org/2000/svg" xmlns:xlink="http://www.w3.org/1999/xlink">
<style type="text/css">

    svg.railroad {
        background-color: hsl(30, 20%, 95%);
        background-size: 15px 15px;
        background-image: linear-gradient(to right, rgba(30, 30, 30, .05) 1px, transparent 1px),
                          linear-gradient(to bottom, rgba(30, 30, 30, .05) 1px, transparent 1px);
    }

    svg.railroad path {
        stroke-width: 3px;
        stroke: black;
        fill: transparent;
    }

    svg.railroad .debug {
        stroke-width: 1px;
        stroke: red;
    }

    svg.railroad text {
        font: 14px monospace;
        text-anchor: middle;
    }

    svg.railroad .nonterminal text {
        font-weight: bold;
    }

    svg.railroad text.comment {
        font: italic 12px monospace;
    }

    svg.railroad rect {
        stroke-width: 3px;
        stroke: black;
        fill:hsl(-290, 70%, 90%);
    }

    svg.railroad g.labeledbox > rect {
        stroke-width: 1px;
        stroke: grey;
        stroke-dasharray: 5px;
        fill:rgba(90, 90, 150, .1);
    }</style>
<g class="choice">
<path d=" M 10 21 h 24 m 486 0 h 24"/>
<g class="sequence">
<g class="nonterminal">
<rect height="22" width="108" x="34" y="10"/>
<text x="88" y="26">
_CHARACTERS</text>
</g>
<g class="nonterminal">
<rect height="22" width="44" x="152" y="10"/>
<text x="174" y="26">
_BY</text>
</g>
<g class="nonterminal">
<rect height="22" width="124" x="206" y="10"/>
<text x="268" y="26">
_simple_value</text>
</g>
<g class="choice">
<path d=" M 340 21 h 24 m 132 0 h 24"/>
<g class="nonterminal">
<rect height="22" width="132" x="364" y="10"/>
<text x="430" y="26">
inspect_region</text>
</g>
<path d=" M 340 21 a 12 12 0 0 1 12 12 v 9 m 156 0 v -9 a 12 12 0 0 1 12 -12"/>
<path d=" M 352 42 v 0 a 12 12 0 0 0 12 12 m 0 0 h 132 m -63 0 l -5 -5 m 0 10 l 5 -5 m 63 0 a 12 12 0 0 0 12 -12 v 0"/>
<g/>
</g>
<path d=" M 142 21 h 10"/>
<path d=" M 196 21 h 10"/>
<path d=" M 330 21 h 10"/>
</g>
<path d=" M 10 21 a 12 12 0 0 1 12 12 v 31 m 510 0 v -31 a 12 12 0 0 1 12 -12"/>
<path d=" M 22 64 v 0 a 12 12 0 0 0 12 12 m 338 0 h 148 m -71 0 l -5 -5 m 0 10 l 5 -5 m 71 0 a 12 12 0 0 0 12 -12 v 0"/>
<g class="sequence">
<g class="choice">
<path d=" M 34 76 h 24 m 132 0 h 24"/>
<g class="choice">
<path d=" M 58 76 h 24 m 44 0 h 64 m -29 0 l -5 -5 m 0 10 l 5 -5 m 29 0"/>
<g class="nonterminal">
<rect height="22" width="44" x="82" y="65"/>
<text x="104" y="81">
ALL</text>
</g>
<path d=" M 58 76 a 12 12 0 0 1 12 12 v 9 m 108 0 v -9 a 12 12 0 0 1 12 -12"/>
<path d=" M 70 97 v 33 m 108 0 v -33"/>
<path d=" M 70 130 v 33 m 108 0 v -33"/>
<path d=" M 70 97 v 0 a 12 12 0 0 0 12 12 m 76 0 h 8 a 12 12 0 0 0 12 -12 v 0"/>
<g class="nonterminal">
<rect height="22" width="76" x="82" y="98"/>
<text x="120" y="114">
LEADING</text>
</g>
<path d=" M 70 130 v 0 a 12 12 0 0 0 12 12 m 60 0 h 24 a 12 12 0 0 0 12 -12 v 0"/>
<g class="nonterminal">
<rect height="22" width="60" x="82" y="131"/>
<text x="112" y="147">
FIRST</text>
</g>
<path d=" M 70 163 v 0 a 12 12 0 0 0 12 12 m 84 0 h 0 a 12 12 0 0 0 12 -12 v 0"/>
<g class="nonterminal">
<rect height="22" width="84" x="82" y="164"/>
<text x="124" y="180">
TRAILING</text>
</g>
</g>
<path d=" M 34 76 a 12 12 0 0 1 12 12 v 108 m 0 -51 l -5 -5 m 10 0 l -5 5 m 0 51 m 156 0 v -108 m 0 57 l -5 5 m 10 0 l -5 -5 m 0 -57 a 12 12 0 0 1 12 -12"/>
<path d=" M 46 196 v 0 a 12 12 0 0 0 12 12 m 0 0 h 132 m -63 0 l -5 -5 m 0 10 l 5 -5 m 63 0 a 12 12 0 0 0 12 -12 v 0"/>
<g/>
</g>
<g class="nonterminal">
<rect height="22" width="148" x="224" y="65"/>
<text x="298" y="81">
replacing_region</text>
</g>
<path d=" M 214 76 h 10"/>
</g>
</g>
</svg>
