<svg class="railroad" viewBox="0 0 516 206" xmlns="http://www.w3.org/2000/svg" xmlns:xlink="http://www.w3.org/1999/xlink">
<style type="text/css">

    svg.railroad {
        background-color: hsl(30, 20%, 95%);
        background-size: 15px 15px;
        background-image: linear-gradient(to right, rgba(30, 30, 30, .05) 1px, transparent 1px),
                          linear-gradient(to bottom, rgba(30, 30, 30, .05) 1px, transparent 1px);
    }

    svg.railroad path {
        stroke-width: 3px;
        stroke: black;
        fill: transparent;
    }

    svg.railroad .debug {
        stroke-width: 1px;
        stroke: red;
    }

    svg.railroad text {
        font: 14px monospace;
        text-anchor: middle;
    }

    svg.railroad .nonterminal text {
        font-weight: bold;
    }

    svg.railroad text.comment {
        font: italic 12px monospace;
    }

    svg.railroad rect {
        stroke-width: 3px;
        stroke: black;
        fill:hsl(-290, 70%, 90%);
    }

    svg.railroad g.labeledbox > rect {
        stroke-width: 1px;
        stroke: grey;
        stroke-dasharray: 5px;
        fill:rgba(90, 90, 150, .1);
    }</style>
<g class="sequence">
<g class="nonterminal">
<rect height="22" width="84" x="10" y="10"/>
<text x="52" y="26">
_INSPECT</text>
</g>
<g class="choice">
<path d=" M 104 21 h 24 m 108 0 h 24"/>
<g class="nonterminal">
<rect height="22" width="108" x="128" y="10"/>
<text x="182" y="26">
_identifier</text>
</g>
<path d=" M 104 21 a 12 12 0 0 1 12 12 v 9 m 132 0 v -9 a 12 12 0 0 1 12 -12"/>
<path d=" M 116 42 v 33 m 132 0 v -33"/>
<path d=" M 116 42 v 0 a 12 12 0 0 0 12 12 m 84 0 h 24 a 12 12 0 0 0 12 -12 v 0"/>
<g class="nonterminal">
<rect height="22" width="84" x="128" y="43"/>
<text x="170" y="59">
_literal</text>
</g>
<path d=" M 116 75 v 0 a 12 12 0 0 0 12 12 m 92 0 h 16 a 12 12 0 0 0 12 -12 v 0"/>
<g class="nonterminal">
<rect height="22" width="92" x="128" y="76"/>
<text x="174" y="92">
function_</text>
</g>
</g>
<g class="repeat">
<path d=" M 270 21 h 12 m 212 0 h 12 m -12 0 a 12 12 0 0 1 12 12 v 74 m 0 -34 l -5 -5 m 10 0 l -5 5 m 0 34 a 12 12 0 0 1 -12 12 m -212 0 h 0 a 12 12 0 0 1 -12 -12 v -74 m 0 40 l -5 5 m 10 0 l -5 -5 m 0 -40 a 12 12 0 0 1 12 -12"/>
<g class="choice">
<path d=" M 282 119 h 24 m 148 0 h 40"/>
<g class="nonterminal">
<rect height="22" width="148" x="306" y="108"/>
<text x="380" y="124">
inspect_tallying</text>
</g>
<path d=" M 282 119 a 12 12 0 0 1 12 12 v 9 m 188 0 v -9 a 12 12 0 0 1 12 -12"/>
<path d=" M 294 140 v 33 m 188 0 v -33"/>
<path d=" M 294 140 v 0 a 12 12 0 0 0 12 12 m 156 0 h 8 a 12 12 0 0 0 12 -12 v 0"/>
<g class="nonterminal">
<rect height="22" width="156" x="306" y="141"/>
<text x="384" y="157">
inspect_replacing</text>
</g>
<path d=" M 294 173 v 0 a 12 12 0 0 0 12 12 m 164 0 h 0 a 12 12 0 0 0 12 -12 v 0"/>
<g class="nonterminal">
<rect height="22" width="164" x="306" y="174"/>
<text x="388" y="190">
inspect_converting</text>
</g>
</g>
<g class="choice">
<path d=" M 282 21 h 24 m 148 0 h 40"/>
<g class="nonterminal">
<rect height="22" width="148" x="306" y="10"/>
<text x="380" y="26">
inspect_tallying</text>
</g>
<path d=" M 282 21 a 12 12 0 0 1 12 12 v 9 m 188 0 v -9 a 12 12 0 0 1 12 -12"/>
<path d=" M 294 42 v 33 m 188 0 v -33"/>
<path d=" M 294 42 v 0 a 12 12 0 0 0 12 12 m 156 0 h 8 a 12 12 0 0 0 12 -12 v 0"/>
<g class="nonterminal">
<rect height="22" width="156" x="306" y="43"/>
<text x="384" y="59">
inspect_replacing</text>
</g>
<path d=" M 294 75 v 0 a 12 12 0 0 0 12 12 m 164 0 h 0 a 12 12 0 0 0 12 -12 v 0"/>
<g class="nonterminal">
<rect height="22" width="164" x="306" y="76"/>
<text x="388" y="92">
inspect_converting</text>
</g>
</g>
</g>
<path d=" M 94 21 h 10"/>
<path d=" M 260 21 h 10"/>
</g>
</svg>
