<svg class="railroad" viewBox="0 0 672 64" xmlns="http://www.w3.org/2000/svg" xmlns:xlink="http://www.w3.org/1999/xlink">
<style type="text/css">

    svg.railroad {
        background-color: hsl(30, 20%, 95%);
        background-size: 15px 15px;
        background-image: linear-gradient(to right, rgba(30, 30, 30, .05) 1px, transparent 1px),
                          linear-gradient(to bottom, rgba(30, 30, 30, .05) 1px, transparent 1px);
    }

    svg.railroad path {
        stroke-width: 3px;
        stroke: black;
        fill: transparent;
    }

    svg.railroad .debug {
        stroke-width: 1px;
        stroke: red;
    }

    svg.railroad text {
        font: 14px monospace;
        text-anchor: middle;
    }

    svg.railroad .nonterminal text {
        font-weight: bold;
    }

    svg.railroad text.comment {
        font: italic 12px monospace;
    }

    svg.railroad rect {
        stroke-width: 3px;
        stroke: black;
        fill:hsl(-290, 70%, 90%);
    }

    svg.railroad g.labeledbox > rect {
        stroke-width: 1px;
        stroke: grey;
        stroke-dasharray: 5px;
        fill:rgba(90, 90, 150, .1);
    }</style>
<g class="sequence">
<g class="nonterminal">
<rect height="22" width="108" x="10" y="10"/>
<text x="64" y="26">
_CONVERTING</text>
</g>
<g class="nonterminal">
<rect height="22" width="124" x="128" y="10"/>
<text x="190" y="26">
_simple_value</text>
</g>
<g class="nonterminal">
<rect height="22" width="44" x="262" y="10"/>
<text x="284" y="26">
_TO</text>
</g>
<g class="nonterminal">
<rect height="22" width="156" x="316" y="10"/>
<text x="394" y="26">
_simple_all_value</text>
</g>
<g class="choice">
<path d=" M 482 21 h 24 m 132 0 h 24"/>
<g class="nonterminal">
<rect height="22" width="132" x="506" y="10"/>
<text x="572" y="26">
inspect_region</text>
</g>
<path d=" M 482 21 a 12 12 0 0 1 12 12 v 9 m 156 0 v -9 a 12 12 0 0 1 12 -12"/>
<path d=" M 494 42 v 0 a 12 12 0 0 0 12 12 m 0 0 h 132 m -63 0 l -5 -5 m 0 10 l 5 -5 m 63 0 a 12 12 0 0 0 12 -12 v 0"/>
<g/>
</g>
<path d=" M 118 21 h 10"/>
<path d=" M 252 21 h 10"/>
<path d=" M 306 21 h 10"/>
<path d=" M 472 21 h 10"/>
</g>
</svg>
