<svg class="railroad" viewBox="0 0 426 64" xmlns="http://www.w3.org/2000/svg" xmlns:xlink="http://www.w3.org/1999/xlink">
<style type="text/css">

    svg.railroad {
        background-color: hsl(30, 20%, 95%);
        background-size: 15px 15px;
        background-image: linear-gradient(to right, rgba(30, 30, 30, .05) 1px, transparent 1px),
                          linear-gradient(to bottom, rgba(30, 30, 30, .05) 1px, transparent 1px);
    }

    svg.railroad path {
        stroke-width: 3px;
        stroke: black;
        fill: transparent;
    }

    svg.railroad .debug {
        stroke-width: 1px;
        stroke: red;
    }

    svg.railroad text {
        font: 14px monospace;
        text-anchor: middle;
    }

    svg.railroad .nonterminal text {
        font-weight: bold;
    }

    svg.railroad text.comment {
        font: italic 12px monospace;
    }

    svg.railroad rect {
        stroke-width: 3px;
        stroke: black;
        fill:hsl(-290, 70%, 90%);
    }

    svg.railroad g.labeledbox > rect {
        stroke-width: 1px;
        stroke: grey;
        stroke-dasharray: 5px;
        fill:rgba(90, 90, 150, .1);
    }</style>
<g class="sequence">
<g class="nonterminal">
<rect height="22" width="188" x="10" y="10"/>
<text x="104" y="26">
_initialize_category</text>
</g>
<g class="choice">
<path d=" M 208 21 h 24 m 60 0 h 24"/>
<g class="nonterminal">
<rect height="22" width="60" x="232" y="10"/>
<text x="262" y="26">
_DATA</text>
</g>
<path d=" M 208 21 a 12 12 0 0 1 12 12 v 9 m 84 0 v -9 a 12 12 0 0 1 12 -12"/>
<path d=" M 220 42 v 0 a 12 12 0 0 0 12 12 m 0 0 h 60 m -27 0 l -5 -5 m 0 10 l 5 -5 m 27 0 a 12 12 0 0 0 12 -12 v 0"/>
<g/>
</g>
<g class="nonterminal">
<rect height="22" width="44" x="326" y="10"/>
<text x="348" y="26">
_BY</text>
</g>
<g class="nonterminal">
<rect height="22" width="36" x="380" y="10"/>
<text x="398" y="26">
_x</text>
</g>
<path d=" M 198 21 h 10"/>
<path d=" M 316 21 h 10"/>
<path d=" M 370 21 h 10"/>
</g>
</svg>
