<svg class="railroad" viewBox="0 0 348 140" xmlns="http://www.w3.org/2000/svg" xmlns:xlink="http://www.w3.org/1999/xlink">
<style type="text/css">

    svg.railroad {
        background-color: hsl(30, 20%, 95%);
        background-size: 15px 15px;
        background-image: linear-gradient(to right, rgba(30, 30, 30, .05) 1px, transparent 1px),
                          linear-gradient(to bottom, rgba(30, 30, 30, .05) 1px, transparent 1px);
    }

    svg.railroad path {
        stroke-width: 3px;
        stroke: black;
        fill: transparent;
    }

    svg.railroad .debug {
        stroke-width: 1px;
        stroke: red;
    }

    svg.railroad text {
        font: 14px monospace;
        text-anchor: middle;
    }

    svg.railroad .nonterminal text {
        font-weight: bold;
    }

    svg.railroad text.comment {
        font: italic 12px monospace;
    }

    svg.railroad rect {
        stroke-width: 3px;
        stroke: black;
        fill:hsl(-290, 70%, 90%);
    }

    svg.railroad g.labeledbox > rect {
        stroke-width: 1px;
        stroke: grey;
        stroke-dasharray: 5px;
        fill:rgba(90, 90, 150, .1);
    }</style>
<g class="repeat">
<path d=" M 10 21 h 12 m 304 0 h 12 m -12 0 a 12 12 0 0 1 12 12 v 41 a 12 12 0 0 1 -12 12 m -304 0 h 0 a 12 12 0 0 1 -12 -12 v -41 a 12 12 0 0 1 12 -12"/>
<g class="sequence">
<g class="choice">
<path d=" M 22 86 h 24 m 68 0 h 24"/>
<g class="nonterminal">
<rect height="22" width="68" x="46" y="75"/>
<text x="80" y="91">
BEFORE</text>
</g>
<path d=" M 22 86 a 12 12 0 0 1 12 12 v 9 m 92 0 v -9 a 12 12 0 0 1 12 -12"/>
<path d=" M 34 107 v 0 a 12 12 0 0 0 12 12 m 60 0 h 8 a 12 12 0 0 0 12 -12 v 0"/>
<g class="nonterminal">
<rect height="22" width="60" x="46" y="108"/>
<text x="76" y="124">
AFTER</text>
</g>
</g>
<g class="choice">
<path d=" M 148 86 h 24 m 84 0 h 24"/>
<g class="nonterminal">
<rect height="22" width="84" x="172" y="75"/>
<text x="214" y="91">
_INITIAL</text>
</g>
<path d=" M 148 86 a 12 12 0 0 1 12 12 v 9 m 108 0 v -9 a 12 12 0 0 1 12 -12"/>
<path d=" M 160 107 v 0 a 12 12 0 0 0 12 12 m 0 0 h 84 m -45 0 l 5 -5 m 0 10 l -5 -5 m 45 0 a 12 12 0 0 0 12 -12 v 0"/>
<g/>
</g>
<g class="nonterminal">
<rect height="22" width="36" x="290" y="75"/>
<text x="308" y="91">
_x</text>
</g>
<path d=" M 138 86 h 10"/>
<path d=" M 280 86 h 10"/>
</g>
<g class="sequence">
<g class="choice">
<path d=" M 22 21 h 24 m 68 0 h 24"/>
<g class="nonterminal">
<rect height="22" width="68" x="46" y="10"/>
<text x="80" y="26">
BEFORE</text>
</g>
<path d=" M 22 21 a 12 12 0 0 1 12 12 v 9 m 92 0 v -9 a 12 12 0 0 1 12 -12"/>
<path d=" M 34 42 v 0 a 12 12 0 0 0 12 12 m 60 0 h 8 a 12 12 0 0 0 12 -12 v 0"/>
<g class="nonterminal">
<rect height="22" width="60" x="46" y="43"/>
<text x="76" y="59">
AFTER</text>
</g>
</g>
<g class="choice">
<path d=" M 148 21 h 24 m 84 0 h 24"/>
<g class="nonterminal">
<rect height="22" width="84" x="172" y="10"/>
<text x="214" y="26">
_INITIAL</text>
</g>
<path d=" M 148 21 a 12 12 0 0 1 12 12 v 9 m 108 0 v -9 a 12 12 0 0 1 12 -12"/>
<path d=" M 160 42 v 0 a 12 12 0 0 0 12 12 m 0 0 h 84 m -39 0 l -5 -5 m 0 10 l 5 -5 m 39 0 a 12 12 0 0 0 12 -12 v 0"/>
<g/>
</g>
<g class="nonterminal">
<rect height="22" width="36" x="290" y="10"/>
<text x="308" y="26">
_x</text>
</g>
<path d=" M 138 21 h 10"/>
<path d=" M 280 21 h 10"/>
</g>
</g>
</svg>
