<svg class="railroad" viewBox="0 0 440 139" xmlns="http://www.w3.org/2000/svg" xmlns:xlink="http://www.w3.org/1999/xlink">
<style type="text/css">

    svg.railroad {
        background-color: hsl(30, 20%, 95%);
        background-size: 15px 15px;
        background-image: linear-gradient(to right, rgba(30, 30, 30, .05) 1px, transparent 1px),
                          linear-gradient(to bottom, rgba(30, 30, 30, .05) 1px, transparent 1px);
    }

    svg.railroad path {
        stroke-width: 3px;
        stroke: black;
        fill: transparent;
    }

    svg.railroad .debug {
        stroke-width: 1px;
        stroke: red;
    }

    svg.railroad text {
        font: 14px monospace;
        text-anchor: middle;
    }

    svg.railroad .nonterminal text {
        font-weight: bold;
    }

    svg.railroad text.comment {
        font: italic 12px monospace;
    }

    svg.railroad rect {
        stroke-width: 3px;
        stroke: black;
        fill:hsl(-290, 70%, 90%);
    }

    svg.railroad g.labeledbox > rect {
        stroke-width: 1px;
        stroke: grey;
        stroke-dasharray: 5px;
        fill:rgba(90, 90, 150, .1);
    }</style>
<g class="choice">
<path d=" M 10 21 h 24 m 240 0 h 156 m -75 0 l -5 -5 m 0 10 l 5 -5 m 75 0"/>
<g class="sequence">
<g class="nonterminal">
<rect height="22" width="36" x="34" y="10"/>
<text x="52" y="26">
_x</text>
</g>
<g class="nonterminal">
<rect height="22" width="44" x="80" y="10"/>
<text x="102" y="26">
_BY</text>
</g>
<g class="repeat">
<path d=" M 134 21 h 12 m 116 0 h 12 m -12 0 a 12 12 0 0 1 12 12 v 8 a 12 12 0 0 1 -12 12 m -116 0 h 0 a 12 12 0 0 1 -12 -12 v -8 a 12 12 0 0 1 12 -12"/>
<g class="nonterminal">
<rect height="22" width="116" x="146" y="42"/>
<text x="204" y="58">
arithmetic_x</text>
</g>
<g class="nonterminal">
<rect height="22" width="116" x="146" y="10"/>
<text x="204" y="26">
arithmetic_x</text>
</g>
</g>
<path d=" M 70 21 h 10"/>
<path d=" M 124 21 h 10"/>
</g>
<path d=" M 10 21 a 12 12 0 0 1 12 12 v 41 m 396 0 v -41 a 12 12 0 0 1 12 -12"/>
<path d=" M 22 74 v 0 a 12 12 0 0 0 12 12 m 372 0 h 0 a 12 12 0 0 0 12 -12 v 0"/>
<g class="sequence">
<g class="nonterminal">
<rect height="22" width="36" x="34" y="75"/>
<text x="52" y="91">
_x</text>
</g>
<g class="nonterminal">
<rect height="22" width="44" x="80" y="75"/>
<text x="102" y="91">
_BY</text>
</g>
<g class="nonterminal">
<rect height="22" width="36" x="134" y="75"/>
<text x="152" y="91">
_x</text>
</g>
<g class="nonterminal">
<rect height="22" width="76" x="180" y="75"/>
<text x="218" y="91">
_GIVING</text>
</g>
<g class="repeat">
<path d=" M 266 86 h 12 m 116 0 h 12 m -12 0 a 12 12 0 0 1 12 12 v 8 a 12 12 0 0 1 -12 12 m -116 0 h 0 a 12 12 0 0 1 -12 -12 v -8 a 12 12 0 0 1 12 -12"/>
<g class="nonterminal">
<rect height="22" width="116" x="278" y="107"/>
<text x="336" y="123">
arithmetic_x</text>
</g>
<g class="nonterminal">
<rect height="22" width="116" x="278" y="75"/>
<text x="336" y="91">
arithmetic_x</text>
</g>
</g>
<path d=" M 70 86 h 10"/>
<path d=" M 124 86 h 10"/>
<path d=" M 170 86 h 10"/>
<path d=" M 256 86 h 10"/>
</g>
</g>
</svg>
