<svg class="railroad" viewBox="0 0 442 64" xmlns="http://www.w3.org/2000/svg" xmlns:xlink="http://www.w3.org/1999/xlink">
<style type="text/css">

    svg.railroad {
        background-color: hsl(30, 20%, 95%);
        background-size: 15px 15px;
        background-image: linear-gradient(to right, rgba(30, 30, 30, .05) 1px, transparent 1px),
                          linear-gradient(to bottom, rgba(30, 30, 30, .05) 1px, transparent 1px);
    }

    svg.railroad path {
        stroke-width: 3px;
        stroke: black;
        fill: transparent;
    }

    svg.railroad .debug {
        stroke-width: 1px;
        stroke: red;
    }

    svg.railroad text {
        font: 14px monospace;
        text-anchor: middle;
    }

    svg.railroad .nonterminal text {
        font-weight: bold;
    }

    svg.railroad text.comment {
        font: italic 12px monospace;
    }

    svg.railroad rect {
        stroke-width: 3px;
        stroke: black;
        fill:hsl(-290, 70%, 90%);
    }

    svg.railroad g.labeledbox > rect {
        stroke-width: 1px;
        stroke: grey;
        stroke-dasharray: 5px;
        fill:rgba(90, 90, 150, .1);
    }</style>
<g class="sequence">
<g class="choice">
<path d=" M 10 21 h 24 m 132 0 h 24"/>
<g class="nonterminal">
<rect height="22" width="132" x="34" y="10"/>
<text x="100" y="26">
_CORRESPONDING</text>
</g>
<path d=" M 10 21 a 12 12 0 0 1 12 12 v 9 m 156 0 v -9 a 12 12 0 0 1 12 -12"/>
<path d=" M 22 42 v 0 a 12 12 0 0 0 12 12 m 0 0 h 132 m -63 0 l -5 -5 m 0 10 l 5 -5 m 63 0 a 12 12 0 0 0 12 -12 v 0"/>
<g/>
</g>
<g class="nonterminal">
<rect height="22" width="36" x="200" y="10"/>
<text x="218" y="26">
_x</text>
</g>
<g class="nonterminal">
<rect height="22" width="44" x="246" y="10"/>
<text x="268" y="26">
_TO</text>
</g>
<g class="nonterminal">
<rect height="22" width="132" x="300" y="10"/>
<text x="366" y="26">
_target_x_list</text>
</g>
<path d=" M 190 21 h 10"/>
<path d=" M 236 21 h 10"/>
<path d=" M 290 21 h 10"/>
</g>
</svg>
