<svg class="railroad" viewBox="0 0 1206 97" xmlns="http://www.w3.org/2000/svg" xmlns:xlink="http://www.w3.org/1999/xlink">
<style type="text/css">

    svg.railroad {
        background-color: hsl(30, 20%, 95%);
        background-size: 15px 15px;
        background-image: linear-gradient(to right, rgba(30, 30, 30, .05) 1px, transparent 1px),
                          linear-gradient(to bottom, rgba(30, 30, 30, .05) 1px, transparent 1px);
    }

    svg.railroad path {
        stroke-width: 3px;
        stroke: black;
        fill: transparent;
    }

    svg.railroad .debug {
        stroke-width: 1px;
        stroke: red;
    }

    svg.railroad text {
        font: 14px monospace;
        text-anchor: middle;
    }

    svg.railroad .nonterminal text {
        font-weight: bold;
    }

    svg.railroad text.comment {
        font: italic 12px monospace;
    }

    svg.railroad rect {
        stroke-width: 3px;
        stroke: black;
        fill:hsl(-290, 70%, 90%);
    }

    svg.railroad g.labeledbox > rect {
        stroke-width: 1px;
        stroke: grey;
        stroke-dasharray: 5px;
        fill:rgba(90, 90, 150, .1);
    }</style>
<g class="sequence">
<g class="nonterminal">
<rect height="22" width="60" x="10" y="10"/>
<text x="40" y="26">
_READ</text>
</g>
<g class="nonterminal">
<rect height="22" width="52" x="80" y="10"/>
<text x="106" y="26">
WORD</text>
</g>
<g class="choice">
<path d=" M 142 21 h 24 m 132 0 h 24"/>
<g class="choice">
<path d=" M 166 21 h 24 m 52 0 h 56 m -25 0 l -5 -5 m 0 10 l 5 -5 m 25 0"/>
<g class="nonterminal">
<rect height="22" width="52" x="190" y="10"/>
<text x="216" y="26">
NEXT</text>
</g>
<path d=" M 166 21 a 12 12 0 0 1 12 12 v 9 m 108 0 v -9 a 12 12 0 0 1 12 -12"/>
<path d=" M 178 42 v 0 a 12 12 0 0 0 12 12 m 84 0 h 0 a 12 12 0 0 0 12 -12 v 0"/>
<g class="nonterminal">
<rect height="22" width="84" x="190" y="43"/>
<text x="232" y="59">
PREVIOUS</text>
</g>
</g>
<path d=" M 142 21 a 12 12 0 0 1 12 12 v 42 m 156 0 v -42 a 12 12 0 0 1 12 -12"/>
<path d=" M 154 75 v 0 a 12 12 0 0 0 12 12 m 0 0 h 132 m -63 0 l -5 -5 m 0 10 l 5 -5 m 63 0 a 12 12 0 0 0 12 -12 v 0"/>
<g/>
</g>
<g class="choice">
<path d=" M 332 21 h 24 m 76 0 h 24"/>
<g class="nonterminal">
<rect height="22" width="76" x="356" y="10"/>
<text x="394" y="26">
_RECORD</text>
</g>
<path d=" M 332 21 a 12 12 0 0 1 12 12 v 9 m 100 0 v -9 a 12 12 0 0 1 12 -12"/>
<path d=" M 344 42 v 0 a 12 12 0 0 0 12 12 m 0 0 h 76 m -35 0 l -5 -5 m 0 10 l 5 -5 m 35 0 a 12 12 0 0 0 12 -12 v 0"/>
<g/>
</g>
<g class="choice">
<path d=" M 466 21 h 24 m 178 0 h 24"/>
<g class="sequence">
<g class="nonterminal">
<rect height="22" width="60" x="490" y="10"/>
<text x="520" y="26">
_INTO</text>
</g>
<g class="nonterminal">
<rect height="22" width="108" x="560" y="10"/>
<text x="614" y="26">
_identifier</text>
</g>
<path d=" M 550 21 h 10"/>
</g>
<path d=" M 466 21 a 12 12 0 0 1 12 12 v 9 m 202 0 v -9 a 12 12 0 0 1 12 -12"/>
<path d=" M 478 42 v 0 a 12 12 0 0 0 12 12 m 0 0 h 178 m -86 0 l -5 -5 m 0 10 l 5 -5 m 86 0 a 12 12 0 0 0 12 -12 v 0"/>
<g/>
</g>
<g class="choice">
<path d=" M 702 21 h 24 m 92 0 h 24"/>
<g class="nonterminal">
<rect height="22" width="92" x="726" y="10"/>
<text x="772" y="26">
with_lock</text>
</g>
<path d=" M 702 21 a 12 12 0 0 1 12 12 v 9 m 116 0 v -9 a 12 12 0 0 1 12 -12"/>
<path d=" M 714 42 v 0 a 12 12 0 0 0 12 12 m 0 0 h 92 m -43 0 l -5 -5 m 0 10 l 5 -5 m 43 0 a 12 12 0 0 0 12 -12 v 0"/>
<g/>
</g>
<g class="choice">
<path d=" M 852 21 h 24 m 296 0 h 24"/>
<g class="sequence">
<g class="nonterminal">
<rect height="22" width="52" x="876" y="10"/>
<text x="902" y="26">
_KEY</text>
</g>
<g class="choice">
<path d=" M 938 21 h 24 m 44 0 h 24"/>
<g class="nonterminal">
<rect height="22" width="44" x="962" y="10"/>
<text x="984" y="26">
_IS</text>
</g>
<path d=" M 938 21 a 12 12 0 0 1 12 12 v 9 m 68 0 v -9 a 12 12 0 0 1 12 -12"/>
<path d=" M 950 42 v 0 a 12 12 0 0 0 12 12 m 0 0 h 44 a 12 12 0 0 0 12 -12 v 0"/>
<g/>
</g>
<g class="repeat">
<path d=" M 1040 21 h 12 m 108 0 h 12 m -12 0 a 12 12 0 0 1 12 12 v 8 a 12 12 0 0 1 -12 12 m -108 0 h 0 a 12 12 0 0 1 -12 -12 v -8 a 12 12 0 0 1 12 -12"/>
<g class="nonterminal">
<rect height="22" width="108" x="1052" y="42"/>
<text x="1106" y="58">
_identifier</text>
</g>
<g class="nonterminal">
<rect height="22" width="108" x="1052" y="10"/>
<text x="1106" y="26">
_identifier</text>
</g>
</g>
<path d=" M 928 21 h 10"/>
<path d=" M 1030 21 h 10"/>
</g>
<path d=" M 852 21 a 12 12 0 0 1 12 12 v 41 m 320 0 v -41 a 12 12 0 0 1 12 -12"/>
<path d=" M 864 74 v 0 a 12 12 0 0 0 12 12 m 0 0 h 296 m -145 0 l -5 -5 m 0 10 l 5 -5 m 145 0 a 12 12 0 0 0 12 -12 v 0"/>
<g/>
</g>
<path d=" M 70 21 h 10"/>
<path d=" M 132 21 h 10"/>
<path d=" M 322 21 h 10"/>
<path d=" M 456 21 h 10"/>
<path d=" M 692 21 h 10"/>
<path d=" M 842 21 h 10"/>
</g>
</svg>
