<svg class="railroad" viewBox="0 0 728 187" xmlns="http://www.w3.org/2000/svg" xmlns:xlink="http://www.w3.org/1999/xlink">
<style type="text/css">

    svg.railroad {
        background-color: hsl(30, 20%, 95%);
        background-size: 15px 15px;
        background-image: linear-gradient(to right, rgba(30, 30, 30, .05) 1px, transparent 1px),
                          linear-gradient(to bottom, rgba(30, 30, 30, .05) 1px, transparent 1px);
    }

    svg.railroad path {
        stroke-width: 3px;
        stroke: black;
        fill: transparent;
    }

    svg.railroad .debug {
        stroke-width: 1px;
        stroke: red;
    }

    svg.railroad text {
        font: 14px monospace;
        text-anchor: middle;
    }

    svg.railroad .nonterminal text {
        font-weight: bold;
    }

    svg.railroad text.comment {
        font: italic 12px monospace;
    }

    svg.railroad rect {
        stroke-width: 3px;
        stroke: black;
        fill:hsl(-290, 70%, 90%);
    }

    svg.railroad g.labeledbox > rect {
        stroke-width: 1px;
        stroke: grey;
        stroke-dasharray: 5px;
        fill:rgba(90, 90, 150, .1);
    }</style>
<g class="choice">
<path d=" M 10 21 h 24 m 76 0 h 608 m -301 0 l -5 -5 m 0 10 l 5 -5 m 301 0"/>
<g class="nonterminal">
<rect height="22" width="76" x="34" y="10"/>
<text x="72" y="26">
FOREVER</text>
</g>
<path d=" M 10 21 a 12 12 0 0 1 12 12 v 9 m 684 0 v -9 a 12 12 0 0 1 12 -12"/>
<path d=" M 22 42 v 33 m 684 0 v -33"/>
<path d=" M 22 75 v 55 m 0 -24 l -5 -5 m 10 0 l -5 5 m 0 24 m 684 0 v -55 m 0 30 l -5 5 m 10 0 l -5 -5 m 0 -30"/>
<path d=" M 22 42 v 0 a 12 12 0 0 0 12 12 m 242 0 h 418 m -206 0 l -5 -5 m 0 10 l 5 -5 m 206 0 a 12 12 0 0 0 12 -12 v 0"/>
<g class="sequence">
<g class="nonterminal">
<rect height="22" width="164" x="34" y="43"/>
<text x="116" y="59">
_id_or_lit_or_func</text>
</g>
<g class="nonterminal">
<rect height="22" width="68" x="208" y="43"/>
<text x="242" y="59">
_TIMES</text>
</g>
<path d=" M 198 54 h 10"/>
</g>
<path d=" M 22 75 v 0 a 12 12 0 0 0 12 12 m 304 0 h 356 m -175 0 l -5 -5 m 0 10 l 5 -5 m 175 0 a 12 12 0 0 0 12 -12 v 0"/>
<g class="sequence">
<g class="choice">
<path d=" M 34 87 h 24 m 116 0 h 24"/>
<g class="nonterminal">
<rect height="22" width="116" x="58" y="76"/>
<text x="116" y="92">
perform_test</text>
</g>
<path d=" M 34 87 a 12 12 0 0 1 12 12 v 9 m 140 0 v -9 a 12 12 0 0 1 12 -12"/>
<path d=" M 46 108 v 0 a 12 12 0 0 0 12 12 m 0 0 h 116 m -55 0 l -5 -5 m 0 10 l 5 -5 m 55 0 a 12 12 0 0 0 12 -12 v 0"/>
<g/>
</g>
<g class="nonterminal">
<rect height="22" width="68" x="208" y="76"/>
<text x="242" y="92">
_UNTIL</text>
</g>
<g class="nonterminal">
<rect height="22" width="52" x="286" y="76"/>
<text x="312" y="92">
expr</text>
</g>
<path d=" M 198 87 h 10"/>
<path d=" M 276 87 h 10"/>
</g>
<path d=" M 22 130 v 0 a 12 12 0 0 0 12 12 m 660 0 h 0 a 12 12 0 0 0 12 -12 v 0"/>
<g class="sequence">
<g class="choice">
<path d=" M 34 142 h 24 m 116 0 h 24"/>
<g class="nonterminal">
<rect height="22" width="116" x="58" y="131"/>
<text x="116" y="147">
perform_test</text>
</g>
<path d=" M 34 142 a 12 12 0 0 1 12 12 v 9 m 140 0 v -9 a 12 12 0 0 1 12 -12"/>
<path d=" M 46 163 v 0 a 12 12 0 0 0 12 12 m 0 0 h 116 m -55 0 l -5 -5 m 0 10 l 5 -5 m 55 0 a 12 12 0 0 0 12 -12 v 0"/>
<g/>
</g>
<g class="nonterminal">
<rect height="22" width="84" x="208" y="131"/>
<text x="250" y="147">
_VARYING</text>
</g>
<g class="sequence">
<g class="nonterminal">
<rect height="22" width="140" x="302" y="131"/>
<text x="372" y="147">
perform_varying</text>
</g>
<g class="repeat">
<path d=" M 452 142 h 12 m 0 0 h 230 m -112 0 l -5 -5 m 0 10 l 5 -5 m 112 0 m -12 0 a 12 12 0 0 1 12 12 v 0 a 12 12 0 0 1 -12 12 m -218 0 h 0 a 12 12 0 0 1 -12 -12 v 0 a 12 12 0 0 1 12 -12"/>
<g class="sequence">
<g class="nonterminal">
<rect height="22" width="68" x="464" y="155"/>
<text x="498" y="171">
_AFTER</text>
</g>
<g class="nonterminal">
<rect height="22" width="140" x="542" y="155"/>
<text x="612" y="171">
perform_varying</text>
</g>
<path d=" M 532 166 h 10"/>
</g>
<g/>
</g>
<path d=" M 442 142 h 10"/>
</g>
<path d=" M 198 142 h 10"/>
<path d=" M 292 142 h 10"/>
</g>
</g>
</svg>
