<svg class="railroad" viewBox="0 0 484 42" xmlns="http://www.w3.org/2000/svg" xmlns:xlink="http://www.w3.org/1999/xlink">
<style type="text/css">

    svg.railroad {
        background-color: hsl(30, 20%, 95%);
        background-size: 15px 15px;
        background-image: linear-gradient(to right, rgba(30, 30, 30, .05) 1px, transparent 1px),
                          linear-gradient(to bottom, rgba(30, 30, 30, .05) 1px, transparent 1px);
    }

    svg.railroad path {
        stroke-width: 3px;
        stroke: black;
        fill: transparent;
    }

    svg.railroad .debug {
        stroke-width: 1px;
        stroke: red;
    }

    svg.railroad text {
        font: 14px monospace;
        text-anchor: middle;
    }

    svg.railroad .nonterminal text {
        font-weight: bold;
    }

    svg.railroad text.comment {
        font: italic 12px monospace;
    }

    svg.railroad rect {
        stroke-width: 3px;
        stroke: black;
        fill:hsl(-290, 70%, 90%);
    }

    svg.railroad g.labeledbox > rect {
        stroke-width: 1px;
        stroke: grey;
        stroke-dasharray: 5px;
        fill:rgba(90, 90, 150, .1);
    }</style>
<g class="sequence">
<g class="nonterminal">
<rect height="22" width="108" x="10" y="10"/>
<text x="64" y="26">
_identifier</text>
</g>
<g class="nonterminal">
<rect height="22" width="60" x="128" y="10"/>
<text x="158" y="26">
_FROM</text>
</g>
<g class="nonterminal">
<rect height="22" width="36" x="198" y="10"/>
<text x="216" y="26">
_x</text>
</g>
<g class="nonterminal">
<rect height="22" width="44" x="244" y="10"/>
<text x="266" y="26">
_BY</text>
</g>
<g class="nonterminal">
<rect height="22" width="36" x="298" y="10"/>
<text x="316" y="26">
_x</text>
</g>
<g class="nonterminal">
<rect height="22" width="68" x="344" y="10"/>
<text x="378" y="26">
_UNTIL</text>
</g>
<g class="nonterminal">
<rect height="22" width="52" x="422" y="10"/>
<text x="448" y="26">
expr</text>
</g>
<path d=" M 118 21 h 10"/>
<path d=" M 188 21 h 10"/>
<path d=" M 234 21 h 10"/>
<path d=" M 288 21 h 10"/>
<path d=" M 334 21 h 10"/>
<path d=" M 412 21 h 10"/>
</g>
</svg>
