<svg class="railroad" viewBox="0 0 1048 174" xmlns="http://www.w3.org/2000/svg" xmlns:xlink="http://www.w3.org/1999/xlink">
<style type="text/css">

    svg.railroad {
        background-color: hsl(30, 20%, 95%);
        background-size: 15px 15px;
        background-image: linear-gradient(to right, rgba(30, 30, 30, .05) 1px, transparent 1px),
                          linear-gradient(to bottom, rgba(30, 30, 30, .05) 1px, transparent 1px);
    }

    svg.railroad path {
        stroke-width: 3px;
        stroke: black;
        fill: transparent;
    }

    svg.railroad .debug {
        stroke-width: 1px;
        stroke: red;
    }

    svg.railroad text {
        font: 14px monospace;
        text-anchor: middle;
    }

    svg.railroad .nonterminal text {
        font-weight: bold;
    }

    svg.railroad text.comment {
        font: italic 12px monospace;
    }

    svg.railroad rect {
        stroke-width: 3px;
        stroke: black;
        fill:hsl(-290, 70%, 90%);
    }

    svg.railroad g.labeledbox > rect {
        stroke-width: 1px;
        stroke: grey;
        stroke-dasharray: 5px;
        fill:rgba(90, 90, 150, .1);
    }</style>
<g class="sequence">
<g class="choice">
<path d=" M 10 21 h 24 m 60 0 h 32"/>
<g class="nonterminal">
<rect height="22" width="60" x="34" y="10"/>
<text x="64" y="26">
INPUT</text>
</g>
<path d=" M 10 21 a 12 12 0 0 1 12 12 v 9 m 92 0 v -9 a 12 12 0 0 1 12 -12"/>
<path d=" M 22 42 v 33 m 92 0 v -33"/>
<path d=" M 22 75 v 33 m 92 0 v -33"/>
<path d=" M 22 42 v 0 a 12 12 0 0 0 12 12 m 68 0 h 0 a 12 12 0 0 0 12 -12 v 0"/>
<g class="nonterminal">
<rect height="22" width="68" x="34" y="43"/>
<text x="68" y="59">
OUTPUT</text>
</g>
<path d=" M 22 75 v 0 a 12 12 0 0 0 12 12 m 44 0 h 24 a 12 12 0 0 0 12 -12 v 0"/>
<g class="nonterminal">
<rect height="22" width="44" x="34" y="76"/>
<text x="56" y="92">
I_O</text>
</g>
<path d=" M 22 108 v 0 a 12 12 0 0 0 12 12 m 68 0 h 0 a 12 12 0 0 0 12 -12 v 0"/>
<g class="nonterminal">
<rect height="22" width="68" x="34" y="109"/>
<text x="68" y="125">
EXTEND</text>
</g>
</g>
<g class="choice">
<path d=" M 136 21 h 24 m 430 0 h 24"/>
<g class="sequence">
<g class="nonterminal">
<rect height="22" width="84" x="160" y="10"/>
<text x="202" y="26">
_SHARING</text>
</g>
<g class="choice">
<path d=" M 254 21 h 24 m 60 0 h 24"/>
<g class="nonterminal">
<rect height="22" width="60" x="278" y="10"/>
<text x="308" y="26">
_WITH</text>
</g>
<path d=" M 254 21 a 12 12 0 0 1 12 12 v 9 m 84 0 v -9 a 12 12 0 0 1 12 -12"/>
<path d=" M 266 42 v 0 a 12 12 0 0 0 12 12 m 0 0 h 60 m -27 0 l -5 -5 m 0 10 l 5 -5 m 27 0 a 12 12 0 0 0 12 -12 v 0"/>
<g/>
</g>
<g class="choice">
<path d=" M 372 21 h 24 m 170 0 h 24"/>
<g class="sequence">
<g class="nonterminal">
<rect height="22" width="44" x="396" y="10"/>
<text x="418" y="26">
ALL</text>
</g>
<g class="choice">
<path d=" M 450 21 h 24 m 68 0 h 24"/>
<g class="nonterminal">
<rect height="22" width="68" x="474" y="10"/>
<text x="508" y="26">
_OTHER</text>
</g>
<path d=" M 450 21 a 12 12 0 0 1 12 12 v 9 m 92 0 v -9 a 12 12 0 0 1 12 -12"/>
<path d=" M 462 42 v 0 a 12 12 0 0 0 12 12 m 0 0 h 68 m -31 0 l -5 -5 m 0 10 l 5 -5 m 31 0 a 12 12 0 0 0 12 -12 v 0"/>
<g/>
</g>
<path d=" M 440 21 h 10"/>
</g>
<path d=" M 372 21 a 12 12 0 0 1 12 12 v 31 m 194 0 v -31 a 12 12 0 0 1 12 -12"/>
<path d=" M 384 64 v 55 m 0 -24 l -5 -5 m 10 0 l -5 5 m 0 24 m 194 0 v -55 m 0 30 l -5 5 m 10 0 l -5 -5 m 0 -30"/>
<path d=" M 384 64 v 0 a 12 12 0 0 0 12 12 m 162 0 h 8 a 12 12 0 0 0 12 -12 v 0"/>
<g class="sequence">
<g class="nonterminal">
<rect height="22" width="36" x="396" y="65"/>
<text x="414" y="81">
NO</text>
</g>
<g class="choice">
<path d=" M 442 76 h 24 m 68 0 h 24"/>
<g class="nonterminal">
<rect height="22" width="68" x="466" y="65"/>
<text x="500" y="81">
_OTHER</text>
</g>
<path d=" M 442 76 a 12 12 0 0 1 12 12 v 9 m 92 0 v -9 a 12 12 0 0 1 12 -12"/>
<path d=" M 454 97 v 0 a 12 12 0 0 0 12 12 m 0 0 h 68 m -31 0 l -5 -5 m 0 10 l 5 -5 m 31 0 a 12 12 0 0 0 12 -12 v 0"/>
<g/>
</g>
<path d=" M 432 76 h 10"/>
</g>
<path d=" M 384 119 v 0 a 12 12 0 0 0 12 12 m 114 0 h 56 m -25 0 l -5 -5 m 0 10 l 5 -5 m 25 0 a 12 12 0 0 0 12 -12 v 0"/>
<g class="sequence">
<g class="nonterminal">
<rect height="22" width="52" x="396" y="120"/>
<text x="422" y="136">
READ</text>
</g>
<g class="nonterminal">
<rect height="22" width="52" x="458" y="120"/>
<text x="484" y="136">
ONLY</text>
</g>
<path d=" M 448 131 h 10"/>
</g>
</g>
<path d=" M 244 21 h 10"/>
<path d=" M 362 21 h 10"/>
</g>
<path d=" M 136 21 a 12 12 0 0 1 12 12 v 119 m 0 -56 l -5 -5 m 10 0 l -5 5 m 0 56 m 454 0 v -119 m 0 62 l -5 5 m 10 0 l -5 -5 m 0 -62 a 12 12 0 0 1 12 -12"/>
<path d=" M 148 152 v 0 a 12 12 0 0 0 12 12 m 0 0 h 430 m -212 0 l -5 -5 m 0 10 l 5 -5 m 212 0 a 12 12 0 0 0 12 -12 v 0"/>
<g/>
</g>
<g class="repeat">
<path d=" M 624 21 h 12 m 52 0 h 12 m -12 0 a 12 12 0 0 1 12 12 v 8 a 12 12 0 0 1 -12 12 m -52 0 h 0 a 12 12 0 0 1 -12 -12 v -8 a 12 12 0 0 1 12 -12"/>
<g class="nonterminal">
<rect height="22" width="52" x="636" y="42"/>
<text x="662" y="58">
WORD</text>
</g>
<g class="nonterminal">
<rect height="22" width="52" x="636" y="10"/>
<text x="662" y="26">
WORD</text>
</g>
</g>
<g class="choice">
<path d=" M 710 21 h 24 m 280 0 h 24"/>
<g class="choice">
<path d=" M 734 21 h 24 m 232 0 h 24"/>
<g class="sequence">
<g class="choice">
<path d=" M 758 21 h 24 m 60 0 h 24"/>
<g class="nonterminal">
<rect height="22" width="60" x="782" y="10"/>
<text x="812" y="26">
_WITH</text>
</g>
<path d=" M 758 21 a 12 12 0 0 1 12 12 v 9 m 84 0 v -9 a 12 12 0 0 1 12 -12"/>
<path d=" M 770 42 v 0 a 12 12 0 0 0 12 12 m 0 0 h 60 m -27 0 l -5 -5 m 0 10 l 5 -5 m 27 0 a 12 12 0 0 0 12 -12 v 0"/>
<g/>
</g>
<g class="nonterminal">
<rect height="22" width="36" x="876" y="10"/>
<text x="894" y="26">
NO</text>
</g>
<g class="nonterminal">
<rect height="22" width="68" x="922" y="10"/>
<text x="956" y="26">
REWIND</text>
</g>
<path d=" M 866 21 h 10"/>
<path d=" M 912 21 h 10"/>
</g>
<path d=" M 734 21 a 12 12 0 0 1 12 12 v 31 m 256 0 v -31 a 12 12 0 0 1 12 -12"/>
<path d=" M 746 64 v 0 a 12 12 0 0 0 12 12 m 170 0 h 62 m -28 0 l -5 -5 m 0 10 l 5 -5 m 28 0 a 12 12 0 0 0 12 -12 v 0"/>
<g class="sequence">
<g class="choice">
<path d=" M 758 76 h 24 m 60 0 h 24"/>
<g class="nonterminal">
<rect height="22" width="60" x="782" y="65"/>
<text x="812" y="81">
_WITH</text>
</g>
<path d=" M 758 76 a 12 12 0 0 1 12 12 v 9 m 84 0 v -9 a 12 12 0 0 1 12 -12"/>
<path d=" M 770 97 v 0 a 12 12 0 0 0 12 12 m 0 0 h 60 m -27 0 l -5 -5 m 0 10 l 5 -5 m 27 0 a 12 12 0 0 0 12 -12 v 0"/>
<g/>
</g>
<g class="nonterminal">
<rect height="22" width="52" x="876" y="65"/>
<text x="902" y="81">
LOCK</text>
</g>
<path d=" M 866 76 h 10"/>
</g>
</g>
<path d=" M 710 21 a 12 12 0 0 1 12 12 v 86 m 0 -40 l -5 -5 m 10 0 l -5 5 m 0 40 m 304 0 v -86 m 0 46 l -5 5 m 10 0 l -5 -5 m 0 -46 a 12 12 0 0 1 12 -12"/>
<path d=" M 722 119 v 0 a 12 12 0 0 0 12 12 m 0 0 h 280 m -137 0 l -5 -5 m 0 10 l 5 -5 m 137 0 a 12 12 0 0 0 12 -12 v 0"/>
<g/>
</g>
<path d=" M 126 21 h 10"/>
<path d=" M 614 21 h 10"/>
<path d=" M 700 21 h 10"/>
</g>
</svg>
