<svg class="railroad" viewBox="0 0 364 174" xmlns="http://www.w3.org/2000/svg" xmlns:xlink="http://www.w3.org/1999/xlink">
<style type="text/css">

    svg.railroad {
        background-color: hsl(30, 20%, 95%);
        background-size: 15px 15px;
        background-image: linear-gradient(to right, rgba(30, 30, 30, .05) 1px, transparent 1px),
                          linear-gradient(to bottom, rgba(30, 30, 30, .05) 1px, transparent 1px);
    }

    svg.railroad path {
        stroke-width: 3px;
        stroke: black;
        fill: transparent;
    }

    svg.railroad .debug {
        stroke-width: 1px;
        stroke: red;
    }

    svg.railroad text {
        font: 14px monospace;
        text-anchor: middle;
    }

    svg.railroad .nonterminal text {
        font-weight: bold;
    }

    svg.railroad text.comment {
        font: italic 12px monospace;
    }

    svg.railroad rect {
        stroke-width: 3px;
        stroke: black;
        fill:hsl(-290, 70%, 90%);
    }

    svg.railroad g.labeledbox > rect {
        stroke-width: 1px;
        stroke: grey;
        stroke-dasharray: 5px;
        fill:rgba(90, 90, 150, .1);
    }</style>
<g class="choice">
<path d=" M 10 21 h 24 m 162 0 h 158 m -76 0 l -5 -5 m 0 10 l 5 -5 m 76 0"/>
<g class="sequence">
<g class="nonterminal">
<rect height="22" width="92" x="34" y="10"/>
<text x="80" y="26">
_IGNORING</text>
</g>
<g class="nonterminal">
<rect height="22" width="60" x="136" y="10"/>
<text x="166" y="26">
_LOCK</text>
</g>
<path d=" M 126 21 h 10"/>
</g>
<path d=" M 10 21 a 12 12 0 0 1 12 12 v 9 m 320 0 v -9 a 12 12 0 0 1 12 -12"/>
<path d=" M 22 42 v 0 a 12 12 0 0 0 12 12 m 296 0 h 0 a 12 12 0 0 0 12 -12 v 0"/>
<g class="sequence">
<g class="choice">
<path d=" M 34 54 h 24 m 60 0 h 24"/>
<g class="nonterminal">
<rect height="22" width="60" x="58" y="43"/>
<text x="88" y="59">
_WITH</text>
</g>
<path d=" M 34 54 a 12 12 0 0 1 12 12 v 9 m 84 0 v -9 a 12 12 0 0 1 12 -12"/>
<path d=" M 46 75 v 0 a 12 12 0 0 0 12 12 m 0 0 h 60 m -27 0 l -5 -5 m 0 10 l 5 -5 m 27 0 a 12 12 0 0 0 12 -12 v 0"/>
<g/>
</g>
<g class="choice">
<path d=" M 152 54 h 24 m 52 0 h 102 m -48 0 l -5 -5 m 0 10 l 5 -5 m 48 0"/>
<g class="nonterminal">
<rect height="22" width="52" x="176" y="43"/>
<text x="202" y="59">
LOCK</text>
</g>
<path d=" M 152 54 a 12 12 0 0 1 12 12 v 9 m 154 0 v -9 a 12 12 0 0 1 12 -12"/>
<path d=" M 164 75 v 33 m 154 0 v -33"/>
<path d=" M 164 108 v 33 m 154 0 v -33"/>
<path d=" M 164 75 v 0 a 12 12 0 0 0 12 12 m 98 0 h 32 a 12 12 0 0 0 12 -12 v 0"/>
<g class="sequence">
<g class="nonterminal">
<rect height="22" width="36" x="176" y="76"/>
<text x="194" y="92">
NO</text>
</g>
<g class="nonterminal">
<rect height="22" width="52" x="222" y="76"/>
<text x="248" y="92">
LOCK</text>
</g>
<path d=" M 212 87 h 10"/>
</g>
<path d=" M 164 108 v 0 a 12 12 0 0 0 12 12 m 130 0 h 0 a 12 12 0 0 0 12 -12 v 0"/>
<g class="sequence">
<g class="nonterminal">
<rect height="22" width="68" x="176" y="109"/>
<text x="210" y="125">
IGNORE</text>
</g>
<g class="nonterminal">
<rect height="22" width="52" x="254" y="109"/>
<text x="280" y="125">
LOCK</text>
</g>
<path d=" M 244 120 h 10"/>
</g>
<path d=" M 164 141 v 0 a 12 12 0 0 0 12 12 m 52 0 h 78 m -36 0 l -5 -5 m 0 10 l 5 -5 m 36 0 a 12 12 0 0 0 12 -12 v 0"/>
<g class="nonterminal">
<rect height="22" width="52" x="176" y="142"/>
<text x="202" y="158">
WAIT</text>
</g>
</g>
<path d=" M 142 54 h 10"/>
</g>
</g>
</svg>
