<svg class="railroad" viewBox="0 0 310 238" xmlns="http://www.w3.org/2000/svg" xmlns:xlink="http://www.w3.org/1999/xlink">
<style type="text/css">

    svg.railroad {
        background-color: hsl(30, 20%, 95%);
        background-size: 15px 15px;
        background-image: linear-gradient(to right, rgba(30, 30, 30, .05) 1px, transparent 1px),
                          linear-gradient(to bottom, rgba(30, 30, 30, .05) 1px, transparent 1px);
    }

    svg.railroad path {
        stroke-width: 3px;
        stroke: black;
        fill: transparent;
    }

    svg.railroad .debug {
        stroke-width: 1px;
        stroke: red;
    }

    svg.railroad text {
        font: 14px monospace;
        text-anchor: middle;
    }

    svg.railroad .nonterminal text {
        font-weight: bold;
    }

    svg.railroad text.comment {
        font: italic 12px monospace;
    }

    svg.railroad rect {
        stroke-width: 3px;
        stroke: black;
        fill:hsl(-290, 70%, 90%);
    }

    svg.railroad g.labeledbox > rect {
        stroke-width: 1px;
        stroke: grey;
        stroke-dasharray: 5px;
        fill:rgba(90, 90, 150, .1);
    }</style>
<g class="sequence">
<g class="nonterminal">
<rect height="22" width="52" x="10" y="10"/>
<text x="36" y="26">
_SET</text>
</g>
<g class="choice">
<path d=" M 72 21 h 24 m 140 0 h 64 m -29 0 l -5 -5 m 0 10 l 5 -5 m 29 0"/>
<g class="nonterminal">
<rect height="22" width="140" x="96" y="10"/>
<text x="166" y="26">
set_environment</text>
</g>
<path d=" M 72 21 a 12 12 0 0 1 12 12 v 9 m 204 0 v -9 a 12 12 0 0 1 12 -12"/>
<path d=" M 84 42 v 33 m 204 0 v -33"/>
<path d=" M 84 75 v 33 m 204 0 v -33"/>
<path d=" M 84 108 v 65 m 0 -29 l -5 -5 m 10 0 l -5 5 m 0 29 m 204 0 v -65 m 0 35 l -5 5 m 10 0 l -5 -5 m 0 -35"/>
<path d=" M 84 42 v 0 a 12 12 0 0 0 12 12 m 68 0 h 112 m -53 0 l -5 -5 m 0 10 l 5 -5 m 53 0 a 12 12 0 0 0 12 -12 v 0"/>
<g class="nonterminal">
<rect height="22" width="68" x="96" y="43"/>
<text x="130" y="59">
set_to</text>
</g>
<path d=" M 84 75 v 0 a 12 12 0 0 0 12 12 m 108 0 h 72 m -33 0 l -5 -5 m 0 10 l 5 -5 m 33 0 a 12 12 0 0 0 12 -12 v 0"/>
<g class="nonterminal">
<rect height="22" width="108" x="96" y="76"/>
<text x="150" y="92">
set_up_down</text>
</g>
<path d=" M 84 108 v 0 a 12 12 0 0 0 12 12 m 148 0 h 32 a 12 12 0 0 0 12 -12 v 0"/>
<g class="repeat">
<path d=" M 96 120 h 12 m 124 0 h 12 m -12 0 a 12 12 0 0 1 12 12 v 8 a 12 12 0 0 1 -12 12 m -124 0 h 0 a 12 12 0 0 1 -12 -12 v -8 a 12 12 0 0 1 12 -12"/>
<g class="nonterminal">
<rect height="22" width="124" x="108" y="141"/>
<text x="170" y="157">
set_to_on_off</text>
</g>
<g class="nonterminal">
<rect height="22" width="124" x="108" y="109"/>
<text x="170" y="125">
set_to_on_off</text>
</g>
</g>
<path d=" M 84 173 v 0 a 12 12 0 0 0 12 12 m 180 0 h 0 a 12 12 0 0 0 12 -12 v 0"/>
<g class="repeat">
<path d=" M 96 185 h 12 m 156 0 h 12 m -12 0 a 12 12 0 0 1 12 12 v 8 a 12 12 0 0 1 -12 12 m -156 0 h 0 a 12 12 0 0 1 -12 -12 v -8 a 12 12 0 0 1 12 -12"/>
<g class="nonterminal">
<rect height="22" width="156" x="108" y="206"/>
<text x="186" y="222">
set_to_true_false</text>
</g>
<g class="nonterminal">
<rect height="22" width="156" x="108" y="174"/>
<text x="186" y="190">
set_to_true_false</text>
</g>
</g>
</g>
<path d=" M 62 21 h 10"/>
</g>
</svg>
