<svg class="railroad" viewBox="0 0 1756 97" xmlns="http://www.w3.org/2000/svg" xmlns:xlink="http://www.w3.org/1999/xlink">
<style type="text/css">

    svg.railroad {
        background-color: hsl(30, 20%, 95%);
        background-size: 15px 15px;
        background-image: linear-gradient(to right, rgba(30, 30, 30, .05) 1px, transparent 1px),
                          linear-gradient(to bottom, rgba(30, 30, 30, .05) 1px, transparent 1px);
    }

    svg.railroad path {
        stroke-width: 3px;
        stroke: black;
        fill: transparent;
    }

    svg.railroad .debug {
        stroke-width: 1px;
        stroke: red;
    }

    svg.railroad text {
        font: 14px monospace;
        text-anchor: middle;
    }

    svg.railroad .nonterminal text {
        font-weight: bold;
    }

    svg.railroad text.comment {
        font: italic 12px monospace;
    }

    svg.railroad rect {
        stroke-width: 3px;
        stroke: black;
        fill:hsl(-290, 70%, 90%);
    }

    svg.railroad g.labeledbox > rect {
        stroke-width: 1px;
        stroke: grey;
        stroke-dasharray: 5px;
        fill:rgba(90, 90, 150, .1);
    }</style>
<g class="sequence">
<g class="nonterminal">
<rect height="22" width="132" x="10" y="10"/>
<text x="76" y="26">
qualified_word</text>
</g>
<g class="repeat">
<path d=" M 152 21 h 12 m 0 0 h 96 m -45 0 l -5 -5 m 0 10 l 5 -5 m 45 0 m -12 0 a 12 12 0 0 1 12 12 v 0 a 12 12 0 0 1 -12 12 m -84 0 h 0 a 12 12 0 0 1 -12 -12 v 0 a 12 12 0 0 1 12 -12"/>
<g class="nonterminal">
<rect height="22" width="84" x="164" y="34"/>
<text x="206" y="50">
sort_key</text>
</g>
<g/>
</g>
<g class="choice">
<path d=" M 270 21 h 24 m 398 0 h 24"/>
<g class="sequence">
<g class="choice">
<path d=" M 294 21 h 24 m 60 0 h 24"/>
<g class="nonterminal">
<rect height="22" width="60" x="318" y="10"/>
<text x="348" y="26">
_WITH</text>
</g>
<path d=" M 294 21 a 12 12 0 0 1 12 12 v 9 m 84 0 v -9 a 12 12 0 0 1 12 -12"/>
<path d=" M 306 42 v 0 a 12 12 0 0 0 12 12 m 0 0 h 60 m -27 0 l -5 -5 m 0 10 l 5 -5 m 27 0 a 12 12 0 0 0 12 -12 v 0"/>
<g/>
</g>
<g class="nonterminal">
<rect height="22" width="100" x="412" y="10"/>
<text x="462" y="26">
DUPLICATES</text>
</g>
<g class="choice">
<path d=" M 522 21 h 24 m 44 0 h 24"/>
<g class="nonterminal">
<rect height="22" width="44" x="546" y="10"/>
<text x="568" y="26">
_IN</text>
</g>
<path d=" M 522 21 a 12 12 0 0 1 12 12 v 9 m 68 0 v -9 a 12 12 0 0 1 12 -12"/>
<path d=" M 534 42 v 0 a 12 12 0 0 0 12 12 m 0 0 h 44 a 12 12 0 0 0 12 -12 v 0"/>
<g/>
</g>
<g class="nonterminal">
<rect height="22" width="68" x="624" y="10"/>
<text x="658" y="26">
_ORDER</text>
</g>
<path d=" M 402 21 h 10"/>
<path d=" M 512 21 h 10"/>
<path d=" M 614 21 h 10"/>
</g>
<path d=" M 270 21 a 12 12 0 0 1 12 12 v 31 m 422 0 v -31 a 12 12 0 0 1 12 -12"/>
<path d=" M 282 64 v 0 a 12 12 0 0 0 12 12 m 0 0 h 398 m -196 0 l -5 -5 m 0 10 l 5 -5 m 196 0 a 12 12 0 0 0 12 -12 v 0"/>
<g/>
</g>
<g class="choice">
<path d=" M 726 21 h 24 m 376 0 h 24"/>
<g class="sequence">
<g class="nonterminal">
<rect height="22" width="132" x="750" y="10"/>
<text x="816" y="26">
_coll_sequence</text>
</g>
<g class="choice">
<path d=" M 892 21 h 24 m 44 0 h 24"/>
<g class="nonterminal">
<rect height="22" width="44" x="916" y="10"/>
<text x="938" y="26">
_IS</text>
</g>
<path d=" M 892 21 a 12 12 0 0 1 12 12 v 9 m 68 0 v -9 a 12 12 0 0 1 12 -12"/>
<path d=" M 904 42 v 0 a 12 12 0 0 0 12 12 m 0 0 h 44 a 12 12 0 0 0 12 -12 v 0"/>
<g/>
</g>
<g class="nonterminal">
<rect height="22" width="132" x="994" y="10"/>
<text x="1060" y="26">
qualified_word</text>
</g>
<path d=" M 882 21 h 10"/>
<path d=" M 984 21 h 10"/>
</g>
<path d=" M 726 21 a 12 12 0 0 1 12 12 v 31 m 400 0 v -31 a 12 12 0 0 1 12 -12"/>
<path d=" M 738 64 v 0 a 12 12 0 0 0 12 12 m 0 0 h 376 m -185 0 l -5 -5 m 0 10 l 5 -5 m 185 0 a 12 12 0 0 0 12 -12 v 0"/>
<g/>
</g>
<g class="choice">
<path d=" M 1160 21 h 24 m 236 0 h 24"/>
<g class="choice">
<path d=" M 1184 21 h 24 m 148 0 h 64 m -29 0 l -5 -5 m 0 10 l 5 -5 m 29 0"/>
<g class="nonterminal">
<rect height="22" width="148" x="1208" y="10"/>
<text x="1282" y="26">
sort_input_using</text>
</g>
<path d=" M 1184 21 a 12 12 0 0 1 12 12 v 9 m 212 0 v -9 a 12 12 0 0 1 12 -12"/>
<path d=" M 1196 42 v 0 a 12 12 0 0 0 12 12 m 188 0 h 0 a 12 12 0 0 0 12 -12 v 0"/>
<g class="nonterminal">
<rect height="22" width="188" x="1208" y="43"/>
<text x="1302" y="59">
sort_input_procedure</text>
</g>
</g>
<path d=" M 1160 21 a 12 12 0 0 1 12 12 v 42 m 260 0 v -42 a 12 12 0 0 1 12 -12"/>
<path d=" M 1172 75 v 0 a 12 12 0 0 0 12 12 m 0 0 h 236 m -115 0 l -5 -5 m 0 10 l 5 -5 m 115 0 a 12 12 0 0 0 12 -12 v 0"/>
<g/>
</g>
<g class="choice">
<path d=" M 1454 21 h 24 m 244 0 h 24"/>
<g class="choice">
<path d=" M 1478 21 h 24 m 164 0 h 56 m -25 0 l -5 -5 m 0 10 l 5 -5 m 25 0"/>
<g class="nonterminal">
<rect height="22" width="164" x="1502" y="10"/>
<text x="1584" y="26">
sort_output_giving</text>
</g>
<path d=" M 1478 21 a 12 12 0 0 1 12 12 v 9 m 220 0 v -9 a 12 12 0 0 1 12 -12"/>
<path d=" M 1490 42 v 0 a 12 12 0 0 0 12 12 m 196 0 h 0 a 12 12 0 0 0 12 -12 v 0"/>
<g class="nonterminal">
<rect height="22" width="196" x="1502" y="43"/>
<text x="1600" y="59">
sort_output_procedure</text>
</g>
</g>
<path d=" M 1454 21 a 12 12 0 0 1 12 12 v 42 m 268 0 v -42 a 12 12 0 0 1 12 -12"/>
<path d=" M 1466 75 v 0 a 12 12 0 0 0 12 12 m 0 0 h 244 m -119 0 l -5 -5 m 0 10 l 5 -5 m 119 0 a 12 12 0 0 0 12 -12 v 0"/>
<g/>
</g>
<path d=" M 142 21 h 10"/>
<path d=" M 260 21 h 10"/>
<path d=" M 716 21 h 10"/>
<path d=" M 1150 21 h 10"/>
<path d=" M 1444 21 h 10"/>
</g>
</svg>
