<svg class="railroad" viewBox="0 0 362 75" xmlns="http://www.w3.org/2000/svg" xmlns:xlink="http://www.w3.org/1999/xlink">
<style type="text/css">

    svg.railroad {
        background-color: hsl(30, 20%, 95%);
        background-size: 15px 15px;
        background-image: linear-gradient(to right, rgba(30, 30, 30, .05) 1px, transparent 1px),
                          linear-gradient(to bottom, rgba(30, 30, 30, .05) 1px, transparent 1px);
    }

    svg.railroad path {
        stroke-width: 3px;
        stroke: black;
        fill: transparent;
    }

    svg.railroad .debug {
        stroke-width: 1px;
        stroke: red;
    }

    svg.railroad text {
        font: 14px monospace;
        text-anchor: middle;
    }

    svg.railroad .nonterminal text {
        font-weight: bold;
    }

    svg.railroad text.comment {
        font: italic 12px monospace;
    }

    svg.railroad rect {
        stroke-width: 3px;
        stroke: black;
        fill:hsl(-290, 70%, 90%);
    }

    svg.railroad g.labeledbox > rect {
        stroke-width: 1px;
        stroke: grey;
        stroke-dasharray: 5px;
        fill:rgba(90, 90, 150, .1);
    }</style>
<g class="sequence">
<g class="nonterminal">
<rect height="22" width="132" x="10" y="10"/>
<text x="76" y="26">
_target_x_list</text>
</g>
<g class="choice">
<path d=" M 152 21 h 24 m 36 0 h 40"/>
<g class="nonterminal">
<rect height="22" width="36" x="176" y="10"/>
<text x="194" y="26">
UP</text>
</g>
<path d=" M 152 21 a 12 12 0 0 1 12 12 v 9 m 76 0 v -9 a 12 12 0 0 1 12 -12"/>
<path d=" M 164 42 v 0 a 12 12 0 0 0 12 12 m 52 0 h 0 a 12 12 0 0 0 12 -12 v 0"/>
<g class="nonterminal">
<rect height="22" width="52" x="176" y="43"/>
<text x="202" y="59">
DOWN</text>
</g>
</g>
<g class="nonterminal">
<rect height="22" width="44" x="262" y="10"/>
<text x="284" y="26">
_BY</text>
</g>
<g class="nonterminal">
<rect height="22" width="36" x="316" y="10"/>
<text x="334" y="26">
_x</text>
</g>
<path d=" M 142 21 h 10"/>
<path d=" M 252 21 h 10"/>
<path d=" M 306 21 h 10"/>
</g>
</svg>
