<svg class="railroad" viewBox="0 0 324 75" xmlns="http://www.w3.org/2000/svg" xmlns:xlink="http://www.w3.org/1999/xlink">
<style type="text/css">

    svg.railroad {
        background-color: hsl(30, 20%, 95%);
        background-size: 15px 15px;
        background-image: linear-gradient(to right, rgba(30, 30, 30, .05) 1px, transparent 1px),
                          linear-gradient(to bottom, rgba(30, 30, 30, .05) 1px, transparent 1px);
    }

    svg.railroad path {
        stroke-width: 3px;
        stroke: black;
        fill: transparent;
    }

    svg.railroad .debug {
        stroke-width: 1px;
        stroke: red;
    }

    svg.railroad text {
        font: 14px monospace;
        text-anchor: middle;
    }

    svg.railroad .nonterminal text {
        font-weight: bold;
    }

    svg.railroad text.comment {
        font: italic 12px monospace;
    }

    svg.railroad rect {
        stroke-width: 3px;
        stroke: black;
        fill:hsl(-290, 70%, 90%);
    }

    svg.railroad g.labeledbox > rect {
        stroke-width: 1px;
        stroke: grey;
        stroke-dasharray: 5px;
        fill:rgba(90, 90, 150, .1);
    }</style>
<g class="sequence">
<g class="repeat">
<path d=" M 10 21 h 12 m 124 0 h 12 m -12 0 a 12 12 0 0 1 12 12 v 8 a 12 12 0 0 1 -12 12 m -124 0 h 0 a 12 12 0 0 1 -12 -12 v -8 a 12 12 0 0 1 12 -12"/>
<g class="nonterminal">
<rect height="22" width="124" x="22" y="42"/>
<text x="84" y="58">
MNEMONIC_NAME</text>
</g>
<g class="nonterminal">
<rect height="22" width="124" x="22" y="10"/>
<text x="84" y="26">
MNEMONIC_NAME</text>
</g>
</g>
<g class="nonterminal">
<rect height="22" width="44" x="168" y="10"/>
<text x="190" y="26">
_TO</text>
</g>
<g class="choice">
<path d=" M 222 21 h 24 m 36 0 h 32"/>
<g class="nonterminal">
<rect height="22" width="36" x="246" y="10"/>
<text x="264" y="26">
ON</text>
</g>
<path d=" M 222 21 a 12 12 0 0 1 12 12 v 9 m 68 0 v -9 a 12 12 0 0 1 12 -12"/>
<path d=" M 234 42 v 0 a 12 12 0 0 0 12 12 m 44 0 h 0 a 12 12 0 0 0 12 -12 v 0"/>
<g class="nonterminal">
<rect height="22" width="44" x="246" y="43"/>
<text x="268" y="59">
OFF</text>
</g>
</g>
<path d=" M 158 21 h 10"/>
<path d=" M 212 21 h 10"/>
</g>
</svg>
