<svg class="railroad" viewBox="0 0 600 74" xmlns="http://www.w3.org/2000/svg" xmlns:xlink="http://www.w3.org/1999/xlink">
<style type="text/css">

    svg.railroad {
        background-color: hsl(30, 20%, 95%);
        background-size: 15px 15px;
        background-image: linear-gradient(to right, rgba(30, 30, 30, .05) 1px, transparent 1px),
                          linear-gradient(to bottom, rgba(30, 30, 30, .05) 1px, transparent 1px);
    }

    svg.railroad path {
        stroke-width: 3px;
        stroke: black;
        fill: transparent;
    }

    svg.railroad .debug {
        stroke-width: 1px;
        stroke: red;
    }

    svg.railroad text {
        font: 14px monospace;
        text-anchor: middle;
    }

    svg.railroad .nonterminal text {
        font-weight: bold;
    }

    svg.railroad text.comment {
        font: italic 12px monospace;
    }

    svg.railroad rect {
        stroke-width: 3px;
        stroke: black;
        fill:hsl(-290, 70%, 90%);
    }

    svg.railroad g.labeledbox > rect {
        stroke-width: 1px;
        stroke: grey;
        stroke-dasharray: 5px;
        fill:rgba(90, 90, 150, .1);
    }</style>
<g class="sequence">
<g class="nonterminal">
<rect height="22" width="76" x="10" y="10"/>
<text x="48" y="26">
_STRING</text>
</g>
<g class="repeat">
<path d=" M 96 21 h 12 m 108 0 h 12 m -12 0 a 12 12 0 0 1 12 12 v 8 a 12 12 0 0 1 -12 12 m -108 0 h 0 a 12 12 0 0 1 -12 -12 v -8 a 12 12 0 0 1 12 -12"/>
<g class="nonterminal">
<rect height="22" width="108" x="108" y="42"/>
<text x="162" y="58">
string_item</text>
</g>
<g class="nonterminal">
<rect height="22" width="108" x="108" y="10"/>
<text x="162" y="26">
string_item</text>
</g>
</g>
<g class="nonterminal">
<rect height="22" width="60" x="238" y="10"/>
<text x="268" y="26">
_INTO</text>
</g>
<g class="nonterminal">
<rect height="22" width="108" x="308" y="10"/>
<text x="362" y="26">
_identifier</text>
</g>
<g class="choice">
<path d=" M 426 21 h 24 m 116 0 h 24"/>
<g class="nonterminal">
<rect height="22" width="116" x="450" y="10"/>
<text x="508" y="26">
with_pointer</text>
</g>
<path d=" M 426 21 a 12 12 0 0 1 12 12 v 9 m 140 0 v -9 a 12 12 0 0 1 12 -12"/>
<path d=" M 438 42 v 0 a 12 12 0 0 0 12 12 m 0 0 h 116 m -55 0 l -5 -5 m 0 10 l 5 -5 m 55 0 a 12 12 0 0 0 12 -12 v 0"/>
<g/>
</g>
<path d=" M 86 21 h 10"/>
<path d=" M 228 21 h 10"/>
<path d=" M 298 21 h 10"/>
<path d=" M 416 21 h 10"/>
</g>
</svg>
