<svg class="railroad" viewBox="0 0 372 108" xmlns="http://www.w3.org/2000/svg" xmlns:xlink="http://www.w3.org/1999/xlink">
<style type="text/css">

    svg.railroad {
        background-color: hsl(30, 20%, 95%);
        background-size: 15px 15px;
        background-image: linear-gradient(to right, rgba(30, 30, 30, .05) 1px, transparent 1px),
                          linear-gradient(to bottom, rgba(30, 30, 30, .05) 1px, transparent 1px);
    }

    svg.railroad path {
        stroke-width: 3px;
        stroke: black;
        fill: transparent;
    }

    svg.railroad .debug {
        stroke-width: 1px;
        stroke: red;
    }

    svg.railroad text {
        font: 14px monospace;
        text-anchor: middle;
    }

    svg.railroad .nonterminal text {
        font-weight: bold;
    }

    svg.railroad text.comment {
        font: italic 12px monospace;
    }

    svg.railroad rect {
        stroke-width: 3px;
        stroke: black;
        fill:hsl(-290, 70%, 90%);
    }

    svg.railroad g.labeledbox > rect {
        stroke-width: 1px;
        stroke: grey;
        stroke-dasharray: 5px;
        fill:rgba(90, 90, 150, .1);
    }</style>
<g class="choice">
<path d=" M 10 21 h 24 m 36 0 h 292 m -143 0 l -5 -5 m 0 10 l 5 -5 m 143 0"/>
<g class="nonterminal">
<rect height="22" width="36" x="34" y="10"/>
<text x="52" y="26">
_x</text>
</g>
<path d=" M 10 21 a 12 12 0 0 1 12 12 v 9 m 328 0 v -9 a 12 12 0 0 1 12 -12"/>
<path d=" M 22 42 v 0 a 12 12 0 0 0 12 12 m 304 0 h 0 a 12 12 0 0 0 12 -12 v 0"/>
<g class="sequence">
<g class="nonterminal">
<rect height="22" width="92" x="34" y="43"/>
<text x="80" y="59">
DELIMITED</text>
</g>
<g class="choice">
<path d=" M 136 54 h 24 m 44 0 h 24"/>
<g class="nonterminal">
<rect height="22" width="44" x="160" y="43"/>
<text x="182" y="59">
_BY</text>
</g>
<path d=" M 136 54 a 12 12 0 0 1 12 12 v 9 m 68 0 v -9 a 12 12 0 0 1 12 -12"/>
<path d=" M 148 75 v 0 a 12 12 0 0 0 12 12 m 0 0 h 44 a 12 12 0 0 0 12 -12 v 0"/>
<g/>
</g>
<g class="choice">
<path d=" M 238 54 h 24 m 52 0 h 24"/>
<g class="nonterminal">
<rect height="22" width="52" x="262" y="43"/>
<text x="288" y="59">
SIZE</text>
</g>
<path d=" M 238 54 a 12 12 0 0 1 12 12 v 9 m 76 0 v -9 a 12 12 0 0 1 12 -12"/>
<path d=" M 250 75 v 0 a 12 12 0 0 0 12 12 m 36 0 h 16 a 12 12 0 0 0 12 -12 v 0"/>
<g class="nonterminal">
<rect height="22" width="36" x="262" y="76"/>
<text x="280" y="92">
_x</text>
</g>
</g>
<path d=" M 126 54 h 10"/>
<path d=" M 228 54 h 10"/>
</g>
</g>
</svg>
