<svg class="railroad" viewBox="0 0 1108 74" xmlns="http://www.w3.org/2000/svg" xmlns:xlink="http://www.w3.org/1999/xlink">
<style type="text/css">

    svg.railroad {
        background-color: hsl(30, 20%, 95%);
        background-size: 15px 15px;
        background-image: linear-gradient(to right, rgba(30, 30, 30, .05) 1px, transparent 1px),
                          linear-gradient(to bottom, rgba(30, 30, 30, .05) 1px, transparent 1px);
    }

    svg.railroad path {
        stroke-width: 3px;
        stroke: black;
        fill: transparent;
    }

    svg.railroad .debug {
        stroke-width: 1px;
        stroke: red;
    }

    svg.railroad text {
        font: 14px monospace;
        text-anchor: middle;
    }

    svg.railroad .nonterminal text {
        font-weight: bold;
    }

    svg.railroad text.comment {
        font: italic 12px monospace;
    }

    svg.railroad rect {
        stroke-width: 3px;
        stroke: black;
        fill:hsl(-290, 70%, 90%);
    }

    svg.railroad g.labeledbox > rect {
        stroke-width: 1px;
        stroke: grey;
        stroke-dasharray: 5px;
        fill:rgba(90, 90, 150, .1);
    }</style>
<g class="sequence">
<g class="nonterminal">
<rect height="22" width="92" x="10" y="10"/>
<text x="56" y="26">
_UNSTRING</text>
</g>
<g class="nonterminal">
<rect height="22" width="108" x="112" y="10"/>
<text x="166" y="26">
_identifier</text>
</g>
<g class="choice">
<path d=" M 230 21 h 24 m 164 0 h 24"/>
<g class="nonterminal">
<rect height="22" width="164" x="254" y="10"/>
<text x="336" y="26">
unstring_delimited</text>
</g>
<path d=" M 230 21 a 12 12 0 0 1 12 12 v 9 m 188 0 v -9 a 12 12 0 0 1 12 -12"/>
<path d=" M 242 42 v 0 a 12 12 0 0 0 12 12 m 0 0 h 164 m -79 0 l -5 -5 m 0 10 l 5 -5 m 79 0 a 12 12 0 0 0 12 -12 v 0"/>
<g/>
</g>
<g class="nonterminal">
<rect height="22" width="60" x="452" y="10"/>
<text x="482" y="26">
_INTO</text>
</g>
<g class="repeat">
<path d=" M 522 21 h 12 m 164 0 h 12 m -12 0 a 12 12 0 0 1 12 12 v 8 a 12 12 0 0 1 -12 12 m -164 0 h 0 a 12 12 0 0 1 -12 -12 v -8 a 12 12 0 0 1 12 -12"/>
<g class="nonterminal">
<rect height="22" width="164" x="534" y="42"/>
<text x="616" y="58">
unstring_into_item</text>
</g>
<g class="nonterminal">
<rect height="22" width="164" x="534" y="10"/>
<text x="616" y="26">
unstring_into_item</text>
</g>
</g>
<g class="choice">
<path d=" M 720 21 h 24 m 116 0 h 24"/>
<g class="nonterminal">
<rect height="22" width="116" x="744" y="10"/>
<text x="802" y="26">
with_pointer</text>
</g>
<path d=" M 720 21 a 12 12 0 0 1 12 12 v 9 m 140 0 v -9 a 12 12 0 0 1 12 -12"/>
<path d=" M 732 42 v 0 a 12 12 0 0 0 12 12 m 0 0 h 116 m -55 0 l -5 -5 m 0 10 l 5 -5 m 55 0 a 12 12 0 0 0 12 -12 v 0"/>
<g/>
</g>
<g class="choice">
<path d=" M 894 21 h 24 m 156 0 h 24"/>
<g class="nonterminal">
<rect height="22" width="156" x="918" y="10"/>
<text x="996" y="26">
unstring_tallying</text>
</g>
<path d=" M 894 21 a 12 12 0 0 1 12 12 v 9 m 180 0 v -9 a 12 12 0 0 1 12 -12"/>
<path d=" M 906 42 v 0 a 12 12 0 0 0 12 12 m 0 0 h 156 m -75 0 l -5 -5 m 0 10 l 5 -5 m 75 0 a 12 12 0 0 0 12 -12 v 0"/>
<g/>
</g>
<path d=" M 102 21 h 10"/>
<path d=" M 220 21 h 10"/>
<path d=" M 442 21 h 10"/>
<path d=" M 512 21 h 10"/>
<path d=" M 710 21 h 10"/>
<path d=" M 884 21 h 10"/>
</g>
</svg>
