<svg class="railroad" viewBox="0 0 852 86" xmlns="http://www.w3.org/2000/svg" xmlns:xlink="http://www.w3.org/1999/xlink">
<style type="text/css">

    svg.railroad {
        background-color: hsl(30, 20%, 95%);
        background-size: 15px 15px;
        background-image: linear-gradient(to right, rgba(30, 30, 30, .05) 1px, transparent 1px),
                          linear-gradient(to bottom, rgba(30, 30, 30, .05) 1px, transparent 1px);
    }

    svg.railroad path {
        stroke-width: 3px;
        stroke: black;
        fill: transparent;
    }

    svg.railroad .debug {
        stroke-width: 1px;
        stroke: red;
    }

    svg.railroad text {
        font: 14px monospace;
        text-anchor: middle;
    }

    svg.railroad .nonterminal text {
        font-weight: bold;
    }

    svg.railroad text.comment {
        font: italic 12px monospace;
    }

    svg.railroad rect {
        stroke-width: 3px;
        stroke: black;
        fill:hsl(-290, 70%, 90%);
    }

    svg.railroad g.labeledbox > rect {
        stroke-width: 1px;
        stroke: grey;
        stroke-dasharray: 5px;
        fill:rgba(90, 90, 150, .1);
    }</style>
<g class="sequence">
<g class="nonterminal">
<rect height="22" width="108" x="10" y="10"/>
<text x="64" y="26">
_identifier</text>
</g>
<g class="choice">
<path d=" M 128 21 h 24 m 320 0 h 24"/>
<g class="sequence">
<g class="nonterminal">
<rect height="22" width="100" x="152" y="10"/>
<text x="202" y="26">
_DELIMITER</text>
</g>
<g class="choice">
<path d=" M 262 21 h 24 m 44 0 h 24"/>
<g class="nonterminal">
<rect height="22" width="44" x="286" y="10"/>
<text x="308" y="26">
_IN</text>
</g>
<path d=" M 262 21 a 12 12 0 0 1 12 12 v 9 m 68 0 v -9 a 12 12 0 0 1 12 -12"/>
<path d=" M 274 42 v 0 a 12 12 0 0 0 12 12 m 0 0 h 44 a 12 12 0 0 0 12 -12 v 0"/>
<g/>
</g>
<g class="nonterminal">
<rect height="22" width="108" x="364" y="10"/>
<text x="418" y="26">
_identifier</text>
</g>
<path d=" M 252 21 h 10"/>
<path d=" M 354 21 h 10"/>
</g>
<path d=" M 128 21 a 12 12 0 0 1 12 12 v 31 m 344 0 v -31 a 12 12 0 0 1 12 -12"/>
<path d=" M 140 64 v 0 a 12 12 0 0 0 12 12 m 0 0 h 320 m -157 0 l -5 -5 m 0 10 l 5 -5 m 157 0 a 12 12 0 0 0 12 -12 v 0"/>
<g/>
</g>
<g class="choice">
<path d=" M 506 21 h 24 m 288 0 h 24"/>
<g class="sequence">
<g class="nonterminal">
<rect height="22" width="68" x="530" y="10"/>
<text x="564" y="26">
_COUNT</text>
</g>
<g class="choice">
<path d=" M 608 21 h 24 m 44 0 h 24"/>
<g class="nonterminal">
<rect height="22" width="44" x="632" y="10"/>
<text x="654" y="26">
_IN</text>
</g>
<path d=" M 608 21 a 12 12 0 0 1 12 12 v 9 m 68 0 v -9 a 12 12 0 0 1 12 -12"/>
<path d=" M 620 42 v 0 a 12 12 0 0 0 12 12 m 0 0 h 44 a 12 12 0 0 0 12 -12 v 0"/>
<g/>
</g>
<g class="nonterminal">
<rect height="22" width="108" x="710" y="10"/>
<text x="764" y="26">
_identifier</text>
</g>
<path d=" M 598 21 h 10"/>
<path d=" M 700 21 h 10"/>
</g>
<path d=" M 506 21 a 12 12 0 0 1 12 12 v 31 m 312 0 v -31 a 12 12 0 0 1 12 -12"/>
<path d=" M 518 64 v 0 a 12 12 0 0 0 12 12 m 0 0 h 288 m -141 0 l -5 -5 m 0 10 l 5 -5 m 141 0 a 12 12 0 0 0 12 -12 v 0"/>
<g/>
</g>
<path d=" M 118 21 h 10"/>
<path d=" M 496 21 h 10"/>
</g>
</svg>
