<svg class="railroad" viewBox="0 0 1026 206" xmlns="http://www.w3.org/2000/svg" xmlns:xlink="http://www.w3.org/1999/xlink">
<style type="text/css">

    svg.railroad {
        background-color: hsl(30, 20%, 95%);
        background-size: 15px 15px;
        background-image: linear-gradient(to right, rgba(30, 30, 30, .05) 1px, transparent 1px),
                          linear-gradient(to bottom, rgba(30, 30, 30, .05) 1px, transparent 1px);
    }

    svg.railroad path {
        stroke-width: 3px;
        stroke: black;
        fill: transparent;
    }

    svg.railroad .debug {
        stroke-width: 1px;
        stroke: red;
    }

    svg.railroad text {
        font: 14px monospace;
        text-anchor: middle;
    }

    svg.railroad .nonterminal text {
        font-weight: bold;
    }

    svg.railroad text.comment {
        font: italic 12px monospace;
    }

    svg.railroad rect {
        stroke-width: 3px;
        stroke: black;
        fill:hsl(-290, 70%, 90%);
    }

    svg.railroad g.labeledbox > rect {
        stroke-width: 1px;
        stroke: grey;
        stroke-dasharray: 5px;
        fill:rgba(90, 90, 150, .1);
    }</style>
<g class="sequence">
<g class="nonterminal">
<rect height="22" width="52" x="10" y="10"/>
<text x="36" y="26">
_USE</text>
</g>
<g class="choice">
<path d=" M 72 21 h 24 m 68 0 h 24"/>
<g class="nonterminal">
<rect height="22" width="68" x="96" y="10"/>
<text x="130" y="26">
GLOBAL</text>
</g>
<path d=" M 72 21 a 12 12 0 0 1 12 12 v 9 m 92 0 v -9 a 12 12 0 0 1 12 -12"/>
<path d=" M 84 42 v 0 a 12 12 0 0 0 12 12 m 0 0 h 68 m -31 0 l -5 -5 m 0 10 l 5 -5 m 31 0 a 12 12 0 0 0 12 -12 v 0"/>
<g/>
</g>
<g class="choice">
<path d=" M 198 21 h 24 m 68 0 h 24"/>
<g class="nonterminal">
<rect height="22" width="68" x="222" y="10"/>
<text x="256" y="26">
_AFTER</text>
</g>
<path d=" M 198 21 a 12 12 0 0 1 12 12 v 9 m 92 0 v -9 a 12 12 0 0 1 12 -12"/>
<path d=" M 210 42 v 0 a 12 12 0 0 0 12 12 m 0 0 h 68 m -31 0 l -5 -5 m 0 10 l 5 -5 m 31 0 a 12 12 0 0 0 12 -12 v 0"/>
<g/>
</g>
<g class="choice">
<path d=" M 324 21 h 24 m 92 0 h 24"/>
<g class="nonterminal">
<rect height="22" width="92" x="348" y="10"/>
<text x="394" y="26">
_STANDARD</text>
</g>
<path d=" M 324 21 a 12 12 0 0 1 12 12 v 9 m 116 0 v -9 a 12 12 0 0 1 12 -12"/>
<path d=" M 336 42 v 0 a 12 12 0 0 0 12 12 m 0 0 h 92 m -43 0 l -5 -5 m 0 10 l 5 -5 m 43 0 a 12 12 0 0 0 12 -12 v 0"/>
<g/>
</g>
<g class="choice">
<path d=" M 474 21 h 24 m 100 0 h 24"/>
<g class="nonterminal">
<rect height="22" width="100" x="498" y="10"/>
<text x="548" y="26">
_EXCEPTION</text>
</g>
<path d=" M 474 21 a 12 12 0 0 1 12 12 v 9 m 124 0 v -9 a 12 12 0 0 1 12 -12"/>
<path d=" M 486 42 v 0 a 12 12 0 0 0 12 12 m 68 0 h 32 a 12 12 0 0 0 12 -12 v 0"/>
<g class="nonterminal">
<rect height="22" width="68" x="498" y="43"/>
<text x="532" y="59">
_ERROR</text>
</g>
</g>
<g class="choice">
<path d=" M 632 21 h 24 m 100 0 h 24"/>
<g class="nonterminal">
<rect height="22" width="100" x="656" y="10"/>
<text x="706" y="26">
_PROCEDURE</text>
</g>
<path d=" M 632 21 a 12 12 0 0 1 12 12 v 9 m 124 0 v -9 a 12 12 0 0 1 12 -12"/>
<path d=" M 644 42 v 0 a 12 12 0 0 0 12 12 m 0 0 h 100 m -47 0 l -5 -5 m 0 10 l 5 -5 m 47 0 a 12 12 0 0 0 12 -12 v 0"/>
<g/>
</g>
<g class="choice">
<path d=" M 790 21 h 24 m 44 0 h 24"/>
<g class="nonterminal">
<rect height="22" width="44" x="814" y="10"/>
<text x="836" y="26">
_ON</text>
</g>
<path d=" M 790 21 a 12 12 0 0 1 12 12 v 9 m 68 0 v -9 a 12 12 0 0 1 12 -12"/>
<path d=" M 802 42 v 0 a 12 12 0 0 0 12 12 m 0 0 h 44 a 12 12 0 0 0 12 -12 v 0"/>
<g/>
</g>
<g class="choice">
<path d=" M 892 21 h 24 m 76 0 h 24"/>
<g class="repeat">
<path d=" M 916 21 h 12 m 52 0 h 12 m -12 0 a 12 12 0 0 1 12 12 v 8 a 12 12 0 0 1 -12 12 m -52 0 h 0 a 12 12 0 0 1 -12 -12 v -8 a 12 12 0 0 1 12 -12"/>
<g class="nonterminal">
<rect height="22" width="52" x="928" y="42"/>
<text x="954" y="58">
WORD</text>
</g>
<g class="nonterminal">
<rect height="22" width="52" x="928" y="10"/>
<text x="954" y="26">
WORD</text>
</g>
</g>
<path d=" M 892 21 a 12 12 0 0 1 12 12 v 41 m 100 0 v -41 a 12 12 0 0 1 12 -12"/>
<path d=" M 904 74 v 33 m 100 0 v -33"/>
<path d=" M 904 107 v 33 m 100 0 v -33"/>
<path d=" M 904 140 v 33 m 100 0 v -33"/>
<path d=" M 904 74 v 0 a 12 12 0 0 0 12 12 m 60 0 h 16 a 12 12 0 0 0 12 -12 v 0"/>
<g class="nonterminal">
<rect height="22" width="60" x="916" y="75"/>
<text x="946" y="91">
INPUT</text>
</g>
<path d=" M 904 107 v 0 a 12 12 0 0 0 12 12 m 68 0 h 8 a 12 12 0 0 0 12 -12 v 0"/>
<g class="nonterminal">
<rect height="22" width="68" x="916" y="108"/>
<text x="950" y="124">
OUTPUT</text>
</g>
<path d=" M 904 140 v 0 a 12 12 0 0 0 12 12 m 44 0 h 32 a 12 12 0 0 0 12 -12 v 0"/>
<g class="nonterminal">
<rect height="22" width="44" x="916" y="141"/>
<text x="938" y="157">
I_O</text>
</g>
<path d=" M 904 173 v 0 a 12 12 0 0 0 12 12 m 68 0 h 8 a 12 12 0 0 0 12 -12 v 0"/>
<g class="nonterminal">
<rect height="22" width="68" x="916" y="174"/>
<text x="950" y="190">
EXTEND</text>
</g>
</g>
<path d=" M 62 21 h 10"/>
<path d=" M 188 21 h 10"/>
<path d=" M 314 21 h 10"/>
<path d=" M 464 21 h 10"/>
<path d=" M 622 21 h 10"/>
<path d=" M 780 21 h 10"/>
<path d=" M 882 21 h 10"/>
</g>
</svg>
