<svg class="railroad" viewBox="0 0 706 207" xmlns="http://www.w3.org/2000/svg" xmlns:xlink="http://www.w3.org/1999/xlink">
<style type="text/css">

    svg.railroad {
        background-color: hsl(30, 20%, 95%);
        background-size: 15px 15px;
        background-image: linear-gradient(to right, rgba(30, 30, 30, .05) 1px, transparent 1px),
                          linear-gradient(to bottom, rgba(30, 30, 30, .05) 1px, transparent 1px);
    }

    svg.railroad path {
        stroke-width: 3px;
        stroke: black;
        fill: transparent;
    }

    svg.railroad .debug {
        stroke-width: 1px;
        stroke: red;
    }

    svg.railroad text {
        font: 14px monospace;
        text-anchor: middle;
    }

    svg.railroad .nonterminal text {
        font-weight: bold;
    }

    svg.railroad text.comment {
        font: italic 12px monospace;
    }

    svg.railroad rect {
        stroke-width: 3px;
        stroke: black;
        fill:hsl(-290, 70%, 90%);
    }

    svg.railroad g.labeledbox > rect {
        stroke-width: 1px;
        stroke: grey;
        stroke-dasharray: 5px;
        fill:rgba(90, 90, 150, .1);
    }</style>
<g class="choice">
<path d=" M 10 21 h 24 m 638 0 h 24"/>
<g class="sequence">
<g class="choice">
<path d=" M 34 21 h 24 m 178 0 h 24"/>
<g class="sequence">
<g class="nonterminal">
<rect height="22" width="44" x="58" y="10"/>
<text x="80" y="26">
eop</text>
</g>
<g class="choice">
<path d=" M 112 21 h 24 m 76 0 h 24"/>
<g class="nonterminal">
<rect height="22" width="76" x="136" y="10"/>
<text x="174" y="26">
not_eop</text>
</g>
<path d=" M 112 21 a 12 12 0 0 1 12 12 v 9 m 100 0 v -9 a 12 12 0 0 1 12 -12"/>
<path d=" M 124 42 v 0 a 12 12 0 0 0 12 12 m 0 0 h 76 m -35 0 l -5 -5 m 0 10 l 5 -5 m 35 0 a 12 12 0 0 0 12 -12 v 0"/>
<g/>
</g>
<path d=" M 102 21 h 10"/>
</g>
<path d=" M 34 21 a 12 12 0 0 1 12 12 v 31 m 202 0 v -31 a 12 12 0 0 1 12 -12"/>
<path d=" M 46 64 v 0 a 12 12 0 0 0 12 12 m 76 0 h 102 m -48 0 l -5 -5 m 0 10 l 5 -5 m 48 0 a 12 12 0 0 0 12 -12 v 0"/>
<g class="nonterminal">
<rect height="22" width="76" x="58" y="65"/>
<text x="96" y="81">
not_eop</text>
</g>
</g>
<g class="choice">
<path d=" M 270 21 h 24 m 354 0 h 24"/>
<g class="choice">
<path d=" M 294 21 h 24 m 306 0 h 24"/>
<g class="sequence">
<g class="nonterminal">
<rect height="22" width="108" x="318" y="10"/>
<text x="372" y="26">
invalid_key</text>
</g>
<g class="choice">
<path d=" M 436 21 h 24 m 140 0 h 24"/>
<g class="nonterminal">
<rect height="22" width="140" x="460" y="10"/>
<text x="530" y="26">
not_invalid_key</text>
</g>
<path d=" M 436 21 a 12 12 0 0 1 12 12 v 9 m 164 0 v -9 a 12 12 0 0 1 12 -12"/>
<path d=" M 448 42 v 0 a 12 12 0 0 0 12 12 m 0 0 h 140 m -67 0 l -5 -5 m 0 10 l 5 -5 m 67 0 a 12 12 0 0 0 12 -12 v 0"/>
<g/>
</g>
<path d=" M 426 21 h 10"/>
</g>
<path d=" M 294 21 a 12 12 0 0 1 12 12 v 31 m 330 0 v -31 a 12 12 0 0 1 12 -12"/>
<path d=" M 306 64 v 0 a 12 12 0 0 0 12 12 m 140 0 h 166 m -80 0 l -5 -5 m 0 10 l 5 -5 m 80 0 a 12 12 0 0 0 12 -12 v 0"/>
<g class="nonterminal">
<rect height="22" width="140" x="318" y="65"/>
<text x="388" y="81">
not_invalid_key</text>
</g>
</g>
<path d=" M 270 21 a 12 12 0 0 1 12 12 v 64 m 0 -29 l -5 -5 m 10 0 l -5 5 m 0 29 m 378 0 v -64 m 0 35 l -5 5 m 10 0 l -5 -5 m 0 -35 a 12 12 0 0 1 12 -12"/>
<path d=" M 282 97 v 0 a 12 12 0 0 0 12 12 m 0 0 h 354 m -174 0 l -5 -5 m 0 10 l 5 -5 m 174 0 a 12 12 0 0 0 12 -12 v 0"/>
<g/>
</g>
<path d=" M 260 21 h 10"/>
</g>
<path d=" M 10 21 a 12 12 0 0 1 12 12 v 86 m 0 -40 l -5 -5 m 10 0 l -5 5 m 0 40 m 662 0 v -86 m 0 46 l -5 5 m 10 0 l -5 -5 m 0 -46 a 12 12 0 0 1 12 -12"/>
<path d=" M 22 119 v 0 a 12 12 0 0 0 12 12 m 354 0 h 284 m -139 0 l -5 -5 m 0 10 l 5 -5 m 139 0 a 12 12 0 0 0 12 -12 v 0"/>
<g class="choice">
<path d=" M 34 131 h 24 m 306 0 h 24"/>
<g class="sequence">
<g class="nonterminal">
<rect height="22" width="108" x="58" y="120"/>
<text x="112" y="136">
invalid_key</text>
</g>
<g class="choice">
<path d=" M 176 131 h 24 m 140 0 h 24"/>
<g class="nonterminal">
<rect height="22" width="140" x="200" y="120"/>
<text x="270" y="136">
not_invalid_key</text>
</g>
<path d=" M 176 131 a 12 12 0 0 1 12 12 v 9 m 164 0 v -9 a 12 12 0 0 1 12 -12"/>
<path d=" M 188 152 v 0 a 12 12 0 0 0 12 12 m 0 0 h 140 m -67 0 l -5 -5 m 0 10 l 5 -5 m 67 0 a 12 12 0 0 0 12 -12 v 0"/>
<g/>
</g>
<path d=" M 166 131 h 10"/>
</g>
<path d=" M 34 131 a 12 12 0 0 1 12 12 v 31 m 330 0 v -31 a 12 12 0 0 1 12 -12"/>
<path d=" M 46 174 v 0 a 12 12 0 0 0 12 12 m 140 0 h 166 m -80 0 l -5 -5 m 0 10 l 5 -5 m 80 0 a 12 12 0 0 0 12 -12 v 0"/>
<g class="nonterminal">
<rect height="22" width="140" x="58" y="175"/>
<text x="128" y="191">
not_invalid_key</text>
</g>
</g>
</g>
</svg>
