<svg class="railroad" viewBox="0 0 348 75" xmlns="http://www.w3.org/2000/svg" xmlns:xlink="http://www.w3.org/1999/xlink">
<style type="text/css">

    svg.railroad {
        background-color: hsl(30, 20%, 95%);
        background-size: 15px 15px;
        background-image: linear-gradient(to right, rgba(30, 30, 30, .05) 1px, transparent 1px),
                          linear-gradient(to bottom, rgba(30, 30, 30, .05) 1px, transparent 1px);
    }

    svg.railroad path {
        stroke-width: 3px;
        stroke: black;
        fill: transparent;
    }

    svg.railroad .debug {
        stroke-width: 1px;
        stroke: red;
    }

    svg.railroad text {
        font: 14px monospace;
        text-anchor: middle;
    }

    svg.railroad .nonterminal text {
        font-weight: bold;
    }

    svg.railroad text.comment {
        font: italic 12px monospace;
    }

    svg.railroad rect {
        stroke-width: 3px;
        stroke: black;
        fill:hsl(-290, 70%, 90%);
    }

    svg.railroad g.labeledbox > rect {
        stroke-width: 1px;
        stroke: grey;
        stroke-dasharray: 5px;
        fill:rgba(90, 90, 150, .1);
    }</style>
<g class="sequence">
<g class="choice">
<path d=" M 10 21 h 24 m 106 0 h 24"/>
<g class="sequence">
<g class="nonterminal">
<rect height="22" width="52" x="34" y="10"/>
<text x="60" y="26">
_NOT</text>
</g>
<g class="nonterminal">
<rect height="22" width="44" x="96" y="10"/>
<text x="118" y="26">
_AT</text>
</g>
<path d=" M 86 21 h 10"/>
</g>
<path d=" M 10 21 a 12 12 0 0 1 12 12 v 9 m 130 0 v -9 a 12 12 0 0 1 12 -12"/>
<path d=" M 22 42 v 0 a 12 12 0 0 0 12 12 m 0 0 h 106 m -50 0 l -5 -5 m 0 10 l 5 -5 m 50 0 a 12 12 0 0 0 12 -12 v 0"/>
<g/>
</g>
<g class="choice">
<path d=" M 174 21 h 24 m 52 0 h 88 m -41 0 l -5 -5 m 0 10 l 5 -5 m 41 0"/>
<g class="nonterminal">
<rect height="22" width="52" x="198" y="10"/>
<text x="224" y="26">
_EOP</text>
</g>
<path d=" M 174 21 a 12 12 0 0 1 12 12 v 9 m 140 0 v -9 a 12 12 0 0 1 12 -12"/>
<path d=" M 186 42 v 0 a 12 12 0 0 0 12 12 m 116 0 h 0 a 12 12 0 0 0 12 -12 v 0"/>
<g class="nonterminal">
<rect height="22" width="116" x="198" y="43"/>
<text x="256" y="59">
_END_OF_PAGE</text>
</g>
</g>
<path d=" M 164 21 h 10"/>
</g>
</svg>
