<svg class="railroad" viewBox="0 0 168 273" xmlns="http://www.w3.org/2000/svg" xmlns:xlink="http://www.w3.org/1999/xlink">
<style type="text/css">

    svg.railroad {
        background-color: hsl(30, 20%, 95%);
        background-size: 15px 15px;
        background-image: linear-gradient(to right, rgba(30, 30, 30, .05) 1px, transparent 1px),
                          linear-gradient(to bottom, rgba(30, 30, 30, .05) 1px, transparent 1px);
    }

    svg.railroad path {
        stroke-width: 3px;
        stroke: black;
        fill: transparent;
    }

    svg.railroad .debug {
        stroke-width: 1px;
        stroke: red;
    }

    svg.railroad text {
        font: 14px monospace;
        text-anchor: middle;
    }

    svg.railroad .nonterminal text {
        font-weight: bold;
    }

    svg.railroad text.comment {
        font: italic 12px monospace;
    }

    svg.railroad rect {
        stroke-width: 3px;
        stroke: black;
        fill:hsl(-290, 70%, 90%);
    }

    svg.railroad g.labeledbox > rect {
        stroke-width: 1px;
        stroke: grey;
        stroke-dasharray: 5px;
        fill:rgba(90, 90, 150, .1);
    }</style>
<g class="choice">
<path d=" M 10 21 h 24 m 84 0 h 40"/>
<g class="nonterminal">
<rect height="22" width="84" x="34" y="10"/>
<text x="76" y="26">
_LITERAL</text>
</g>
<path d=" M 10 21 a 12 12 0 0 1 12 12 v 9 m 124 0 v -9 a 12 12 0 0 1 12 -12"/>
<path d=" M 22 42 v 33 m 124 0 v -33"/>
<path d=" M 22 75 v 33 m 124 0 v -33"/>
<path d=" M 22 108 v 33 m 124 0 v -33"/>
<path d=" M 22 141 v 33 m 124 0 v -33"/>
<path d=" M 22 174 v 33 m 124 0 v -33"/>
<path d=" M 22 207 v 33 m 124 0 v -33"/>
<path d=" M 22 42 v 0 a 12 12 0 0 0 12 12 m 60 0 h 40 a 12 12 0 0 0 12 -12 v 0"/>
<g class="nonterminal">
<rect height="22" width="60" x="34" y="43"/>
<text x="64" y="59">
SPACE</text>
</g>
<path d=" M 22 75 v 0 a 12 12 0 0 0 12 12 m 52 0 h 48 a 12 12 0 0 0 12 -12 v 0"/>
<g class="nonterminal">
<rect height="22" width="52" x="34" y="76"/>
<text x="60" y="92">
ZERO</text>
</g>
<path d=" M 22 108 v 0 a 12 12 0 0 0 12 12 m 60 0 h 40 a 12 12 0 0 0 12 -12 v 0"/>
<g class="nonterminal">
<rect height="22" width="60" x="34" y="109"/>
<text x="64" y="125">
ZEROS</text>
</g>
<path d=" M 22 141 v 0 a 12 12 0 0 0 12 12 m 60 0 h 40 a 12 12 0 0 0 12 -12 v 0"/>
<g class="nonterminal">
<rect height="22" width="60" x="34" y="142"/>
<text x="64" y="158">
QUOTE</text>
</g>
<path d=" M 22 174 v 0 a 12 12 0 0 0 12 12 m 100 0 h 0 a 12 12 0 0 0 12 -12 v 0"/>
<g class="nonterminal">
<rect height="22" width="100" x="34" y="175"/>
<text x="84" y="191">
HIGH_VALUE</text>
</g>
<path d=" M 22 207 v 0 a 12 12 0 0 0 12 12 m 92 0 h 8 a 12 12 0 0 0 12 -12 v 0"/>
<g class="nonterminal">
<rect height="22" width="92" x="34" y="208"/>
<text x="80" y="224">
LOW_VALUE</text>
</g>
<path d=" M 22 240 v 0 a 12 12 0 0 0 12 12 m 84 0 h 16 a 12 12 0 0 0 12 -12 v 0"/>
<g class="nonterminal">
<rect height="22" width="84" x="34" y="241"/>
<text x="76" y="257">
TOK_NULL</text>
</g>
</g>
</svg>
