<svg class="railroad" viewBox="0 0 356 64" xmlns="http://www.w3.org/2000/svg" xmlns:xlink="http://www.w3.org/1999/xlink">
<style type="text/css">

    svg.railroad {
        background-color: hsl(30, 20%, 95%);
        background-size: 15px 15px;
        background-image: linear-gradient(to right, rgba(30, 30, 30, .05) 1px, transparent 1px),
                          linear-gradient(to bottom, rgba(30, 30, 30, .05) 1px, transparent 1px);
    }

    svg.railroad path {
        stroke-width: 3px;
        stroke: black;
        fill: transparent;
    }

    svg.railroad .debug {
        stroke-width: 1px;
        stroke: red;
    }

    svg.railroad text {
        font: 14px monospace;
        text-anchor: middle;
    }

    svg.railroad .nonterminal text {
        font-weight: bold;
    }

    svg.railroad text.comment {
        font: italic 12px monospace;
    }

    svg.railroad rect {
        stroke-width: 3px;
        stroke: black;
        fill:hsl(-290, 70%, 90%);
    }

    svg.railroad g.labeledbox > rect {
        stroke-width: 1px;
        stroke: grey;
        stroke-dasharray: 5px;
        fill:rgba(90, 90, 150, .1);
    }</style>
<g class="sequence">
<g class="nonterminal">
<rect height="22" width="140" x="10" y="10"/>
<text x="80" y="26">
_LINAGE_COUNTER</text>
</g>
<g class="choice">
<path d=" M 160 21 h 24 m 138 0 h 24"/>
<g class="sequence">
<g class="nonterminal">
<rect height="22" width="68" x="184" y="10"/>
<text x="218" y="26">
_in_of</text>
</g>
<g class="nonterminal">
<rect height="22" width="60" x="262" y="10"/>
<text x="292" y="26">
_WORD</text>
</g>
<path d=" M 252 21 h 10"/>
</g>
<path d=" M 160 21 a 12 12 0 0 1 12 12 v 9 m 162 0 v -9 a 12 12 0 0 1 12 -12"/>
<path d=" M 172 42 v 0 a 12 12 0 0 0 12 12 m 0 0 h 138 m -66 0 l -5 -5 m 0 10 l 5 -5 m 66 0 a 12 12 0 0 0 12 -12 v 0"/>
<g/>
</g>
<path d=" M 150 21 h 10"/>
</g>
</svg>
