<svg class="railroad" viewBox="0 0 176 273" xmlns="http://www.w3.org/2000/svg" xmlns:xlink="http://www.w3.org/1999/xlink">
<style type="text/css">

    svg.railroad {
        background-color: hsl(30, 20%, 95%);
        background-size: 15px 15px;
        background-image: linear-gradient(to right, rgba(30, 30, 30, .05) 1px, transparent 1px),
                          linear-gradient(to bottom, rgba(30, 30, 30, .05) 1px, transparent 1px);
    }

    svg.railroad path {
        stroke-width: 3px;
        stroke: black;
        fill: transparent;
    }

    svg.railroad .debug {
        stroke-width: 1px;
        stroke: red;
    }

    svg.railroad text {
        font: 14px monospace;
        text-anchor: middle;
    }

    svg.railroad .nonterminal text {
        font-weight: bold;
    }

    svg.railroad text.comment {
        font: italic 12px monospace;
    }

    svg.railroad rect {
        stroke-width: 3px;
        stroke: black;
        fill:hsl(-290, 70%, 90%);
    }

    svg.railroad g.labeledbox > rect {
        stroke-width: 1px;
        stroke: grey;
        stroke-dasharray: 5px;
        fill:rgba(90, 90, 150, .1);
    }</style>
<g class="choice">
<path d=" M 10 21 h 24 m 100 0 h 32"/>
<g class="terminal">
<rect height="22" rx="10" ry="10" width="100" x="34" y="10"/>
<text x="84" y="26">
N&#x27;[^&#x27;\n]*&#x27;</text>
</g>
<path d=" M 10 21 a 12 12 0 0 1 12 12 v 9 m 132 0 v -9 a 12 12 0 0 1 12 -12"/>
<path d=" M 22 42 v 33 m 132 0 v -33"/>
<path d=" M 22 75 v 33 m 132 0 v -33"/>
<path d=" M 22 108 v 33 m 132 0 v -33"/>
<path d=" M 22 141 v 33 m 132 0 v -33"/>
<path d=" M 22 174 v 33 m 132 0 v -33"/>
<path d=" M 22 207 v 33 m 132 0 v -33"/>
<path d=" M 22 42 v 0 a 12 12 0 0 0 12 12 m 100 0 h 8 a 12 12 0 0 0 12 -12 v 0"/>
<g class="terminal">
<rect height="22" rx="10" ry="10" width="100" x="34" y="43"/>
<text x="84" y="59">
N&quot;[^&quot;\n]*&quot;</text>
</g>
<path d=" M 22 75 v 0 a 12 12 0 0 0 12 12 m 108 0 h 0 a 12 12 0 0 0 12 -12 v 0"/>
<g class="terminal">
<rect height="22" rx="10" ry="10" width="108" x="34" y="76"/>
<text x="88" y="92">
NC&#x27;[^&#x27;\n]*&#x27;</text>
</g>
<path d=" M 22 108 v 0 a 12 12 0 0 0 12 12 m 108 0 h 0 a 12 12 0 0 0 12 -12 v 0"/>
<g class="terminal">
<rect height="22" rx="10" ry="10" width="108" x="34" y="109"/>
<text x="88" y="125">
NC&quot;[^&quot;\n]*&quot;</text>
</g>
<path d=" M 22 141 v 0 a 12 12 0 0 0 12 12 m 108 0 h 0 a 12 12 0 0 0 12 -12 v 0"/>
<g class="terminal">
<rect height="22" rx="10" ry="10" width="108" x="34" y="142"/>
<text x="88" y="158">
ND&#x27;[^&#x27;\n]*&#x27;</text>
</g>
<path d=" M 22 174 v 0 a 12 12 0 0 0 12 12 m 108 0 h 0 a 12 12 0 0 0 12 -12 v 0"/>
<g class="terminal">
<rect height="22" rx="10" ry="10" width="108" x="34" y="175"/>
<text x="88" y="191">
ND&quot;[^&quot;\n]*&quot;</text>
</g>
<path d=" M 22 207 v 0 a 12 12 0 0 0 12 12 m 108 0 h 0 a 12 12 0 0 0 12 -12 v 0"/>
<g class="terminal">
<rect height="22" rx="10" ry="10" width="108" x="34" y="208"/>
<text x="88" y="224">
NX&#x27;[^&#x27;\n]*&#x27;</text>
</g>
<path d=" M 22 240 v 0 a 12 12 0 0 0 12 12 m 108 0 h 0 a 12 12 0 0 0 12 -12 v 0"/>
<g class="terminal">
<rect height="22" rx="10" ry="10" width="108" x="34" y="241"/>
<text x="88" y="257">
NX&quot;[^&quot;\n]*&quot;</text>
</g>
</g>
</svg>
