<svg class="railroad" viewBox="0 0 168 603" xmlns="http://www.w3.org/2000/svg" xmlns:xlink="http://www.w3.org/1999/xlink">
<style type="text/css">

    svg.railroad {
        background-color: hsl(30, 20%, 95%);
        background-size: 15px 15px;
        background-image: linear-gradient(to right, rgba(30, 30, 30, .05) 1px, transparent 1px),
                          linear-gradient(to bottom, rgba(30, 30, 30, .05) 1px, transparent 1px);
    }

    svg.railroad path {
        stroke-width: 3px;
        stroke: black;
        fill: transparent;
    }

    svg.railroad .debug {
        stroke-width: 1px;
        stroke: red;
    }

    svg.railroad text {
        font: 14px monospace;
        text-anchor: middle;
    }

    svg.railroad .nonterminal text {
        font-weight: bold;
    }

    svg.railroad text.comment {
        font: italic 12px monospace;
    }

    svg.railroad rect {
        stroke-width: 3px;
        stroke: black;
        fill:hsl(-290, 70%, 90%);
    }

    svg.railroad g.labeledbox > rect {
        stroke-width: 1px;
        stroke: grey;
        stroke-dasharray: 5px;
        fill:rgba(90, 90, 150, .1);
    }</style>
<g class="choice">
<path d=" M 10 21 h 24 m 92 0 h 32"/>
<g class="terminal">
<rect height="22" rx="10" ry="10" width="92" x="34" y="10"/>
<text x="80" y="26">
low-value</text>
</g>
<path d=" M 10 21 a 12 12 0 0 1 12 12 v 9 m 124 0 v -9 a 12 12 0 0 1 12 -12"/>
<path d=" M 22 42 v 33 m 124 0 v -33"/>
<path d=" M 22 75 v 33 m 124 0 v -33"/>
<path d=" M 22 108 v 33 m 124 0 v -33"/>
<path d=" M 22 141 v 33 m 124 0 v -33"/>
<path d=" M 22 174 v 33 m 124 0 v -33"/>
<path d=" M 22 207 v 33 m 124 0 v -33"/>
<path d=" M 22 240 v 33 m 124 0 v -33"/>
<path d=" M 22 273 v 33 m 124 0 v -33"/>
<path d=" M 22 306 v 33 m 124 0 v -33"/>
<path d=" M 22 339 v 33 m 124 0 v -33"/>
<path d=" M 22 372 v 33 m 124 0 v -33"/>
<path d=" M 22 405 v 33 m 124 0 v -33"/>
<path d=" M 22 438 v 33 m 124 0 v -33"/>
<path d=" M 22 471 v 33 m 124 0 v -33"/>
<path d=" M 22 504 v 33 m 124 0 v -33"/>
<path d=" M 22 537 v 33 m 124 0 v -33"/>
<path d=" M 22 42 v 0 a 12 12 0 0 0 12 12 m 92 0 h 8 a 12 12 0 0 0 12 -12 v 0"/>
<g class="terminal">
<rect height="22" rx="10" ry="10" width="92" x="34" y="43"/>
<text x="80" y="59">
low-Value</text>
</g>
<path d=" M 22 75 v 0 a 12 12 0 0 0 12 12 m 92 0 h 8 a 12 12 0 0 0 12 -12 v 0"/>
<g class="terminal">
<rect height="22" rx="10" ry="10" width="92" x="34" y="76"/>
<text x="80" y="92">
low-VALUE</text>
</g>
<path d=" M 22 108 v 0 a 12 12 0 0 0 12 12 m 92 0 h 8 a 12 12 0 0 0 12 -12 v 0"/>
<g class="terminal">
<rect height="22" rx="10" ry="10" width="92" x="34" y="109"/>
<text x="80" y="125">
Low-value</text>
</g>
<path d=" M 22 141 v 0 a 12 12 0 0 0 12 12 m 92 0 h 8 a 12 12 0 0 0 12 -12 v 0"/>
<g class="terminal">
<rect height="22" rx="10" ry="10" width="92" x="34" y="142"/>
<text x="80" y="158">
Low-Value</text>
</g>
<path d=" M 22 174 v 0 a 12 12 0 0 0 12 12 m 92 0 h 8 a 12 12 0 0 0 12 -12 v 0"/>
<g class="terminal">
<rect height="22" rx="10" ry="10" width="92" x="34" y="175"/>
<text x="80" y="191">
Low-VALUE</text>
</g>
<path d=" M 22 207 v 0 a 12 12 0 0 0 12 12 m 92 0 h 8 a 12 12 0 0 0 12 -12 v 0"/>
<g class="terminal">
<rect height="22" rx="10" ry="10" width="92" x="34" y="208"/>
<text x="80" y="224">
LOW-value</text>
</g>
<path d=" M 22 240 v 0 a 12 12 0 0 0 12 12 m 92 0 h 8 a 12 12 0 0 0 12 -12 v 0"/>
<g class="terminal">
<rect height="22" rx="10" ry="10" width="92" x="34" y="241"/>
<text x="80" y="257">
LOW-Value</text>
</g>
<path d=" M 22 273 v 0 a 12 12 0 0 0 12 12 m 92 0 h 8 a 12 12 0 0 0 12 -12 v 0"/>
<g class="terminal">
<rect height="22" rx="10" ry="10" width="92" x="34" y="274"/>
<text x="80" y="290">
LOW-VALUE</text>
</g>
<path d=" M 22 306 v 0 a 12 12 0 0 0 12 12 m 100 0 h 0 a 12 12 0 0 0 12 -12 v 0"/>
<g class="terminal">
<rect height="22" rx="10" ry="10" width="100" x="34" y="307"/>
<text x="84" y="323">
low-values</text>
</g>
<path d=" M 22 339 v 0 a 12 12 0 0 0 12 12 m 100 0 h 0 a 12 12 0 0 0 12 -12 v 0"/>
<g class="terminal">
<rect height="22" rx="10" ry="10" width="100" x="34" y="340"/>
<text x="84" y="356">
low-Values</text>
</g>
<path d=" M 22 372 v 0 a 12 12 0 0 0 12 12 m 100 0 h 0 a 12 12 0 0 0 12 -12 v 0"/>
<g class="terminal">
<rect height="22" rx="10" ry="10" width="100" x="34" y="373"/>
<text x="84" y="389">
low-VALUES</text>
</g>
<path d=" M 22 405 v 0 a 12 12 0 0 0 12 12 m 100 0 h 0 a 12 12 0 0 0 12 -12 v 0"/>
<g class="terminal">
<rect height="22" rx="10" ry="10" width="100" x="34" y="406"/>
<text x="84" y="422">
Low-values</text>
</g>
<path d=" M 22 438 v 0 a 12 12 0 0 0 12 12 m 100 0 h 0 a 12 12 0 0 0 12 -12 v 0"/>
<g class="terminal">
<rect height="22" rx="10" ry="10" width="100" x="34" y="439"/>
<text x="84" y="455">
Low-Values</text>
</g>
<path d=" M 22 471 v 0 a 12 12 0 0 0 12 12 m 100 0 h 0 a 12 12 0 0 0 12 -12 v 0"/>
<g class="terminal">
<rect height="22" rx="10" ry="10" width="100" x="34" y="472"/>
<text x="84" y="488">
Low-VALUES</text>
</g>
<path d=" M 22 504 v 0 a 12 12 0 0 0 12 12 m 100 0 h 0 a 12 12 0 0 0 12 -12 v 0"/>
<g class="terminal">
<rect height="22" rx="10" ry="10" width="100" x="34" y="505"/>
<text x="84" y="521">
LOW-values</text>
</g>
<path d=" M 22 537 v 0 a 12 12 0 0 0 12 12 m 100 0 h 0 a 12 12 0 0 0 12 -12 v 0"/>
<g class="terminal">
<rect height="22" rx="10" ry="10" width="100" x="34" y="538"/>
<text x="84" y="554">
LOW-Values</text>
</g>
<path d=" M 22 570 v 0 a 12 12 0 0 0 12 12 m 100 0 h 0 a 12 12 0 0 0 12 -12 v 0"/>
<g class="terminal">
<rect height="22" rx="10" ry="10" width="100" x="34" y="571"/>
<text x="84" y="587">
LOW-VALUES</text>
</g>
</g>
</svg>
